<svg width="45" height="39" viewBox="0 0 45 39" fill="none" xmlns="http://www.w3.org/2000/svg">
<g filter="url(#filter0_d_1270_1670)">
<path d="M22.4143 20.0615C28.1849 20.0615 33.1122 21.0587 33.1122 25.0495C33.1122 29.0386 28.2165 30.0722 22.4143 30.0722C16.6436 30.0722 11.7163 29.0749 11.7163 25.0858C11.7163 21.0951 16.612 20.0615 22.4143 20.0615ZM31.6408 17.6584C33.847 17.6138 36.2188 17.9441 37.0952 18.1785C38.952 18.5764 40.1733 19.3888 40.6792 20.5693C41.1069 21.5386 41.1069 22.663 40.6792 23.6305C39.9052 25.4616 37.4099 26.0494 36.4401 26.2013C36.2398 26.2343 36.0787 26.0444 36.0998 25.8249C36.5952 20.751 32.6543 18.3453 31.6348 17.7922C31.5911 17.7674 31.5821 17.7294 31.5866 17.7063C31.5896 17.6898 31.6077 17.6634 31.6408 17.6584ZM13.3603 17.6591C13.3935 17.664 13.41 17.6905 13.413 17.7053C13.4176 17.7301 13.4085 17.7664 13.3663 17.7928C12.3453 18.346 8.40439 20.7516 8.89984 25.8239C8.92092 26.0451 8.76129 26.2333 8.56101 26.202C7.59121 26.0501 5.09592 25.4623 4.32189 23.6312C3.8927 22.662 3.8927 21.5392 4.32189 20.57C4.82787 19.3895 6.04765 18.5771 7.90443 18.1775C8.78238 17.9447 11.1527 17.6145 13.3603 17.6591ZM22.4143 0.73877C26.3432 0.73877 29.4935 4.1896 29.4935 8.49902C29.4935 12.8068 26.3432 16.2609 22.4143 16.2609C18.4854 16.2609 15.335 12.8068 15.335 8.49902C15.335 4.1896 18.4854 0.73877 22.4143 0.73877ZM32.0248 2.03292C35.8197 2.03292 38.7999 5.94771 37.7849 10.3083C37.0997 13.244 34.6195 15.194 31.8561 15.1147C31.5791 15.1065 31.3065 15.0784 31.043 15.0289C30.8517 14.9925 30.7553 14.7564 30.8638 14.5814C31.9179 12.8808 32.5187 10.835 32.5187 8.63903C32.5187 6.34728 31.8622 4.21074 30.7222 2.4589C30.6861 2.40442 30.659 2.32021 30.6951 2.25747C30.7252 2.20628 30.7809 2.17986 30.8336 2.16666C31.2176 2.0808 31.6122 2.03292 32.0248 2.03292ZM12.9741 2.03275C13.3867 2.03275 13.7812 2.08063 14.1667 2.16649C14.2179 2.1797 14.2752 2.20777 14.3053 2.2573C14.3399 2.32004 14.3143 2.40425 14.2782 2.45874C13.1382 4.21057 12.4816 6.34712 12.4816 8.63887C12.4816 10.8349 13.0825 12.8806 14.1366 14.5812C14.245 14.7563 14.1487 14.9924 13.9574 15.0287C13.6924 15.0799 13.4213 15.1063 13.1442 15.1145C10.3809 15.1938 7.90067 13.2438 7.21548 10.3081C6.199 5.94755 9.17918 2.03275 12.9741 2.03275Z" fill="white"/>
</g>
<defs>
<filter id="filter0_d_1270_1670" x="0" y="0.73877" width="45" height="37.3335" filterUnits="userSpaceOnUse" color-interpolation-filters="sRGB">
<feFlood flood-opacity="0" result="BackgroundImageFix"/>
<feColorMatrix in="SourceAlpha" type="matrix" values="0 0 0 0 0 0 0 0 0 0 0 0 0 0 0 0 0 0 127 0" result="hardAlpha"/>
<feOffset dy="4"/>
<feGaussianBlur stdDeviation="2"/>
<feComposite in2="hardAlpha" operator="out"/>
<feColorMatrix type="matrix" values="0 0 0 0 0 0 0 0 0 0 0 0 0 0 0 0 0 0 0.25 0"/>
<feBlend mode="normal" in2="BackgroundImageFix" result="effect1_dropShadow_1270_1670"/>
<feBlend mode="normal" in="SourceGraphic" in2="effect1_dropShadow_1270_1670" result="shape"/>
</filter>
</defs>
</svg>
