<svg width="262" height="226" viewBox="0 0 262 226" fill="none" xmlns="http://www.w3.org/2000/svg">
<path fill-rule="evenodd" clip-rule="evenodd" d="M0 5C0 2.23857 2.23858 0 5 0H257C259.761 0 262 2.23858 262 5V221C262 223.761 259.761 226 257 226H5C2.23858 226 0 223.761 0 221V5ZM36 23C36 30.1797 30.1797 36 23 36C15.8203 36 10 30.1797 10 23C10 15.8203 15.8203 10 23 10C30.1797 10 36 15.8203 36 23ZM23 72C30.1797 72 36 66.1797 36 59C36 51.8203 30.1797 46 23 46C15.8203 46 10 51.8203 10 59C10 66.1797 15.8203 72 23 72ZM36 95C36 102.18 30.1797 108 23 108C15.8203 108 10 102.18 10 95C10 87.8203 15.8203 82 23 82C30.1797 82 36 87.8203 36 95ZM23 144C30.1797 144 36 138.18 36 131C36 123.82 30.1797 118 23 118C15.8203 118 10 123.82 10 131C10 138.18 15.8203 144 23 144ZM36 167C36 174.18 30.1797 180 23 180C15.8203 180 10 174.18 10 167C10 159.82 15.8203 154 23 154C30.1797 154 36 159.82 36 167ZM23 216C30.1797 216 36 210.18 36 203C36 195.82 30.1797 190 23 190C15.8203 190 10 195.82 10 203C10 210.18 15.8203 216 23 216ZM108 23C108 30.1797 102.18 36 95 36C87.8203 36 82 30.1797 82 23C82 15.8203 87.8203 10 95 10C102.18 10 108 15.8203 108 23ZM95 72C102.18 72 108 66.1797 108 59C108 51.8203 102.18 46 95 46C87.8203 46 82 51.8203 82 59C82 66.1797 87.8203 72 95 72ZM108 95C108 102.18 102.18 108 95 108C87.8203 108 82 102.18 82 95C82 87.8203 87.8203 82 95 82C102.18 82 108 87.8203 108 95ZM95 144C102.18 144 108 138.18 108 131C108 123.82 102.18 118 95 118C87.8203 118 82 123.82 82 131C82 138.18 87.8203 144 95 144ZM108 167C108 174.18 102.18 180 95 180C87.8203 180 82 174.18 82 167C82 159.82 87.8203 154 95 154C102.18 154 108 159.82 108 167ZM95 216C102.18 216 108 210.18 108 203C108 195.82 102.18 190 95 190C87.8203 190 82 195.82 82 203C82 210.18 87.8203 216 95 216ZM180 23C180 30.1797 174.18 36 167 36C159.82 36 154 30.1797 154 23C154 15.8203 159.82 10 167 10C174.18 10 180 15.8203 180 23ZM167 72C174.18 72 180 66.1797 180 59C180 51.8203 174.18 46 167 46C159.82 46 154 51.8203 154 59C154 66.1797 159.82 72 167 72ZM180 95C180 102.18 174.18 108 167 108C159.82 108 154 102.18 154 95C154 87.8203 159.82 82 167 82C174.18 82 180 87.8203 180 95ZM167 144C174.18 144 180 138.18 180 131C180 123.82 174.18 118 167 118C159.82 118 154 123.82 154 131C154 138.18 159.82 144 167 144ZM180 167C180 174.18 174.18 180 167 180C159.82 180 154 174.18 154 167C154 159.82 159.82 154 167 154C174.18 154 180 159.82 180 167ZM167 216C174.18 216 180 210.18 180 203C180 195.82 174.18 190 167 190C159.82 190 154 195.82 154 203C154 210.18 159.82 216 167 216ZM72 23C72 30.1797 66.1797 36 59 36C51.8203 36 46 30.1797 46 23C46 15.8203 51.8203 10 59 10C66.1797 10 72 15.8203 72 23ZM59 72C66.1797 72 72 66.1797 72 59C72 51.8203 66.1797 46 59 46C51.8203 46 46 51.8203 46 59C46 66.1797 51.8203 72 59 72ZM72 95C72 102.18 66.1797 108 59 108C51.8203 108 46 102.18 46 95C46 87.8203 51.8203 82 59 82C66.1797 82 72 87.8203 72 95ZM59 144C66.1797 144 72 138.18 72 131C72 123.82 66.1797 118 59 118C51.8203 118 46 123.82 46 131C46 138.18 51.8203 144 59 144ZM72 167C72 174.18 66.1797 180 59 180C51.8203 180 46 174.18 46 167C46 159.82 51.8203 154 59 154C66.1797 154 72 159.82 72 167ZM59 216C66.1797 216 72 210.18 72 203C72 195.82 66.1797 190 59 190C51.8203 190 46 195.82 46 203C46 210.18 51.8203 216 59 216ZM144 23C144 30.1797 138.18 36 131 36C123.82 36 118 30.1797 118 23C118 15.8203 123.82 10 131 10C138.18 10 144 15.8203 144 23ZM131 72C138.18 72 144 66.1797 144 59C144 51.8203 138.18 46 131 46C123.82 46 118 51.8203 118 59C118 66.1797 123.82 72 131 72ZM144 95C144 102.18 138.18 108 131 108C123.82 108 118 102.18 118 95C118 87.8203 123.82 82 131 82C138.18 82 144 87.8203 144 95ZM131 144C138.18 144 144 138.18 144 131C144 123.82 138.18 118 131 118C123.82 118 118 123.82 118 131C118 138.18 123.82 144 131 144ZM144 167C144 174.18 138.18 180 131 180C123.82 180 118 174.18 118 167C118 159.82 123.82 154 131 154C138.18 154 144 159.82 144 167ZM131 216C138.18 216 144 210.18 144 203C144 195.82 138.18 190 131 190C123.82 190 118 195.82 118 203C118 210.18 123.82 216 131 216ZM216 23C216 30.1797 210.18 36 203 36C195.82 36 190 30.1797 190 23C190 15.8203 195.82 10 203 10C210.18 10 216 15.8203 216 23ZM203 72C210.18 72 216 66.1797 216 59C216 51.8203 210.18 46 203 46C195.82 46 190 51.8203 190 59C190 66.1797 195.82 72 203 72ZM216 95C216 102.18 210.18 108 203 108C195.82 108 190 102.18 190 95C190 87.8203 195.82 82 203 82C210.18 82 216 87.8203 216 95ZM203 144C210.18 144 216 138.18 216 131C216 123.82 210.18 118 203 118C195.82 118 190 123.82 190 131C190 138.18 195.82 144 203 144ZM216 167C216 174.18 210.18 180 203 180C195.82 180 190 174.18 190 167C190 159.82 195.82 154 203 154C210.18 154 216 159.82 216 167ZM203 216C210.18 216 216 210.18 216 203C216 195.82 210.18 190 203 190C195.82 190 190 195.82 190 203C190 210.18 195.82 216 203 216ZM252 23C252 30.1797 246.18 36 239 36C231.82 36 226 30.1797 226 23C226 15.8203 231.82 10 239 10C246.18 10 252 15.8203 252 23ZM239 72C246.18 72 252 66.1797 252 59C252 51.8203 246.18 46 239 46C231.82 46 226 51.8203 226 59C226 66.1797 231.82 72 239 72ZM252 95C252 102.18 246.18 108 239 108C231.82 108 226 102.18 226 95C226 87.8203 231.82 82 239 82C246.18 82 252 87.8203 252 95ZM239 144C246.18 144 252 138.18 252 131C252 123.82 246.18 118 239 118C231.82 118 226 123.82 226 131C226 138.18 231.82 144 239 144ZM252 167C252 174.18 246.18 180 239 180C231.82 180 226 174.18 226 167C226 159.82 231.82 154 239 154C246.18 154 252 159.82 252 167ZM239 216C246.18 216 252 210.18 252 203C252 195.82 246.18 190 239 190C231.82 190 226 195.82 226 203C226 210.18 231.82 216 239 216Z" fill="#EAE6E6"/>
</svg>
