<svg width="862" height="707" viewBox="0 0 862 707" fill="none" xmlns="http://www.w3.org/2000/svg">
<g filter="url(#filter0_dd_2551_2452)">
<mask id="path-1-inside-1_2551_2452" fill="white">
<path fill-rule="evenodd" clip-rule="evenodd" d="M18 24C18 16.268 24.268 10 32 10H830C837.732 10 844 16.268 844 24V667C844 674.732 837.732 681 830 681H32C24.268 681 18 674.732 18 667V24ZM146.467 79.6412C146.467 103.03 126.246 121.99 101.302 121.99C76.3591 121.99 56.1384 103.03 56.1384 79.6412C56.1384 56.2524 76.3591 37.292 101.302 37.292C126.246 37.292 146.467 56.2524 146.467 79.6412ZM105.317 229.275C130.261 229.275 150.481 210.314 150.481 186.925C150.481 163.537 130.261 144.576 105.317 144.576C80.3739 144.576 60.1532 163.537 60.1532 186.925C60.1532 210.314 80.3739 229.275 105.317 229.275ZM150.481 294.211C150.481 317.599 130.261 336.56 105.317 336.56C80.3739 336.56 60.1532 317.599 60.1532 294.211C60.1532 270.822 80.3739 251.861 105.317 251.861C130.261 251.861 150.481 270.822 150.481 294.211ZM105.317 443.844C130.261 443.844 150.481 424.884 150.481 401.495C150.481 378.106 130.261 359.146 105.317 359.146C80.3739 359.146 60.1532 378.106 60.1532 401.495C60.1532 424.884 80.3739 443.844 105.317 443.844ZM156.503 508.78C156.503 532.169 136.283 551.129 111.339 551.129C86.3957 551.129 66.1751 532.169 66.1751 508.78C66.1751 485.391 86.3957 466.431 111.339 466.431C136.283 466.431 156.503 485.391 156.503 508.78ZM114.35 658.413C139.293 658.413 159.514 639.453 159.514 616.064C159.514 592.675 139.293 573.715 114.35 573.715C89.4064 573.715 69.1858 592.675 69.1858 616.064C69.1858 639.453 89.4064 658.413 114.35 658.413ZM367.268 77.7584C367.268 101.147 347.048 120.108 322.104 120.108C297.161 120.108 276.94 101.147 276.94 77.7584C276.94 54.3696 297.161 35.4092 322.104 35.4092C347.048 35.4092 367.268 54.3696 367.268 77.7584ZM326.119 227.393C351.063 227.393 371.283 208.432 371.283 185.044C371.283 161.655 351.063 142.694 326.119 142.694C301.176 142.694 280.955 161.655 280.955 185.044C280.955 208.432 301.176 227.393 326.119 227.393ZM371.283 292.328C371.283 315.717 351.063 334.677 326.119 334.677C301.176 334.677 280.955 315.717 280.955 292.328C280.955 268.939 301.176 249.979 326.119 249.979C351.063 249.979 371.283 268.939 371.283 292.328ZM326.119 441.962C351.063 441.962 371.283 423.002 371.283 399.613C371.283 376.224 351.063 357.264 326.119 357.264C301.176 357.264 280.955 376.224 280.955 399.613C280.955 423.002 301.176 441.962 326.119 441.962ZM377.305 506.898C377.305 530.287 357.084 549.247 332.141 549.247C307.198 549.247 286.977 530.287 286.977 506.898C286.977 483.509 307.198 464.549 332.141 464.549C357.084 464.549 377.305 483.509 377.305 506.898ZM335.152 656.531C360.095 656.531 380.316 637.571 380.316 614.182C380.316 590.793 360.095 571.833 335.152 571.833C310.209 571.833 289.988 590.793 289.988 614.182C289.988 637.571 310.209 656.531 335.152 656.531ZM588.07 77.7584C588.07 101.147 567.85 120.108 542.906 120.108C517.963 120.108 497.742 101.147 497.742 77.7584C497.742 54.3696 517.963 35.4092 542.906 35.4092C567.85 35.4092 588.07 54.3696 588.07 77.7584ZM546.921 227.393C571.865 227.393 592.085 208.432 592.085 185.044C592.085 161.655 571.865 142.694 546.921 142.694C521.978 142.694 501.757 161.655 501.757 185.044C501.757 208.432 521.978 227.393 546.921 227.393ZM592.085 292.328C592.085 315.717 571.865 334.677 546.921 334.677C521.978 334.677 501.757 315.717 501.757 292.328C501.757 268.939 521.978 249.979 546.921 249.979C571.865 249.979 592.085 268.939 592.085 292.328ZM546.921 441.962C571.865 441.962 592.085 423.002 592.085 399.613C592.085 376.224 571.865 357.264 546.921 357.264C521.978 357.264 501.757 376.224 501.757 399.613C501.757 423.002 521.978 441.962 546.921 441.962ZM598.107 506.898C598.107 530.287 577.886 549.247 552.943 549.247C528 549.247 507.779 530.287 507.779 506.898C507.779 483.509 528 464.549 552.943 464.549C577.886 464.549 598.107 483.509 598.107 506.898ZM555.954 656.531C580.897 656.531 601.118 637.571 601.118 614.182C601.118 590.793 580.897 571.833 555.954 571.833C531.01 571.833 510.79 590.793 510.79 614.182C510.79 637.571 531.01 656.531 555.954 656.531ZM256.868 79.6412C256.868 103.03 236.647 121.99 211.704 121.99C186.76 121.99 166.54 103.03 166.54 79.6412C166.54 56.2524 186.76 37.292 211.704 37.292C236.647 37.292 256.868 56.2524 256.868 79.6412ZM215.718 229.275C240.661 229.275 260.882 210.314 260.882 186.925C260.882 163.537 240.661 144.576 215.718 144.576C190.775 144.576 170.554 163.537 170.554 186.925C170.554 210.314 190.775 229.275 215.718 229.275ZM260.882 294.211C260.882 317.599 240.661 336.56 215.718 336.56C190.775 336.56 170.554 317.599 170.554 294.211C170.554 270.822 190.775 251.861 215.718 251.861C240.661 251.861 260.882 270.822 260.882 294.211ZM215.718 443.844C240.661 443.844 260.882 424.884 260.882 401.495C260.882 378.106 240.661 359.146 215.718 359.146C190.775 359.146 170.554 378.106 170.554 401.495C170.554 424.884 190.775 443.844 215.718 443.844ZM266.904 508.78C266.904 532.169 246.683 551.129 221.74 551.129C196.797 551.129 176.576 532.169 176.576 508.78C176.576 485.391 196.797 466.431 221.74 466.431C246.683 466.431 266.904 485.391 266.904 508.78ZM224.751 658.413C249.694 658.413 269.915 639.453 269.915 616.064C269.915 592.675 249.694 573.715 224.751 573.715C199.808 573.715 179.587 592.675 179.587 616.064C179.587 639.453 199.808 658.413 224.751 658.413ZM477.67 77.7584C477.67 101.147 457.449 120.108 432.506 120.108C407.562 120.108 387.341 101.147 387.341 77.7584C387.341 54.3696 407.562 35.4092 432.506 35.4092C457.449 35.4092 477.67 54.3696 477.67 77.7584ZM436.52 227.393C461.463 227.393 481.684 208.432 481.684 185.044C481.684 161.655 461.463 142.694 436.52 142.694C411.577 142.694 391.356 161.655 391.356 185.044C391.356 208.432 411.577 227.393 436.52 227.393ZM481.684 292.328C481.684 315.717 461.463 334.677 436.52 334.677C411.577 334.677 391.356 315.717 391.356 292.328C391.356 268.939 411.577 249.979 436.52 249.979C461.463 249.979 481.684 268.939 481.684 292.328ZM436.52 441.962C461.463 441.962 481.684 423.002 481.684 399.613C481.684 376.224 461.463 357.264 436.52 357.264C411.577 357.264 391.356 376.224 391.356 399.613C391.356 423.002 411.577 441.962 436.52 441.962ZM487.706 506.898C487.706 530.287 467.485 549.247 442.542 549.247C417.598 549.247 397.378 530.287 397.378 506.898C397.378 483.509 417.598 464.549 442.542 464.549C467.485 464.549 487.706 483.509 487.706 506.898ZM445.553 656.531C470.496 656.531 490.717 637.571 490.717 614.182C490.717 590.793 470.496 571.833 445.553 571.833C420.609 571.833 400.389 590.793 400.389 614.182C400.389 637.571 420.609 656.531 445.553 656.531ZM698.471 77.7584C698.471 101.147 678.251 120.108 653.307 120.108C628.364 120.108 608.143 101.147 608.143 77.7584C608.143 54.3696 628.364 35.4092 653.307 35.4092C678.251 35.4092 698.471 54.3696 698.471 77.7584ZM657.322 227.393C682.265 227.393 702.486 208.432 702.486 185.044C702.486 161.655 682.265 142.694 657.322 142.694C632.379 142.694 612.158 161.655 612.158 185.044C612.158 208.432 632.379 227.393 657.322 227.393ZM702.486 292.328C702.486 315.717 682.265 334.677 657.322 334.677C632.379 334.677 612.158 315.717 612.158 292.328C612.158 268.939 632.379 249.979 657.322 249.979C682.265 249.979 702.486 268.939 702.486 292.328ZM657.322 441.962C682.265 441.962 702.486 423.002 702.486 399.613C702.486 376.224 682.265 357.264 657.322 357.264C632.379 357.264 612.158 376.224 612.158 399.613C612.158 423.002 632.379 441.962 657.322 441.962ZM708.508 506.898C708.508 530.287 688.287 549.247 663.344 549.247C638.4 549.247 618.18 530.287 618.18 506.898C618.18 483.509 638.4 464.549 663.344 464.549C688.287 464.549 708.508 483.509 708.508 506.898ZM666.355 656.531C691.298 656.531 711.519 637.571 711.519 614.182C711.519 590.793 691.298 571.833 666.355 571.833C641.411 571.833 621.191 590.793 621.191 614.182C621.191 637.571 641.411 656.531 666.355 656.531ZM808.872 75.8766C808.872 99.2654 788.652 118.226 763.708 118.226C738.765 118.226 718.544 99.2654 718.544 75.8766C718.544 52.4877 738.765 33.5273 763.708 33.5273C788.652 33.5273 808.872 52.4877 808.872 75.8766ZM767.723 225.511C792.667 225.511 812.887 206.551 812.887 183.162C812.887 159.773 792.667 140.812 767.723 140.812C742.78 140.812 722.559 159.773 722.559 183.162C722.559 206.551 742.78 225.511 767.723 225.511ZM812.887 290.446C812.887 313.835 792.667 332.795 767.723 332.795C742.78 332.795 722.559 313.835 722.559 290.446C722.559 267.057 742.78 248.097 767.723 248.097C792.667 248.097 812.887 267.057 812.887 290.446ZM767.723 440.08C792.667 440.08 812.887 421.12 812.887 397.731C812.887 374.342 792.667 355.382 767.723 355.382C742.78 355.382 722.559 374.342 722.559 397.731C722.559 421.12 742.78 440.08 767.723 440.08ZM818.909 505.015C818.909 528.404 798.688 547.365 773.745 547.365C748.801 547.365 728.581 528.404 728.581 505.015C728.581 481.626 748.801 462.666 773.745 462.666C798.688 462.666 818.909 481.626 818.909 505.015ZM776.756 654.65C801.699 654.65 821.92 635.689 821.92 612.3C821.92 588.912 801.699 569.951 776.756 569.951C751.812 569.951 731.592 588.912 731.592 612.3C731.592 635.689 751.812 654.65 776.756 654.65Z"/>
</mask>
<path fill-rule="evenodd" clip-rule="evenodd" d="M18 24C18 16.268 24.268 10 32 10H830C837.732 10 844 16.268 844 24V667C844 674.732 837.732 681 830 681H32C24.268 681 18 674.732 18 667V24ZM146.467 79.6412C146.467 103.03 126.246 121.99 101.302 121.99C76.3591 121.99 56.1384 103.03 56.1384 79.6412C56.1384 56.2524 76.3591 37.292 101.302 37.292C126.246 37.292 146.467 56.2524 146.467 79.6412ZM105.317 229.275C130.261 229.275 150.481 210.314 150.481 186.925C150.481 163.537 130.261 144.576 105.317 144.576C80.3739 144.576 60.1532 163.537 60.1532 186.925C60.1532 210.314 80.3739 229.275 105.317 229.275ZM150.481 294.211C150.481 317.599 130.261 336.56 105.317 336.56C80.3739 336.56 60.1532 317.599 60.1532 294.211C60.1532 270.822 80.3739 251.861 105.317 251.861C130.261 251.861 150.481 270.822 150.481 294.211ZM105.317 443.844C130.261 443.844 150.481 424.884 150.481 401.495C150.481 378.106 130.261 359.146 105.317 359.146C80.3739 359.146 60.1532 378.106 60.1532 401.495C60.1532 424.884 80.3739 443.844 105.317 443.844ZM156.503 508.78C156.503 532.169 136.283 551.129 111.339 551.129C86.3957 551.129 66.1751 532.169 66.1751 508.78C66.1751 485.391 86.3957 466.431 111.339 466.431C136.283 466.431 156.503 485.391 156.503 508.78ZM114.35 658.413C139.293 658.413 159.514 639.453 159.514 616.064C159.514 592.675 139.293 573.715 114.35 573.715C89.4064 573.715 69.1858 592.675 69.1858 616.064C69.1858 639.453 89.4064 658.413 114.35 658.413ZM367.268 77.7584C367.268 101.147 347.048 120.108 322.104 120.108C297.161 120.108 276.94 101.147 276.94 77.7584C276.94 54.3696 297.161 35.4092 322.104 35.4092C347.048 35.4092 367.268 54.3696 367.268 77.7584ZM326.119 227.393C351.063 227.393 371.283 208.432 371.283 185.044C371.283 161.655 351.063 142.694 326.119 142.694C301.176 142.694 280.955 161.655 280.955 185.044C280.955 208.432 301.176 227.393 326.119 227.393ZM371.283 292.328C371.283 315.717 351.063 334.677 326.119 334.677C301.176 334.677 280.955 315.717 280.955 292.328C280.955 268.939 301.176 249.979 326.119 249.979C351.063 249.979 371.283 268.939 371.283 292.328ZM326.119 441.962C351.063 441.962 371.283 423.002 371.283 399.613C371.283 376.224 351.063 357.264 326.119 357.264C301.176 357.264 280.955 376.224 280.955 399.613C280.955 423.002 301.176 441.962 326.119 441.962ZM377.305 506.898C377.305 530.287 357.084 549.247 332.141 549.247C307.198 549.247 286.977 530.287 286.977 506.898C286.977 483.509 307.198 464.549 332.141 464.549C357.084 464.549 377.305 483.509 377.305 506.898ZM335.152 656.531C360.095 656.531 380.316 637.571 380.316 614.182C380.316 590.793 360.095 571.833 335.152 571.833C310.209 571.833 289.988 590.793 289.988 614.182C289.988 637.571 310.209 656.531 335.152 656.531ZM588.07 77.7584C588.07 101.147 567.85 120.108 542.906 120.108C517.963 120.108 497.742 101.147 497.742 77.7584C497.742 54.3696 517.963 35.4092 542.906 35.4092C567.85 35.4092 588.07 54.3696 588.07 77.7584ZM546.921 227.393C571.865 227.393 592.085 208.432 592.085 185.044C592.085 161.655 571.865 142.694 546.921 142.694C521.978 142.694 501.757 161.655 501.757 185.044C501.757 208.432 521.978 227.393 546.921 227.393ZM592.085 292.328C592.085 315.717 571.865 334.677 546.921 334.677C521.978 334.677 501.757 315.717 501.757 292.328C501.757 268.939 521.978 249.979 546.921 249.979C571.865 249.979 592.085 268.939 592.085 292.328ZM546.921 441.962C571.865 441.962 592.085 423.002 592.085 399.613C592.085 376.224 571.865 357.264 546.921 357.264C521.978 357.264 501.757 376.224 501.757 399.613C501.757 423.002 521.978 441.962 546.921 441.962ZM598.107 506.898C598.107 530.287 577.886 549.247 552.943 549.247C528 549.247 507.779 530.287 507.779 506.898C507.779 483.509 528 464.549 552.943 464.549C577.886 464.549 598.107 483.509 598.107 506.898ZM555.954 656.531C580.897 656.531 601.118 637.571 601.118 614.182C601.118 590.793 580.897 571.833 555.954 571.833C531.01 571.833 510.79 590.793 510.79 614.182C510.79 637.571 531.01 656.531 555.954 656.531ZM256.868 79.6412C256.868 103.03 236.647 121.99 211.704 121.99C186.76 121.99 166.54 103.03 166.54 79.6412C166.54 56.2524 186.76 37.292 211.704 37.292C236.647 37.292 256.868 56.2524 256.868 79.6412ZM215.718 229.275C240.661 229.275 260.882 210.314 260.882 186.925C260.882 163.537 240.661 144.576 215.718 144.576C190.775 144.576 170.554 163.537 170.554 186.925C170.554 210.314 190.775 229.275 215.718 229.275ZM260.882 294.211C260.882 317.599 240.661 336.56 215.718 336.56C190.775 336.56 170.554 317.599 170.554 294.211C170.554 270.822 190.775 251.861 215.718 251.861C240.661 251.861 260.882 270.822 260.882 294.211ZM215.718 443.844C240.661 443.844 260.882 424.884 260.882 401.495C260.882 378.106 240.661 359.146 215.718 359.146C190.775 359.146 170.554 378.106 170.554 401.495C170.554 424.884 190.775 443.844 215.718 443.844ZM266.904 508.78C266.904 532.169 246.683 551.129 221.74 551.129C196.797 551.129 176.576 532.169 176.576 508.78C176.576 485.391 196.797 466.431 221.74 466.431C246.683 466.431 266.904 485.391 266.904 508.78ZM224.751 658.413C249.694 658.413 269.915 639.453 269.915 616.064C269.915 592.675 249.694 573.715 224.751 573.715C199.808 573.715 179.587 592.675 179.587 616.064C179.587 639.453 199.808 658.413 224.751 658.413ZM477.67 77.7584C477.67 101.147 457.449 120.108 432.506 120.108C407.562 120.108 387.341 101.147 387.341 77.7584C387.341 54.3696 407.562 35.4092 432.506 35.4092C457.449 35.4092 477.67 54.3696 477.67 77.7584ZM436.52 227.393C461.463 227.393 481.684 208.432 481.684 185.044C481.684 161.655 461.463 142.694 436.52 142.694C411.577 142.694 391.356 161.655 391.356 185.044C391.356 208.432 411.577 227.393 436.52 227.393ZM481.684 292.328C481.684 315.717 461.463 334.677 436.52 334.677C411.577 334.677 391.356 315.717 391.356 292.328C391.356 268.939 411.577 249.979 436.52 249.979C461.463 249.979 481.684 268.939 481.684 292.328ZM436.52 441.962C461.463 441.962 481.684 423.002 481.684 399.613C481.684 376.224 461.463 357.264 436.52 357.264C411.577 357.264 391.356 376.224 391.356 399.613C391.356 423.002 411.577 441.962 436.52 441.962ZM487.706 506.898C487.706 530.287 467.485 549.247 442.542 549.247C417.598 549.247 397.378 530.287 397.378 506.898C397.378 483.509 417.598 464.549 442.542 464.549C467.485 464.549 487.706 483.509 487.706 506.898ZM445.553 656.531C470.496 656.531 490.717 637.571 490.717 614.182C490.717 590.793 470.496 571.833 445.553 571.833C420.609 571.833 400.389 590.793 400.389 614.182C400.389 637.571 420.609 656.531 445.553 656.531ZM698.471 77.7584C698.471 101.147 678.251 120.108 653.307 120.108C628.364 120.108 608.143 101.147 608.143 77.7584C608.143 54.3696 628.364 35.4092 653.307 35.4092C678.251 35.4092 698.471 54.3696 698.471 77.7584ZM657.322 227.393C682.265 227.393 702.486 208.432 702.486 185.044C702.486 161.655 682.265 142.694 657.322 142.694C632.379 142.694 612.158 161.655 612.158 185.044C612.158 208.432 632.379 227.393 657.322 227.393ZM702.486 292.328C702.486 315.717 682.265 334.677 657.322 334.677C632.379 334.677 612.158 315.717 612.158 292.328C612.158 268.939 632.379 249.979 657.322 249.979C682.265 249.979 702.486 268.939 702.486 292.328ZM657.322 441.962C682.265 441.962 702.486 423.002 702.486 399.613C702.486 376.224 682.265 357.264 657.322 357.264C632.379 357.264 612.158 376.224 612.158 399.613C612.158 423.002 632.379 441.962 657.322 441.962ZM708.508 506.898C708.508 530.287 688.287 549.247 663.344 549.247C638.4 549.247 618.18 530.287 618.18 506.898C618.18 483.509 638.4 464.549 663.344 464.549C688.287 464.549 708.508 483.509 708.508 506.898ZM666.355 656.531C691.298 656.531 711.519 637.571 711.519 614.182C711.519 590.793 691.298 571.833 666.355 571.833C641.411 571.833 621.191 590.793 621.191 614.182C621.191 637.571 641.411 656.531 666.355 656.531ZM808.872 75.8766C808.872 99.2654 788.652 118.226 763.708 118.226C738.765 118.226 718.544 99.2654 718.544 75.8766C718.544 52.4877 738.765 33.5273 763.708 33.5273C788.652 33.5273 808.872 52.4877 808.872 75.8766ZM767.723 225.511C792.667 225.511 812.887 206.551 812.887 183.162C812.887 159.773 792.667 140.812 767.723 140.812C742.78 140.812 722.559 159.773 722.559 183.162C722.559 206.551 742.78 225.511 767.723 225.511ZM812.887 290.446C812.887 313.835 792.667 332.795 767.723 332.795C742.78 332.795 722.559 313.835 722.559 290.446C722.559 267.057 742.78 248.097 767.723 248.097C792.667 248.097 812.887 267.057 812.887 290.446ZM767.723 440.08C792.667 440.08 812.887 421.12 812.887 397.731C812.887 374.342 792.667 355.382 767.723 355.382C742.78 355.382 722.559 374.342 722.559 397.731C722.559 421.12 742.78 440.08 767.723 440.08ZM818.909 505.015C818.909 528.404 798.688 547.365 773.745 547.365C748.801 547.365 728.581 528.404 728.581 505.015C728.581 481.626 748.801 462.666 773.745 462.666C798.688 462.666 818.909 481.626 818.909 505.015ZM776.756 654.65C801.699 654.65 821.92 635.689 821.92 612.3C821.92 588.912 801.699 569.951 776.756 569.951C751.812 569.951 731.592 588.912 731.592 612.3C731.592 635.689 751.812 654.65 776.756 654.65Z" fill="#EAE6E6"/>
<path d="M32 6C22.0589 6 14 14.0589 14 24H22C22 18.4771 26.4771 14 32 14V6ZM830 6H32V14H830V6ZM848 24C848 14.0589 839.941 6 830 6V14C835.523 14 840 18.4772 840 24H848ZM848 667V24H840V667H848ZM830 685C839.941 685 848 676.941 848 667H840C840 672.523 835.523 677 830 677V685ZM32 685H830V677H32V685ZM14 667C14 676.941 22.0589 685 32 685V677C26.4772 677 22 672.523 22 667H14ZM14 24V667H22V24H14ZM101.302 125.99C128.209 125.99 150.467 105.478 150.467 79.6412H142.467C142.467 100.582 124.283 117.99 101.302 117.99V125.99ZM52.1384 79.6412C52.1384 105.478 74.3963 125.99 101.302 125.99V117.99C78.3218 117.99 60.1384 100.582 60.1384 79.6412H52.1384ZM101.302 33.292C74.3963 33.292 52.1384 53.8047 52.1384 79.6412H60.1384C60.1384 58.7001 78.3218 41.292 101.302 41.292V33.292ZM150.467 79.6412C150.467 53.8047 128.209 33.292 101.302 33.292V41.292C124.283 41.292 142.467 58.7001 142.467 79.6412H150.467ZM146.481 186.925C146.481 207.867 128.298 225.275 105.317 225.275V233.275C132.223 233.275 154.481 212.762 154.481 186.925H146.481ZM105.317 148.576C128.298 148.576 146.481 165.984 146.481 186.925H154.481C154.481 161.089 132.223 140.576 105.317 140.576V148.576ZM64.1532 186.925C64.1532 165.984 82.3366 148.576 105.317 148.576V140.576C78.4111 140.576 56.1532 161.089 56.1532 186.925H64.1532ZM105.317 225.275C82.3366 225.275 64.1532 207.867 64.1532 186.925H56.1532C56.1532 212.762 78.4111 233.275 105.317 233.275V225.275ZM105.317 340.56C132.223 340.56 154.481 320.047 154.481 294.211H146.481C146.481 315.152 128.298 332.56 105.317 332.56V340.56ZM56.1532 294.211C56.1532 320.047 78.4111 340.56 105.317 340.56V332.56C82.3366 332.56 64.1532 315.152 64.1532 294.211H56.1532ZM105.317 247.861C78.4111 247.861 56.1532 268.374 56.1532 294.211H64.1532C64.1532 273.269 82.3366 255.861 105.317 255.861V247.861ZM154.481 294.211C154.481 268.374 132.223 247.861 105.317 247.861V255.861C128.298 255.861 146.481 273.269 146.481 294.211H154.481ZM146.481 401.495C146.481 422.436 128.298 439.844 105.317 439.844V447.844C132.223 447.844 154.481 427.331 154.481 401.495H146.481ZM105.317 363.146C128.298 363.146 146.481 380.554 146.481 401.495H154.481C154.481 375.658 132.223 355.146 105.317 355.146V363.146ZM64.1532 401.495C64.1532 380.554 82.3366 363.146 105.317 363.146V355.146C78.4111 355.146 56.1532 375.658 56.1532 401.495H64.1532ZM105.317 439.844C82.3366 439.844 64.1532 422.436 64.1532 401.495H56.1532C56.1532 427.331 78.4111 447.844 105.317 447.844V439.844ZM111.339 555.129C138.245 555.129 160.503 534.616 160.503 508.78H152.503C152.503 529.721 134.32 547.129 111.339 547.129V555.129ZM62.1751 508.78C62.1751 534.616 84.433 555.129 111.339 555.129V547.129C88.3585 547.129 70.1751 529.721 70.1751 508.78H62.1751ZM111.339 462.431C84.433 462.431 62.1751 482.943 62.1751 508.78H70.1751C70.1751 487.839 88.3585 470.431 111.339 470.431V462.431ZM160.503 508.78C160.503 482.943 138.245 462.431 111.339 462.431V470.431C134.32 470.431 152.503 487.839 152.503 508.78H160.503ZM155.514 616.064C155.514 637.005 137.33 654.413 114.35 654.413V662.413C141.256 662.413 163.514 641.901 163.514 616.064H155.514ZM114.35 577.715C137.33 577.715 155.514 595.123 155.514 616.064H163.514C163.514 590.228 141.256 569.715 114.35 569.715V577.715ZM73.1858 616.064C73.1858 595.123 91.3692 577.715 114.35 577.715V569.715C87.4437 569.715 65.1858 590.228 65.1858 616.064H73.1858ZM114.35 654.413C91.3692 654.413 73.1858 637.005 73.1858 616.064H65.1858C65.1858 641.901 87.4437 662.413 114.35 662.413V654.413ZM322.104 124.108C349.011 124.108 371.268 103.595 371.268 77.7584H363.268C363.268 98.6995 345.085 116.108 322.104 116.108V124.108ZM272.94 77.7584C272.94 103.595 295.198 124.108 322.104 124.108V116.108C299.124 116.108 280.94 98.6995 280.94 77.7584H272.94ZM322.104 31.4092C295.198 31.4092 272.94 51.9219 272.94 77.7584H280.94C280.94 56.8173 299.124 39.4092 322.104 39.4092V31.4092ZM371.268 77.7584C371.268 51.9219 349.011 31.4092 322.104 31.4092V39.4092C345.085 39.4092 363.268 56.8173 363.268 77.7584H371.268ZM367.283 185.044C367.283 205.985 349.1 223.393 326.119 223.393V231.393C353.025 231.393 375.283 210.88 375.283 185.044H367.283ZM326.119 146.694C349.1 146.694 367.283 164.102 367.283 185.044H375.283C375.283 159.207 353.025 138.694 326.119 138.694V146.694ZM284.955 185.044C284.955 164.102 303.139 146.694 326.119 146.694V138.694C299.213 138.694 276.955 159.207 276.955 185.044H284.955ZM326.119 223.393C303.139 223.393 284.955 205.985 284.955 185.044H276.955C276.955 210.88 299.213 231.393 326.119 231.393V223.393ZM326.119 338.677C353.025 338.677 375.283 318.164 375.283 292.328H367.283C367.283 313.269 349.1 330.677 326.119 330.677V338.677ZM276.955 292.328C276.955 318.164 299.213 338.677 326.119 338.677V330.677C303.139 330.677 284.955 313.269 284.955 292.328H276.955ZM326.119 245.979C299.213 245.979 276.955 266.491 276.955 292.328H284.955C284.955 271.387 303.139 253.979 326.119 253.979V245.979ZM375.283 292.328C375.283 266.491 353.025 245.979 326.119 245.979V253.979C349.1 253.979 367.283 271.387 367.283 292.328H375.283ZM367.283 399.613C367.283 420.554 349.1 437.962 326.119 437.962V445.962C353.025 445.962 375.283 425.449 375.283 399.613H367.283ZM326.119 361.264C349.1 361.264 367.283 378.672 367.283 399.613H375.283C375.283 373.776 353.025 353.264 326.119 353.264V361.264ZM284.955 399.613C284.955 378.672 303.139 361.264 326.119 361.264V353.264C299.213 353.264 276.955 373.776 276.955 399.613H284.955ZM326.119 437.962C303.139 437.962 284.955 420.554 284.955 399.613H276.955C276.955 425.449 299.213 445.962 326.119 445.962V437.962ZM332.141 553.247C359.047 553.247 381.305 532.735 381.305 506.898H373.305C373.305 527.839 355.122 545.247 332.141 545.247V553.247ZM282.977 506.898C282.977 532.735 305.235 553.247 332.141 553.247V545.247C309.16 545.247 290.977 527.839 290.977 506.898H282.977ZM332.141 460.549C305.235 460.549 282.977 481.062 282.977 506.898H290.977C290.977 485.957 309.16 468.549 332.141 468.549V460.549ZM381.305 506.898C381.305 481.062 359.047 460.549 332.141 460.549V468.549C355.122 468.549 373.305 485.957 373.305 506.898H381.305ZM376.316 614.182C376.316 635.123 358.133 652.531 335.152 652.531V660.531C362.058 660.531 384.316 640.019 384.316 614.182H376.316ZM335.152 575.833C358.133 575.833 376.316 593.241 376.316 614.182H384.316C384.316 588.346 362.058 567.833 335.152 567.833V575.833ZM293.988 614.182C293.988 593.241 312.171 575.833 335.152 575.833V567.833C308.246 567.833 285.988 588.346 285.988 614.182H293.988ZM335.152 652.531C312.171 652.531 293.988 635.123 293.988 614.182H285.988C285.988 640.019 308.246 660.531 335.152 660.531V652.531ZM542.906 124.108C569.812 124.108 592.07 103.595 592.07 77.7584H584.07C584.07 98.6995 565.887 116.108 542.906 116.108V124.108ZM493.742 77.7584C493.742 103.595 516 124.108 542.906 124.108V116.108C519.926 116.108 501.742 98.6995 501.742 77.7584H493.742ZM542.906 31.4092C516 31.4092 493.742 51.9219 493.742 77.7584H501.742C501.742 56.8173 519.926 39.4092 542.906 39.4092V31.4092ZM592.07 77.7584C592.07 51.9219 569.812 31.4092 542.906 31.4092V39.4092C565.887 39.4092 584.07 56.8173 584.07 77.7584H592.07ZM588.085 185.044C588.085 205.985 569.902 223.393 546.921 223.393V231.393C573.827 231.393 596.085 210.88 596.085 185.044H588.085ZM546.921 146.694C569.902 146.694 588.085 164.102 588.085 185.044H596.085C596.085 159.207 573.827 138.694 546.921 138.694V146.694ZM505.757 185.044C505.757 164.102 523.94 146.694 546.921 146.694V138.694C520.015 138.694 497.757 159.207 497.757 185.044H505.757ZM546.921 223.393C523.94 223.393 505.757 205.985 505.757 185.044H497.757C497.757 210.88 520.015 231.393 546.921 231.393V223.393ZM546.921 338.677C573.827 338.677 596.085 318.164 596.085 292.328H588.085C588.085 313.269 569.902 330.677 546.921 330.677V338.677ZM497.757 292.328C497.757 318.164 520.015 338.677 546.921 338.677V330.677C523.94 330.677 505.757 313.269 505.757 292.328H497.757ZM546.921 245.979C520.015 245.979 497.757 266.491 497.757 292.328H505.757C505.757 271.387 523.94 253.979 546.921 253.979V245.979ZM596.085 292.328C596.085 266.491 573.827 245.979 546.921 245.979V253.979C569.902 253.979 588.085 271.387 588.085 292.328H596.085ZM588.085 399.613C588.085 420.554 569.902 437.962 546.921 437.962V445.962C573.827 445.962 596.085 425.449 596.085 399.613H588.085ZM546.921 361.264C569.902 361.264 588.085 378.672 588.085 399.613H596.085C596.085 373.776 573.827 353.264 546.921 353.264V361.264ZM505.757 399.613C505.757 378.672 523.94 361.264 546.921 361.264V353.264C520.015 353.264 497.757 373.776 497.757 399.613H505.757ZM546.921 437.962C523.94 437.962 505.757 420.554 505.757 399.613H497.757C497.757 425.449 520.015 445.962 546.921 445.962V437.962ZM552.943 553.247C579.849 553.247 602.107 532.735 602.107 506.898H594.107C594.107 527.839 575.924 545.247 552.943 545.247V553.247ZM503.779 506.898C503.779 532.735 526.037 553.247 552.943 553.247V545.247C529.962 545.247 511.779 527.839 511.779 506.898H503.779ZM552.943 460.549C526.037 460.549 503.779 481.062 503.779 506.898H511.779C511.779 485.957 529.962 468.549 552.943 468.549V460.549ZM602.107 506.898C602.107 481.062 579.849 460.549 552.943 460.549V468.549C575.924 468.549 594.107 485.957 594.107 506.898H602.107ZM597.118 614.182C597.118 635.123 578.935 652.531 555.954 652.531V660.531C582.86 660.531 605.118 640.019 605.118 614.182H597.118ZM555.954 575.833C578.935 575.833 597.118 593.241 597.118 614.182H605.118C605.118 588.346 582.86 567.833 555.954 567.833V575.833ZM514.79 614.182C514.79 593.241 532.973 575.833 555.954 575.833V567.833C529.048 567.833 506.79 588.346 506.79 614.182H514.79ZM555.954 652.531C532.973 652.531 514.79 635.123 514.79 614.182H506.79C506.79 640.019 529.048 660.531 555.954 660.531V652.531ZM211.704 125.99C238.61 125.99 260.868 105.478 260.868 79.6412H252.868C252.868 100.582 234.684 117.99 211.704 117.99V125.99ZM162.54 79.6412C162.54 105.478 184.797 125.99 211.704 125.99V117.99C188.723 117.99 170.54 100.582 170.54 79.6412H162.54ZM211.704 33.292C184.797 33.292 162.54 53.8047 162.54 79.6412H170.54C170.54 58.7001 188.723 41.292 211.704 41.292V33.292ZM260.868 79.6412C260.868 53.8047 238.61 33.292 211.704 33.292V41.292C234.684 41.292 252.868 58.7001 252.868 79.6412H260.868ZM256.882 186.925C256.882 207.867 238.699 225.275 215.718 225.275V233.275C242.624 233.275 264.882 212.762 264.882 186.925H256.882ZM215.718 148.576C238.699 148.576 256.882 165.984 256.882 186.925H264.882C264.882 161.089 242.624 140.576 215.718 140.576V148.576ZM174.554 186.925C174.554 165.984 192.737 148.576 215.718 148.576V140.576C188.812 140.576 166.554 161.089 166.554 186.925H174.554ZM215.718 225.275C192.737 225.275 174.554 207.867 174.554 186.925H166.554C166.554 212.762 188.812 233.275 215.718 233.275V225.275ZM215.718 340.56C242.624 340.56 264.882 320.047 264.882 294.211H256.882C256.882 315.152 238.699 332.56 215.718 332.56V340.56ZM166.554 294.211C166.554 320.047 188.812 340.56 215.718 340.56V332.56C192.737 332.56 174.554 315.152 174.554 294.211H166.554ZM215.718 247.861C188.812 247.861 166.554 268.374 166.554 294.211H174.554C174.554 273.269 192.737 255.861 215.718 255.861V247.861ZM264.882 294.211C264.882 268.374 242.624 247.861 215.718 247.861V255.861C238.699 255.861 256.882 273.269 256.882 294.211H264.882ZM256.882 401.495C256.882 422.436 238.699 439.844 215.718 439.844V447.844C242.624 447.844 264.882 427.331 264.882 401.495H256.882ZM215.718 363.146C238.699 363.146 256.882 380.554 256.882 401.495H264.882C264.882 375.658 242.624 355.146 215.718 355.146V363.146ZM174.554 401.495C174.554 380.554 192.737 363.146 215.718 363.146V355.146C188.812 355.146 166.554 375.658 166.554 401.495H174.554ZM215.718 439.844C192.737 439.844 174.554 422.436 174.554 401.495H166.554C166.554 427.331 188.812 447.844 215.718 447.844V439.844ZM221.74 555.129C248.646 555.129 270.904 534.616 270.904 508.78H262.904C262.904 529.721 244.721 547.129 221.74 547.129V555.129ZM172.576 508.78C172.576 534.616 194.834 555.129 221.74 555.129V547.129C198.759 547.129 180.576 529.721 180.576 508.78H172.576ZM221.74 462.431C194.834 462.431 172.576 482.943 172.576 508.78H180.576C180.576 487.839 198.759 470.431 221.74 470.431V462.431ZM270.904 508.78C270.904 482.943 248.646 462.431 221.74 462.431V470.431C244.721 470.431 262.904 487.839 262.904 508.78H270.904ZM265.915 616.064C265.915 637.005 247.732 654.413 224.751 654.413V662.413C251.657 662.413 273.915 641.901 273.915 616.064H265.915ZM224.751 577.715C247.732 577.715 265.915 595.123 265.915 616.064H273.915C273.915 590.228 251.657 569.715 224.751 569.715V577.715ZM183.587 616.064C183.587 595.123 201.77 577.715 224.751 577.715V569.715C197.845 569.715 175.587 590.228 175.587 616.064H183.587ZM224.751 654.413C201.77 654.413 183.587 637.005 183.587 616.064H175.587C175.587 641.901 197.845 662.413 224.751 662.413V654.413ZM432.506 124.108C459.412 124.108 481.67 103.595 481.67 77.7584H473.67C473.67 98.6995 455.486 116.108 432.506 116.108V124.108ZM383.341 77.7584C383.341 103.595 405.599 124.108 432.506 124.108V116.108C409.525 116.108 391.341 98.6995 391.341 77.7584H383.341ZM432.506 31.4092C405.599 31.4092 383.341 51.9219 383.341 77.7584H391.341C391.341 56.8173 409.525 39.4092 432.506 39.4092V31.4092ZM481.67 77.7584C481.67 51.9219 459.412 31.4092 432.506 31.4092V39.4092C455.486 39.4092 473.67 56.8173 473.67 77.7584H481.67ZM477.684 185.044C477.684 205.985 459.501 223.393 436.52 223.393V231.393C463.426 231.393 485.684 210.88 485.684 185.044H477.684ZM436.52 146.694C459.501 146.694 477.684 164.102 477.684 185.044H485.684C485.684 159.207 463.426 138.694 436.52 138.694V146.694ZM395.356 185.044C395.356 164.102 413.539 146.694 436.52 146.694V138.694C409.614 138.694 387.356 159.207 387.356 185.044H395.356ZM436.52 223.393C413.539 223.393 395.356 205.985 395.356 185.044H387.356C387.356 210.88 409.614 231.393 436.52 231.393V223.393ZM436.52 338.677C463.426 338.677 485.684 318.164 485.684 292.328H477.684C477.684 313.269 459.501 330.677 436.52 330.677V338.677ZM387.356 292.328C387.356 318.164 409.614 338.677 436.52 338.677V330.677C413.539 330.677 395.356 313.269 395.356 292.328H387.356ZM436.52 245.979C409.614 245.979 387.356 266.491 387.356 292.328H395.356C395.356 271.387 413.539 253.979 436.52 253.979V245.979ZM485.684 292.328C485.684 266.491 463.426 245.979 436.52 245.979V253.979C459.501 253.979 477.684 271.387 477.684 292.328H485.684ZM477.684 399.613C477.684 420.554 459.501 437.962 436.52 437.962V445.962C463.426 445.962 485.684 425.449 485.684 399.613H477.684ZM436.52 361.264C459.501 361.264 477.684 378.672 477.684 399.613H485.684C485.684 373.776 463.426 353.264 436.52 353.264V361.264ZM395.356 399.613C395.356 378.672 413.539 361.264 436.52 361.264V353.264C409.614 353.264 387.356 373.776 387.356 399.613H395.356ZM436.52 437.962C413.539 437.962 395.356 420.554 395.356 399.613H387.356C387.356 425.449 409.614 445.962 436.52 445.962V437.962ZM442.542 553.247C469.448 553.247 491.706 532.735 491.706 506.898H483.706C483.706 527.839 465.523 545.247 442.542 545.247V553.247ZM393.378 506.898C393.378 532.735 415.636 553.247 442.542 553.247V545.247C419.561 545.247 401.378 527.839 401.378 506.898H393.378ZM442.542 460.549C415.636 460.549 393.378 481.062 393.378 506.898H401.378C401.378 485.957 419.561 468.549 442.542 468.549V460.549ZM491.706 506.898C491.706 481.062 469.448 460.549 442.542 460.549V468.549C465.523 468.549 483.706 485.957 483.706 506.898H491.706ZM486.717 614.182C486.717 635.123 468.533 652.531 445.553 652.531V660.531C472.459 660.531 494.717 640.019 494.717 614.182H486.717ZM445.553 575.833C468.533 575.833 486.717 593.241 486.717 614.182H494.717C494.717 588.346 472.459 567.833 445.553 567.833V575.833ZM404.389 614.182C404.389 593.241 422.572 575.833 445.553 575.833V567.833C418.647 567.833 396.389 588.346 396.389 614.182H404.389ZM445.553 652.531C422.572 652.531 404.389 635.123 404.389 614.182H396.389C396.389 640.019 418.647 660.531 445.553 660.531V652.531ZM653.307 124.108C680.214 124.108 702.471 103.595 702.471 77.7584H694.471C694.471 98.6995 676.288 116.108 653.307 116.108V124.108ZM604.143 77.7584C604.143 103.595 626.401 124.108 653.307 124.108V116.108C630.327 116.108 612.143 98.6995 612.143 77.7584H604.143ZM653.307 31.4092C626.401 31.4092 604.143 51.9219 604.143 77.7584H612.143C612.143 56.8173 630.327 39.4092 653.307 39.4092V31.4092ZM702.471 77.7584C702.471 51.9219 680.214 31.4092 653.307 31.4092V39.4092C676.288 39.4092 694.471 56.8173 694.471 77.7584H702.471ZM698.486 185.044C698.486 205.985 680.303 223.393 657.322 223.393V231.393C684.228 231.393 706.486 210.88 706.486 185.044H698.486ZM657.322 146.694C680.303 146.694 698.486 164.102 698.486 185.044H706.486C706.486 159.207 684.228 138.694 657.322 138.694V146.694ZM616.158 185.044C616.158 164.102 634.341 146.694 657.322 146.694V138.694C630.416 138.694 608.158 159.207 608.158 185.044H616.158ZM657.322 223.393C634.341 223.393 616.158 205.985 616.158 185.044H608.158C608.158 210.88 630.416 231.393 657.322 231.393V223.393ZM657.322 338.677C684.228 338.677 706.486 318.164 706.486 292.328H698.486C698.486 313.269 680.303 330.677 657.322 330.677V338.677ZM608.158 292.328C608.158 318.164 630.416 338.677 657.322 338.677V330.677C634.341 330.677 616.158 313.269 616.158 292.328H608.158ZM657.322 245.979C630.416 245.979 608.158 266.491 608.158 292.328H616.158C616.158 271.387 634.341 253.979 657.322 253.979V245.979ZM706.486 292.328C706.486 266.491 684.228 245.979 657.322 245.979V253.979C680.303 253.979 698.486 271.387 698.486 292.328H706.486ZM698.486 399.613C698.486 420.554 680.303 437.962 657.322 437.962V445.962C684.228 445.962 706.486 425.449 706.486 399.613H698.486ZM657.322 361.264C680.303 361.264 698.486 378.672 698.486 399.613H706.486C706.486 373.776 684.228 353.264 657.322 353.264V361.264ZM616.158 399.613C616.158 378.672 634.341 361.264 657.322 361.264V353.264C630.416 353.264 608.158 373.776 608.158 399.613H616.158ZM657.322 437.962C634.341 437.962 616.158 420.554 616.158 399.613H608.158C608.158 425.449 630.416 445.962 657.322 445.962V437.962ZM663.344 553.247C690.25 553.247 712.508 532.735 712.508 506.898H704.508C704.508 527.839 686.324 545.247 663.344 545.247V553.247ZM614.18 506.898C614.18 532.735 636.438 553.247 663.344 553.247V545.247C640.363 545.247 622.18 527.839 622.18 506.898H614.18ZM663.344 460.549C636.438 460.549 614.18 481.062 614.18 506.898H622.18C622.18 485.957 640.363 468.549 663.344 468.549V460.549ZM712.508 506.898C712.508 481.062 690.25 460.549 663.344 460.549V468.549C686.324 468.549 704.508 485.957 704.508 506.898H712.508ZM707.519 614.182C707.519 635.123 689.335 652.531 666.355 652.531V660.531C693.261 660.531 715.519 640.019 715.519 614.182H707.519ZM666.355 575.833C689.335 575.833 707.519 593.241 707.519 614.182H715.519C715.519 588.346 693.261 567.833 666.355 567.833V575.833ZM625.191 614.182C625.191 593.241 643.374 575.833 666.355 575.833V567.833C639.449 567.833 617.191 588.346 617.191 614.182H625.191ZM666.355 652.531C643.374 652.531 625.191 635.123 625.191 614.182H617.191C617.191 640.019 639.449 660.531 666.355 660.531V652.531ZM763.708 122.226C790.615 122.226 812.872 101.713 812.872 75.8766H804.872C804.872 96.8177 786.689 114.226 763.708 114.226V122.226ZM714.544 75.8766C714.544 101.713 736.802 122.226 763.708 122.226V114.226C740.728 114.226 722.544 96.8177 722.544 75.8766H714.544ZM763.708 29.5273C736.802 29.5273 714.544 50.04 714.544 75.8766H722.544C722.544 54.9355 740.728 37.5273 763.708 37.5273V29.5273ZM812.872 75.8766C812.872 50.04 790.615 29.5273 763.708 29.5273V37.5273C786.689 37.5273 804.872 54.9354 804.872 75.8766H812.872ZM808.887 183.162C808.887 204.103 790.704 221.511 767.723 221.511V229.511C794.629 229.511 816.887 208.998 816.887 183.162H808.887ZM767.723 144.812C790.704 144.812 808.887 162.221 808.887 183.162H816.887C816.887 157.325 794.629 136.812 767.723 136.812V144.812ZM726.559 183.162C726.559 162.221 744.743 144.812 767.723 144.812V136.812C740.817 136.812 718.559 157.325 718.559 183.162H726.559ZM767.723 221.511C744.743 221.511 726.559 204.103 726.559 183.162H718.559C718.559 208.998 740.817 229.511 767.723 229.511V221.511ZM767.723 336.795C794.629 336.795 816.887 316.282 816.887 290.446H808.887C808.887 311.387 790.704 328.795 767.723 328.795V336.795ZM718.559 290.446C718.559 316.282 740.817 336.795 767.723 336.795V328.795C744.743 328.795 726.559 311.387 726.559 290.446H718.559ZM767.723 244.097C740.817 244.097 718.559 264.609 718.559 290.446H726.559C726.559 269.505 744.743 252.097 767.723 252.097V244.097ZM816.887 290.446C816.887 264.609 794.629 244.097 767.723 244.097V252.097C790.704 252.097 808.887 269.505 808.887 290.446H816.887ZM808.887 397.731C808.887 418.672 790.704 436.08 767.723 436.08V444.08C794.629 444.08 816.887 423.568 816.887 397.731H808.887ZM767.723 359.382C790.704 359.382 808.887 376.79 808.887 397.731H816.887C816.887 371.895 794.629 351.382 767.723 351.382V359.382ZM726.559 397.731C726.559 376.79 744.743 359.382 767.723 359.382V351.382C740.817 351.382 718.559 371.895 718.559 397.731H726.559ZM767.723 436.08C744.743 436.08 726.559 418.672 726.559 397.731H718.559C718.559 423.568 740.817 444.08 767.723 444.08V436.08ZM773.745 551.365C800.651 551.365 822.909 530.852 822.909 505.015H814.909C814.909 525.956 796.725 543.365 773.745 543.365V551.365ZM724.581 505.015C724.581 530.852 746.838 551.365 773.745 551.365V543.365C750.764 543.365 732.581 525.956 732.581 505.015H724.581ZM773.745 458.666C746.838 458.666 724.581 479.179 724.581 505.015H732.581C732.581 484.074 750.764 466.666 773.745 466.666V458.666ZM822.909 505.015C822.909 479.179 800.651 458.666 773.745 458.666V466.666C796.725 466.666 814.909 484.074 814.909 505.015H822.909ZM817.92 612.3C817.92 633.242 799.737 650.65 776.756 650.65V658.65C803.662 658.65 825.92 638.137 825.92 612.3H817.92ZM776.756 573.951C799.737 573.951 817.92 591.359 817.92 612.3H825.92C825.92 586.464 803.662 565.951 776.756 565.951V573.951ZM735.592 612.3C735.592 591.359 753.775 573.951 776.756 573.951V565.951C749.85 565.951 727.592 586.464 727.592 612.3H735.592ZM776.756 650.65C753.775 650.65 735.592 633.241 735.592 612.3H727.592C727.592 638.137 749.85 658.65 776.756 658.65V650.65Z" fill="black" mask="url(#path-1-inside-1_2551_2452)"/>
</g>
<defs>
<filter id="filter0_dd_2551_2452" x="0" y="0" width="862" height="707" filterUnits="userSpaceOnUse" color-interpolation-filters="sRGB">
<feFlood flood-opacity="0" result="BackgroundImageFix"/>
<feColorMatrix in="SourceAlpha" type="matrix" values="0 0 0 0 0 0 0 0 0 0 0 0 0 0 0 0 0 0 127 0" result="hardAlpha"/>
<feOffset dy="4"/>
<feGaussianBlur stdDeviation="2"/>
<feColorMatrix type="matrix" values="0 0 0 0 0 0 0 0 0 0 0 0 0 0 0 0 0 0 0.3 0"/>
<feBlend mode="normal" in2="BackgroundImageFix" result="effect1_dropShadow_2551_2452"/>
<feColorMatrix in="SourceAlpha" type="matrix" values="0 0 0 0 0 0 0 0 0 0 0 0 0 0 0 0 0 0 127 0" result="hardAlpha"/>
<feMorphology radius="6" operator="dilate" in="SourceAlpha" result="effect2_dropShadow_2551_2452"/>
<feOffset dy="8"/>
<feGaussianBlur stdDeviation="6"/>
<feColorMatrix type="matrix" values="0 0 0 0 0 0 0 0 0 0 0 0 0 0 0 0 0 0 0.15 0"/>
<feBlend mode="normal" in2="effect1_dropShadow_2551_2452" result="effect2_dropShadow_2551_2452"/>
<feBlend mode="normal" in="SourceGraphic" in2="effect2_dropShadow_2551_2452" result="shape"/>
</filter>
</defs>
</svg>
