<svg width="38" height="34" viewBox="0 0 38 34" fill="none" xmlns="http://www.w3.org/2000/svg">
<path fill-rule="evenodd" clip-rule="evenodd" d="M8.85067 3.89583C8.04613 3.89583 7.22448 4.18756 6.39039 4.92219L6.3814 4.93011L6.37223 4.93786C5.65219 5.54562 5.15368 6.21002 4.84154 6.91983L4.83909 6.92544C4.51891 7.64162 4.354 8.42757 4.354 9.26499C4.354 10.5721 4.69072 11.9754 5.40019 13.4836C6.11953 14.9984 7.11665 16.5437 8.37184 18.1054C9.64788 19.6732 11.0792 21.1748 12.6671 22.6096C14.2713 24.0308 15.9505 25.3123 17.7208 26.4693C19.4606 27.6026 21.2034 28.4957 22.9328 29.155C24.6344 29.8037 26.2018 30.1042 27.629 30.1042C28.5866 30.1042 29.46 29.9458 30.2597 29.6476L30.2662 29.6452C30.8311 29.438 31.3557 29.1459 31.853 28.7556C32.0406 28.6083 32.2254 28.4462 32.4075 28.2683L32.9063 27.7042C33.0625 27.4969 33.1977 27.282 33.316 27.0579C33.5116 26.6876 33.5982 26.3181 33.5982 25.9675C33.5982 25.7393 33.5473 25.5249 33.4381 25.2759C33.3638 25.1317 33.2361 24.9846 32.9856 24.8293L32.974 24.8223L27.7433 21.4995C27.3959 21.2887 27.109 21.1477 26.8627 21.0576C26.6375 20.9752 26.4733 20.9525 26.3465 20.9525C26.1942 20.9525 26.0412 20.9854 25.8398 21.095L25.8063 21.1133L25.7716 21.1294C25.5531 21.2316 25.2698 21.421 24.922 21.7321L24.9164 21.737L23.7153 22.7976C23.331 23.14 22.8291 23.3467 22.2298 23.3467C21.9953 23.3467 21.7173 23.323 21.4171 23.2223L21.3915 23.2138L21.3663 23.2041C21.2944 23.1765 21.2281 23.1492 21.1848 23.1313C21.1335 23.1104 21.1161 23.1036 21.108 23.1007L21.0493 23.0796L20.9934 23.0531C20.3514 22.7491 19.5979 22.2718 18.7394 21.6219L18.738 21.6207C17.8679 20.9599 17.0218 20.2459 16.1571 19.4867L16.1492 19.4796L16.1413 19.4725C15.2968 18.7023 14.5198 17.9344 13.7952 17.1853L13.7866 17.1764C13.0689 16.4175 12.5193 15.745 12.1782 15.1854L12.1275 15.1024L12.0943 15.0131C12.0943 15.0131 12.0902 15.0031 12.0696 14.9596C12.0679 14.9559 12.066 14.9521 12.0641 14.9478C12.0443 14.9062 12.0132 14.8404 11.9821 14.7663L11.9584 14.7097L11.942 14.651C11.8908 14.468 11.859 14.2814 11.859 14.0675C11.859 13.5869 12.042 13.1282 12.4505 12.7582L13.6554 11.6376L13.6635 11.6304C13.9897 11.3385 14.2165 11.0739 14.356 10.853L14.3655 10.8381L14.3755 10.8234C14.4955 10.647 14.5348 10.4961 14.5348 10.37C14.5348 10.279 14.5054 10.1252 14.4092 9.92437L14.4014 9.90818C14.3011 9.68869 14.1456 9.43569 13.9036 9.13499L13.8988 9.12898L10.2176 4.48649C10.0631 4.28688 9.8708 4.15019 9.63554 4.05304L9.61924 4.04631C9.39391 3.94953 9.12772 3.89583 8.85067 3.89583ZM4.73334 3.39984C5.92393 2.35447 7.31577 1.77083 8.85067 1.77083C9.45737 1.77083 10.0748 1.88612 10.6389 2.12698C11.2218 2.36907 11.7531 2.73973 12.1661 3.27139L15.8336 7.89649C16.1582 8.30033 16.4122 8.69544 16.596 9.09549C16.7827 9.48755 16.9098 9.92579 16.9098 10.37C16.9098 10.9181 16.7314 11.4419 16.4143 11.9133C16.1448 12.3361 15.7766 12.7439 15.3513 13.1254L14.2607 14.1397C14.2718 14.163 14.2866 14.1946 14.3026 14.2311C14.5396 14.6029 14.9592 15.126 15.5955 15.7992C16.2923 16.5196 17.0314 17.2495 17.8288 17.9771C18.671 18.7164 19.4687 19.3882 20.2741 20.0002C21.0357 20.5767 21.6291 20.9441 22.0604 21.1539C22.0953 21.1674 22.1274 21.1804 22.1535 21.1911L23.2455 20.2269C23.6786 19.8398 24.1428 19.4987 24.6384 19.2618C25.1562 18.986 25.7206 18.8275 26.3465 18.8275C26.8213 18.8275 27.2905 18.9182 27.762 19.0907C28.2099 19.2548 28.6485 19.4804 29.0884 19.748L29.0983 19.7541L34.3438 23.0861C34.9052 23.4352 35.3452 23.8772 35.6193 24.4345L35.6274 24.4511L35.635 24.468C35.8367 24.9192 35.9732 25.4081 35.9732 25.9675C35.9732 26.6369 35.8064 27.3157 35.4637 27.9654C35.289 28.2962 35.0844 28.6196 34.8436 28.934C34.6498 29.1869 34.4339 29.4324 34.193 29.6701C33.9456 29.9142 33.6876 30.1424 33.4193 30.3531C32.7362 30.8893 31.99 31.3093 31.1701 31.6102C30.0708 32.0196 28.887 32.2292 27.629 32.2292C25.8262 32.2292 23.9419 31.8496 22.0018 31.11C20.09 30.3811 18.1915 29.4045 16.3218 28.1864L16.3202 28.1854C14.4505 26.9636 12.6796 25.6113 10.9917 24.1158L10.9836 24.1085C9.31216 22.5985 7.80056 21.0137 6.44983 19.3536L6.44581 19.3488C5.10568 17.6818 4.01375 15.9984 3.21353 14.3129L3.21206 14.3097C2.40205 12.5886 1.979 10.9041 1.979 9.26499C1.979 8.17677 2.1937 7.12203 2.6327 6.13901C3.07921 5.12483 3.78057 4.20613 4.73334 3.39984Z" fill="#797979"/>
</svg>
