<svg width="34" height="37" viewBox="0 0 34 37" fill="none" xmlns="http://www.w3.org/2000/svg">
<path d="M16.8518 0.0239258C26.4045 0.0239258 33.6364 8.56176 33.6364 18.3298C33.6364 29.6585 25.16 36.6907 16.8182 36.6907C14.06 36.6907 10.9991 35.8828 8.54364 34.3038C7.68591 33.7346 6.96273 33.3123 6.03773 33.6428L2.64045 34.7444C1.78273 35.0382 1.00909 34.3038 1.26136 33.3123L2.38818 29.1994C2.57318 28.6302 2.53955 28.0243 2.27045 27.547C0.824091 24.6459 0 21.4695 0 18.3849C0 8.727 7.08046 0.0239258 16.8518 0.0239258ZM24.5377 16.053C23.3436 16.053 22.385 17.0996 22.385 18.4032C22.385 19.6885 23.3436 20.7534 24.5377 20.7534C25.7318 20.7534 26.6905 19.6885 26.6905 18.4032C26.6905 17.0996 25.7318 16.053 24.5377 16.053ZM16.7845 16.053C15.6073 16.0347 14.6318 17.0996 14.6318 18.3849C14.6318 19.6885 15.5905 20.735 16.7845 20.7534C17.9786 20.7534 18.9373 19.6885 18.9373 18.4032C18.9373 17.0996 17.9786 16.053 16.7845 16.053ZM9.03136 16.053C7.83727 16.053 6.87864 17.0996 6.87864 18.4032C6.87864 19.6885 7.85409 20.7534 9.03136 20.7534C10.2255 20.735 11.1841 19.6885 11.1841 18.4032C11.1841 17.0996 10.2255 16.053 9.03136 16.053Z" fill="white"/>
</svg>
