<svg width="549" height="450" viewBox="0 0 549 450" fill="none" xmlns="http://www.w3.org/2000/svg">
<g filter="url(#filter0_dd_2636_2502)">
<mask id="path-1-inside-1_2636_2502" fill="white">
<path fill-rule="evenodd" clip-rule="evenodd" d="M18 24C18 16.268 24.268 10 32 10H517C524.732 10 531 16.268 531 24V410C531 417.732 524.732 424 517 424H32C24.268 424 18 417.732 18 410V24ZM100.315 53.8389C100.315 68.7506 87.1906 80.8389 71.0008 80.8389C54.8109 80.8389 41.6865 68.7506 41.6865 53.8389C41.6865 38.9272 54.8109 26.8389 71.0008 26.8389C87.1906 26.8389 100.315 38.9272 100.315 53.8389ZM73.4942 147.032C89.684 147.032 102.808 134.944 102.808 120.032C102.808 105.12 89.684 93.0321 73.4942 93.0321C57.3044 93.0321 44.1799 105.12 44.1799 120.032C44.1799 134.944 57.3044 147.032 73.4942 147.032ZM102.808 186.226C102.808 201.138 89.684 213.226 73.4942 213.226C57.3044 213.226 44.1799 201.138 44.1799 186.226C44.1799 171.314 57.3044 159.226 73.4942 159.226C89.684 159.226 102.808 171.314 102.808 186.226ZM73.4942 279.419C89.684 279.419 102.808 267.331 102.808 252.419C102.808 237.507 89.684 225.419 73.4942 225.419C57.3044 225.419 44.1799 237.507 44.1799 252.419C44.1799 267.331 57.3044 279.419 73.4942 279.419ZM106.548 318.613C106.548 333.525 93.424 345.613 77.2342 345.613C61.0443 345.613 47.9199 333.525 47.9199 318.613C47.9199 303.701 61.0443 291.613 77.2342 291.613C93.424 291.613 106.548 303.701 106.548 318.613ZM79.104 411.806C95.2938 411.806 108.418 399.718 108.418 384.806C108.418 369.894 95.2938 357.806 79.104 357.806C62.9142 357.806 49.7897 369.894 49.7897 384.806C49.7897 399.718 62.9142 411.806 79.104 411.806ZM237.447 52.6772C237.447 67.5889 224.323 79.6772 208.133 79.6772C191.943 79.6772 178.819 67.5889 178.819 52.6772C178.819 37.7655 191.943 25.6772 208.133 25.6772C224.323 25.6772 237.447 37.7655 237.447 52.6772ZM210.627 145.871C226.816 145.871 239.941 133.783 239.941 118.871C239.941 103.959 226.816 91.871 210.627 91.871C194.437 91.871 181.312 103.959 181.312 118.871C181.312 133.783 194.437 145.871 210.627 145.871ZM239.941 185.064C239.941 199.976 226.816 212.064 210.627 212.064C194.437 212.064 181.312 199.976 181.312 185.064C181.312 170.153 194.437 158.064 210.627 158.064C226.816 158.064 239.941 170.153 239.941 185.064ZM210.627 278.258C226.816 278.258 239.941 266.17 239.941 251.258C239.941 236.346 226.816 224.258 210.627 224.258C194.437 224.258 181.312 236.346 181.312 251.258C181.312 266.17 194.437 278.258 210.627 278.258ZM243.681 317.452C243.681 332.364 230.556 344.452 214.367 344.452C198.177 344.452 185.052 332.364 185.052 317.452C185.052 302.54 198.177 290.452 214.367 290.452C230.556 290.452 243.681 302.54 243.681 317.452ZM216.237 410.645C232.426 410.645 245.551 398.557 245.551 383.645C245.551 368.733 232.426 356.645 216.237 356.645C200.047 356.645 186.922 368.733 186.922 383.645C186.922 398.557 200.047 410.645 216.237 410.645ZM374.58 52.6772C374.58 67.5889 361.455 79.6772 345.266 79.6772C329.076 79.6772 315.951 67.5889 315.951 52.6772C315.951 37.7655 329.076 25.6772 345.266 25.6772C361.455 25.6772 374.58 37.7655 374.58 52.6772ZM347.759 145.871C363.949 145.871 377.073 133.783 377.073 118.871C377.073 103.959 363.949 91.871 347.759 91.871C331.569 91.871 318.445 103.959 318.445 118.871C318.445 133.783 331.569 145.871 347.759 145.871ZM377.073 185.064C377.073 199.976 363.949 212.064 347.759 212.064C331.569 212.064 318.445 199.976 318.445 185.064C318.445 170.153 331.569 158.064 347.759 158.064C363.949 158.064 377.073 170.153 377.073 185.064ZM347.759 278.258C363.949 278.258 377.073 266.17 377.073 251.258C377.073 236.346 363.949 224.258 347.759 224.258C331.569 224.258 318.445 236.346 318.445 251.258C318.445 266.17 331.569 278.258 347.759 278.258ZM380.813 317.452C380.813 332.364 367.689 344.452 351.499 344.452C335.309 344.452 322.185 332.364 322.185 317.452C322.185 302.54 335.309 290.452 351.499 290.452C367.689 290.452 380.813 302.54 380.813 317.452ZM353.369 410.645C369.559 410.645 382.683 398.557 382.683 383.645C382.683 368.733 369.559 356.645 353.369 356.645C337.179 356.645 324.055 368.733 324.055 383.645C324.055 398.557 337.179 410.645 353.369 410.645ZM168.881 53.8389C168.881 68.7506 155.757 80.8389 139.567 80.8389C123.377 80.8389 110.253 68.7506 110.253 53.8389C110.253 38.9272 123.377 26.8389 139.567 26.8389C155.757 26.8389 168.881 38.9272 168.881 53.8389ZM142.06 147.032C158.25 147.032 171.375 134.944 171.375 120.032C171.375 105.12 158.25 93.0321 142.06 93.0321C125.87 93.0321 112.746 105.12 112.746 120.032C112.746 134.944 125.87 147.032 142.06 147.032ZM171.375 186.226C171.375 201.138 158.25 213.226 142.06 213.226C125.87 213.226 112.746 201.138 112.746 186.226C112.746 171.314 125.87 159.226 142.06 159.226C158.25 159.226 171.375 171.314 171.375 186.226ZM142.06 279.419C158.25 279.419 171.375 267.331 171.375 252.419C171.375 237.507 158.25 225.419 142.06 225.419C125.87 225.419 112.746 237.507 112.746 252.419C112.746 267.331 125.87 279.419 142.06 279.419ZM175.115 318.613C175.115 333.525 161.99 345.613 145.8 345.613C129.61 345.613 116.486 333.525 116.486 318.613C116.486 303.701 129.61 291.613 145.8 291.613C161.99 291.613 175.115 303.701 175.115 318.613ZM147.67 411.806C163.86 411.806 176.985 399.718 176.985 384.806C176.985 369.894 163.86 357.806 147.67 357.806C131.48 357.806 118.356 369.894 118.356 384.806C118.356 399.718 131.48 411.806 147.67 411.806ZM306.014 52.6772C306.014 67.5889 292.889 79.6772 276.699 79.6772C260.51 79.6772 247.385 67.5889 247.385 52.6772C247.385 37.7655 260.51 25.6772 276.699 25.6772C292.889 25.6772 306.014 37.7655 306.014 52.6772ZM279.193 145.871C295.383 145.871 308.507 133.783 308.507 118.871C308.507 103.959 295.383 91.871 279.193 91.871C263.003 91.871 249.878 103.959 249.878 118.871C249.878 133.783 263.003 145.871 279.193 145.871ZM308.507 185.064C308.507 199.976 295.383 212.064 279.193 212.064C263.003 212.064 249.878 199.976 249.878 185.064C249.878 170.153 263.003 158.064 279.193 158.064C295.383 158.064 308.507 170.153 308.507 185.064ZM279.193 278.258C295.383 278.258 308.507 266.17 308.507 251.258C308.507 236.346 295.383 224.258 279.193 224.258C263.003 224.258 249.878 236.346 249.878 251.258C249.878 266.17 263.003 278.258 279.193 278.258ZM312.247 317.452C312.247 332.364 299.123 344.452 282.933 344.452C266.743 344.452 253.618 332.364 253.618 317.452C253.618 302.54 266.743 290.452 282.933 290.452C299.123 290.452 312.247 302.54 312.247 317.452ZM284.803 410.645C300.993 410.645 314.117 398.557 314.117 383.645C314.117 368.733 300.993 356.645 284.803 356.645C268.613 356.645 255.488 368.733 255.488 383.645C255.488 398.557 268.613 410.645 284.803 410.645ZM443.146 52.6772C443.146 67.5889 430.022 79.6772 413.832 79.6772C397.642 79.6772 384.518 67.5889 384.518 52.6772C384.518 37.7655 397.642 25.6772 413.832 25.6772C430.022 25.6772 443.146 37.7655 443.146 52.6772ZM416.325 145.871C432.515 145.871 445.639 133.783 445.639 118.871C445.639 103.959 432.515 91.871 416.325 91.871C400.135 91.871 387.011 103.959 387.011 118.871C387.011 133.783 400.135 145.871 416.325 145.871ZM445.639 185.064C445.639 199.976 432.515 212.064 416.325 212.064C400.135 212.064 387.011 199.976 387.011 185.064C387.011 170.153 400.135 158.064 416.325 158.064C432.515 158.064 445.639 170.153 445.639 185.064ZM416.325 278.258C432.515 278.258 445.639 266.17 445.639 251.258C445.639 236.346 432.515 224.258 416.325 224.258C400.135 224.258 387.011 236.346 387.011 251.258C387.011 266.17 400.135 278.258 416.325 278.258ZM449.379 317.452C449.379 332.364 436.255 344.452 420.065 344.452C403.875 344.452 390.751 332.364 390.751 317.452C390.751 302.54 403.875 290.452 420.065 290.452C436.255 290.452 449.379 302.54 449.379 317.452ZM421.935 410.645C438.125 410.645 451.249 398.557 451.249 383.645C451.249 368.733 438.125 356.645 421.935 356.645C405.745 356.645 392.621 368.733 392.621 383.645C392.621 398.557 405.745 410.645 421.935 410.645ZM511.712 51.5161C511.712 66.4278 498.588 78.5161 482.398 78.5161C466.208 78.5161 453.084 66.4278 453.084 51.5161C453.084 36.6044 466.208 24.5161 482.398 24.5161C498.588 24.5161 511.712 36.6044 511.712 51.5161ZM484.892 144.71C501.081 144.71 514.206 132.622 514.206 117.71C514.206 102.798 501.081 90.71 484.892 90.71C468.702 90.71 455.577 102.798 455.577 117.71C455.577 132.622 468.702 144.71 484.892 144.71ZM514.206 183.903C514.206 198.815 501.081 210.903 484.892 210.903C468.702 210.903 455.577 198.815 455.577 183.903C455.577 168.991 468.702 156.903 484.892 156.903C501.081 156.903 514.206 168.991 514.206 183.903ZM484.892 277.097C501.081 277.097 514.206 265.009 514.206 250.097C514.206 235.185 501.081 223.097 484.892 223.097C468.702 223.097 455.577 235.185 455.577 250.097C455.577 265.009 468.702 277.097 484.892 277.097ZM517.946 316.29C517.946 331.202 504.821 343.29 488.631 343.29C472.441 343.29 459.317 331.202 459.317 316.29C459.317 301.379 472.441 289.29 488.631 289.29C504.821 289.29 517.946 301.379 517.946 316.29ZM490.501 409.484C506.691 409.484 519.816 397.396 519.816 382.484C519.816 367.572 506.691 355.484 490.501 355.484C474.312 355.484 461.187 367.572 461.187 382.484C461.187 397.396 474.312 409.484 490.501 409.484Z"/>
</mask>
<path fill-rule="evenodd" clip-rule="evenodd" d="M18 24C18 16.268 24.268 10 32 10H517C524.732 10 531 16.268 531 24V410C531 417.732 524.732 424 517 424H32C24.268 424 18 417.732 18 410V24ZM100.315 53.8389C100.315 68.7506 87.1906 80.8389 71.0008 80.8389C54.8109 80.8389 41.6865 68.7506 41.6865 53.8389C41.6865 38.9272 54.8109 26.8389 71.0008 26.8389C87.1906 26.8389 100.315 38.9272 100.315 53.8389ZM73.4942 147.032C89.684 147.032 102.808 134.944 102.808 120.032C102.808 105.12 89.684 93.0321 73.4942 93.0321C57.3044 93.0321 44.1799 105.12 44.1799 120.032C44.1799 134.944 57.3044 147.032 73.4942 147.032ZM102.808 186.226C102.808 201.138 89.684 213.226 73.4942 213.226C57.3044 213.226 44.1799 201.138 44.1799 186.226C44.1799 171.314 57.3044 159.226 73.4942 159.226C89.684 159.226 102.808 171.314 102.808 186.226ZM73.4942 279.419C89.684 279.419 102.808 267.331 102.808 252.419C102.808 237.507 89.684 225.419 73.4942 225.419C57.3044 225.419 44.1799 237.507 44.1799 252.419C44.1799 267.331 57.3044 279.419 73.4942 279.419ZM106.548 318.613C106.548 333.525 93.424 345.613 77.2342 345.613C61.0443 345.613 47.9199 333.525 47.9199 318.613C47.9199 303.701 61.0443 291.613 77.2342 291.613C93.424 291.613 106.548 303.701 106.548 318.613ZM79.104 411.806C95.2938 411.806 108.418 399.718 108.418 384.806C108.418 369.894 95.2938 357.806 79.104 357.806C62.9142 357.806 49.7897 369.894 49.7897 384.806C49.7897 399.718 62.9142 411.806 79.104 411.806ZM237.447 52.6772C237.447 67.5889 224.323 79.6772 208.133 79.6772C191.943 79.6772 178.819 67.5889 178.819 52.6772C178.819 37.7655 191.943 25.6772 208.133 25.6772C224.323 25.6772 237.447 37.7655 237.447 52.6772ZM210.627 145.871C226.816 145.871 239.941 133.783 239.941 118.871C239.941 103.959 226.816 91.871 210.627 91.871C194.437 91.871 181.312 103.959 181.312 118.871C181.312 133.783 194.437 145.871 210.627 145.871ZM239.941 185.064C239.941 199.976 226.816 212.064 210.627 212.064C194.437 212.064 181.312 199.976 181.312 185.064C181.312 170.153 194.437 158.064 210.627 158.064C226.816 158.064 239.941 170.153 239.941 185.064ZM210.627 278.258C226.816 278.258 239.941 266.17 239.941 251.258C239.941 236.346 226.816 224.258 210.627 224.258C194.437 224.258 181.312 236.346 181.312 251.258C181.312 266.17 194.437 278.258 210.627 278.258ZM243.681 317.452C243.681 332.364 230.556 344.452 214.367 344.452C198.177 344.452 185.052 332.364 185.052 317.452C185.052 302.54 198.177 290.452 214.367 290.452C230.556 290.452 243.681 302.54 243.681 317.452ZM216.237 410.645C232.426 410.645 245.551 398.557 245.551 383.645C245.551 368.733 232.426 356.645 216.237 356.645C200.047 356.645 186.922 368.733 186.922 383.645C186.922 398.557 200.047 410.645 216.237 410.645ZM374.58 52.6772C374.58 67.5889 361.455 79.6772 345.266 79.6772C329.076 79.6772 315.951 67.5889 315.951 52.6772C315.951 37.7655 329.076 25.6772 345.266 25.6772C361.455 25.6772 374.58 37.7655 374.58 52.6772ZM347.759 145.871C363.949 145.871 377.073 133.783 377.073 118.871C377.073 103.959 363.949 91.871 347.759 91.871C331.569 91.871 318.445 103.959 318.445 118.871C318.445 133.783 331.569 145.871 347.759 145.871ZM377.073 185.064C377.073 199.976 363.949 212.064 347.759 212.064C331.569 212.064 318.445 199.976 318.445 185.064C318.445 170.153 331.569 158.064 347.759 158.064C363.949 158.064 377.073 170.153 377.073 185.064ZM347.759 278.258C363.949 278.258 377.073 266.17 377.073 251.258C377.073 236.346 363.949 224.258 347.759 224.258C331.569 224.258 318.445 236.346 318.445 251.258C318.445 266.17 331.569 278.258 347.759 278.258ZM380.813 317.452C380.813 332.364 367.689 344.452 351.499 344.452C335.309 344.452 322.185 332.364 322.185 317.452C322.185 302.54 335.309 290.452 351.499 290.452C367.689 290.452 380.813 302.54 380.813 317.452ZM353.369 410.645C369.559 410.645 382.683 398.557 382.683 383.645C382.683 368.733 369.559 356.645 353.369 356.645C337.179 356.645 324.055 368.733 324.055 383.645C324.055 398.557 337.179 410.645 353.369 410.645ZM168.881 53.8389C168.881 68.7506 155.757 80.8389 139.567 80.8389C123.377 80.8389 110.253 68.7506 110.253 53.8389C110.253 38.9272 123.377 26.8389 139.567 26.8389C155.757 26.8389 168.881 38.9272 168.881 53.8389ZM142.06 147.032C158.25 147.032 171.375 134.944 171.375 120.032C171.375 105.12 158.25 93.0321 142.06 93.0321C125.87 93.0321 112.746 105.12 112.746 120.032C112.746 134.944 125.87 147.032 142.06 147.032ZM171.375 186.226C171.375 201.138 158.25 213.226 142.06 213.226C125.87 213.226 112.746 201.138 112.746 186.226C112.746 171.314 125.87 159.226 142.06 159.226C158.25 159.226 171.375 171.314 171.375 186.226ZM142.06 279.419C158.25 279.419 171.375 267.331 171.375 252.419C171.375 237.507 158.25 225.419 142.06 225.419C125.87 225.419 112.746 237.507 112.746 252.419C112.746 267.331 125.87 279.419 142.06 279.419ZM175.115 318.613C175.115 333.525 161.99 345.613 145.8 345.613C129.61 345.613 116.486 333.525 116.486 318.613C116.486 303.701 129.61 291.613 145.8 291.613C161.99 291.613 175.115 303.701 175.115 318.613ZM147.67 411.806C163.86 411.806 176.985 399.718 176.985 384.806C176.985 369.894 163.86 357.806 147.67 357.806C131.48 357.806 118.356 369.894 118.356 384.806C118.356 399.718 131.48 411.806 147.67 411.806ZM306.014 52.6772C306.014 67.5889 292.889 79.6772 276.699 79.6772C260.51 79.6772 247.385 67.5889 247.385 52.6772C247.385 37.7655 260.51 25.6772 276.699 25.6772C292.889 25.6772 306.014 37.7655 306.014 52.6772ZM279.193 145.871C295.383 145.871 308.507 133.783 308.507 118.871C308.507 103.959 295.383 91.871 279.193 91.871C263.003 91.871 249.878 103.959 249.878 118.871C249.878 133.783 263.003 145.871 279.193 145.871ZM308.507 185.064C308.507 199.976 295.383 212.064 279.193 212.064C263.003 212.064 249.878 199.976 249.878 185.064C249.878 170.153 263.003 158.064 279.193 158.064C295.383 158.064 308.507 170.153 308.507 185.064ZM279.193 278.258C295.383 278.258 308.507 266.17 308.507 251.258C308.507 236.346 295.383 224.258 279.193 224.258C263.003 224.258 249.878 236.346 249.878 251.258C249.878 266.17 263.003 278.258 279.193 278.258ZM312.247 317.452C312.247 332.364 299.123 344.452 282.933 344.452C266.743 344.452 253.618 332.364 253.618 317.452C253.618 302.54 266.743 290.452 282.933 290.452C299.123 290.452 312.247 302.54 312.247 317.452ZM284.803 410.645C300.993 410.645 314.117 398.557 314.117 383.645C314.117 368.733 300.993 356.645 284.803 356.645C268.613 356.645 255.488 368.733 255.488 383.645C255.488 398.557 268.613 410.645 284.803 410.645ZM443.146 52.6772C443.146 67.5889 430.022 79.6772 413.832 79.6772C397.642 79.6772 384.518 67.5889 384.518 52.6772C384.518 37.7655 397.642 25.6772 413.832 25.6772C430.022 25.6772 443.146 37.7655 443.146 52.6772ZM416.325 145.871C432.515 145.871 445.639 133.783 445.639 118.871C445.639 103.959 432.515 91.871 416.325 91.871C400.135 91.871 387.011 103.959 387.011 118.871C387.011 133.783 400.135 145.871 416.325 145.871ZM445.639 185.064C445.639 199.976 432.515 212.064 416.325 212.064C400.135 212.064 387.011 199.976 387.011 185.064C387.011 170.153 400.135 158.064 416.325 158.064C432.515 158.064 445.639 170.153 445.639 185.064ZM416.325 278.258C432.515 278.258 445.639 266.17 445.639 251.258C445.639 236.346 432.515 224.258 416.325 224.258C400.135 224.258 387.011 236.346 387.011 251.258C387.011 266.17 400.135 278.258 416.325 278.258ZM449.379 317.452C449.379 332.364 436.255 344.452 420.065 344.452C403.875 344.452 390.751 332.364 390.751 317.452C390.751 302.54 403.875 290.452 420.065 290.452C436.255 290.452 449.379 302.54 449.379 317.452ZM421.935 410.645C438.125 410.645 451.249 398.557 451.249 383.645C451.249 368.733 438.125 356.645 421.935 356.645C405.745 356.645 392.621 368.733 392.621 383.645C392.621 398.557 405.745 410.645 421.935 410.645ZM511.712 51.5161C511.712 66.4278 498.588 78.5161 482.398 78.5161C466.208 78.5161 453.084 66.4278 453.084 51.5161C453.084 36.6044 466.208 24.5161 482.398 24.5161C498.588 24.5161 511.712 36.6044 511.712 51.5161ZM484.892 144.71C501.081 144.71 514.206 132.622 514.206 117.71C514.206 102.798 501.081 90.71 484.892 90.71C468.702 90.71 455.577 102.798 455.577 117.71C455.577 132.622 468.702 144.71 484.892 144.71ZM514.206 183.903C514.206 198.815 501.081 210.903 484.892 210.903C468.702 210.903 455.577 198.815 455.577 183.903C455.577 168.991 468.702 156.903 484.892 156.903C501.081 156.903 514.206 168.991 514.206 183.903ZM484.892 277.097C501.081 277.097 514.206 265.009 514.206 250.097C514.206 235.185 501.081 223.097 484.892 223.097C468.702 223.097 455.577 235.185 455.577 250.097C455.577 265.009 468.702 277.097 484.892 277.097ZM517.946 316.29C517.946 331.202 504.821 343.29 488.631 343.29C472.441 343.29 459.317 331.202 459.317 316.29C459.317 301.379 472.441 289.29 488.631 289.29C504.821 289.29 517.946 301.379 517.946 316.29ZM490.501 409.484C506.691 409.484 519.816 397.396 519.816 382.484C519.816 367.572 506.691 355.484 490.501 355.484C474.312 355.484 461.187 367.572 461.187 382.484C461.187 397.396 474.312 409.484 490.501 409.484Z" fill="#EAE6E6"/>
<path d="M32 6C22.0589 6 14 14.0589 14 24H22C22 18.4771 26.4771 14 32 14V6ZM517 6H32V14H517V6ZM535 24C535 14.0589 526.941 6 517 6V14C522.523 14 527 18.4772 527 24H535ZM535 410V24H527V410H535ZM517 428C526.941 428 535 419.941 535 410H527C527 415.523 522.523 420 517 420V428ZM32 428H517V420H32V428ZM14 410C14 419.941 22.0589 428 32 428V420C26.4772 420 22 415.523 22 410H14ZM14 24V410H22V24H14ZM71.0008 84.8389C89.0837 84.8389 104.315 71.263 104.315 53.8389H96.315C96.315 66.2381 85.2975 76.8389 71.0008 76.8389V84.8389ZM37.6865 53.8389C37.6865 71.263 52.9178 84.8389 71.0008 84.8389V76.8389C56.704 76.8389 45.6865 66.2381 45.6865 53.8389H37.6865ZM71.0008 22.8389C52.9178 22.8389 37.6865 36.4147 37.6865 53.8389H45.6865C45.6865 41.4397 56.704 30.8389 71.0008 30.8389V22.8389ZM104.315 53.8389C104.315 36.4147 89.0837 22.8389 71.0008 22.8389V30.8389C85.2975 30.8389 96.315 41.4397 96.315 53.8389H104.315ZM98.8085 120.032C98.8085 132.431 87.791 143.032 73.4942 143.032V151.032C91.5771 151.032 106.808 137.456 106.808 120.032H98.8085ZM73.4942 97.0321C87.791 97.0321 98.8085 107.633 98.8085 120.032H106.808C106.808 102.608 91.5771 89.0321 73.4942 89.0321V97.0321ZM48.1799 120.032C48.1799 107.633 59.1974 97.0321 73.4942 97.0321V89.0321C55.4113 89.0321 40.1799 102.608 40.1799 120.032H48.1799ZM73.4942 143.032C59.1974 143.032 48.1799 132.431 48.1799 120.032H40.1799C40.1799 137.456 55.4113 151.032 73.4942 151.032V143.032ZM73.4942 217.226C91.5771 217.226 106.808 203.65 106.808 186.226H98.8085C98.8085 198.625 87.791 209.226 73.4942 209.226V217.226ZM40.1799 186.226C40.1799 203.65 55.4113 217.226 73.4942 217.226V209.226C59.1974 209.226 48.1799 198.625 48.1799 186.226H40.1799ZM73.4942 155.226C55.4113 155.226 40.1799 168.802 40.1799 186.226H48.1799C48.1799 173.827 59.1974 163.226 73.4942 163.226V155.226ZM106.808 186.226C106.808 168.802 91.5771 155.226 73.4942 155.226V163.226C87.791 163.226 98.8085 173.827 98.8085 186.226H106.808ZM98.8085 252.419C98.8085 264.818 87.791 275.419 73.4942 275.419V283.419C91.5771 283.419 106.808 269.843 106.808 252.419H98.8085ZM73.4942 229.419C87.791 229.419 98.8085 240.02 98.8085 252.419H106.808C106.808 234.995 91.5771 221.419 73.4942 221.419V229.419ZM48.1799 252.419C48.1799 240.02 59.1974 229.419 73.4942 229.419V221.419C55.4113 221.419 40.1799 234.995 40.1799 252.419H48.1799ZM73.4942 275.419C59.1974 275.419 48.1799 264.818 48.1799 252.419H40.1799C40.1799 269.843 55.4113 283.419 73.4942 283.419V275.419ZM77.2342 349.613C95.3171 349.613 110.548 336.037 110.548 318.613H102.548C102.548 331.012 91.5309 341.613 77.2342 341.613V349.613ZM43.9199 318.613C43.9199 336.037 59.1513 349.613 77.2342 349.613V341.613C62.9374 341.613 51.9199 331.012 51.9199 318.613H43.9199ZM77.2342 287.613C59.1513 287.613 43.9199 301.189 43.9199 318.613H51.9199C51.9199 306.214 62.9374 295.613 77.2342 295.613V287.613ZM110.548 318.613C110.548 301.189 95.3171 287.613 77.2342 287.613V295.613C91.5309 295.613 102.548 306.214 102.548 318.613H110.548ZM104.418 384.806C104.418 397.205 93.4008 407.806 79.104 407.806V415.806C97.1869 415.806 112.418 402.23 112.418 384.806H104.418ZM79.104 361.806C93.4008 361.806 104.418 372.407 104.418 384.806H112.418C112.418 367.382 97.1869 353.806 79.104 353.806V361.806ZM53.7897 384.806C53.7897 372.407 64.8073 361.806 79.104 361.806V353.806C61.0211 353.806 45.7897 367.382 45.7897 384.806H53.7897ZM79.104 407.806C64.8073 407.806 53.7897 397.205 53.7897 384.806H45.7897C45.7897 402.23 61.0211 415.806 79.104 415.806V407.806ZM208.133 83.6772C226.216 83.6772 241.447 70.1014 241.447 52.6772H233.447C233.447 65.0764 222.43 75.6772 208.133 75.6772V83.6772ZM174.819 52.6772C174.819 70.1014 190.05 83.6772 208.133 83.6772V75.6772C193.836 75.6772 182.819 65.0764 182.819 52.6772H174.819ZM208.133 21.6772C190.05 21.6772 174.819 35.253 174.819 52.6772H182.819C182.819 40.278 193.836 29.6772 208.133 29.6772V21.6772ZM241.447 52.6772C241.447 35.253 226.216 21.6772 208.133 21.6772V29.6772C222.43 29.6772 233.447 40.278 233.447 52.6772H241.447ZM235.941 118.871C235.941 131.27 224.923 141.871 210.627 141.871V149.871C228.71 149.871 243.941 136.295 243.941 118.871H235.941ZM210.627 95.871C224.923 95.871 235.941 106.472 235.941 118.871H243.941C243.941 101.447 228.71 87.871 210.627 87.871V95.871ZM185.312 118.871C185.312 106.472 196.33 95.871 210.627 95.871V87.871C192.544 87.871 177.312 101.447 177.312 118.871H185.312ZM210.627 141.871C196.33 141.871 185.312 131.27 185.312 118.871H177.312C177.312 136.295 192.544 149.871 210.627 149.871V141.871ZM210.627 216.064C228.71 216.064 243.941 202.488 243.941 185.064H235.941C235.941 197.463 224.923 208.064 210.627 208.064V216.064ZM177.312 185.064C177.312 202.488 192.544 216.064 210.627 216.064V208.064C196.33 208.064 185.312 197.463 185.312 185.064H177.312ZM210.627 154.064C192.544 154.064 177.312 167.64 177.312 185.064H185.312C185.312 172.665 196.33 162.064 210.627 162.064V154.064ZM243.941 185.064C243.941 167.64 228.71 154.064 210.627 154.064V162.064C224.923 162.064 235.941 172.665 235.941 185.064H243.941ZM235.941 251.258C235.941 263.657 224.923 274.258 210.627 274.258V282.258C228.71 282.258 243.941 268.682 243.941 251.258H235.941ZM210.627 228.258C224.923 228.258 235.941 238.859 235.941 251.258H243.941C243.941 233.834 228.71 220.258 210.627 220.258V228.258ZM185.312 251.258C185.312 238.859 196.33 228.258 210.627 228.258V220.258C192.544 220.258 177.312 233.834 177.312 251.258H185.312ZM210.627 274.258C196.33 274.258 185.312 263.657 185.312 251.258H177.312C177.312 268.682 192.544 282.258 210.627 282.258V274.258ZM214.367 348.452C232.45 348.452 247.681 334.876 247.681 317.452H239.681C239.681 329.851 228.663 340.452 214.367 340.452V348.452ZM181.052 317.452C181.052 334.876 196.284 348.452 214.367 348.452V340.452C200.07 340.452 189.052 329.851 189.052 317.452H181.052ZM214.367 286.452C196.284 286.452 181.052 300.028 181.052 317.452H189.052C189.052 305.053 200.07 294.452 214.367 294.452V286.452ZM247.681 317.452C247.681 300.028 232.45 286.452 214.367 286.452V294.452C228.663 294.452 239.681 305.053 239.681 317.452H247.681ZM241.551 383.645C241.551 396.044 230.533 406.645 216.237 406.645V414.645C234.319 414.645 249.551 401.069 249.551 383.645H241.551ZM216.237 360.645C230.533 360.645 241.551 371.246 241.551 383.645H249.551C249.551 366.221 234.319 352.645 216.237 352.645V360.645ZM190.922 383.645C190.922 371.246 201.94 360.645 216.237 360.645V352.645C198.154 352.645 182.922 366.221 182.922 383.645H190.922ZM216.237 406.645C201.94 406.645 190.922 396.044 190.922 383.645H182.922C182.922 401.069 198.154 414.645 216.237 414.645V406.645ZM345.266 83.6772C363.349 83.6772 378.58 70.1014 378.58 52.6772H370.58C370.58 65.0764 359.562 75.6772 345.266 75.6772V83.6772ZM311.951 52.6772C311.951 70.1014 327.183 83.6772 345.266 83.6772V75.6772C330.969 75.6772 319.951 65.0764 319.951 52.6772H311.951ZM345.266 21.6772C327.183 21.6772 311.951 35.253 311.951 52.6772H319.951C319.951 40.278 330.969 29.6772 345.266 29.6772V21.6772ZM378.58 52.6772C378.58 35.253 363.349 21.6772 345.266 21.6772V29.6772C359.562 29.6772 370.58 40.278 370.58 52.6772H378.58ZM373.073 118.871C373.073 131.27 362.056 141.871 347.759 141.871V149.871C365.842 149.871 381.073 136.295 381.073 118.871H373.073ZM347.759 95.871C362.056 95.871 373.073 106.472 373.073 118.871H381.073C381.073 101.447 365.842 87.871 347.759 87.871V95.871ZM322.445 118.871C322.445 106.472 333.462 95.871 347.759 95.871V87.871C329.676 87.871 314.445 101.447 314.445 118.871H322.445ZM347.759 141.871C333.462 141.871 322.445 131.27 322.445 118.871H314.445C314.445 136.295 329.676 149.871 347.759 149.871V141.871ZM347.759 216.064C365.842 216.064 381.073 202.488 381.073 185.064H373.073C373.073 197.463 362.056 208.064 347.759 208.064V216.064ZM314.445 185.064C314.445 202.488 329.676 216.064 347.759 216.064V208.064C333.462 208.064 322.445 197.463 322.445 185.064H314.445ZM347.759 154.064C329.676 154.064 314.445 167.64 314.445 185.064H322.445C322.445 172.665 333.462 162.064 347.759 162.064V154.064ZM381.073 185.064C381.073 167.64 365.842 154.064 347.759 154.064V162.064C362.056 162.064 373.073 172.665 373.073 185.064H381.073ZM373.073 251.258C373.073 263.657 362.056 274.258 347.759 274.258V282.258C365.842 282.258 381.073 268.682 381.073 251.258H373.073ZM347.759 228.258C362.056 228.258 373.073 238.859 373.073 251.258H381.073C381.073 233.834 365.842 220.258 347.759 220.258V228.258ZM322.445 251.258C322.445 238.859 333.462 228.258 347.759 228.258V220.258C329.676 220.258 314.445 233.834 314.445 251.258H322.445ZM347.759 274.258C333.462 274.258 322.445 263.657 322.445 251.258H314.445C314.445 268.682 329.676 282.258 347.759 282.258V274.258ZM351.499 348.452C369.582 348.452 384.813 334.876 384.813 317.452H376.813C376.813 329.851 365.796 340.452 351.499 340.452V348.452ZM318.185 317.452C318.185 334.876 333.416 348.452 351.499 348.452V340.452C337.202 340.452 326.185 329.851 326.185 317.452H318.185ZM351.499 286.452C333.416 286.452 318.185 300.028 318.185 317.452H326.185C326.185 305.053 337.202 294.452 351.499 294.452V286.452ZM384.813 317.452C384.813 300.028 369.582 286.452 351.499 286.452V294.452C365.796 294.452 376.813 305.053 376.813 317.452H384.813ZM378.683 383.645C378.683 396.044 367.666 406.645 353.369 406.645V414.645C371.452 414.645 386.683 401.069 386.683 383.645H378.683ZM353.369 360.645C367.666 360.645 378.683 371.246 378.683 383.645H386.683C386.683 366.221 371.452 352.645 353.369 352.645V360.645ZM328.055 383.645C328.055 371.246 339.072 360.645 353.369 360.645V352.645C335.286 352.645 320.055 366.221 320.055 383.645H328.055ZM353.369 406.645C339.072 406.645 328.055 396.044 328.055 383.645H320.055C320.055 401.069 335.286 414.645 353.369 414.645V406.645ZM139.567 84.8389C157.65 84.8389 172.881 71.263 172.881 53.8389H164.881C164.881 66.2381 153.864 76.8389 139.567 76.8389V84.8389ZM106.253 53.8389C106.253 71.263 121.484 84.8389 139.567 84.8389V76.8389C125.27 76.8389 114.253 66.2381 114.253 53.8389H106.253ZM139.567 22.8389C121.484 22.8389 106.253 36.4147 106.253 53.8389H114.253C114.253 41.4397 125.27 30.8389 139.567 30.8389V22.8389ZM172.881 53.8389C172.881 36.4147 157.65 22.8389 139.567 22.8389V30.8389C153.864 30.8389 164.881 41.4397 164.881 53.8389H172.881ZM167.375 120.032C167.375 132.431 156.357 143.032 142.06 143.032V151.032C160.143 151.032 175.375 137.456 175.375 120.032H167.375ZM142.06 97.0321C156.357 97.0321 167.375 107.633 167.375 120.032H175.375C175.375 102.608 160.143 89.0321 142.06 89.0321V97.0321ZM116.746 120.032C116.746 107.633 127.764 97.0321 142.06 97.0321V89.0321C123.977 89.0321 108.746 102.608 108.746 120.032H116.746ZM142.06 143.032C127.764 143.032 116.746 132.431 116.746 120.032H108.746C108.746 137.456 123.977 151.032 142.06 151.032V143.032ZM142.06 217.226C160.143 217.226 175.375 203.65 175.375 186.226H167.375C167.375 198.625 156.357 209.226 142.06 209.226V217.226ZM108.746 186.226C108.746 203.65 123.977 217.226 142.06 217.226V209.226C127.764 209.226 116.746 198.625 116.746 186.226H108.746ZM142.06 155.226C123.977 155.226 108.746 168.802 108.746 186.226H116.746C116.746 173.827 127.764 163.226 142.06 163.226V155.226ZM175.375 186.226C175.375 168.802 160.143 155.226 142.06 155.226V163.226C156.357 163.226 167.375 173.827 167.375 186.226H175.375ZM167.375 252.419C167.375 264.818 156.357 275.419 142.06 275.419V283.419C160.143 283.419 175.375 269.843 175.375 252.419H167.375ZM142.06 229.419C156.357 229.419 167.375 240.02 167.375 252.419H175.375C175.375 234.995 160.143 221.419 142.06 221.419V229.419ZM116.746 252.419C116.746 240.02 127.764 229.419 142.06 229.419V221.419C123.977 221.419 108.746 234.995 108.746 252.419H116.746ZM142.06 275.419C127.764 275.419 116.746 264.818 116.746 252.419H108.746C108.746 269.843 123.977 283.419 142.06 283.419V275.419ZM145.8 349.613C163.883 349.613 179.115 336.037 179.115 318.613H171.115C171.115 331.012 160.097 341.613 145.8 341.613V349.613ZM112.486 318.613C112.486 336.037 127.717 349.613 145.8 349.613V341.613C131.504 341.613 120.486 331.012 120.486 318.613H112.486ZM145.8 287.613C127.717 287.613 112.486 301.189 112.486 318.613H120.486C120.486 306.214 131.504 295.613 145.8 295.613V287.613ZM179.115 318.613C179.115 301.189 163.883 287.613 145.8 287.613V295.613C160.097 295.613 171.115 306.214 171.115 318.613H179.115ZM172.985 384.806C172.985 397.205 161.967 407.806 147.67 407.806V415.806C165.753 415.806 180.985 402.23 180.985 384.806H172.985ZM147.67 361.806C161.967 361.806 172.985 372.407 172.985 384.806H180.985C180.985 367.382 165.753 353.806 147.67 353.806V361.806ZM122.356 384.806C122.356 372.407 133.374 361.806 147.67 361.806V353.806C129.587 353.806 114.356 367.382 114.356 384.806H122.356ZM147.67 407.806C133.374 407.806 122.356 397.205 122.356 384.806H114.356C114.356 402.23 129.587 415.806 147.67 415.806V407.806ZM276.699 83.6772C294.782 83.6772 310.014 70.1014 310.014 52.6772H302.014C302.014 65.0764 290.996 75.6772 276.699 75.6772V83.6772ZM243.385 52.6772C243.385 70.1014 258.617 83.6772 276.699 83.6772V75.6772C262.403 75.6772 251.385 65.0764 251.385 52.6772H243.385ZM276.699 21.6772C258.617 21.6772 243.385 35.253 243.385 52.6772H251.385C251.385 40.278 262.403 29.6772 276.699 29.6772V21.6772ZM310.014 52.6772C310.014 35.253 294.782 21.6772 276.699 21.6772V29.6772C290.996 29.6772 302.014 40.278 302.014 52.6772H310.014ZM304.507 118.871C304.507 131.27 293.489 141.871 279.193 141.871V149.871C297.276 149.871 312.507 136.295 312.507 118.871H304.507ZM279.193 95.871C293.489 95.871 304.507 106.472 304.507 118.871H312.507C312.507 101.447 297.276 87.871 279.193 87.871V95.871ZM253.878 118.871C253.878 106.472 264.896 95.871 279.193 95.871V87.871C261.11 87.871 245.878 101.447 245.878 118.871H253.878ZM279.193 141.871C264.896 141.871 253.878 131.27 253.878 118.871H245.878C245.878 136.295 261.11 149.871 279.193 149.871V141.871ZM279.193 216.064C297.276 216.064 312.507 202.488 312.507 185.064H304.507C304.507 197.463 293.489 208.064 279.193 208.064V216.064ZM245.878 185.064C245.878 202.488 261.11 216.064 279.193 216.064V208.064C264.896 208.064 253.878 197.463 253.878 185.064H245.878ZM279.193 154.064C261.11 154.064 245.878 167.64 245.878 185.064H253.878C253.878 172.665 264.896 162.064 279.193 162.064V154.064ZM312.507 185.064C312.507 167.64 297.276 154.064 279.193 154.064V162.064C293.489 162.064 304.507 172.665 304.507 185.064H312.507ZM304.507 251.258C304.507 263.657 293.489 274.258 279.193 274.258V282.258C297.276 282.258 312.507 268.682 312.507 251.258H304.507ZM279.193 228.258C293.489 228.258 304.507 238.859 304.507 251.258H312.507C312.507 233.834 297.276 220.258 279.193 220.258V228.258ZM253.878 251.258C253.878 238.859 264.896 228.258 279.193 228.258V220.258C261.11 220.258 245.878 233.834 245.878 251.258H253.878ZM279.193 274.258C264.896 274.258 253.878 263.657 253.878 251.258H245.878C245.878 268.682 261.11 282.258 279.193 282.258V274.258ZM282.933 348.452C301.016 348.452 316.247 334.876 316.247 317.452H308.247C308.247 329.851 297.23 340.452 282.933 340.452V348.452ZM249.618 317.452C249.618 334.876 264.85 348.452 282.933 348.452V340.452C268.636 340.452 257.618 329.851 257.618 317.452H249.618ZM282.933 286.452C264.85 286.452 249.618 300.028 249.618 317.452H257.618C257.618 305.053 268.636 294.452 282.933 294.452V286.452ZM316.247 317.452C316.247 300.028 301.016 286.452 282.933 286.452V294.452C297.23 294.452 308.247 305.053 308.247 317.452H316.247ZM310.117 383.645C310.117 396.044 299.1 406.645 284.803 406.645V414.645C302.886 414.645 318.117 401.069 318.117 383.645H310.117ZM284.803 360.645C299.1 360.645 310.117 371.246 310.117 383.645H318.117C318.117 366.221 302.886 352.645 284.803 352.645V360.645ZM259.488 383.645C259.488 371.246 270.506 360.645 284.803 360.645V352.645C266.72 352.645 251.488 366.221 251.488 383.645H259.488ZM284.803 406.645C270.506 406.645 259.488 396.044 259.488 383.645H251.488C251.488 401.069 266.72 414.645 284.803 414.645V406.645ZM413.832 83.6772C431.915 83.6772 447.146 70.1014 447.146 52.6772H439.146C439.146 65.0764 428.129 75.6772 413.832 75.6772V83.6772ZM380.518 52.6772C380.518 70.1014 395.749 83.6772 413.832 83.6772V75.6772C399.535 75.6772 388.518 65.0764 388.518 52.6772H380.518ZM413.832 21.6772C395.749 21.6772 380.518 35.253 380.518 52.6772H388.518C388.518 40.278 399.535 29.6772 413.832 29.6772V21.6772ZM447.146 52.6772C447.146 35.253 431.915 21.6772 413.832 21.6772V29.6772C428.129 29.6772 439.146 40.278 439.146 52.6772H447.146ZM441.639 118.871C441.639 131.27 430.622 141.871 416.325 141.871V149.871C434.408 149.871 449.639 136.295 449.639 118.871H441.639ZM416.325 95.871C430.622 95.871 441.639 106.472 441.639 118.871H449.639C449.639 101.447 434.408 87.871 416.325 87.871V95.871ZM391.011 118.871C391.011 106.472 402.028 95.871 416.325 95.871V87.871C398.242 87.871 383.011 101.447 383.011 118.871H391.011ZM416.325 141.871C402.028 141.871 391.011 131.27 391.011 118.871H383.011C383.011 136.295 398.242 149.871 416.325 149.871V141.871ZM416.325 216.064C434.408 216.064 449.639 202.488 449.639 185.064H441.639C441.639 197.463 430.622 208.064 416.325 208.064V216.064ZM383.011 185.064C383.011 202.488 398.242 216.064 416.325 216.064V208.064C402.028 208.064 391.011 197.463 391.011 185.064H383.011ZM416.325 154.064C398.242 154.064 383.011 167.64 383.011 185.064H391.011C391.011 172.665 402.028 162.064 416.325 162.064V154.064ZM449.639 185.064C449.639 167.64 434.408 154.064 416.325 154.064V162.064C430.622 162.064 441.639 172.665 441.639 185.064H449.639ZM441.639 251.258C441.639 263.657 430.622 274.258 416.325 274.258V282.258C434.408 282.258 449.639 268.682 449.639 251.258H441.639ZM416.325 228.258C430.622 228.258 441.639 238.859 441.639 251.258H449.639C449.639 233.834 434.408 220.258 416.325 220.258V228.258ZM391.011 251.258C391.011 238.859 402.028 228.258 416.325 228.258V220.258C398.242 220.258 383.011 233.834 383.011 251.258H391.011ZM416.325 274.258C402.028 274.258 391.011 263.657 391.011 251.258H383.011C383.011 268.682 398.242 282.258 416.325 282.258V274.258ZM420.065 348.452C438.148 348.452 453.379 334.876 453.379 317.452H445.379C445.379 329.851 434.362 340.452 420.065 340.452V348.452ZM386.751 317.452C386.751 334.876 401.982 348.452 420.065 348.452V340.452C405.768 340.452 394.751 329.851 394.751 317.452H386.751ZM420.065 286.452C401.982 286.452 386.751 300.028 386.751 317.452H394.751C394.751 305.053 405.768 294.452 420.065 294.452V286.452ZM453.379 317.452C453.379 300.028 438.148 286.452 420.065 286.452V294.452C434.362 294.452 445.379 305.053 445.379 317.452H453.379ZM447.249 383.645C447.249 396.044 436.232 406.645 421.935 406.645V414.645C440.018 414.645 455.249 401.069 455.249 383.645H447.249ZM421.935 360.645C436.232 360.645 447.249 371.246 447.249 383.645H455.249C455.249 366.221 440.018 352.645 421.935 352.645V360.645ZM396.621 383.645C396.621 371.246 407.638 360.645 421.935 360.645V352.645C403.852 352.645 388.621 366.221 388.621 383.645H396.621ZM421.935 406.645C407.638 406.645 396.621 396.044 396.621 383.645H388.621C388.621 401.069 403.852 414.645 421.935 414.645V406.645ZM482.398 82.5161C500.481 82.5161 515.712 68.9403 515.712 51.5161H507.712C507.712 63.9153 496.695 74.5161 482.398 74.5161V82.5161ZM449.084 51.5161C449.084 68.9403 464.315 82.5161 482.398 82.5161V74.5161C468.101 74.5161 457.084 63.9153 457.084 51.5161H449.084ZM482.398 20.5161C464.315 20.5161 449.084 34.092 449.084 51.5161H457.084C457.084 39.1169 468.101 28.5161 482.398 28.5161V20.5161ZM515.712 51.5161C515.712 34.092 500.481 20.5161 482.398 20.5161V28.5161C496.695 28.5161 507.712 39.1169 507.712 51.5161H515.712ZM510.206 117.71C510.206 130.109 499.188 140.71 484.892 140.71V148.71C502.975 148.71 518.206 135.134 518.206 117.71H510.206ZM484.892 94.71C499.188 94.71 510.206 105.311 510.206 117.71H518.206C518.206 100.286 502.975 86.71 484.892 86.71V94.71ZM459.577 117.71C459.577 105.311 470.595 94.71 484.892 94.71V86.71C466.809 86.71 451.577 100.286 451.577 117.71H459.577ZM484.892 140.71C470.595 140.71 459.577 130.109 459.577 117.71H451.577C451.577 135.134 466.809 148.71 484.892 148.71V140.71ZM484.892 214.903C502.975 214.903 518.206 201.327 518.206 183.903H510.206C510.206 196.302 499.188 206.903 484.892 206.903V214.903ZM451.577 183.903C451.577 201.327 466.809 214.903 484.892 214.903V206.903C470.595 206.903 459.577 196.302 459.577 183.903H451.577ZM484.892 152.903C466.809 152.903 451.577 166.479 451.577 183.903H459.577C459.577 171.504 470.595 160.903 484.892 160.903V152.903ZM518.206 183.903C518.206 166.479 502.975 152.903 484.892 152.903V160.903C499.188 160.903 510.206 171.504 510.206 183.903H518.206ZM510.206 250.097C510.206 262.496 499.188 273.097 484.892 273.097V281.097C502.975 281.097 518.206 267.521 518.206 250.097H510.206ZM484.892 227.097C499.188 227.097 510.206 237.698 510.206 250.097H518.206C518.206 232.673 502.975 219.097 484.892 219.097V227.097ZM459.577 250.097C459.577 237.698 470.595 227.097 484.892 227.097V219.097C466.809 219.097 451.577 232.673 451.577 250.097H459.577ZM484.892 273.097C470.595 273.097 459.577 262.496 459.577 250.097H451.577C451.577 267.521 466.809 281.097 484.892 281.097V273.097ZM488.631 347.29C506.714 347.29 521.946 333.714 521.946 316.29H513.946C513.946 328.689 502.928 339.29 488.631 339.29V347.29ZM455.317 316.29C455.317 333.714 470.548 347.29 488.631 347.29V339.29C474.335 339.29 463.317 328.689 463.317 316.29H455.317ZM488.631 285.29C470.548 285.29 455.317 298.866 455.317 316.29H463.317C463.317 303.891 474.335 293.29 488.631 293.29V285.29ZM521.946 316.29C521.946 298.866 506.714 285.29 488.631 285.29V293.29C502.928 293.29 513.946 303.891 513.946 316.29H521.946ZM515.816 382.484C515.816 394.883 504.798 405.484 490.501 405.484V413.484C508.584 413.484 523.816 399.908 523.816 382.484H515.816ZM490.501 359.484C504.798 359.484 515.816 370.085 515.816 382.484H523.816C523.816 365.06 508.584 351.484 490.501 351.484V359.484ZM465.187 382.484C465.187 370.085 476.205 359.484 490.501 359.484V351.484C472.419 351.484 457.187 365.06 457.187 382.484H465.187ZM490.501 405.484C476.205 405.484 465.187 394.883 465.187 382.484H457.187C457.187 399.908 472.419 413.484 490.501 413.484V405.484Z" fill="black" mask="url(#path-1-inside-1_2636_2502)"/>
</g>
<defs>
<filter id="filter0_dd_2636_2502" x="0" y="0" width="549" height="450" filterUnits="userSpaceOnUse" color-interpolation-filters="sRGB">
<feFlood flood-opacity="0" result="BackgroundImageFix"/>
<feColorMatrix in="SourceAlpha" type="matrix" values="0 0 0 0 0 0 0 0 0 0 0 0 0 0 0 0 0 0 127 0" result="hardAlpha"/>
<feOffset dy="4"/>
<feGaussianBlur stdDeviation="2"/>
<feColorMatrix type="matrix" values="0 0 0 0 0 0 0 0 0 0 0 0 0 0 0 0 0 0 0.3 0"/>
<feBlend mode="normal" in2="BackgroundImageFix" result="effect1_dropShadow_2636_2502"/>
<feColorMatrix in="SourceAlpha" type="matrix" values="0 0 0 0 0 0 0 0 0 0 0 0 0 0 0 0 0 0 127 0" result="hardAlpha"/>
<feMorphology radius="6" operator="dilate" in="SourceAlpha" result="effect2_dropShadow_2636_2502"/>
<feOffset dy="8"/>
<feGaussianBlur stdDeviation="6"/>
<feColorMatrix type="matrix" values="0 0 0 0 0 0 0 0 0 0 0 0 0 0 0 0 0 0 0.15 0"/>
<feBlend mode="normal" in2="effect1_dropShadow_2636_2502" result="effect2_dropShadow_2636_2502"/>
<feBlend mode="normal" in="SourceGraphic" in2="effect2_dropShadow_2636_2502" result="shape"/>
</filter>
</defs>
</svg>
