<svg width="19" height="19" viewBox="0 0 19 19" fill="none" xmlns="http://www.w3.org/2000/svg">
<path d="M1 18V14.3699C1 13.6858 1.27152 13.0296 1.75492 12.5456L6.46856 7.82568L11.1822 3.10576L12.5289 1.75721C13.5369 0.747867 15.1724 0.747557 16.1808 1.75652L17.2444 2.82071C18.2519 3.82878 18.2519 5.4627 17.2444 6.47077L15.8959 7.82007L6.47786 17.2435C5.99376 17.7279 5.33705 18 4.65228 18H1Z" fill="#F1FAEE"/>
<path d="M6.47786 17.2435C5.99376 17.7279 5.33705 18 4.65228 18H1V14.3699C1 13.6858 1.27152 13.0296 1.75492 12.5456M6.47786 17.2435L1.75492 12.5456M6.47786 17.2435L15.8959 7.82007M1.75492 12.5456L6.46856 7.82568L11.1822 3.10576M11.1822 3.10576L12.5289 1.75721C13.5369 0.747867 15.1724 0.747557 16.1808 1.75652L17.2444 2.82071C18.2519 3.82878 18.2519 5.4627 17.2444 6.47077L15.8959 7.82007M11.1822 3.10576L15.8959 7.82007" stroke="white" strokeWidth="0.5" strokeLinecap="round" stroke-linejoin="round"/>
</svg>
