<svg width="38" height="38" viewBox="0 0 38 38" fill="none" xmlns="http://www.w3.org/2000/svg">
<path fill-rule="evenodd" clip-rule="evenodd" d="M31.8484 8.29216C32.925 9.29184 33.646 10.9139 33.646 13.4584V24.5417C33.646 27.0862 32.925 28.7083 31.8484 29.708C30.7559 30.7224 29.1098 31.2709 26.9168 31.2709H11.0835C8.89058 31.2709 7.24455 30.7224 6.15189 29.708C5.07538 28.7083 4.35433 27.0862 4.35433 24.5417V13.4584C4.35433 10.9139 5.07538 9.29184 6.15189 8.29216C7.24455 7.27767 8.89058 6.72925 11.0835 6.72925H26.9168C29.1098 6.72925 30.7559 7.27767 31.8484 8.29216ZM33.4645 6.55176C31.7861 4.99333 29.4739 4.35425 26.9168 4.35425H11.0835C8.52641 4.35425 6.21412 4.99333 4.53594 6.55176C2.84161 8.12499 1.97933 10.4612 1.97933 13.4584V24.5417C1.97933 27.539 2.84161 29.8752 4.53594 31.4484C6.21412 33.0069 8.52641 33.6459 11.0835 33.6459H26.9168C29.4739 33.6459 31.7861 33.0069 33.4645 31.4484C35.1587 29.8752 36.021 27.539 36.021 24.5417V13.4584C36.021 10.4612 35.1587 8.12499 33.4645 6.55176Z" fill="#797979"/>
<path fill-rule="evenodd" clip-rule="evenodd" d="M7.34148 11.5747C6.94042 12.0936 7.03606 12.8394 7.55491 13.2404L16.3378 20.027C17.906 21.2386 20.0943 21.2386 21.6624 20.027L30.4453 13.2404C30.9642 12.8394 31.0598 12.0936 30.6588 11.5747C30.2578 11.0557 29.5121 10.9601 28.9931 11.3611L20.2103 18.1476C19.4975 18.6985 18.5027 18.6985 17.7901 18.1476L9.00715 11.3611C8.48813 10.9601 7.74238 11.0557 7.34148 11.5747Z" fill="#797979"/>
</svg>
