<svg width="560" height="460" viewBox="0 0 560 460" fill="none" xmlns="http://www.w3.org/2000/svg">
<mask id="path-1-inside-1_2639_2600" fill="white">
<path fill-rule="evenodd" clip-rule="evenodd" d="M0 15C0 6.71573 6.71573 0 15 0H545C553.284 0 560 6.71573 560 15V445C560 453.284 553.284 460 545 460H15C6.71574 460 0 453.284 0 445V15ZM75 49C75 65.5685 60.6731 79 43 79C25.3269 79 11 65.5685 11 49C11 32.4315 25.3269 19 43 19C60.6731 19 75 32.4315 75 49ZM43 153C60.6731 153 75 139.569 75 123C75 106.431 60.6731 93 43 93C25.3269 93 11 106.431 11 123C11 139.569 25.3269 153 43 153ZM75 197C75 213.569 60.6731 227 43 227C25.3269 227 11 213.569 11 197C11 180.431 25.3269 167 43 167C60.6731 167 75 180.431 75 197ZM43 301C60.6731 301 75 287.569 75 271C75 254.431 60.6731 241 43 241C25.3269 241 11 254.431 11 271C11 287.569 25.3269 301 43 301ZM75 345C75 361.569 60.6731 375 43 375C25.3269 375 11 361.569 11 345C11 328.431 25.3269 315 43 315C60.6731 315 75 328.431 75 345ZM43 449C60.6731 449 75 435.569 75 419C75 402.431 60.6731 389 43 389C25.3269 389 11 402.431 11 419C11 435.569 25.3269 449 43 449ZM154 49C154 65.5685 139.673 79 122 79C104.327 79 90 65.5685 90 49C90 32.4315 104.327 19 122 19C139.673 19 154 32.4315 154 49ZM122 153C139.673 153 154 139.569 154 123C154 106.431 139.673 93 122 93C104.327 93 90 106.431 90 123C90 139.569 104.327 153 122 153ZM154 197C154 213.569 139.673 227 122 227C104.327 227 90 213.569 90 197C90 180.431 104.327 167 122 167C139.673 167 154 180.431 154 197ZM122 301C139.673 301 154 287.569 154 271C154 254.431 139.673 241 122 241C104.327 241 90 254.431 90 271C90 287.569 104.327 301 122 301ZM154 345C154 361.569 139.673 375 122 375C104.327 375 90 361.569 90 345C90 328.431 104.327 315 122 315C139.673 315 154 328.431 154 345ZM122 449C139.673 449 154 435.569 154 419C154 402.431 139.673 389 122 389C104.327 389 90 402.431 90 419C90 435.569 104.327 449 122 449ZM233 49C233 65.5685 218.673 79 201 79C183.327 79 169 65.5685 169 49C169 32.4315 183.327 19 201 19C218.673 19 233 32.4315 233 49ZM201 153C218.673 153 233 139.569 233 123C233 106.431 218.673 93 201 93C183.327 93 169 106.431 169 123C169 139.569 183.327 153 201 153ZM233 197C233 213.569 218.673 227 201 227C183.327 227 169 213.569 169 197C169 180.431 183.327 167 201 167C218.673 167 233 180.431 233 197ZM201 301C218.673 301 233 287.569 233 271C233 254.431 218.673 241 201 241C183.327 241 169 254.431 169 271C169 287.569 183.327 301 201 301ZM233 345C233 361.569 218.673 375 201 375C183.327 375 169 361.569 169 345C169 328.431 183.327 315 201 315C218.673 315 233 328.431 233 345ZM201 449C218.673 449 233 435.569 233 419C233 402.431 218.673 389 201 389C183.327 389 169 402.431 169 419C169 435.569 183.327 449 201 449ZM312 49C312 65.5685 297.673 79 280 79C262.327 79 248 65.5685 248 49C248 32.4315 262.327 19 280 19C297.673 19 312 32.4315 312 49ZM280 153C297.673 153 312 139.569 312 123C312 106.431 297.673 93 280 93C262.327 93 248 106.431 248 123C248 139.569 262.327 153 280 153ZM312 197C312 213.569 297.673 227 280 227C262.327 227 248 213.569 248 197C248 180.431 262.327 167 280 167C297.673 167 312 180.431 312 197ZM280 301C297.673 301 312 287.569 312 271C312 254.431 297.673 241 280 241C262.327 241 248 254.431 248 271C248 287.569 262.327 301 280 301ZM312 345C312 361.569 297.673 375 280 375C262.327 375 248 361.569 248 345C248 328.431 262.327 315 280 315C297.673 315 312 328.431 312 345ZM280 449C297.673 449 312 435.569 312 419C312 402.431 297.673 389 280 389C262.327 389 248 402.431 248 419C248 435.569 262.327 449 280 449ZM391 49C391 65.5685 376.673 79 359 79C341.327 79 327 65.5685 327 49C327 32.4315 341.327 19 359 19C376.673 19 391 32.4315 391 49ZM359 153C376.673 153 391 139.569 391 123C391 106.431 376.673 93 359 93C341.327 93 327 106.431 327 123C327 139.569 341.327 153 359 153ZM391 197C391 213.569 376.673 227 359 227C341.327 227 327 213.569 327 197C327 180.431 341.327 167 359 167C376.673 167 391 180.431 391 197ZM359 301C376.673 301 391 287.569 391 271C391 254.431 376.673 241 359 241C341.327 241 327 254.431 327 271C327 287.569 341.327 301 359 301ZM391 345C391 361.569 376.673 375 359 375C341.327 375 327 361.569 327 345C327 328.431 341.327 315 359 315C376.673 315 391 328.431 391 345ZM359 449C376.673 449 391 435.569 391 419C391 402.431 376.673 389 359 389C341.327 389 327 402.431 327 419C327 435.569 341.327 449 359 449ZM470 49C470 65.5685 455.673 79 438 79C420.327 79 406 65.5685 406 49C406 32.4315 420.327 19 438 19C455.673 19 470 32.4315 470 49ZM438 153C455.673 153 470 139.569 470 123C470 106.431 455.673 93 438 93C420.327 93 406 106.431 406 123C406 139.569 420.327 153 438 153ZM470 197C470 213.569 455.673 227 438 227C420.327 227 406 213.569 406 197C406 180.431 420.327 167 438 167C455.673 167 470 180.431 470 197ZM438 301C455.673 301 470 287.569 470 271C470 254.431 455.673 241 438 241C420.327 241 406 254.431 406 271C406 287.569 420.327 301 438 301ZM470 345C470 361.569 455.673 375 438 375C420.327 375 406 361.569 406 345C406 328.431 420.327 315 438 315C455.673 315 470 328.431 470 345ZM438 449C455.673 449 470 435.569 470 419C470 402.431 455.673 389 438 389C420.327 389 406 402.431 406 419C406 435.569 420.327 449 438 449ZM549 49C549 65.5685 534.673 79 517 79C499.327 79 485 65.5685 485 49C485 32.4315 499.327 19 517 19C534.673 19 549 32.4315 549 49ZM517 153C534.673 153 549 139.569 549 123C549 106.431 534.673 93 517 93C499.327 93 485 106.431 485 123C485 139.569 499.327 153 517 153ZM549 197C549 213.569 534.673 227 517 227C499.327 227 485 213.569 485 197C485 180.431 499.327 167 517 167C534.673 167 549 180.431 549 197ZM517 301C534.673 301 549 287.569 549 271C549 254.431 534.673 241 517 241C499.327 241 485 254.431 485 271C485 287.569 499.327 301 517 301ZM549 345C549 361.569 534.673 375 517 375C499.327 375 485 361.569 485 345C485 328.431 499.327 315 517 315C534.673 315 549 328.431 549 345ZM517 449C534.673 449 549 435.569 549 419C549 402.431 534.673 389 517 389C499.327 389 485 402.431 485 419C485 435.569 499.327 449 517 449Z"/>
</mask>
<path fill-rule="evenodd" clip-rule="evenodd" d="M0 15C0 6.71573 6.71573 0 15 0H545C553.284 0 560 6.71573 560 15V445C560 453.284 553.284 460 545 460H15C6.71574 460 0 453.284 0 445V15ZM75 49C75 65.5685 60.6731 79 43 79C25.3269 79 11 65.5685 11 49C11 32.4315 25.3269 19 43 19C60.6731 19 75 32.4315 75 49ZM43 153C60.6731 153 75 139.569 75 123C75 106.431 60.6731 93 43 93C25.3269 93 11 106.431 11 123C11 139.569 25.3269 153 43 153ZM75 197C75 213.569 60.6731 227 43 227C25.3269 227 11 213.569 11 197C11 180.431 25.3269 167 43 167C60.6731 167 75 180.431 75 197ZM43 301C60.6731 301 75 287.569 75 271C75 254.431 60.6731 241 43 241C25.3269 241 11 254.431 11 271C11 287.569 25.3269 301 43 301ZM75 345C75 361.569 60.6731 375 43 375C25.3269 375 11 361.569 11 345C11 328.431 25.3269 315 43 315C60.6731 315 75 328.431 75 345ZM43 449C60.6731 449 75 435.569 75 419C75 402.431 60.6731 389 43 389C25.3269 389 11 402.431 11 419C11 435.569 25.3269 449 43 449ZM154 49C154 65.5685 139.673 79 122 79C104.327 79 90 65.5685 90 49C90 32.4315 104.327 19 122 19C139.673 19 154 32.4315 154 49ZM122 153C139.673 153 154 139.569 154 123C154 106.431 139.673 93 122 93C104.327 93 90 106.431 90 123C90 139.569 104.327 153 122 153ZM154 197C154 213.569 139.673 227 122 227C104.327 227 90 213.569 90 197C90 180.431 104.327 167 122 167C139.673 167 154 180.431 154 197ZM122 301C139.673 301 154 287.569 154 271C154 254.431 139.673 241 122 241C104.327 241 90 254.431 90 271C90 287.569 104.327 301 122 301ZM154 345C154 361.569 139.673 375 122 375C104.327 375 90 361.569 90 345C90 328.431 104.327 315 122 315C139.673 315 154 328.431 154 345ZM122 449C139.673 449 154 435.569 154 419C154 402.431 139.673 389 122 389C104.327 389 90 402.431 90 419C90 435.569 104.327 449 122 449ZM233 49C233 65.5685 218.673 79 201 79C183.327 79 169 65.5685 169 49C169 32.4315 183.327 19 201 19C218.673 19 233 32.4315 233 49ZM201 153C218.673 153 233 139.569 233 123C233 106.431 218.673 93 201 93C183.327 93 169 106.431 169 123C169 139.569 183.327 153 201 153ZM233 197C233 213.569 218.673 227 201 227C183.327 227 169 213.569 169 197C169 180.431 183.327 167 201 167C218.673 167 233 180.431 233 197ZM201 301C218.673 301 233 287.569 233 271C233 254.431 218.673 241 201 241C183.327 241 169 254.431 169 271C169 287.569 183.327 301 201 301ZM233 345C233 361.569 218.673 375 201 375C183.327 375 169 361.569 169 345C169 328.431 183.327 315 201 315C218.673 315 233 328.431 233 345ZM201 449C218.673 449 233 435.569 233 419C233 402.431 218.673 389 201 389C183.327 389 169 402.431 169 419C169 435.569 183.327 449 201 449ZM312 49C312 65.5685 297.673 79 280 79C262.327 79 248 65.5685 248 49C248 32.4315 262.327 19 280 19C297.673 19 312 32.4315 312 49ZM280 153C297.673 153 312 139.569 312 123C312 106.431 297.673 93 280 93C262.327 93 248 106.431 248 123C248 139.569 262.327 153 280 153ZM312 197C312 213.569 297.673 227 280 227C262.327 227 248 213.569 248 197C248 180.431 262.327 167 280 167C297.673 167 312 180.431 312 197ZM280 301C297.673 301 312 287.569 312 271C312 254.431 297.673 241 280 241C262.327 241 248 254.431 248 271C248 287.569 262.327 301 280 301ZM312 345C312 361.569 297.673 375 280 375C262.327 375 248 361.569 248 345C248 328.431 262.327 315 280 315C297.673 315 312 328.431 312 345ZM280 449C297.673 449 312 435.569 312 419C312 402.431 297.673 389 280 389C262.327 389 248 402.431 248 419C248 435.569 262.327 449 280 449ZM391 49C391 65.5685 376.673 79 359 79C341.327 79 327 65.5685 327 49C327 32.4315 341.327 19 359 19C376.673 19 391 32.4315 391 49ZM359 153C376.673 153 391 139.569 391 123C391 106.431 376.673 93 359 93C341.327 93 327 106.431 327 123C327 139.569 341.327 153 359 153ZM391 197C391 213.569 376.673 227 359 227C341.327 227 327 213.569 327 197C327 180.431 341.327 167 359 167C376.673 167 391 180.431 391 197ZM359 301C376.673 301 391 287.569 391 271C391 254.431 376.673 241 359 241C341.327 241 327 254.431 327 271C327 287.569 341.327 301 359 301ZM391 345C391 361.569 376.673 375 359 375C341.327 375 327 361.569 327 345C327 328.431 341.327 315 359 315C376.673 315 391 328.431 391 345ZM359 449C376.673 449 391 435.569 391 419C391 402.431 376.673 389 359 389C341.327 389 327 402.431 327 419C327 435.569 341.327 449 359 449ZM470 49C470 65.5685 455.673 79 438 79C420.327 79 406 65.5685 406 49C406 32.4315 420.327 19 438 19C455.673 19 470 32.4315 470 49ZM438 153C455.673 153 470 139.569 470 123C470 106.431 455.673 93 438 93C420.327 93 406 106.431 406 123C406 139.569 420.327 153 438 153ZM470 197C470 213.569 455.673 227 438 227C420.327 227 406 213.569 406 197C406 180.431 420.327 167 438 167C455.673 167 470 180.431 470 197ZM438 301C455.673 301 470 287.569 470 271C470 254.431 455.673 241 438 241C420.327 241 406 254.431 406 271C406 287.569 420.327 301 438 301ZM470 345C470 361.569 455.673 375 438 375C420.327 375 406 361.569 406 345C406 328.431 420.327 315 438 315C455.673 315 470 328.431 470 345ZM438 449C455.673 449 470 435.569 470 419C470 402.431 455.673 389 438 389C420.327 389 406 402.431 406 419C406 435.569 420.327 449 438 449ZM549 49C549 65.5685 534.673 79 517 79C499.327 79 485 65.5685 485 49C485 32.4315 499.327 19 517 19C534.673 19 549 32.4315 549 49ZM517 153C534.673 153 549 139.569 549 123C549 106.431 534.673 93 517 93C499.327 93 485 106.431 485 123C485 139.569 499.327 153 517 153ZM549 197C549 213.569 534.673 227 517 227C499.327 227 485 213.569 485 197C485 180.431 499.327 167 517 167C534.673 167 549 180.431 549 197ZM517 301C534.673 301 549 287.569 549 271C549 254.431 534.673 241 517 241C499.327 241 485 254.431 485 271C485 287.569 499.327 301 517 301ZM549 345C549 361.569 534.673 375 517 375C499.327 375 485 361.569 485 345C485 328.431 499.327 315 517 315C534.673 315 549 328.431 549 345ZM517 449C534.673 449 549 435.569 549 419C549 402.431 534.673 389 517 389C499.327 389 485 402.431 485 419C485 435.569 499.327 449 517 449Z" fill="#EAE6E6"/>
<path d="M15 -2C5.61116 -2 -2 5.61116 -2 15H2C2 7.8203 7.8203 2 15 2V-2ZM545 -2H15V2H545V-2ZM562 15C562 5.61116 554.389 -2 545 -2V2C552.18 2 558 7.8203 558 15H562ZM562 445V15H558V445H562ZM545 462C554.389 462 562 454.389 562 445H558C558 452.18 552.18 458 545 458V462ZM15 462H545V458H15V462ZM-2 445C-2 454.389 5.61117 462 15 462V458C7.82031 458 2 452.18 2 445H-2ZM-2 15V445H2V15H-2ZM43 81C61.6541 81 77 66.7927 77 49H73C73 64.3443 59.6921 77 43 77V81ZM9 49C9 66.7927 24.3459 81 43 81V77C26.3079 77 13 64.3443 13 49H9ZM43 17C24.3459 17 9 31.2073 9 49H13C13 33.6557 26.3079 21 43 21V17ZM77 49C77 31.2073 61.6541 17 43 17V21C59.6921 21 73 33.6557 73 49H77ZM73 123C73 138.344 59.6921 151 43 151V155C61.6541 155 77 140.793 77 123H73ZM43 95C59.6921 95 73 107.656 73 123H77C77 105.207 61.6541 91 43 91V95ZM13 123C13 107.656 26.3079 95 43 95V91C24.3459 91 9 105.207 9 123H13ZM43 151C26.3079 151 13 138.344 13 123H9C9 140.793 24.3459 155 43 155V151ZM43 229C61.6541 229 77 214.793 77 197H73C73 212.344 59.6921 225 43 225V229ZM9 197C9 214.793 24.3459 229 43 229V225C26.3079 225 13 212.344 13 197H9ZM43 165C24.3459 165 9 179.207 9 197H13C13 181.656 26.3079 169 43 169V165ZM77 197C77 179.207 61.6541 165 43 165V169C59.6921 169 73 181.656 73 197H77ZM73 271C73 286.344 59.6921 299 43 299V303C61.6541 303 77 288.793 77 271H73ZM43 243C59.6921 243 73 255.656 73 271H77C77 253.207 61.6541 239 43 239V243ZM13 271C13 255.656 26.3079 243 43 243V239C24.3459 239 9 253.207 9 271H13ZM43 299C26.3079 299 13 286.344 13 271H9C9 288.793 24.3459 303 43 303V299ZM43 377C61.6541 377 77 362.793 77 345H73C73 360.344 59.6921 373 43 373V377ZM9 345C9 362.793 24.3459 377 43 377V373C26.3079 373 13 360.344 13 345H9ZM43 313C24.3459 313 9 327.207 9 345H13C13 329.656 26.3079 317 43 317V313ZM77 345C77 327.207 61.6541 313 43 313V317C59.6921 317 73 329.656 73 345H77ZM73 419C73 434.344 59.6921 447 43 447V451C61.6541 451 77 436.793 77 419H73ZM43 391C59.6921 391 73 403.656 73 419H77C77 401.207 61.6541 387 43 387V391ZM13 419C13 403.656 26.3079 391 43 391V387C24.3459 387 9 401.207 9 419H13ZM43 447C26.3079 447 13 434.344 13 419H9C9 436.793 24.3459 451 43 451V447ZM122 81C140.654 81 156 66.7927 156 49H152C152 64.3443 138.692 77 122 77V81ZM88 49C88 66.7927 103.346 81 122 81V77C105.308 77 92 64.3443 92 49H88ZM122 17C103.346 17 88 31.2073 88 49H92C92 33.6557 105.308 21 122 21V17ZM156 49C156 31.2073 140.654 17 122 17V21C138.692 21 152 33.6557 152 49H156ZM152 123C152 138.344 138.692 151 122 151V155C140.654 155 156 140.793 156 123H152ZM122 95C138.692 95 152 107.656 152 123H156C156 105.207 140.654 91 122 91V95ZM92 123C92 107.656 105.308 95 122 95V91C103.346 91 88 105.207 88 123H92ZM122 151C105.308 151 92 138.344 92 123H88C88 140.793 103.346 155 122 155V151ZM122 229C140.654 229 156 214.793 156 197H152C152 212.344 138.692 225 122 225V229ZM88 197C88 214.793 103.346 229 122 229V225C105.308 225 92 212.344 92 197H88ZM122 165C103.346 165 88 179.207 88 197H92C92 181.656 105.308 169 122 169V165ZM156 197C156 179.207 140.654 165 122 165V169C138.692 169 152 181.656 152 197H156ZM152 271C152 286.344 138.692 299 122 299V303C140.654 303 156 288.793 156 271H152ZM122 243C138.692 243 152 255.656 152 271H156C156 253.207 140.654 239 122 239V243ZM92 271C92 255.656 105.308 243 122 243V239C103.346 239 88 253.207 88 271H92ZM122 299C105.308 299 92 286.344 92 271H88C88 288.793 103.346 303 122 303V299ZM122 377C140.654 377 156 362.793 156 345H152C152 360.344 138.692 373 122 373V377ZM88 345C88 362.793 103.346 377 122 377V373C105.308 373 92 360.344 92 345H88ZM122 313C103.346 313 88 327.207 88 345H92C92 329.656 105.308 317 122 317V313ZM156 345C156 327.207 140.654 313 122 313V317C138.692 317 152 329.656 152 345H156ZM152 419C152 434.344 138.692 447 122 447V451C140.654 451 156 436.793 156 419H152ZM122 391C138.692 391 152 403.656 152 419H156C156 401.207 140.654 387 122 387V391ZM92 419C92 403.656 105.308 391 122 391V387C103.346 387 88 401.207 88 419H92ZM122 447C105.308 447 92 434.344 92 419H88C88 436.793 103.346 451 122 451V447ZM201 81C219.654 81 235 66.7927 235 49H231C231 64.3443 217.692 77 201 77V81ZM167 49C167 66.7927 182.346 81 201 81V77C184.308 77 171 64.3443 171 49H167ZM201 17C182.346 17 167 31.2073 167 49H171C171 33.6557 184.308 21 201 21V17ZM235 49C235 31.2073 219.654 17 201 17V21C217.692 21 231 33.6557 231 49H235ZM231 123C231 138.344 217.692 151 201 151V155C219.654 155 235 140.793 235 123H231ZM201 95C217.692 95 231 107.656 231 123H235C235 105.207 219.654 91 201 91V95ZM171 123C171 107.656 184.308 95 201 95V91C182.346 91 167 105.207 167 123H171ZM201 151C184.308 151 171 138.344 171 123H167C167 140.793 182.346 155 201 155V151ZM201 229C219.654 229 235 214.793 235 197H231C231 212.344 217.692 225 201 225V229ZM167 197C167 214.793 182.346 229 201 229V225C184.308 225 171 212.344 171 197H167ZM201 165C182.346 165 167 179.207 167 197H171C171 181.656 184.308 169 201 169V165ZM235 197C235 179.207 219.654 165 201 165V169C217.692 169 231 181.656 231 197H235ZM231 271C231 286.344 217.692 299 201 299V303C219.654 303 235 288.793 235 271H231ZM201 243C217.692 243 231 255.656 231 271H235C235 253.207 219.654 239 201 239V243ZM171 271C171 255.656 184.308 243 201 243V239C182.346 239 167 253.207 167 271H171ZM201 299C184.308 299 171 286.344 171 271H167C167 288.793 182.346 303 201 303V299ZM201 377C219.654 377 235 362.793 235 345H231C231 360.344 217.692 373 201 373V377ZM167 345C167 362.793 182.346 377 201 377V373C184.308 373 171 360.344 171 345H167ZM201 313C182.346 313 167 327.207 167 345H171C171 329.656 184.308 317 201 317V313ZM235 345C235 327.207 219.654 313 201 313V317C217.692 317 231 329.656 231 345H235ZM231 419C231 434.344 217.692 447 201 447V451C219.654 451 235 436.793 235 419H231ZM201 391C217.692 391 231 403.656 231 419H235C235 401.207 219.654 387 201 387V391ZM171 419C171 403.656 184.308 391 201 391V387C182.346 387 167 401.207 167 419H171ZM201 447C184.308 447 171 434.344 171 419H167C167 436.793 182.346 451 201 451V447ZM280 81C298.654 81 314 66.7927 314 49H310C310 64.3443 296.692 77 280 77V81ZM246 49C246 66.7927 261.346 81 280 81V77C263.308 77 250 64.3443 250 49H246ZM280 17C261.346 17 246 31.2073 246 49H250C250 33.6557 263.308 21 280 21V17ZM314 49C314 31.2073 298.654 17 280 17V21C296.692 21 310 33.6557 310 49H314ZM310 123C310 138.344 296.692 151 280 151V155C298.654 155 314 140.793 314 123H310ZM280 95C296.692 95 310 107.656 310 123H314C314 105.207 298.654 91 280 91V95ZM250 123C250 107.656 263.308 95 280 95V91C261.346 91 246 105.207 246 123H250ZM280 151C263.308 151 250 138.344 250 123H246C246 140.793 261.346 155 280 155V151ZM280 229C298.654 229 314 214.793 314 197H310C310 212.344 296.692 225 280 225V229ZM246 197C246 214.793 261.346 229 280 229V225C263.308 225 250 212.344 250 197H246ZM280 165C261.346 165 246 179.207 246 197H250C250 181.656 263.308 169 280 169V165ZM314 197C314 179.207 298.654 165 280 165V169C296.692 169 310 181.656 310 197H314ZM310 271C310 286.344 296.692 299 280 299V303C298.654 303 314 288.793 314 271H310ZM280 243C296.692 243 310 255.656 310 271H314C314 253.207 298.654 239 280 239V243ZM250 271C250 255.656 263.308 243 280 243V239C261.346 239 246 253.207 246 271H250ZM280 299C263.308 299 250 286.344 250 271H246C246 288.793 261.346 303 280 303V299ZM280 377C298.654 377 314 362.793 314 345H310C310 360.344 296.692 373 280 373V377ZM246 345C246 362.793 261.346 377 280 377V373C263.308 373 250 360.344 250 345H246ZM280 313C261.346 313 246 327.207 246 345H250C250 329.656 263.308 317 280 317V313ZM314 345C314 327.207 298.654 313 280 313V317C296.692 317 310 329.656 310 345H314ZM310 419C310 434.344 296.692 447 280 447V451C298.654 451 314 436.793 314 419H310ZM280 391C296.692 391 310 403.656 310 419H314C314 401.207 298.654 387 280 387V391ZM250 419C250 403.656 263.308 391 280 391V387C261.346 387 246 401.207 246 419H250ZM280 447C263.308 447 250 434.344 250 419H246C246 436.793 261.346 451 280 451V447ZM359 81C377.654 81 393 66.7927 393 49H389C389 64.3443 375.692 77 359 77V81ZM325 49C325 66.7927 340.346 81 359 81V77C342.308 77 329 64.3443 329 49H325ZM359 17C340.346 17 325 31.2073 325 49H329C329 33.6557 342.308 21 359 21V17ZM393 49C393 31.2073 377.654 17 359 17V21C375.692 21 389 33.6557 389 49H393ZM389 123C389 138.344 375.692 151 359 151V155C377.654 155 393 140.793 393 123H389ZM359 95C375.692 95 389 107.656 389 123H393C393 105.207 377.654 91 359 91V95ZM329 123C329 107.656 342.308 95 359 95V91C340.346 91 325 105.207 325 123H329ZM359 151C342.308 151 329 138.344 329 123H325C325 140.793 340.346 155 359 155V151ZM359 229C377.654 229 393 214.793 393 197H389C389 212.344 375.692 225 359 225V229ZM325 197C325 214.793 340.346 229 359 229V225C342.308 225 329 212.344 329 197H325ZM359 165C340.346 165 325 179.207 325 197H329C329 181.656 342.308 169 359 169V165ZM393 197C393 179.207 377.654 165 359 165V169C375.692 169 389 181.656 389 197H393ZM389 271C389 286.344 375.692 299 359 299V303C377.654 303 393 288.793 393 271H389ZM359 243C375.692 243 389 255.656 389 271H393C393 253.207 377.654 239 359 239V243ZM329 271C329 255.656 342.308 243 359 243V239C340.346 239 325 253.207 325 271H329ZM359 299C342.308 299 329 286.344 329 271H325C325 288.793 340.346 303 359 303V299ZM359 377C377.654 377 393 362.793 393 345H389C389 360.344 375.692 373 359 373V377ZM325 345C325 362.793 340.346 377 359 377V373C342.308 373 329 360.344 329 345H325ZM359 313C340.346 313 325 327.207 325 345H329C329 329.656 342.308 317 359 317V313ZM393 345C393 327.207 377.654 313 359 313V317C375.692 317 389 329.656 389 345H393ZM389 419C389 434.344 375.692 447 359 447V451C377.654 451 393 436.793 393 419H389ZM359 391C375.692 391 389 403.656 389 419H393C393 401.207 377.654 387 359 387V391ZM329 419C329 403.656 342.308 391 359 391V387C340.346 387 325 401.207 325 419H329ZM359 447C342.308 447 329 434.344 329 419H325C325 436.793 340.346 451 359 451V447ZM438 81C456.654 81 472 66.7927 472 49H468C468 64.3443 454.692 77 438 77V81ZM404 49C404 66.7927 419.346 81 438 81V77C421.308 77 408 64.3443 408 49H404ZM438 17C419.346 17 404 31.2073 404 49H408C408 33.6557 421.308 21 438 21V17ZM472 49C472 31.2073 456.654 17 438 17V21C454.692 21 468 33.6557 468 49H472ZM468 123C468 138.344 454.692 151 438 151V155C456.654 155 472 140.793 472 123H468ZM438 95C454.692 95 468 107.656 468 123H472C472 105.207 456.654 91 438 91V95ZM408 123C408 107.656 421.308 95 438 95V91C419.346 91 404 105.207 404 123H408ZM438 151C421.308 151 408 138.344 408 123H404C404 140.793 419.346 155 438 155V151ZM438 229C456.654 229 472 214.793 472 197H468C468 212.344 454.692 225 438 225V229ZM404 197C404 214.793 419.346 229 438 229V225C421.308 225 408 212.344 408 197H404ZM438 165C419.346 165 404 179.207 404 197H408C408 181.656 421.308 169 438 169V165ZM472 197C472 179.207 456.654 165 438 165V169C454.692 169 468 181.656 468 197H472ZM468 271C468 286.344 454.692 299 438 299V303C456.654 303 472 288.793 472 271H468ZM438 243C454.692 243 468 255.656 468 271H472C472 253.207 456.654 239 438 239V243ZM408 271C408 255.656 421.308 243 438 243V239C419.346 239 404 253.207 404 271H408ZM438 299C421.308 299 408 286.344 408 271H404C404 288.793 419.346 303 438 303V299ZM438 377C456.654 377 472 362.793 472 345H468C468 360.344 454.692 373 438 373V377ZM404 345C404 362.793 419.346 377 438 377V373C421.308 373 408 360.344 408 345H404ZM438 313C419.346 313 404 327.207 404 345H408C408 329.656 421.308 317 438 317V313ZM472 345C472 327.207 456.654 313 438 313V317C454.692 317 468 329.656 468 345H472ZM468 419C468 434.344 454.692 447 438 447V451C456.654 451 472 436.793 472 419H468ZM438 391C454.692 391 468 403.656 468 419H472C472 401.207 456.654 387 438 387V391ZM408 419C408 403.656 421.308 391 438 391V387C419.346 387 404 401.207 404 419H408ZM438 447C421.308 447 408 434.344 408 419H404C404 436.793 419.346 451 438 451V447ZM517 81C535.654 81 551 66.7927 551 49H547C547 64.3443 533.692 77 517 77V81ZM483 49C483 66.7927 498.346 81 517 81V77C500.308 77 487 64.3443 487 49H483ZM517 17C498.346 17 483 31.2073 483 49H487C487 33.6557 500.308 21 517 21V17ZM551 49C551 31.2073 535.654 17 517 17V21C533.692 21 547 33.6557 547 49H551ZM547 123C547 138.344 533.692 151 517 151V155C535.654 155 551 140.793 551 123H547ZM517 95C533.692 95 547 107.656 547 123H551C551 105.207 535.654 91 517 91V95ZM487 123C487 107.656 500.308 95 517 95V91C498.346 91 483 105.207 483 123H487ZM517 151C500.308 151 487 138.344 487 123H483C483 140.793 498.346 155 517 155V151ZM517 229C535.654 229 551 214.793 551 197H547C547 212.344 533.692 225 517 225V229ZM483 197C483 214.793 498.346 229 517 229V225C500.308 225 487 212.344 487 197H483ZM517 165C498.346 165 483 179.207 483 197H487C487 181.656 500.308 169 517 169V165ZM551 197C551 179.207 535.654 165 517 165V169C533.692 169 547 181.656 547 197H551ZM547 271C547 286.344 533.692 299 517 299V303C535.654 303 551 288.793 551 271H547ZM517 243C533.692 243 547 255.656 547 271H551C551 253.207 535.654 239 517 239V243ZM487 271C487 255.656 500.308 243 517 243V239C498.346 239 483 253.207 483 271H487ZM517 299C500.308 299 487 286.344 487 271H483C483 288.793 498.346 303 517 303V299ZM517 377C535.654 377 551 362.793 551 345H547C547 360.344 533.692 373 517 373V377ZM483 345C483 362.793 498.346 377 517 377V373C500.308 373 487 360.344 487 345H483ZM517 313C498.346 313 483 327.207 483 345H487C487 329.656 500.308 317 517 317V313ZM551 345C551 327.207 535.654 313 517 313V317C533.692 317 547 329.656 547 345H551ZM547 419C547 434.344 533.692 447 517 447V451C535.654 451 551 436.793 551 419H547ZM517 391C533.692 391 547 403.656 547 419H551C551 401.207 535.654 387 517 387V391ZM487 419C487 403.656 500.308 391 517 391V387C498.346 387 483 401.207 483 419H487ZM517 447C500.308 447 487 434.344 487 419H483C483 436.793 498.346 451 517 451V447Z" fill="black" mask="url(#path-1-inside-1_2639_2600)"/>
</svg>
