<svg width="34" height="37" viewBox="0 0 34 37" fill="none" xmlns="http://www.w3.org/2000/svg">
<path d="M10.695 0.333008C11.3882 0.333008 11.9328 0.933523 11.9328 1.65767C11.9328 2.18754 12.3454 2.61143 12.8406 2.61143H14.4745C16.9667 2.6291 18.9968 4.80155 19.0133 7.45088V7.78646C20.5812 7.78646 22.1492 7.82179 23.7336 7.83945C29.4607 7.83945 33.6364 12.2903 33.6364 18.4368V26.3318C33.6364 32.4782 29.4607 36.9291 23.7336 36.9291C21.4395 36.9821 19.1453 36.9998 16.8347 36.9998C14.524 36.9998 12.1969 36.9821 9.90276 36.9291C4.17566 36.9291 0 32.4782 0 26.3318V18.4368C0 12.2903 4.17566 7.83945 9.91926 7.83945C12.0814 7.80413 14.293 7.7688 16.5376 7.7688V7.46854C16.5376 6.24985 15.5968 5.26077 14.4745 5.26077H12.8406C10.9756 5.26077 9.45713 3.63584 9.45713 1.65767C9.45713 0.933523 10.0183 0.333008 10.695 0.333008ZM11.9163 17.8716C11.2231 17.8716 10.6785 18.4721 10.6785 19.1963V21.0508H8.92899C8.2523 21.0508 7.69114 21.6513 7.69114 22.3755C7.69114 23.1173 8.2523 23.7001 8.92899 23.7001H10.6785V25.5723C10.6785 26.2965 11.2231 26.897 11.9163 26.897C12.593 26.897 13.1542 26.2965 13.1542 25.5723V23.7001H14.8871C15.5638 23.7001 16.125 23.1173 16.125 22.3755C16.125 21.6513 15.5638 21.0508 14.8871 21.0508H13.1542V19.1963C13.1542 18.4721 12.593 17.8716 11.9163 17.8716ZM24.8889 24.1417H24.7239C24.029 24.1417 23.486 24.7422 23.486 25.4663C23.486 26.2082 24.029 26.791 24.7239 26.791H24.8889C25.5656 26.791 26.1268 26.2082 26.1268 25.4663C26.1268 24.7422 25.5656 24.1417 24.8889 24.1417ZM22.0666 18.0659H21.9016C21.2084 18.0659 20.6638 18.6664 20.6638 19.3905C20.6638 20.1324 21.2084 20.7152 21.9016 20.7152H22.0666C22.7433 20.7152 23.3045 20.1324 23.3045 19.3905C23.3045 18.6664 22.7433 18.0659 22.0666 18.0659Z" fill="white"/>
</svg>
