<svg width="500" height="500" viewBox="0 0 500 500" fill="none" xmlns="http://www.w3.org/2000/svg">
<path d="M500 382.4H0V382.65H500V382.4Z" fill="#EBEBEB"/>
<path d="M449.9 398.49H416.78V398.74H449.9V398.49Z" fill="#EBEBEB"/>
<path d="M331.22 401.21H322.53V401.46H331.22V401.21Z" fill="#EBEBEB"/>
<path d="M415.78 389.21H396.59V389.46H415.78V389.21Z" fill="#EBEBEB"/>
<path d="M95.65 390.89H52.46V391.14H95.65V390.89Z" fill="#EBEBEB"/>
<path d="M110.89 390.89H104.56V391.14H110.89V390.89Z" fill="#EBEBEB"/>
<path d="M225.15 395.11H131.47V395.36H225.15V395.11Z" fill="#EBEBEB"/>
<path d="M237 337.8H43.91C42.3973 337.797 40.9475 337.195 39.8788 336.124C38.8102 335.053 38.21 333.603 38.21 332.09V60.66C38.2231 59.156 38.8292 57.718 39.8964 56.6582C40.9637 55.5985 42.4059 55.0026 43.91 55H237C238.514 55 239.967 55.6016 241.038 56.6724C242.108 57.7433 242.71 59.1956 242.71 60.71V332.09C242.71 333.604 242.108 335.057 241.038 336.128C239.967 337.198 238.514 337.8 237 337.8ZM43.91 55.2C42.4636 55.2026 41.0774 55.7791 40.0556 56.8027C39.0338 57.8264 38.46 59.2136 38.46 60.66V332.09C38.46 333.536 39.0338 334.924 40.0556 335.947C41.0774 336.971 42.4636 337.547 43.91 337.55H237C238.447 337.547 239.834 336.971 240.858 335.948C241.881 334.924 242.457 333.537 242.46 332.09V60.66C242.457 59.2127 241.881 57.8255 240.858 56.8021C239.834 55.7787 238.447 55.2026 237 55.2H43.91Z" fill="#EBEBEB"/>
<path d="M453.31 337.8H260.21C258.696 337.797 257.246 337.195 256.175 336.125C255.105 335.054 254.503 333.604 254.5 332.09V60.66C254.516 59.1551 255.124 57.7171 256.193 56.6576C257.262 55.5981 258.705 55.0025 260.21 55H453.31C454.812 55.0052 456.252 55.6022 457.317 56.6617C458.382 57.7212 458.987 59.1578 459 60.66V332.09C459 333.601 458.401 335.05 457.335 336.121C456.268 337.191 454.821 337.795 453.31 337.8ZM260.21 55.2C258.763 55.2026 257.375 55.7787 256.352 56.8021C255.329 57.8255 254.753 59.2127 254.75 60.66V332.09C254.753 333.537 255.329 334.924 256.352 335.948C257.375 336.971 258.763 337.547 260.21 337.55H453.31C454.757 337.547 456.145 336.971 457.168 335.948C458.191 334.924 458.767 333.537 458.77 332.09V60.66C458.767 59.2127 458.191 57.8255 457.168 56.8021C456.145 55.7787 454.757 55.2026 453.31 55.2H260.21Z" fill="#EBEBEB"/>
<path d="M222.69 183.73H66.1499V381.95H222.69V183.73Z" fill="#F0F0F0"/>
<path d="M217.15 190.96H71.6799V233.35H217.15V190.96Z" fill="#E0E0E0"/>
<path d="M79.9399 197.82H71.6799V233.34H79.9399V197.82Z" fill="#EBEBEB"/>
<path d="M119.9 197.82H111.64V233.34H119.9V197.82Z" fill="#EBEBEB"/>
<path d="M165.26 196.918L157.12 198.321L163.154 233.325L171.294 231.922L165.26 196.918Z" fill="#EBEBEB"/>
<path d="M90.1799 202.5H81.9199V233.34H90.1799V202.5Z" fill="#EBEBEB"/>
<path d="M109.17 202.5H100.91V233.34H109.17V202.5Z" fill="#EBEBEB"/>
<path d="M157.11 202.5H148.85V233.34H157.11V202.5Z" fill="#EBEBEB"/>
<path d="M130.752 201.437L122.688 203.229L129.379 233.334L137.442 231.542L130.752 201.437Z" fill="#EBEBEB"/>
<path d="M97.33 196.05H93.2V233.34H97.33V196.05Z" fill="#EBEBEB"/>
<path d="M146.48 196.05H142.35V233.34H146.48V196.05Z" fill="#EBEBEB"/>
<path d="M71.6799 282.44H217.15V240.05L71.6799 240.05V282.44Z" fill="#E0E0E0"/>
<path d="M208.89 282.44H217.15V246.92H208.89V282.44Z" fill="#EBEBEB"/>
<path d="M168.93 282.44H177.19V246.92H168.93V282.44Z" fill="#EBEBEB"/>
<path d="M117.538 281.042L125.678 282.445L131.711 247.441L123.571 246.038L117.538 281.042Z" fill="#EBEBEB"/>
<path d="M198.64 282.44H206.9V251.6H198.64V282.44Z" fill="#EBEBEB"/>
<path d="M179.66 282.44H187.92V251.6H179.66V282.44Z" fill="#EBEBEB"/>
<path d="M131.71 282.44H139.97V251.6H131.71V282.44Z" fill="#EBEBEB"/>
<path d="M151.399 280.641L159.463 282.433L166.153 252.327L158.09 250.535L151.399 280.641Z" fill="#EBEBEB"/>
<path d="M191.5 282.44H195.63V245.15H191.5V282.44Z" fill="#EBEBEB"/>
<path d="M142.35 282.44H146.48V245.15H142.35V282.44Z" fill="#EBEBEB"/>
<path d="M79.9399 246.92H71.6799V282.44H79.9399V246.92Z" fill="#EBEBEB"/>
<path d="M90.1799 251.6H81.9199V282.44H90.1799V251.6Z" fill="#EBEBEB"/>
<path d="M109.17 251.6H100.91V282.44H109.17V251.6Z" fill="#EBEBEB"/>
<path d="M97.33 245.15H93.2V282.44H97.33V245.15Z" fill="#EBEBEB"/>
<path d="M217.15 289.15H71.6799V331.54H217.15V289.15Z" fill="#E0E0E0"/>
<path d="M163.43 296.01H155.17V331.53H163.43V296.01Z" fill="#EBEBEB"/>
<path d="M208.798 295.115L200.658 296.518L206.692 331.522L214.832 330.119L208.798 295.115Z" fill="#EBEBEB"/>
<path d="M133.71 300.7H125.45V331.54H133.71V300.7Z" fill="#EBEBEB"/>
<path d="M152.71 300.7H144.45V331.54H152.71V300.7Z" fill="#EBEBEB"/>
<path d="M200.65 300.7H192.39V331.54H200.65V300.7Z" fill="#EBEBEB"/>
<path d="M174.299 299.632L166.236 301.424L172.927 331.53L180.99 329.738L174.299 299.632Z" fill="#EBEBEB"/>
<path d="M140.86 294.25H136.73V331.54H140.86V294.25Z" fill="#EBEBEB"/>
<path d="M190.01 294.25H185.88V331.54H190.01V294.25Z" fill="#EBEBEB"/>
<path d="M113.73 295.124L105.59 296.527L111.623 331.531L119.763 330.128L113.73 295.124Z" fill="#EBEBEB"/>
<path d="M105.58 300.7H97.3201V331.54H105.58V300.7Z" fill="#EBEBEB"/>
<path d="M79.2234 299.638L71.1602 301.43L77.8509 331.535L85.9142 329.743L79.2234 299.638Z" fill="#EBEBEB"/>
<path d="M94.9401 294.25H90.8101V331.54H94.9401V294.25Z" fill="#EBEBEB"/>
<path d="M305.28 263.63H393.5C395.779 263.63 398.035 264.08 400.14 264.953C402.244 265.827 404.156 267.107 405.765 268.721C407.374 270.334 408.649 272.249 409.516 274.357C410.383 276.464 410.827 278.721 410.82 281V349.88H288V281C287.989 276.406 289.804 271.995 293.044 268.738C296.284 265.48 300.686 263.643 305.28 263.63Z" fill="#E6E6E6"/>
<path d="M261.88 314.69H277.66C279.017 314.685 280.361 314.948 281.616 315.463C282.871 315.979 284.012 316.738 284.973 317.696C285.934 318.654 286.696 319.793 287.215 321.046C287.735 322.299 288.001 323.643 288 325V382H251.58V325C251.579 323.647 251.844 322.306 252.361 321.055C252.878 319.805 253.637 318.668 254.593 317.71C255.55 316.753 256.686 315.993 257.936 315.475C259.186 314.957 260.527 314.69 261.88 314.69Z" fill="#E0E0E0"/>
<path d="M261.88 314.69H262.21C263.564 314.69 264.904 314.957 266.154 315.475C267.404 315.993 268.54 316.753 269.497 317.71C270.453 318.668 271.212 319.804 271.729 321.055C272.246 322.306 272.511 323.646 272.51 325V382H251.58V325C251.579 323.646 251.844 322.306 252.361 321.055C252.878 319.804 253.637 318.668 254.593 317.71C255.55 316.753 256.686 315.993 257.936 315.475C259.186 314.957 260.527 314.69 261.88 314.69Z" fill="#EBEBEB"/>
<path d="M397.97 355.78H276.91V381.95H397.97V355.78Z" fill="#E6E6E6"/>
<path d="M393.49 331.85H276.74C270.958 331.85 266.27 336.538 266.27 342.32V348.83C266.27 354.612 270.958 359.3 276.74 359.3H393.49C399.272 359.3 403.96 354.612 403.96 348.83V342.32C403.96 336.538 399.272 331.85 393.49 331.85Z" fill="#F5F5F5"/>
<path d="M393.29 331.85H378.82C373.038 331.85 368.35 336.538 368.35 342.32V348.83C368.35 354.612 373.038 359.3 378.82 359.3H393.29C399.073 359.3 403.76 354.612 403.76 348.83V342.32C403.76 336.538 399.073 331.85 393.29 331.85Z" fill="#E0E0E0"/>
<path d="M394.86 314.69H410.65C412.003 314.69 413.343 314.957 414.592 315.475C415.842 315.993 416.977 316.753 417.933 317.711C418.889 318.669 419.646 319.805 420.162 321.056C420.678 322.307 420.942 323.647 420.94 325V382H384.57V325C384.567 323.647 384.831 322.307 385.347 321.056C385.863 319.805 386.621 318.669 387.577 317.711C388.532 316.753 389.668 315.993 390.917 315.475C392.167 314.957 393.507 314.69 394.86 314.69Z" fill="#E0E0E0"/>
<path d="M394.86 314.69H395.2C396.553 314.69 397.893 314.957 399.142 315.475C400.392 315.993 401.527 316.753 402.483 317.711C403.439 318.669 404.196 319.805 404.712 321.056C405.228 322.307 405.492 323.647 405.49 325V382H384.57V325C384.567 323.647 384.831 322.307 385.347 321.056C385.863 319.805 386.621 318.669 387.577 317.711C388.532 316.753 389.668 315.993 390.917 315.475C392.167 314.957 393.507 314.69 394.86 314.69Z" fill="#F0F0F0"/>
<path d="M150.256 159.634C163.094 157.55 171.812 145.453 169.728 132.615C167.644 119.776 155.547 111.058 142.709 113.142C129.871 115.226 121.153 127.323 123.237 140.161C125.321 153 137.417 161.718 150.256 159.634Z" fill="#E0E0E0"/>
<path d="M149.692 156.159C160.611 154.387 168.026 144.098 166.253 133.179C164.481 122.259 154.192 114.844 143.273 116.617C132.354 118.389 124.939 128.678 126.711 139.597C128.483 150.517 138.772 157.932 149.692 156.159Z" fill="#F0F0F0"/>
<path d="M145.53 150.14V136.14L136.26 141.39" fill="#F0F0F0"/>
<path d="M145.53 151.14C145.265 151.14 145.01 151.035 144.823 150.847C144.635 150.66 144.53 150.405 144.53 150.14V137.85L136.75 142.26C136.519 142.39 136.246 142.422 135.991 142.351C135.736 142.28 135.52 142.11 135.39 141.88C135.26 141.65 135.225 141.379 135.295 141.124C135.364 140.869 135.531 140.652 135.76 140.52L145.04 135.27C145.192 135.185 145.364 135.14 145.538 135.142C145.713 135.143 145.884 135.19 146.034 135.278C146.185 135.366 146.31 135.492 146.397 135.643C146.484 135.794 146.53 135.966 146.53 136.14V150.14C146.53 150.405 146.425 150.66 146.237 150.847C146.049 151.035 145.795 151.14 145.53 151.14Z" fill="#E0E0E0"/>
<path d="M428.61 106.68H277.86V240.45H428.61V106.68Z" fill="#E6E6E6"/>
<path d="M424.64 110.35H281.63V236.86H424.64V110.35Z" fill="#F0F0F0"/>
<path d="M315.19 110.35L281.63 236.58V177.27L299.35 110.35H315.19Z" fill="white"/>
<path d="M327.08 110.35L293.22 236.86H287.82L321.68 110.35H327.08Z" fill="white"/>
<path d="M424.64 190.18V210.39L417.79 236.86H412.39L424.64 190.18Z" fill="white"/>
<path d="M331.51 108.08H329.1V239.69H331.51V108.08Z" fill="#E6E6E6"/>
<path d="M378.2 108.08H375.79V239.69H378.2V108.08Z" fill="#E6E6E6"/>
<path d="M250 427.56C357.083 427.56 443.89 422.492 443.89 416.24C443.89 409.988 357.083 404.92 250 404.92C142.918 404.92 56.1101 409.988 56.1101 416.24C56.1101 422.492 142.918 427.56 250 427.56Z" fill="#F5F5F5"/>
<path d="M401.9 391.23C401.9 391.23 406.65 380.87 401.22 370.65C395.79 360.43 394.22 358.03 397.68 355.93C401.14 353.83 402.73 364.11 402.73 364.11C404.441 359.468 404.616 354.399 403.23 349.65C400.83 342.26 399.32 330.22 402.6 328.93C405.88 327.64 403.23 343.93 406.09 349.51C407.54 345.604 408.478 341.527 408.88 337.38C409.27 331.44 408.66 321.96 411.25 319.53C413.84 317.1 415.51 318.78 412.96 331.88C411.427 339.711 410.581 347.662 410.43 355.64C410.43 355.64 416.06 338.45 419.85 337.95C423.64 337.45 423.63 343.01 420.39 347.84C417.15 352.67 410.9 361.32 409.88 365.77C409.88 365.77 416.07 352.83 421.63 356.77C427.19 360.71 416.79 368.54 412.15 371.37C407.51 374.2 404.29 391.88 404.29 391.88L401.9 391.23Z" fill="#46CCDA"/>
<path opacity="0.2" d="M401.9 391.23C401.9 391.23 406.65 380.87 401.22 370.65C395.79 360.43 394.22 358.03 397.68 355.93C401.14 353.83 402.73 364.11 402.73 364.11C404.441 359.468 404.616 354.399 403.23 349.65C400.83 342.26 399.32 330.22 402.6 328.93C405.88 327.64 403.23 343.93 406.09 349.51C407.54 345.604 408.478 341.527 408.88 337.38C409.27 331.44 408.66 321.96 411.25 319.53C413.84 317.1 415.51 318.78 412.96 331.88C411.427 339.711 410.581 347.662 410.43 355.64C410.43 355.64 416.06 338.45 419.85 337.95C423.64 337.45 423.63 343.01 420.39 347.84C417.15 352.67 410.9 361.32 409.88 365.77C409.88 365.77 416.07 352.83 421.63 356.77C427.19 360.71 416.79 368.54 412.15 371.37C407.51 374.2 404.29 391.88 404.29 391.88L401.9 391.23Z" fill="black"/>
<path d="M405.65 395.48C405.65 395.48 401.02 385.05 406.57 374.91C412.12 364.77 413.72 362.39 410.29 360.25C406.86 358.11 405.14 368.35 405.14 368.35C403.483 363.69 403.367 358.621 404.81 353.89C407.3 346.53 408.96 334.51 405.69 333.17C402.42 331.83 404.88 348.17 401.96 353.7C400.555 349.775 399.664 345.684 399.31 341.53C398.99 335.59 399.72 326.12 397.15 323.65C394.58 321.18 392.9 322.84 395.3 335.98C396.737 343.826 397.487 351.783 397.54 359.76C397.54 359.76 392.11 342.49 388.34 341.94C384.57 341.39 384.5 346.94 387.68 351.82C390.86 356.7 397 365.44 398 369.9C398 369.9 392 356.9 386.36 360.76C380.72 364.62 391.06 372.6 395.66 375.5C400.26 378.4 403.28 396.13 403.28 396.13L405.65 395.48Z" fill="#46CCDA"/>
<path d="M384.31 388.04H422.52L419.43 415.39H387.4L384.31 388.04Z" fill="#263238"/>
<path d="M242.6 411V414.59C242.6 414.696 242.579 414.802 242.538 414.9C242.497 414.998 242.438 415.087 242.363 415.163C242.287 415.238 242.198 415.298 242.1 415.338C242.002 415.379 241.896 415.4 241.79 415.4H140.37C139.505 415.4 138.653 415.188 137.889 414.782C137.125 414.377 136.472 413.79 135.987 413.073C135.503 412.357 135.201 411.532 135.109 410.672C135.017 409.812 135.138 408.943 135.46 408.14L167.6 328.54L219.54 328.89L217.77 339.22L206.31 406.07C206.224 406.577 206.25 407.096 206.385 407.592C206.52 408.088 206.762 408.548 207.093 408.941C207.424 409.334 207.837 409.65 208.303 409.868C208.768 410.085 209.276 410.198 209.79 410.2H241.79C241.896 410.199 242.001 410.218 242.099 410.258C242.197 410.298 242.287 410.356 242.362 410.431C242.437 410.505 242.497 410.594 242.538 410.691C242.579 410.789 242.6 410.894 242.6 411Z" fill="#263238"/>
<path opacity="0.5" d="M242.6 411V414.59C242.6 414.696 242.579 414.802 242.538 414.9C242.497 414.998 242.438 415.087 242.363 415.163C242.287 415.238 242.198 415.298 242.1 415.338C242.002 415.379 241.896 415.4 241.79 415.4H140.37C139.505 415.4 138.653 415.188 137.889 414.782C137.125 414.377 136.472 413.79 135.987 413.073C135.503 412.357 135.201 411.532 135.109 410.672C135.017 409.812 135.138 408.943 135.46 408.14L155.39 358.79L167.6 328.54L219.54 328.89L217.77 339.22L212.77 368.29L206.3 406.07C206.214 406.577 206.24 407.096 206.375 407.592C206.51 408.088 206.752 408.548 207.083 408.941C207.414 409.334 207.827 409.65 208.293 409.868C208.758 410.085 209.266 410.198 209.78 410.2H241.78C241.887 410.197 241.993 410.216 242.092 410.255C242.192 410.294 242.282 410.352 242.359 410.427C242.435 410.502 242.496 410.591 242.537 410.689C242.579 410.787 242.6 410.893 242.6 411Z" fill="white"/>
<path opacity="0.2" d="M209.79 410.19H143.79C143.41 410.189 143.036 410.094 142.7 409.915C142.365 409.735 142.079 409.476 141.868 409.16C141.657 408.844 141.526 408.48 141.488 408.102C141.45 407.724 141.506 407.342 141.65 406.99L169.83 339.21H217.76L206.3 406.06C206.214 406.568 206.24 407.088 206.376 407.584C206.512 408.081 206.754 408.542 207.087 408.935C207.419 409.328 207.833 409.644 208.3 409.861C208.767 410.078 209.275 410.19 209.79 410.19Z" fill="black"/>
<path opacity="0.1" d="M219.54 328.88L217.77 339.21L212.78 368.28L155.39 358.79L167.6 328.53L219.54 328.88Z" fill="black"/>
<path d="M320.53 180.5H80.0799C79.2723 180.5 78.4726 180.659 77.7264 180.968C76.9803 181.277 76.3023 181.73 75.7312 182.301C75.1601 182.872 74.7071 183.55 74.3981 184.296C74.089 185.043 73.9299 185.842 73.9299 186.65V349.44C73.9299 351.071 74.5779 352.635 75.7312 353.789C76.8846 354.942 78.4489 355.59 80.0799 355.59H320.53C322.162 355.59 323.727 354.942 324.882 353.789C326.037 352.636 326.687 351.072 326.69 349.44V186.65C326.687 185.018 326.037 183.454 324.882 182.301C323.727 181.148 322.162 180.5 320.53 180.5Z" fill="#263238"/>
<path opacity="0.6" d="M320.53 180.5H80.0799C79.2723 180.5 78.4726 180.659 77.7264 180.968C76.9803 181.277 76.3023 181.73 75.7312 182.301C75.1601 182.872 74.7071 183.55 74.3981 184.296C74.089 185.043 73.9299 185.842 73.9299 186.65V349.44C73.9299 351.071 74.5779 352.635 75.7312 353.789C76.8846 354.942 78.4489 355.59 80.0799 355.59H320.53C322.162 355.59 323.727 354.942 324.882 353.789C326.037 352.636 326.687 351.072 326.69 349.44V186.65C326.687 185.018 326.037 183.454 324.882 182.301C323.727 181.148 322.162 180.5 320.53 180.5Z" fill="white"/>
<path opacity="0.2" d="M85.1799 355.58H80.0799C78.4506 355.58 76.8878 354.933 75.7348 353.782C74.5817 352.631 73.9326 351.069 73.9299 349.44V186.66C73.9286 185.851 74.0867 185.051 74.3952 184.303C74.7037 183.556 75.1565 182.877 75.7277 182.305C76.2989 181.733 76.9773 181.279 77.7241 180.969C78.4709 180.659 79.2715 180.5 80.0799 180.5H85.1799C84.3689 180.496 83.5652 180.652 82.8149 180.96C82.0646 181.268 81.3827 181.722 80.8083 182.294C80.2339 182.867 79.7784 183.547 79.468 184.296C79.1577 185.046 78.9986 185.849 78.9999 186.66V349.44C78.9999 350.25 79.1601 351.051 79.4711 351.799C79.7822 352.546 80.238 353.225 80.8124 353.796C81.3868 354.366 82.0684 354.818 82.818 355.124C83.5675 355.43 84.3703 355.585 85.1799 355.58Z" fill="black"/>
<path d="M321.15 185.79H84.5798V342.76H321.15V185.79Z" fill="#46CCDA"/>
<path opacity="0.4" d="M199.6 245.54C210.944 245.54 220.14 236.344 220.14 225C220.14 213.656 210.944 204.46 199.6 204.46C188.256 204.46 179.06 213.656 179.06 225C179.06 236.344 188.256 245.54 199.6 245.54Z" fill="white"/>
<path d="M194.7 221.88V220C194.7 219.104 195.056 218.244 195.69 217.61C196.324 216.976 197.184 216.62 198.08 216.62H201.08C201.527 216.615 201.971 216.698 202.386 216.866C202.801 217.033 203.178 217.281 203.496 217.596C203.814 217.91 204.067 218.284 204.239 218.697C204.411 219.11 204.5 219.553 204.5 220V221.92H206.69V220C206.687 218.523 206.1 217.108 205.056 216.064C204.012 215.02 202.596 214.433 201.12 214.43H198.12C196.644 214.433 195.228 215.02 194.184 216.064C193.14 217.108 192.553 218.523 192.55 220V221.92L194.7 221.88Z" fill="white"/>
<path d="M189.75 224.41V234.5C189.75 234.647 189.779 234.793 189.835 234.929C189.892 235.064 189.974 235.188 190.078 235.292C190.182 235.396 190.306 235.478 190.441 235.535C190.577 235.591 190.723 235.62 190.87 235.62H208.33C208.477 235.62 208.623 235.591 208.759 235.535C208.894 235.478 209.018 235.396 209.122 235.292C209.226 235.188 209.308 235.064 209.365 234.929C209.421 234.793 209.45 234.647 209.45 234.5V224.41C209.45 224.113 209.332 223.828 209.122 223.618C208.912 223.408 208.627 223.29 208.33 223.29H190.87C190.723 223.29 190.577 223.319 190.441 223.375C190.306 223.431 190.182 223.514 190.078 223.618C189.974 223.722 189.892 223.845 189.835 223.981C189.779 224.117 189.75 224.263 189.75 224.41ZM200.23 230.12V232.12H199V230.12C198.82 230.02 198.669 229.875 198.56 229.7C198.452 229.525 198.39 229.326 198.38 229.12C198.38 228.788 198.512 228.47 198.746 228.236C198.981 228.002 199.298 227.87 199.63 227.87C199.962 227.87 200.279 228.002 200.514 228.236C200.748 228.47 200.88 228.788 200.88 229.12C200.867 229.329 200.801 229.53 200.687 229.706C200.573 229.881 200.415 230.024 200.23 230.12Z" fill="white"/>
<path d="M149.49 262.55H130.09C128.936 262.55 128 263.486 128 264.64V284.04C128 285.194 128.936 286.13 130.09 286.13H149.49C150.644 286.13 151.58 285.194 151.58 284.04V264.64C151.58 263.486 150.644 262.55 149.49 262.55Z" fill="white"/>
<path d="M179.4 262.52H160C158.846 262.52 157.91 263.456 157.91 264.61V284.01C157.91 285.164 158.846 286.1 160 286.1H179.4C180.554 286.1 181.49 285.164 181.49 284.01V264.61C181.49 263.456 180.554 262.52 179.4 262.52Z" fill="white"/>
<path d="M209.3 262.49H189.9C188.746 262.49 187.81 263.426 187.81 264.58V283.98C187.81 285.134 188.746 286.07 189.9 286.07H209.3C210.454 286.07 211.39 285.134 211.39 283.98V264.58C211.39 263.426 210.454 262.49 209.3 262.49Z" fill="white"/>
<path d="M239.2 262.45H219.8C218.646 262.45 217.71 263.386 217.71 264.54V283.94C217.71 285.094 218.646 286.03 219.8 286.03H239.2C240.354 286.03 241.29 285.094 241.29 283.94V264.54C241.29 263.386 240.354 262.45 239.2 262.45Z" fill="white"/>
<path d="M269.1 262.42H249.7C248.546 262.42 247.61 263.356 247.61 264.51V283.91C247.61 285.064 248.546 286 249.7 286H269.1C270.254 286 271.19 285.064 271.19 283.91V264.51C271.19 263.356 270.254 262.42 269.1 262.42Z" fill="white"/>
<path d="M254.21 274.67C254.21 270.52 256.43 268.16 259.41 268.16C262.39 268.16 264.6 270.52 264.6 274.67C264.6 278.82 262.38 281.18 259.41 281.18C256.44 281.18 254.21 278.82 254.21 274.67ZM262.78 274.67C262.78 271.41 261.39 269.78 259.41 269.78C257.43 269.78 256.03 271.41 256.03 274.67C256.03 277.93 257.41 279.56 259.41 279.56C261.41 279.56 262.78 277.92 262.78 274.67Z" fill="#263238"/>
<path d="M144.53 274.51C144.53 278.85 142.07 281.18 138.53 281.18C137.425 281.219 136.33 280.96 135.36 280.43L136 279C136.743 279.429 137.593 279.638 138.45 279.6C141.03 279.6 142.67 277.98 142.67 274.79V274.34C142.243 274.899 141.685 275.343 141.044 275.632C140.404 275.922 139.701 276.048 139 276C136.47 276 134.65 274.49 134.65 272.15C134.65 269.81 136.65 268.15 139.14 268.15C142.6 268.16 144.53 270.45 144.53 274.51ZM142.29 272.09C142.29 270.78 141.29 269.63 139.29 269.63C138.94 269.588 138.585 269.62 138.248 269.724C137.911 269.829 137.6 270.004 137.336 270.237C137.072 270.47 136.86 270.757 136.714 271.078C136.568 271.399 136.492 271.747 136.49 272.1C136.49 273.6 137.6 274.56 139.39 274.56C141.18 274.56 142.29 273.49 142.29 272.09Z" fill="#263238"/>
<path d="M164.5 274.67C164.5 270.52 166.72 268.16 169.7 268.16C172.68 268.16 174.89 270.52 174.89 274.67C174.89 278.82 172.67 281.18 169.7 281.18C166.73 281.18 164.5 278.82 164.5 274.67ZM173.07 274.67C173.07 271.41 171.69 269.78 169.7 269.78C167.71 269.78 166.32 271.41 166.32 274.67C166.32 277.93 167.7 279.56 169.7 279.56C171.7 279.56 173.07 277.93 173.07 274.67Z" fill="#263238"/>
<path d="M204.2 279.45V281H195.05V279.8L200.23 274.8C201.58 273.49 201.83 272.69 201.83 271.89C201.83 270.58 200.91 269.78 199.12 269.78C198.509 269.746 197.898 269.853 197.334 270.092C196.771 270.331 196.27 270.697 195.87 271.16L194.63 270.09C195.215 269.443 195.936 268.934 196.742 268.6C197.548 268.266 198.419 268.116 199.29 268.16C201.94 268.16 203.65 269.52 203.65 271.7C203.65 272.94 203.29 274.05 201.56 275.7L197.67 279.44L204.2 279.45Z" fill="#263238"/>
<path d="M231 268.3V281H229.2V269.89H226.32V268.3H231Z" fill="#263238"/>
<g opacity="0.6">
<path d="M177.23 256.79V257.24H173.76V252.33H177.12V252.78H174.28V254.53H176.81V255H174.28V256.82L177.23 256.79Z" fill="white"/>
<path d="M181.73 255.1V257.24H181.23V255.15C181.26 254.995 181.252 254.835 181.208 254.683C181.164 254.531 181.085 254.392 180.976 254.277C180.868 254.161 180.734 254.074 180.585 254.02C180.436 253.967 180.277 253.95 180.12 253.97C179.944 253.957 179.767 253.984 179.602 254.046C179.437 254.109 179.288 254.208 179.165 254.334C179.042 254.461 178.949 254.613 178.891 254.78C178.833 254.947 178.812 255.124 178.83 255.3V257.24H178.34V253.55H178.81V254.23C178.96 254 179.169 253.813 179.415 253.69C179.661 253.567 179.936 253.512 180.21 253.53C180.419 253.512 180.628 253.541 180.824 253.614C181.02 253.688 181.197 253.804 181.343 253.954C181.488 254.104 181.599 254.285 181.666 254.483C181.733 254.682 181.755 254.892 181.73 255.1Z" fill="white"/>
<path d="M185 257C184.78 257.178 184.503 257.271 184.22 257.26C184.076 257.272 183.931 257.253 183.795 257.203C183.66 257.154 183.536 257.076 183.433 256.974C183.331 256.872 183.251 256.749 183.201 256.614C183.15 256.479 183.129 256.334 183.14 256.19V254H182.48V253.58H183.14V252.78H183.64V253.58H184.76V254H183.64V256.2C183.64 256.64 183.86 256.87 184.27 256.87C184.469 256.876 184.663 256.813 184.82 256.69L185 257Z" fill="white"/>
<path d="M189 255.55H185.92C185.943 255.912 186.109 256.25 186.381 256.49C186.652 256.729 187.008 256.852 187.37 256.83C187.582 256.837 187.793 256.797 187.988 256.715C188.183 256.632 188.358 256.507 188.5 256.35L188.78 256.67C188.507 256.926 188.168 257.101 187.801 257.173C187.434 257.246 187.054 257.215 186.704 257.083C186.354 256.95 186.048 256.723 185.821 256.425C185.594 256.128 185.455 255.772 185.42 255.4C185.406 255.157 185.443 254.913 185.527 254.685C185.612 254.456 185.743 254.248 185.912 254.072C186.081 253.897 186.284 253.758 186.509 253.665C186.735 253.571 186.976 253.525 187.22 253.53C187.463 253.525 187.704 253.571 187.928 253.665C188.152 253.758 188.354 253.897 188.522 254.073C188.689 254.249 188.818 254.458 188.901 254.686C188.983 254.915 189.017 255.158 189 255.4C189 255.4 189 255.49 189 255.55ZM185.92 255.18H188.53C188.501 254.854 188.352 254.55 188.11 254.328C187.868 254.107 187.553 253.984 187.225 253.984C186.897 253.984 186.582 254.107 186.34 254.328C186.099 254.55 185.949 254.854 185.92 255.18Z" fill="white"/>
<path d="M191.87 253.53V254H191.75C191.574 253.991 191.399 254.021 191.236 254.087C191.073 254.154 190.927 254.256 190.808 254.387C190.69 254.517 190.601 254.671 190.55 254.84C190.498 255.008 190.485 255.186 190.51 255.36V257.24H190V253.55H190.48V254.27C190.609 254.02 190.811 253.815 191.059 253.682C191.308 253.55 191.59 253.497 191.87 253.53Z" fill="white"/>
<path d="M197.75 253.55L195.91 257.68C195.6 258.4 195.21 258.63 194.68 258.63C194.516 258.636 194.353 258.609 194.2 258.551C194.048 258.492 193.908 258.404 193.79 258.29L194.02 257.92C194.105 258.012 194.209 258.084 194.325 258.132C194.44 258.181 194.565 258.204 194.69 258.2C195.02 258.2 195.24 258.05 195.45 257.59L195.61 257.23L194 253.55H194.52L195.9 256.68L197.29 253.55H197.75Z" fill="white"/>
<path d="M198 255.4C197.998 255.028 198.107 254.663 198.312 254.353C198.517 254.042 198.81 253.8 199.154 253.656C199.497 253.512 199.875 253.474 200.241 253.545C200.606 253.616 200.942 253.795 201.206 254.057C201.47 254.32 201.65 254.655 201.723 255.02C201.797 255.385 201.76 255.763 201.618 256.107C201.476 256.451 201.235 256.745 200.926 256.952C200.616 257.159 200.252 257.27 199.88 257.27C199.631 257.28 199.383 257.238 199.152 257.148C198.92 257.057 198.709 256.92 198.533 256.745C198.356 256.569 198.218 256.359 198.126 256.128C198.035 255.896 197.992 255.649 198 255.4ZM201.24 255.4C201.228 255.131 201.138 254.872 200.98 254.655C200.822 254.437 200.603 254.271 200.352 254.177C200.1 254.083 199.826 254.065 199.564 254.125C199.302 254.185 199.064 254.321 198.879 254.516C198.693 254.711 198.57 254.956 198.523 255.22C198.475 255.485 198.507 255.757 198.614 256.004C198.721 256.251 198.898 256.461 199.123 256.607C199.348 256.754 199.611 256.832 199.88 256.83C200.063 256.829 200.244 256.791 200.411 256.717C200.579 256.644 200.73 256.537 200.854 256.403C200.979 256.269 201.075 256.111 201.136 255.938C201.197 255.766 201.222 255.583 201.21 255.4H201.24Z" fill="white"/>
<path d="M206.05 253.55V257.24H205.58V256.56C205.443 256.787 205.247 256.974 205.013 257.099C204.779 257.224 204.515 257.283 204.25 257.27C204.039 257.291 203.825 257.264 203.626 257.192C203.426 257.119 203.245 257.003 203.097 256.851C202.948 256.7 202.835 256.517 202.766 256.316C202.698 256.115 202.675 255.901 202.7 255.69V253.55H203.19V255.64C203.16 255.795 203.168 255.955 203.212 256.107C203.256 256.259 203.335 256.398 203.444 256.513C203.552 256.629 203.686 256.716 203.835 256.77C203.984 256.823 204.143 256.84 204.3 256.82C204.474 256.83 204.648 256.802 204.809 256.737C204.971 256.673 205.116 256.574 205.236 256.447C205.355 256.32 205.445 256.169 205.499 256.003C205.553 255.838 205.571 255.663 205.55 255.49V253.55H206.05Z" fill="white"/>
<path d="M209.3 253.53V254H209.18C209.004 253.991 208.828 254.021 208.666 254.087C208.503 254.154 208.357 254.256 208.238 254.387C208.12 254.517 208.031 254.671 207.98 254.84C207.928 255.008 207.915 255.186 207.94 255.36V257.24H207.44V253.55H207.92V254.27C208.048 254.021 208.248 253.817 208.495 253.685C208.741 253.553 209.022 253.499 209.3 253.53Z" fill="white"/>
<path d="M211.75 254.79C211.732 254.276 211.868 253.769 212.14 253.333C212.413 252.897 212.809 252.552 213.279 252.343C213.748 252.134 214.27 252.07 214.776 252.159C215.282 252.248 215.75 252.487 216.12 252.844C216.49 253.201 216.745 253.66 216.852 254.163C216.959 254.665 216.913 255.189 216.721 255.665C216.529 256.142 216.198 256.55 215.772 256.838C215.346 257.126 214.844 257.28 214.33 257.28C213.995 257.294 213.661 257.239 213.348 257.12C213.035 257.001 212.749 256.819 212.508 256.586C212.267 256.354 212.075 256.075 211.945 255.766C211.815 255.457 211.748 255.125 211.75 254.79ZM216.38 254.79C216.392 254.378 216.28 253.971 216.058 253.624C215.836 253.276 215.515 253.002 215.137 252.839C214.758 252.676 214.339 252.63 213.934 252.708C213.528 252.785 213.156 252.983 212.864 253.274C212.573 253.566 212.375 253.938 212.298 254.343C212.22 254.749 212.266 255.168 212.429 255.546C212.593 255.925 212.866 256.246 213.214 256.468C213.561 256.69 213.968 256.802 214.38 256.79C214.911 256.79 215.419 256.579 215.794 256.204C216.169 255.829 216.38 255.32 216.38 254.79Z" fill="white"/>
<path d="M218.94 252.78H217.22V252.33H221.22V252.78H219.49V257.24H218.97L218.94 252.78Z" fill="white"/>
<path d="M225.85 254C225.85 255 225.09 255.67 223.85 255.67H222.54V257.22H222V252.31H223.83C225.09 252.33 225.85 253 225.85 254ZM225.33 254C225.33 253.21 224.81 252.76 223.83 252.76H222.53V255.21H223.83C224.81 255.23 225.33 254.79 225.33 254Z" fill="white"/>
</g>
<g opacity="0.6">
<path d="M180.15 298.89L180.35 298.5C180.799 298.89 181.376 299.1 181.97 299.09C182.88 299.09 183.28 298.71 183.28 298.22C183.28 296.88 180.28 297.7 180.28 295.89C180.28 295.17 180.84 294.55 182.08 294.55C182.618 294.543 183.146 294.692 183.6 294.98L183.43 295.39C183.026 295.133 182.559 294.994 182.08 294.99C181.19 294.99 180.79 295.39 180.79 295.88C180.79 297.22 183.79 296.41 183.79 298.19C183.79 298.92 183.22 299.53 181.97 299.53C181.304 299.555 180.654 299.326 180.15 298.89Z" fill="white"/>
<path d="M188 297.8H184.92C184.943 298.162 185.109 298.499 185.381 298.739C185.652 298.979 186.008 299.102 186.37 299.08C186.582 299.087 186.793 299.047 186.988 298.964C187.183 298.882 187.358 298.757 187.5 298.6L187.78 298.92C187.604 299.121 187.385 299.28 187.139 299.386C186.893 299.492 186.627 299.541 186.36 299.53C186.106 299.545 185.852 299.508 185.614 299.419C185.376 299.331 185.158 299.194 184.976 299.017C184.793 298.841 184.65 298.628 184.554 298.392C184.458 298.157 184.413 297.904 184.42 297.65C184.408 297.407 184.445 297.164 184.53 296.936C184.616 296.708 184.747 296.501 184.915 296.325C185.084 296.15 185.287 296.011 185.511 295.917C185.736 295.824 185.977 295.777 186.22 295.78C186.464 295.774 186.706 295.819 186.931 295.911C187.156 296.004 187.36 296.143 187.528 296.319C187.697 296.495 187.827 296.705 187.91 296.934C187.993 297.163 188.027 297.407 188.01 297.65C188.01 297.65 188 297.75 188 297.8ZM184.92 297.43H187.53C187.501 297.103 187.352 296.8 187.11 296.578C186.868 296.357 186.553 296.234 186.225 296.234C185.897 296.234 185.582 296.357 185.34 296.578C185.098 296.8 184.949 297.103 184.92 297.43Z" fill="white"/>
<path d="M192.43 297.35V299.49H191.94V297.4C191.968 297.245 191.959 297.086 191.914 296.936C191.869 296.785 191.79 296.648 191.681 296.534C191.573 296.42 191.44 296.333 191.292 296.28C191.144 296.227 190.986 296.21 190.83 296.23C190.654 296.217 190.477 296.244 190.312 296.306C190.147 296.369 189.998 296.468 189.875 296.594C189.752 296.721 189.659 296.873 189.601 297.04C189.543 297.207 189.522 297.384 189.54 297.56V299.49H189V295.81H189.48V296.49C189.629 296.258 189.837 296.069 190.083 295.945C190.33 295.82 190.605 295.763 190.88 295.78C191.091 295.757 191.304 295.783 191.504 295.854C191.703 295.925 191.884 296.04 192.033 296.191C192.182 296.342 192.295 296.525 192.364 296.725C192.433 296.926 192.455 297.139 192.43 297.35Z" fill="white"/>
<path d="M197.16 294.29V299.49H196.68V298.76C196.533 299.003 196.325 299.203 196.075 299.339C195.825 299.474 195.544 299.54 195.26 299.53C194.786 299.495 194.343 299.283 194.02 298.935C193.697 298.587 193.517 298.13 193.517 297.655C193.517 297.18 193.697 296.723 194.02 296.375C194.343 296.027 194.786 295.815 195.26 295.78C195.536 295.77 195.811 295.832 196.056 295.96C196.302 296.088 196.51 296.278 196.66 296.51V294.29H197.16ZM196.67 297.65C196.658 297.382 196.568 297.123 196.41 296.906C196.253 296.689 196.035 296.522 195.784 296.428C195.533 296.333 195.259 296.314 194.998 296.374C194.736 296.433 194.498 296.568 194.312 296.762C194.126 296.956 194.002 297.2 193.953 297.464C193.905 297.728 193.936 298 194.041 298.247C194.146 298.494 194.321 298.704 194.545 298.853C194.769 299.001 195.031 299.08 195.3 299.08C195.486 299.083 195.67 299.048 195.842 298.976C196.013 298.905 196.168 298.798 196.297 298.664C196.426 298.53 196.525 298.37 196.589 298.196C196.653 298.021 196.681 297.835 196.67 297.65Z" fill="white"/>
<path d="M203.16 297.21V299.49H202.68V298.92C202.541 299.125 202.35 299.289 202.127 299.396C201.904 299.503 201.657 299.55 201.41 299.53C200.58 299.53 200.07 299.09 200.07 298.45C200.07 297.81 200.43 297.45 201.49 297.45H202.66V297.23C202.674 297.095 202.658 296.959 202.613 296.831C202.567 296.703 202.494 296.587 202.398 296.492C202.302 296.396 202.186 296.322 202.059 296.277C201.931 296.232 201.795 296.216 201.66 296.23C201.21 296.223 200.773 296.379 200.43 296.67L200.21 296.3C200.632 295.963 201.16 295.786 201.7 295.8C201.893 295.777 202.088 295.797 202.272 295.859C202.457 295.921 202.625 296.023 202.764 296.158C202.904 296.293 203.012 296.458 203.081 296.64C203.149 296.822 203.176 297.016 203.16 297.21ZM202.66 298.38V297.78H201.5C200.79 297.78 200.56 298.06 200.56 298.44C200.56 298.82 200.9 299.13 201.49 299.13C201.739 299.146 201.988 299.082 202.198 298.947C202.409 298.812 202.571 298.614 202.66 298.38Z" fill="white"/>
<path d="M207.93 295.81V299C207.969 299.25 207.949 299.507 207.87 299.748C207.792 299.989 207.657 300.208 207.478 300.388C207.298 300.567 207.079 300.702 206.838 300.78C206.597 300.859 206.34 300.879 206.09 300.84C205.468 300.864 204.858 300.666 204.37 300.28L204.62 299.9C205.03 300.231 205.543 300.408 206.07 300.4C207.01 300.4 207.43 299.98 207.43 299.07V298.6C207.272 298.83 207.057 299.016 206.807 299.141C206.557 299.265 206.279 299.323 206 299.31C205.754 299.328 205.507 299.296 205.275 299.214C205.042 299.133 204.829 299.005 204.649 298.837C204.468 298.669 204.324 298.466 204.226 298.241C204.127 298.015 204.076 297.771 204.076 297.525C204.076 297.279 204.127 297.035 204.226 296.809C204.324 296.583 204.468 296.38 204.649 296.213C204.829 296.045 205.042 295.917 205.275 295.835C205.507 295.754 205.754 295.721 206 295.74C206.284 295.726 206.567 295.786 206.821 295.914C207.075 296.042 207.292 296.234 207.45 296.47V295.77L207.93 295.81ZM207.45 297.56C207.46 297.281 207.386 297.006 207.239 296.769C207.091 296.532 206.876 296.345 206.621 296.231C206.366 296.118 206.083 296.083 205.809 296.131C205.534 296.179 205.28 296.308 205.079 296.502C204.878 296.696 204.74 296.945 204.682 297.218C204.623 297.491 204.648 297.775 204.752 298.033C204.857 298.292 205.036 298.514 205.267 298.67C205.498 298.826 205.771 298.91 206.05 298.91C206.232 298.921 206.415 298.894 206.587 298.831C206.758 298.768 206.915 298.669 207.047 298.543C207.178 298.416 207.282 298.263 207.351 298.094C207.421 297.924 207.454 297.743 207.45 297.56Z" fill="white"/>
<path d="M212.1 297.21V299.49H211.63V298.92C211.49 299.124 211.3 299.288 211.077 299.395C210.854 299.502 210.607 299.548 210.36 299.53C209.52 299.53 209.01 299.09 209.01 298.45C209.01 297.81 209.38 297.45 210.44 297.45H211.6V297.23C211.6 296.6 211.25 296.23 210.6 296.23C210.154 296.225 209.72 296.381 209.38 296.67L209.15 296.3C209.576 295.963 210.107 295.786 210.65 295.8C210.842 295.779 211.037 295.8 211.22 295.863C211.402 295.925 211.569 296.028 211.708 296.163C211.846 296.297 211.953 296.461 212.021 296.642C212.089 296.823 212.116 297.017 212.1 297.21ZM211.6 298.38V297.78H210.45C209.73 297.78 209.5 298.06 209.5 298.44C209.5 298.82 209.85 299.13 210.44 299.13C210.689 299.147 210.936 299.084 211.145 298.948C211.354 298.813 211.514 298.614 211.6 298.38Z" fill="white"/>
<path d="M213.34 294.64C213.354 294.554 213.399 294.475 213.466 294.418C213.532 294.362 213.617 294.331 213.705 294.331C213.792 294.331 213.877 294.362 213.944 294.418C214.011 294.475 214.055 294.554 214.07 294.64C214.055 294.726 214.011 294.805 213.944 294.862C213.877 294.918 213.792 294.949 213.705 294.949C213.617 294.949 213.532 294.918 213.466 294.862C213.399 294.805 213.354 294.726 213.34 294.64ZM213.45 295.81H213.95V299.49H213.45V295.81Z" fill="white"/>
<path d="M218.72 297.35V299.49H218.23V297.4C218.258 297.245 218.249 297.086 218.204 296.936C218.159 296.785 218.079 296.648 217.971 296.534C217.863 296.42 217.73 296.333 217.582 296.28C217.434 296.227 217.276 296.21 217.12 296.23C216.944 296.217 216.767 296.243 216.602 296.306C216.437 296.369 216.288 296.468 216.165 296.594C216.042 296.721 215.948 296.873 215.89 297.04C215.833 297.207 215.812 297.384 215.83 297.56V299.49H215.34V295.81H215.81V296.49C215.959 296.258 216.167 296.069 216.413 295.945C216.659 295.82 216.934 295.763 217.21 295.78C217.418 295.764 217.626 295.794 217.821 295.868C218.015 295.942 218.191 296.058 218.336 296.208C218.48 296.358 218.589 296.539 218.656 296.736C218.722 296.933 218.744 297.143 218.72 297.35Z" fill="white"/>
</g>
<path opacity="0.4" d="M227.46 324.49H171.73C169.528 324.487 167.417 323.611 165.86 322.053C164.304 320.494 163.43 318.382 163.43 316.18C163.43 313.978 164.304 311.866 165.86 310.307C167.417 308.749 169.528 307.873 171.73 307.87H227.46C229.664 307.87 231.778 308.746 233.336 310.304C234.894 311.862 235.77 313.976 235.77 316.18C235.77 318.384 234.894 320.498 233.336 322.056C231.778 323.614 229.664 324.49 227.46 324.49Z" fill="white"/>
<path d="M177.86 315.76C177.855 315.371 177.93 314.985 178.081 314.626C178.232 314.267 178.455 313.942 178.736 313.673C179.018 313.404 179.351 313.196 179.717 313.061C180.082 312.926 180.471 312.868 180.86 312.89C181.257 312.876 181.653 312.947 182.02 313.099C182.388 313.251 182.718 313.48 182.99 313.77L182.47 314.27C182.269 314.054 182.024 313.883 181.751 313.769C181.479 313.655 181.185 313.601 180.89 313.61C180.535 313.613 180.186 313.705 179.875 313.876C179.564 314.047 179.3 314.292 179.107 314.59C178.913 314.888 178.797 315.229 178.768 315.583C178.738 315.937 178.797 316.292 178.939 316.618C179.081 316.944 179.301 317.229 179.58 317.449C179.859 317.668 180.188 317.816 180.537 317.877C180.887 317.939 181.247 317.913 181.584 317.802C181.921 317.691 182.225 317.498 182.47 317.24L182.99 317.74C182.717 318.031 182.385 318.26 182.015 318.412C181.646 318.564 181.249 318.635 180.85 318.62C180.462 318.642 180.075 318.584 179.711 318.45C179.346 318.316 179.014 318.108 178.733 317.84C178.453 317.571 178.231 317.248 178.08 316.891C177.93 316.533 177.855 316.148 177.86 315.76Z" fill="white"/>
<path d="M183.53 315.76C183.502 315.161 183.654 314.568 183.966 314.057C184.278 313.545 184.736 313.139 185.281 312.891C185.827 312.642 186.434 312.562 187.025 312.662C187.615 312.761 188.163 313.035 188.597 313.449C189.03 313.862 189.33 314.396 189.458 314.981C189.585 315.567 189.535 316.177 189.312 316.733C189.09 317.29 188.706 317.767 188.21 318.103C187.714 318.439 187.129 318.619 186.53 318.62C186.142 318.64 185.755 318.581 185.391 318.447C185.027 318.312 184.694 318.105 184.413 317.837C184.132 317.569 183.909 317.247 183.757 316.89C183.605 316.532 183.528 316.148 183.53 315.76ZM188.68 315.76C188.686 315.327 188.563 314.902 188.326 314.54C188.09 314.177 187.751 313.893 187.353 313.724C186.954 313.554 186.515 313.508 186.09 313.589C185.664 313.671 185.273 313.877 184.966 314.181C184.658 314.486 184.448 314.875 184.363 315.3C184.278 315.724 184.32 316.164 184.486 316.564C184.652 316.964 184.933 317.306 185.293 317.545C185.653 317.785 186.077 317.912 186.51 317.91C186.796 317.92 187.081 317.871 187.347 317.766C187.613 317.662 187.855 317.504 188.059 317.303C188.262 317.102 188.422 316.861 188.528 316.596C188.635 316.33 188.687 316.046 188.68 315.76Z" fill="white"/>
<path d="M195.52 313V318.6H194.86L191.5 314.42V318.6H190.7V313H191.36L194.72 317.17V313H195.52Z" fill="white"/>
<path d="M198.31 313.65H196.39V313H201V313.69H199.1V318.6H198.31V313.65Z" fill="white"/>
<path d="M201.89 313H202.69V318.6H201.89V313Z" fill="white"/>
<path d="M209.19 313V318.6H208.53L205.17 314.42V318.6H204.37V313H205L208.36 317.17V313H209.19Z" fill="white"/>
<path d="M210.82 316.14V313H211.62V316.15C211.62 317.39 212.19 317.95 213.2 317.95C214.21 317.95 214.78 317.39 214.78 316.15V313H215.56V316.18C215.56 316.809 215.31 317.411 214.866 317.856C214.421 318.3 213.818 318.55 213.19 318.55C212.561 318.55 211.958 318.3 211.514 317.856C211.07 317.411 210.82 316.809 210.82 316.18V316.14Z" fill="white"/>
<path d="M221.26 317.86V318.56H217.2V313H221.2V313.69H218V315.41H220.8V316.09H218V317.9L221.26 317.86Z" fill="white"/>
<path opacity="0.1" d="M296.49 186.52C263.78 219.29 179.77 292.23 84.5798 286.83V186.52H296.49Z" fill="white"/>
<path opacity="0.1" d="M321.14 246.75V343.5H178.72C184.18 323.96 195.1 297.2 216.28 278.08C254.38 243.68 298.6 243.78 321.14 246.75Z" fill="white"/>
<path d="M351.23 171.09L354.55 185.75L357.87 171.09H351.23Z" fill="#46CCDA"/>
<path opacity="0.7" d="M351.23 171.09L354.55 185.75L357.87 171.09H351.23Z" fill="white"/>
<path d="M391.71 129.58H317.4C312.656 129.58 308.81 133.426 308.81 138.17V165.75C308.81 170.494 312.656 174.34 317.4 174.34H391.71C396.454 174.34 400.3 170.494 400.3 165.75V138.17C400.3 133.426 396.454 129.58 391.71 129.58Z" fill="#46CCDA"/>
<path opacity="0.7" d="M391.71 129.58H317.4C312.656 129.58 308.81 133.426 308.81 138.17V165.75C308.81 170.494 312.656 174.34 317.4 174.34H391.71C396.454 174.34 400.3 170.494 400.3 165.75V138.17C400.3 133.426 396.454 129.58 391.71 129.58Z" fill="white"/>
<g opacity="0.5">
<path d="M327.08 146V147.93H326.29V146L324.07 142.36H324.93L326.72 145.36L328.52 142.36H329.31L327.08 146Z" fill="#263238"/>
<path d="M329.13 145.82C329.122 145.381 329.245 144.95 329.483 144.581C329.721 144.213 330.063 143.923 330.466 143.75C330.87 143.576 331.315 143.527 331.746 143.608C332.178 143.688 332.575 143.896 332.888 144.203C333.201 144.51 333.416 144.904 333.504 145.334C333.593 145.764 333.552 146.21 333.386 146.616C333.22 147.022 332.936 147.37 332.572 147.615C332.208 147.859 331.779 147.99 331.34 147.99C331.05 148.004 330.76 147.958 330.488 147.854C330.216 147.75 329.969 147.592 329.761 147.388C329.554 147.184 329.39 146.94 329.282 146.67C329.173 146.4 329.122 146.111 329.13 145.82ZM332.76 145.82C332.777 145.623 332.752 145.424 332.688 145.237C332.624 145.05 332.522 144.878 332.388 144.732C332.254 144.587 332.091 144.471 331.91 144.391C331.729 144.312 331.533 144.27 331.335 144.27C331.137 144.27 330.942 144.312 330.761 144.391C330.579 144.471 330.417 144.587 330.283 144.732C330.149 144.878 330.047 145.05 329.982 145.237C329.918 145.424 329.894 145.623 329.91 145.82C329.894 146.017 329.918 146.216 329.982 146.403C330.047 146.59 330.149 146.762 330.283 146.907C330.417 147.053 330.579 147.169 330.761 147.249C330.942 147.328 331.137 147.369 331.335 147.369C331.533 147.369 331.729 147.328 331.91 147.249C332.091 147.169 332.254 147.053 332.388 146.907C332.522 146.762 332.624 146.59 332.688 146.403C332.752 146.216 332.777 146.017 332.76 145.82Z" fill="#263238"/>
<path d="M338.55 143.7V147.94H337.83V147.3C337.664 147.523 337.446 147.702 337.195 147.822C336.945 147.942 336.668 148 336.391 147.99C336.142 148.015 335.891 147.985 335.656 147.901C335.421 147.816 335.208 147.681 335.033 147.503C334.857 147.326 334.723 147.111 334.642 146.875C334.56 146.639 334.532 146.388 334.561 146.14V143.7H335.33V146.06C335.33 146.89 335.751 147.3 336.481 147.3C336.664 147.312 336.847 147.283 337.017 147.216C337.188 147.148 337.341 147.044 337.467 146.91C337.592 146.776 337.686 146.616 337.742 146.441C337.798 146.267 337.815 146.082 337.791 145.9V143.7H338.55Z" fill="#263238"/>
<path d="M342.3 143.66V144.41H342.12C341.934 144.398 341.747 144.427 341.573 144.496C341.399 144.565 341.243 144.672 341.116 144.809C340.989 144.946 340.893 145.11 340.837 145.288C340.781 145.466 340.765 145.655 340.79 145.84V147.95H340V143.7H340.74V144.42C340.901 144.158 341.133 143.946 341.409 143.812C341.686 143.677 341.995 143.624 342.3 143.66Z" fill="#263238"/>
<path d="M345.11 145.14C345.084 144.542 345.238 143.95 345.551 143.439C345.865 142.929 346.324 142.525 346.869 142.277C347.415 142.03 348.021 141.952 348.612 142.053C349.202 142.153 349.749 142.428 350.181 142.842C350.614 143.256 350.913 143.79 351.04 144.375C351.166 144.96 351.115 145.57 350.892 146.126C350.669 146.682 350.285 147.158 349.79 147.494C349.294 147.83 348.709 148.009 348.11 148.01C347.722 148.032 347.332 147.974 346.967 147.839C346.602 147.704 346.268 147.496 345.987 147.227C345.705 146.958 345.482 146.633 345.332 146.274C345.181 145.915 345.106 145.529 345.11 145.14ZM350.26 145.14C350.266 144.707 350.143 144.282 349.907 143.92C349.671 143.557 349.332 143.273 348.933 143.104C348.535 142.934 348.095 142.888 347.67 142.969C347.245 143.051 346.854 143.257 346.546 143.561C346.239 143.866 346.029 144.255 345.943 144.68C345.858 145.104 345.901 145.544 346.066 145.944C346.232 146.344 346.513 146.686 346.873 146.925C347.234 147.165 347.657 147.292 348.09 147.29C348.376 147.3 348.661 147.251 348.927 147.146C349.194 147.042 349.436 146.884 349.639 146.683C349.842 146.482 350.002 146.241 350.109 145.976C350.216 145.71 350.267 145.426 350.26 145.14Z" fill="#263238"/>
<path d="M353.32 143H351.4V142.31H356V143H354.08V147.9H353.29L353.32 143Z" fill="#263238"/>
<path d="M361.42 144.3C361.42 145.51 360.54 146.25 359.08 146.25H357.7V147.94H356.9V142.35H359.08C360.54 142.35 361.42 143.08 361.42 144.3ZM360.62 144.3C360.62 143.5 360.08 143.04 359.06 143.04H357.7V145.55H359.06C360.08 145.55 360.62 145.1 360.62 144.3Z" fill="#263238"/>
<path d="M364.37 145.14C364.397 144.561 364.591 144.003 364.928 143.532C365.266 143.061 365.732 142.698 366.272 142.486C366.811 142.275 367.4 142.224 367.968 142.34C368.535 142.456 369.057 142.734 369.47 143.14L368.95 143.65C368.75 143.432 368.505 143.26 368.232 143.144C367.96 143.029 367.666 142.973 367.37 142.98C366.8 142.98 366.253 143.207 365.85 143.61C365.447 144.013 365.22 144.56 365.22 145.13C365.22 145.7 365.447 146.247 365.85 146.65C366.253 147.054 366.8 147.28 367.37 147.28C367.666 147.287 367.96 147.231 368.232 147.116C368.505 147 368.75 146.828 368.95 146.61L369.47 147.12C369.057 147.526 368.535 147.804 367.968 147.92C367.4 148.036 366.811 147.985 366.272 147.774C365.732 147.562 365.266 147.199 364.928 146.728C364.591 146.257 364.397 145.699 364.37 145.12V145.14Z" fill="#263238"/>
<path d="M369.93 145.82C369.922 145.381 370.045 144.95 370.283 144.581C370.521 144.213 370.863 143.923 371.266 143.75C371.669 143.576 372.115 143.527 372.546 143.608C372.978 143.688 373.375 143.896 373.688 144.203C374.001 144.51 374.216 144.904 374.304 145.334C374.393 145.764 374.351 146.21 374.185 146.616C374.019 147.022 373.736 147.37 373.372 147.615C373.008 147.859 372.579 147.99 372.14 147.99C371.85 148.004 371.559 147.958 371.288 147.854C371.016 147.75 370.768 147.592 370.561 147.388C370.353 147.184 370.19 146.94 370.082 146.67C369.973 146.4 369.922 146.111 369.93 145.82ZM373.56 145.82C373.577 145.623 373.552 145.424 373.488 145.237C373.424 145.05 373.322 144.878 373.188 144.732C373.054 144.587 372.891 144.471 372.71 144.391C372.529 144.312 372.333 144.27 372.135 144.27C371.937 144.27 371.742 144.312 371.56 144.391C371.379 144.471 371.216 144.587 371.083 144.732C370.949 144.878 370.846 145.05 370.782 145.237C370.718 145.424 370.694 145.623 370.71 145.82C370.694 146.017 370.718 146.216 370.782 146.403C370.846 146.59 370.949 146.762 371.083 146.907C371.216 147.053 371.379 147.169 371.56 147.249C371.742 147.328 371.937 147.369 372.135 147.369C372.333 147.369 372.529 147.328 372.71 147.249C372.891 147.169 373.054 147.053 373.188 146.907C373.322 146.762 373.424 146.59 373.488 146.403C373.552 146.216 373.577 146.017 373.56 145.82Z" fill="#263238"/>
<path d="M379.4 142V147.93H378.67V147.26C378.496 147.493 378.267 147.681 378.004 147.806C377.741 147.931 377.452 147.991 377.16 147.98C376.612 147.943 376.098 147.698 375.722 147.296C375.347 146.895 375.138 146.365 375.138 145.815C375.138 145.265 375.347 144.735 375.722 144.334C376.098 143.932 376.612 143.687 377.16 143.65C377.443 143.641 377.724 143.698 377.98 143.816C378.237 143.934 378.463 144.11 378.64 144.33V142H379.4ZM378.64 145.81C378.627 145.53 378.531 145.26 378.365 145.035C378.2 144.809 377.971 144.636 377.709 144.539C377.446 144.442 377.16 144.424 376.887 144.487C376.614 144.551 376.366 144.693 376.174 144.897C375.981 145.1 375.852 145.356 375.804 145.632C375.755 145.908 375.789 146.192 375.9 146.449C376.012 146.706 376.196 146.925 376.431 147.078C376.666 147.231 376.94 147.312 377.22 147.31C377.414 147.315 377.607 147.279 377.786 147.205C377.965 147.13 378.127 147.02 378.26 146.879C378.394 146.739 378.497 146.572 378.562 146.39C378.628 146.207 378.654 146.013 378.64 145.82V145.81Z" fill="#263238"/>
<path d="M384.67 146.08H381.24C381.288 146.443 381.473 146.775 381.758 147.005C382.043 147.236 382.405 147.349 382.77 147.32C382.998 147.328 383.226 147.287 383.436 147.199C383.647 147.111 383.836 146.978 383.99 146.81L384.42 147.3C384.107 147.617 383.708 147.838 383.273 147.933C382.837 148.029 382.383 147.997 381.965 147.841C381.548 147.684 381.184 147.41 380.919 147.051C380.654 146.693 380.498 146.265 380.47 145.82C380.459 145.536 380.507 145.253 380.609 144.987C380.712 144.722 380.868 144.481 381.068 144.279C381.267 144.076 381.506 143.917 381.77 143.811C382.034 143.704 382.316 143.653 382.6 143.66C382.887 143.646 383.174 143.693 383.441 143.8C383.707 143.906 383.948 144.069 384.146 144.277C384.345 144.484 384.496 144.733 384.59 145.004C384.684 145.276 384.718 145.564 384.69 145.85C384.688 145.927 384.681 146.004 384.67 146.08ZM381.24 145.53H384C383.971 145.191 383.816 144.875 383.565 144.644C383.314 144.414 382.986 144.286 382.645 144.286C382.305 144.286 381.977 144.414 381.726 144.644C381.475 144.875 381.319 145.191 381.29 145.53H381.24Z" fill="#263238"/>
</g>
<g opacity="0.5">
<path d="M343 156.7C343 159.85 341.23 161.53 338.64 161.53C337.842 161.558 337.051 161.372 336.35 160.99L336.85 159.99C337.391 160.298 338.008 160.447 338.63 160.42C340.5 160.42 341.69 159.25 341.69 156.94V156.62C341.381 157.025 340.976 157.348 340.512 157.559C340.048 157.77 339.539 157.863 339.03 157.83C338.636 157.873 338.237 157.834 337.859 157.713C337.482 157.593 337.133 157.396 336.837 157.133C336.54 156.87 336.302 156.548 336.137 156.188C335.972 155.827 335.884 155.436 335.88 155.04C335.889 154.631 335.982 154.228 336.153 153.856C336.324 153.484 336.57 153.151 336.874 152.878C337.179 152.604 337.536 152.396 337.924 152.266C338.312 152.135 338.722 152.086 339.13 152.12C341.6 152.1 343 153.76 343 156.7ZM341.37 155C341.37 154.05 340.61 153.22 339.17 153.22C338.918 153.193 338.664 153.22 338.423 153.298C338.183 153.375 337.961 153.503 337.773 153.671C337.584 153.84 337.433 154.046 337.329 154.277C337.226 154.507 337.171 154.757 337.17 155.01C337.17 156.09 337.97 156.79 339.26 156.79C339.517 156.816 339.777 156.79 340.023 156.713C340.27 156.637 340.499 156.511 340.696 156.344C340.893 156.177 341.054 155.971 341.17 155.741C341.286 155.51 341.354 155.258 341.37 155Z" fill="#263238"/>
<path d="M344.26 156.82C344.26 153.82 345.87 152.1 348.03 152.1C350.19 152.1 351.78 153.82 351.78 156.82C351.78 159.82 350.17 161.53 348.03 161.53C345.89 161.53 344.26 159.82 344.26 156.82ZM350.46 156.82C350.46 154.46 349.46 153.28 348.03 153.28C346.6 153.28 345.58 154.46 345.58 156.82C345.58 159.18 346.58 160.36 348.03 160.36C349.48 160.36 350.46 159.18 350.46 156.82Z" fill="#263238"/>
<path d="M359.49 160.28V161.43H352.86V160.53L356.62 156.91C357.62 155.96 357.77 155.38 357.77 154.8C357.77 153.86 357.1 153.28 355.77 153.28C355.328 153.254 354.885 153.331 354.478 153.504C354.07 153.678 353.708 153.943 353.42 154.28L352.52 153.5C352.943 153.032 353.465 152.663 354.048 152.421C354.63 152.179 355.26 152.069 355.89 152.1C357.81 152.1 359.05 153.1 359.05 154.67C359.035 155.236 358.891 155.792 358.63 156.294C358.368 156.797 357.995 157.233 357.54 157.57L354.72 160.28H359.49Z" fill="#263238"/>
<path d="M363.43 152.21V161.43H362.12V153.36H360V152.21H363.43Z" fill="#263238"/>
<path d="M365.44 156.82C365.44 153.82 367.05 152.1 369.21 152.1C371.37 152.1 372.96 153.82 372.96 156.82C372.96 159.82 371.36 161.53 369.21 161.53C367.06 161.53 365.44 159.82 365.44 156.82ZM371.65 156.82C371.65 154.46 370.65 153.28 369.21 153.28C367.77 153.28 366.76 154.46 366.76 156.82C366.76 159.18 367.76 160.36 369.21 160.36C370.66 160.36 371.65 159.18 371.65 156.82Z" fill="#263238"/>
</g>
<path d="M346.33 214.09C352.299 218.221 358.977 221.221 366.03 222.94H366.1C365.572 222.925 365.052 223.071 364.61 223.36C364.174 223.632 363.827 224.024 363.61 224.49C363.537 224.633 363.496 224.79 363.49 224.95C363.65 222.85 362.74 220.49 362.1 218.22C360.95 214.63 359.6 210.95 358.25 207.34L362.11 205.27C365.3 210.16 375.95 225.64 368.68 230.12C367.433 230.847 365.961 231.082 364.55 230.78C356.628 229.607 349.074 226.66 342.45 222.16C341.99 221.84 341.59 221.56 341.05 221.16L346.35 214.07L346.33 214.09Z" fill="#DC897C"/>
<path d="M345.21 213C348.711 213.422 352.036 214.772 354.84 216.91L350.84 229.29C350.84 229.29 331.4 211.37 345.21 213Z" fill="#46CCDA"/>
<path opacity="0.6" d="M345.17 223.41C346.95 225.448 348.832 227.394 350.81 229.24L352.46 224.15L354.84 216.86C352.039 214.724 348.718 213.374 345.22 212.95C336.72 212 340.78 218.36 345.17 223.41Z" fill="white"/>
<path opacity="0.2" d="M345.17 223.41C346.949 225.448 348.832 227.394 350.81 229.24L352.46 224.15C350.385 222.533 347.83 221.654 345.2 221.65C345.14 222.235 345.13 222.824 345.17 223.41Z" fill="black"/>
<path d="M302 194.69C302 194.69 292.7 225.61 312.29 229.76C331.88 233.91 334 219.68 334 219.68C334 219.68 317.9 195.32 302 194.69Z" fill="#263238"/>
<path d="M297.41 204.93C297.374 204.94 297.336 204.94 297.3 204.93C297.272 204.916 297.247 204.897 297.226 204.873C297.206 204.849 297.19 204.822 297.181 204.792C297.172 204.762 297.168 204.73 297.172 204.699C297.175 204.668 297.185 204.637 297.2 204.61C297.493 204.076 297.905 203.618 298.405 203.271C298.904 202.924 299.478 202.698 300.08 202.61C300.142 202.612 300.202 202.636 300.248 202.679C300.294 202.721 300.323 202.778 300.33 202.84C300.333 202.872 300.329 202.903 300.32 202.933C300.31 202.964 300.295 202.992 300.274 203.016C300.254 203.04 300.229 203.06 300.201 203.074C300.172 203.089 300.142 203.097 300.11 203.1C299.589 203.185 299.093 203.388 298.662 203.693C298.231 203.998 297.874 204.397 297.62 204.86C297.594 204.889 297.561 204.911 297.525 204.923C297.488 204.936 297.448 204.938 297.41 204.93Z" fill="#263238"/>
<path d="M300.21 208.77C300.084 209.975 299.812 211.161 299.4 212.3C299.71 212.485 300.064 212.583 300.425 212.583C300.786 212.583 301.14 212.485 301.45 212.3L300.21 208.77Z" fill="#DE5753"/>
<path d="M298.32 207.42C298.53 207.97 299 208.3 299.32 208.16C299.64 208.02 299.82 207.47 299.61 206.92C299.4 206.37 298.93 206.04 298.61 206.18C298.29 206.32 298.12 206.87 298.32 207.42Z" fill="#263238"/>
<path d="M298.77 206.15H297.4C297.4 206.15 298.38 206.91 298.77 206.15Z" fill="#263238"/>
<path d="M318.23 212.61C318.196 212.7 318.149 212.784 318.09 212.86C318 213.03 317.9 213.19 317.8 213.36C317.214 214.414 316.434 215.347 315.5 216.11C312.5 218.5 309.89 219.22 307.62 218.53L307.29 218.42C303.92 217.05 301.29 213.02 299.2 207.69C298.273 205.604 297.688 203.382 297.47 201.11C297.47 201.11 297.47 201.03 297.47 201.01C297.47 200.99 297.47 200.83 297.47 200.75C297.392 199.448 297.64 198.147 298.192 196.964C298.744 195.782 299.582 194.756 300.63 193.98C301.527 193.276 302.499 192.676 303.53 192.19C313.52 187.32 323.24 203.18 318.23 212.61Z" fill="#E4897B"/>
<path opacity="0.2" d="M317.8 213.36C317.214 214.414 316.434 215.347 315.5 216.11C312.5 218.5 309.89 219.22 307.62 218.53C309.827 217.995 311.815 216.79 313.31 215.08C313.887 214.482 314.588 214.019 315.364 213.721C316.14 213.424 316.971 213.301 317.8 213.36Z" fill="black"/>
<path d="M297.42 201.05C297.42 201.05 300.21 208.39 308.36 208.26C308.36 208.26 314.72 214.26 319.01 212.35C324.86 209.76 326.06 199.12 320.1 191.69C312.36 182.05 295.48 189 297.42 201.05Z" fill="#263238"/>
<path d="M304 207.84C303.48 206.73 303.49 204.46 305.32 203.9C307.15 203.34 310.32 207.23 306.38 210.27C305.82 210.71 305.08 210.14 304 207.84Z" fill="#E4897B"/>
<path d="M306.19 187.69C306.19 187.69 298.63 189.18 296.19 193.69C293.33 198.93 293.19 202.99 300.79 205.69C300.79 205.69 310.4 196.69 314.54 195.69C316.952 195.091 319.411 194.697 321.89 194.51C319.13 186.52 309.24 184.38 306.19 187.69Z" fill="#263238"/>
<path d="M313.52 216.3C313.52 216.3 318.72 219.9 320.07 225.84L336.28 216.38C336.28 216.38 323.59 213.49 321.41 208.58C321.41 208.58 312.93 209.63 313.52 216.3Z" fill="#E4897B"/>
<path d="M329.62 255.25C329.62 255.25 308.62 234.62 306.36 228.14C306.36 228.14 315.19 214.39 332.84 213.81C350.49 213.23 362.5 246.81 362.5 246.81L329.62 255.25Z" fill="#46CCDA"/>
<path opacity="0.6" d="M362.5 246.82L329.63 255.26C329.63 255.26 325.05 250.75 319.93 245.26C318.35 243.55 316.7 241.75 315.11 239.97C310.94 235.24 307.26 230.62 306.37 228.11C306.37 228.11 315.19 214.36 332.84 213.78C350.49 213.2 362.5 246.82 362.5 246.82Z" fill="white"/>
<path d="M310 204.74C310 204.74 313.07 214.94 323.85 218.32C334.63 221.7 331.92 232.71 342.37 231.41C347.93 230.72 352.69 219.41 335.64 209.41C325.7 203.6 329.56 184.5 308.46 186.29C308.44 186.3 312.82 199.39 310 204.74Z" fill="#263238"/>
<path d="M320.47 410.73L315.47 409.59C316.22 384.59 319.83 354.36 323.02 331.65C323.52 328.09 324.02 324.73 324.48 321.59C324.71 320.1 324.92 318.67 325.13 317.29C326.13 310.48 327.05 305.1 327.6 301.77C328.01 299.34 328.24 298.01 328.24 298.01L346.24 302.4L344.95 306.94L340.7 321.94L340.22 323.65L337.4 333.54L332.62 350.37C332.92 375.78 320.47 410.73 320.47 410.73Z" fill="#E4897B"/>
<path d="M363.27 406.55L358.15 406.29C354.25 379.41 352.61 345.79 351.9 322.42C351.8 318.8 351.71 315.42 351.64 312.34C351.64 312.19 351.64 312.04 351.64 311.89C351.51 305.8 351.45 300.96 351.42 297.89C351.42 295.49 351.42 294.18 351.42 294.18L369.89 295.39L369.1 303.09L367.94 314.39L367.71 316.61L366.91 324.31L364.75 345C369.47 370 363.27 406.55 363.27 406.55Z" fill="#E4897B"/>
<path d="M365.19 405.55C365.19 404.91 357.29 405.41 357.29 405.41C357.29 405.41 352.44 410.34 347.73 411.41C343.02 412.48 345.66 415.35 350.92 415.35H363.92C367.68 415.39 365.34 412.2 365.19 405.55Z" fill="#263238"/>
<path d="M352.45 407.24C352.336 407.137 352.257 407 352.223 406.85C352.189 406.7 352.202 406.543 352.26 406.4C352.291 406.288 352.344 406.184 352.417 406.093C352.489 406.002 352.578 405.926 352.68 405.87C353.24 405.641 353.853 405.572 354.45 405.67C353.81 405.33 353.25 404.92 353.22 404.5C353.22 404.23 353.38 404.01 353.74 403.84C353.897 403.769 354.068 403.732 354.24 403.732C354.413 403.732 354.583 403.769 354.74 403.84C355.81 404.29 356.47 406.13 356.5 406.2C356.521 406.251 356.521 406.309 356.5 406.36V406.41C356.481 406.432 356.457 406.449 356.43 406.46C355.411 406.982 354.307 407.321 353.17 407.46C352.911 407.477 352.655 407.399 352.45 407.24ZM352.89 406.24C352.836 406.268 352.788 406.306 352.748 406.352C352.709 406.398 352.679 406.452 352.66 406.51C352.58 406.82 352.66 406.9 352.66 406.93C353.04 407.24 354.48 406.8 355.66 406.31C354.762 406.027 353.803 405.999 352.89 406.23V406.24ZM353.89 404.24C353.78 404.24 353.6 404.39 353.61 404.5C353.61 404.85 354.76 405.5 355.92 405.91C355.662 405.217 355.189 404.625 354.57 404.22C354.47 404.173 354.361 404.149 354.25 404.15C354.136 404.15 354.024 404.174 353.92 404.22L353.89 404.24Z" fill="#263238"/>
<path d="M323 405.55C323 404.91 315.11 405.41 315.11 405.41C315.11 405.41 310.26 410.34 305.55 411.41C300.84 412.48 303.47 415.35 308.73 415.35H321.73C325.5 415.39 323.17 412.2 323 405.55Z" fill="#263238"/>
<path d="M310.27 407.24C310.158 407.135 310.08 406.999 310.046 406.849C310.012 406.699 310.024 406.543 310.08 406.4C310.111 406.288 310.164 406.184 310.236 406.093C310.308 406.002 310.398 405.926 310.5 405.87C311.06 405.642 311.673 405.573 312.27 405.67C311.63 405.33 311.07 404.92 311.05 404.5C311.05 404.233 311.22 404.013 311.56 403.84C311.717 403.769 311.887 403.732 312.06 403.732C312.232 403.732 312.403 403.769 312.56 403.84C313.63 404.29 314.29 406.13 314.32 406.2C314.332 406.225 314.338 406.252 314.338 406.28C314.338 406.308 314.332 406.335 314.32 406.36C314.32 406.36 314.32 406.36 314.32 406.41L314.25 406.46C313.226 406.981 312.12 407.319 310.98 407.46C310.725 407.473 310.473 407.395 310.27 407.24ZM310.71 406.24C310.657 406.268 310.61 406.306 310.572 406.352C310.534 406.399 310.506 406.452 310.49 406.51C310.41 406.82 310.49 406.9 310.54 406.93C310.91 407.24 312.35 406.8 313.54 406.31C312.623 406.015 311.642 405.987 310.71 406.23V406.24ZM311.71 404.24C311.6 404.24 311.42 404.39 311.43 404.5C311.43 404.85 312.58 405.5 313.75 405.91C313.487 405.217 313.011 404.625 312.39 404.22C312.29 404.172 312.18 404.148 312.07 404.15C311.956 404.15 311.844 404.174 311.74 404.22L311.71 404.24Z" fill="#263238"/>
<path d="M325.36 305.53L329.62 275.53V255.23C340.85 246.79 362.5 246.79 362.5 246.79C362.5 246.79 379.13 269.86 371.05 307.79L350.17 310.79L348.84 303.71L346.22 310.79L325.36 305.53Z" fill="#263238"/>
<path opacity="0.2" d="M325.36 305.53L329.62 275.53V255.23C340.85 246.79 362.5 246.79 362.5 246.79C362.5 246.79 379.13 269.86 371.05 307.79L350.17 310.79L348.84 303.71L346.22 310.79L325.36 305.53Z" fill="white"/>
<path opacity="0.2" d="M348.84 303.82L352.84 291.33C352.84 291.33 357.06 290.05 362.48 281.67C362.5 281.67 361.56 295.93 348.84 303.82Z" fill="black"/>
<path opacity="0.2" d="M339.94 261L349.31 260.11C350.805 263.613 351.324 267.456 350.81 271.23L344.81 274.84L340.46 271.75C340.46 271.75 340.32 263.82 339.94 261Z" fill="black"/>
<path opacity="0.2" d="M362.5 258.71C363.757 261.801 364.686 265.015 365.27 268.3L368.59 269.71L370.38 267.48C370.38 267.48 369.17 260.95 367.12 257.75L362.5 258.71Z" fill="black"/>
<path d="M324.97 303.82L347.13 310.32L345.74 313.3L324.69 306.82L324.97 303.82Z" fill="#263238"/>
<path d="M349.31 309.89L349.68 312.63L371.41 309.89L371.74 306.44L349.31 309.89Z" fill="#263238"/>
<path d="M353.87 251C357.424 250.4 361.016 250.049 364.62 249.95L363.28 247.74C359.775 247.647 356.269 247.855 352.8 248.36L353.87 251Z" fill="#263238"/>
<path d="M333.94 253.72C331.07 254.96 329.42 255.89 329.42 255.89V258.62C331.033 257.807 332.65 257.063 334.27 256.39L333.94 253.72Z" fill="#263238"/>
<path d="M335.32 256C340.879 253.821 346.645 252.216 352.53 251.21L351.53 248.55C345.825 249.501 340.249 251.105 334.91 253.33L335.32 256Z" fill="#263238"/>
<path d="M275.24 263.81L269.56 261.53L268.56 266.89C268.56 266.89 273.68 269.99 275.82 266.3L275.24 263.81Z" fill="#E4897B"/>
<path d="M266.74 261.86L264.92 266L268.6 266.89L269.56 261.53L266.74 261.86Z" fill="#E4897B"/>
<path d="M362.41 206.2L361.74 200.12L356.56 201.8C356.56 201.8 356.24 207.8 360.51 207.92L362.41 206.2Z" fill="#E4897B"/>
<path d="M360.11 197.79L355.6 198.15L356.56 201.8L361.74 200.12L360.11 197.79Z" fill="#E4897B"/>
<path opacity="0.2" d="M319.93 245.29C318.35 243.58 316.7 241.78 315.11 240C314.5 236.28 314.11 233 314.11 233C316.015 234.413 317.542 236.274 318.557 238.417C319.572 240.561 320.044 242.921 319.93 245.29Z" fill="black"/>
<path d="M314.69 231.28C312.4 240.515 308.942 249.42 304.4 257.78C299.9 266.33 282.79 267.36 274.19 267.58L273.79 263.22C278.97 262 295.07 258.79 297.27 254.12C300.862 246.029 303.817 237.67 306.11 229.12L314.69 231.26V231.28Z" fill="#DC897C"/>
<path d="M309.79 223.74C304.9 226.94 302.28 235.26 301.45 239.33L311.61 246.81L316.74 241.81C318.82 230.33 311.65 222.53 309.79 223.74Z" fill="#46CCDA"/>
<path opacity="0.6" d="M309.79 223.74C304.9 226.94 302.28 235.26 301.45 239.33L311.61 246.81L316.74 241.81C318.82 230.33 311.65 222.53 309.79 223.74Z" fill="white"/>
<path d="M359.39 208.15L352.13 208.93C352.028 208.933 351.926 208.915 351.831 208.876C351.736 208.838 351.65 208.78 351.579 208.707C351.508 208.633 351.452 208.546 351.416 208.45C351.38 208.354 351.365 208.252 351.37 208.15L350.93 192.78C350.916 192.563 350.981 192.348 351.114 192.175C351.246 192.002 351.437 191.883 351.65 191.84L358.9 191.07C359.003 191.066 359.105 191.083 359.201 191.121C359.296 191.159 359.383 191.216 359.455 191.29C359.526 191.364 359.582 191.451 359.617 191.548C359.653 191.645 359.667 191.747 359.66 191.85L360.1 207.22C360.114 207.435 360.05 207.647 359.919 207.818C359.789 207.989 359.601 208.107 359.39 208.15Z" fill="#263238"/>
<path opacity="0.6" d="M359.39 208.15L352.13 208.93C352.028 208.933 351.926 208.915 351.831 208.876C351.736 208.838 351.65 208.78 351.579 208.707C351.508 208.633 351.452 208.546 351.416 208.45C351.38 208.354 351.365 208.252 351.37 208.15L350.93 192.78C350.916 192.563 350.981 192.348 351.114 192.175C351.246 192.002 351.437 191.883 351.65 191.84L358.9 191.07C359.003 191.066 359.105 191.083 359.201 191.121C359.296 191.159 359.383 191.216 359.455 191.29C359.526 191.364 359.582 191.451 359.617 191.548C359.653 191.645 359.667 191.747 359.66 191.85L360.1 207.22C360.114 207.435 360.05 207.647 359.919 207.818C359.789 207.989 359.601 208.107 359.39 208.15Z" fill="white"/>
<path d="M358.75 208.22L351.5 208.99C351.397 208.996 351.295 208.98 351.199 208.943C351.103 208.907 351.015 208.85 350.943 208.777C350.87 208.705 350.814 208.617 350.777 208.521C350.74 208.425 350.724 208.323 350.73 208.22L350.3 192.84C350.282 192.624 350.344 192.41 350.475 192.238C350.607 192.066 350.797 191.949 351.01 191.91L358.26 191.14C358.362 191.136 358.463 191.153 358.558 191.19C358.653 191.227 358.739 191.284 358.811 191.356C358.882 191.429 358.938 191.516 358.974 191.611C359.01 191.706 359.026 191.808 359.02 191.91L359.46 207.29C359.479 207.505 359.416 207.72 359.285 207.892C359.153 208.064 358.963 208.181 358.75 208.22Z" fill="#263238"/>
<path opacity="0.7" d="M358.75 208.22L351.5 208.99C351.397 208.996 351.295 208.98 351.199 208.943C351.103 208.907 351.015 208.85 350.943 208.777C350.87 208.705 350.814 208.617 350.777 208.521C350.74 208.425 350.724 208.323 350.73 208.22L350.3 192.84C350.282 192.624 350.344 192.41 350.475 192.238C350.607 192.066 350.797 191.949 351.01 191.91L358.26 191.14C358.362 191.136 358.463 191.153 358.558 191.19C358.653 191.227 358.739 191.284 358.811 191.356C358.882 191.429 358.938 191.516 358.974 191.611C359.01 191.706 359.026 191.808 359.02 191.91L359.46 207.29C359.479 207.505 359.416 207.72 359.285 207.892C359.153 208.064 358.963 208.181 358.75 208.22Z" fill="white"/>
<path d="M358.27 191.44L356.37 191.64L356.13 192.23L353.19 192.54L352.92 192.01L351.02 192.21C350.883 192.239 350.76 192.316 350.676 192.429C350.591 192.541 350.55 192.68 350.56 192.82L350.99 208.19C350.986 208.257 350.996 208.324 351.019 208.386C351.043 208.449 351.079 208.506 351.127 208.553C351.174 208.601 351.231 208.637 351.294 208.661C351.356 208.685 351.423 208.694 351.49 208.69L358.74 207.92C358.877 207.893 358.999 207.818 359.084 207.707C359.169 207.597 359.21 207.459 359.2 207.32L358.77 191.94C358.773 191.874 358.762 191.807 358.738 191.745C358.714 191.683 358.677 191.627 358.63 191.58C358.583 191.533 358.527 191.496 358.465 191.472C358.403 191.448 358.337 191.437 358.27 191.44Z" fill="#46CCDA"/>
<path opacity="0.8" d="M357.3 197L351.97 197.57C351.905 197.573 351.84 197.562 351.779 197.539C351.718 197.515 351.663 197.479 351.617 197.433C351.571 197.387 351.535 197.332 351.511 197.271C351.488 197.21 351.477 197.145 351.48 197.08V195.6C351.467 195.462 351.506 195.324 351.59 195.214C351.673 195.103 351.794 195.027 351.93 195L357.27 194.43C357.335 194.429 357.4 194.441 357.46 194.465C357.52 194.49 357.575 194.527 357.62 194.574C357.665 194.621 357.7 194.677 357.722 194.739C357.745 194.8 357.754 194.865 357.75 194.93L357.8 196.41C357.808 196.554 357.761 196.695 357.668 196.805C357.575 196.915 357.443 196.985 357.3 197Z" fill="white"/>
</svg>
