<svg width="540" height="24" viewBox="0 0 540 24" fill="none" xmlns="http://www.w3.org/2000/svg">
<rect x="1" y="1" width="538" height="22" rx="4" stroke="#F6EFE9" strokeWidth="2"/>
<rect x="1" y="1" width="199" height="23" rx="5" fill="#A8DADC"/>
<path d="M232.015 17.3489L235.903 7.89288H232.047V9.94088H230.255V6.18088H237.999V7.98888L234.223 17.3489H232.015ZM241.289 17.5249C240.852 17.5249 240.526 17.4182 240.313 17.2049C240.11 16.9809 240.009 16.6982 240.009 16.3569V16.0689C240.009 15.7275 240.11 15.4449 240.313 15.2209C240.526 14.9969 240.852 14.8849 241.289 14.8849C241.737 14.8849 242.062 14.9969 242.265 15.2209C242.468 15.4449 242.569 15.7275 242.569 16.0689V16.3569C242.569 16.6982 242.468 16.9809 242.265 17.2049C242.062 17.4182 241.737 17.5249 241.289 17.5249ZM248.519 17.5409C247.879 17.5409 247.308 17.4395 246.807 17.2369C246.305 17.0235 245.879 16.7302 245.527 16.3569C245.175 15.9729 244.908 15.5142 244.727 14.9809C244.545 14.4369 244.455 13.8289 244.455 13.1569C244.455 12.3569 244.572 11.6049 244.807 10.9009C245.052 10.1862 245.367 9.53554 245.751 8.94888C246.135 8.35154 246.561 7.82354 247.031 7.36488C247.511 6.89554 247.985 6.50088 248.455 6.18088H251.303C250.641 6.65021 250.049 7.10354 249.527 7.54088C249.015 7.97821 248.561 8.42088 248.167 8.86888C247.783 9.31688 247.463 9.78621 247.207 10.2769C246.961 10.7569 246.775 11.2795 246.647 11.8449L246.775 11.8769C246.881 11.6635 247.004 11.4609 247.143 11.2689C247.292 11.0662 247.468 10.8902 247.671 10.7409C247.873 10.5809 248.108 10.4582 248.375 10.3729C248.641 10.2769 248.951 10.2289 249.303 10.2289C249.761 10.2289 250.188 10.3089 250.583 10.4689C250.988 10.6289 251.335 10.8635 251.623 11.1729C251.921 11.4715 252.151 11.8342 252.311 12.2609C252.481 12.6875 252.567 13.1622 252.567 13.6849C252.567 14.2502 252.471 14.7675 252.279 15.2369C252.087 15.7062 251.815 16.1115 251.463 16.4529C251.111 16.7942 250.684 17.0609 250.183 17.2529C249.692 17.4449 249.137 17.5409 248.519 17.5409ZM248.519 15.8769C249.105 15.8769 249.564 15.7169 249.895 15.3969C250.236 15.0662 250.407 14.5969 250.407 13.9889V13.7489C250.407 13.1409 250.236 12.6769 249.895 12.3569C249.564 12.0262 249.105 11.8609 248.519 11.8609C247.921 11.8609 247.457 12.0262 247.127 12.3569C246.796 12.6769 246.631 13.1409 246.631 13.7489V13.9889C246.631 14.5969 246.796 15.0662 247.127 15.3969C247.457 15.7169 247.921 15.8769 248.519 15.8769ZM258.112 17.5409C257.472 17.5409 256.902 17.4395 256.4 17.2369C255.899 17.0235 255.472 16.7302 255.12 16.3569C254.768 15.9729 254.502 15.5142 254.32 14.9809C254.139 14.4369 254.048 13.8289 254.048 13.1569C254.048 12.3569 254.166 11.6049 254.4 10.9009C254.646 10.1862 254.96 9.53554 255.344 8.94888C255.728 8.35154 256.155 7.82354 256.624 7.36488C257.104 6.89554 257.579 6.50088 258.048 6.18088H260.896C260.235 6.65021 259.643 7.10354 259.12 7.54088C258.608 7.97821 258.155 8.42088 257.76 8.86888C257.376 9.31688 257.056 9.78621 256.8 10.2769C256.555 10.7569 256.368 11.2795 256.24 11.8449L256.368 11.8769C256.475 11.6635 256.598 11.4609 256.736 11.2689C256.886 11.0662 257.062 10.8902 257.264 10.7409C257.467 10.5809 257.702 10.4582 257.968 10.3729C258.235 10.2769 258.544 10.2289 258.896 10.2289C259.355 10.2289 259.782 10.3089 260.176 10.4689C260.582 10.6289 260.928 10.8635 261.216 11.1729C261.515 11.4715 261.744 11.8342 261.904 12.2609C262.075 12.6875 262.16 13.1622 262.16 13.6849C262.16 14.2502 262.064 14.7675 261.872 15.2369C261.68 15.7062 261.408 16.1115 261.056 16.4529C260.704 16.7942 260.278 17.0609 259.776 17.2529C259.286 17.4449 258.731 17.5409 258.112 17.5409ZM258.112 15.8769C258.699 15.8769 259.158 15.7169 259.488 15.3969C259.83 15.0662 260 14.5969 260 13.9889V13.7489C260 13.1409 259.83 12.6769 259.488 12.3569C259.158 12.0262 258.699 11.8609 258.112 11.8609C257.515 11.8609 257.051 12.0262 256.72 12.3569C256.39 12.6769 256.224 13.1409 256.224 13.7489V13.9889C256.224 14.5969 256.39 15.0662 256.72 15.3969C257.051 15.7169 257.515 15.8769 258.112 15.8769Z" fill="#EAD3D6"/>
</svg>
