<svg width="34" height="34" viewBox="0 0 34 34" fill="none" xmlns="http://www.w3.org/2000/svg">
<g clip-path="url(#clip0_59_799)">
<path fill-rule="evenodd" clip-rule="evenodd" d="M20.6833 10.6484V11.9757C21.9639 11.1802 23.4422 10.7165 25.6885 10.7165C32.9994 10.7165 33.9353 16.1811 33.9353 20.9416V33.9256L25.4821 34V21.5818C25.4821 19.4972 24.7355 19.1016 23.355 19.1016C22.0426 19.1016 21.2279 19.5164 21.2279 21.5818V34L12.6641 33.9256V10.6484L20.6833 10.6484ZM8.5085 10.6344V33.9902H0V10.6344H8.5085V10.6344ZM6.38137 12.7615H2.12713V31.8631H6.38137V12.7615V12.7615ZM18.5562 12.7755H14.7912V31.8176L19.1008 31.8559V21.5818C19.1008 17.5722 21.766 16.9745 23.355 16.9745C25.295 16.9745 27.6093 17.7743 27.6093 21.5818V31.8559L31.8082 31.8176V20.9416C31.8082 15.0388 30.1512 12.8436 25.6885 12.8436C23.0062 12.8436 21.8448 13.6391 20.7067 14.5964L20.4111 14.8473H18.5562V12.7755ZM4.25425 0C6.60048 0 8.5085 1.90804 8.5085 4.25425C8.5085 6.60048 6.60048 8.5085 4.25425 8.5085C1.90804 8.5085 0 6.60048 0 4.25425C0 1.90804 1.90804 0 4.25425 0ZM4.25425 2.12713C3.08221 2.12713 2.12713 3.08221 2.12713 4.25425C2.12713 5.42629 3.08221 6.38137 4.25425 6.38137C5.42629 6.38137 6.38137 5.42629 6.38137 4.25425C6.38137 3.08221 5.42629 2.12713 4.25425 2.12713Z" fill="#797979"/>
</g>
<defs>
<clipPath id="clip0_59_799">
<rect width="34" height="34" fill="white"/>
</clipPath>
</defs>
</svg>
