<svg width="438" height="23" viewBox="0 0 438 23" fill="none" xmlns="http://www.w3.org/2000/svg">
<path d="M136.856 18.2081C136.255 18.2081 135.705 18.0983 135.208 17.8786C134.711 17.6589 134.283 17.3468 133.925 16.9421C133.578 16.5259 133.306 16.0346 133.11 15.468C132.913 14.89 132.815 14.2425 132.815 13.5257C132.815 12.8205 132.913 12.1788 133.11 11.6007C133.306 11.0227 133.578 10.5313 133.925 10.1267C134.283 9.71046 134.711 9.39252 135.208 9.17285C135.705 8.95318 136.255 8.84335 136.856 8.84335C137.457 8.84335 138 8.95318 138.486 9.17285C138.983 9.39252 139.411 9.71046 139.769 10.1267C140.128 10.5313 140.405 11.0227 140.602 11.6007C140.798 12.1788 140.897 12.8205 140.897 13.5257C140.897 14.2425 140.798 14.89 140.602 15.468C140.405 16.0346 140.128 16.5259 139.769 16.9421C139.411 17.3468 138.983 17.6589 138.486 17.8786C138 18.0983 137.457 18.2081 136.856 18.2081ZM136.856 16.9768C137.607 16.9768 138.22 16.7456 138.694 16.2831C139.168 15.8207 139.405 15.1154 139.405 14.1674V12.8841C139.405 11.936 139.168 11.2308 138.694 10.7683C138.22 10.3059 137.607 10.0746 136.856 10.0746C136.104 10.0746 135.492 10.3059 135.018 10.7683C134.544 11.2308 134.307 11.936 134.307 12.8841V14.1674C134.307 15.1154 134.544 15.8207 135.018 16.2831C135.492 16.7456 136.104 16.9768 136.856 16.9768ZM143.178 18V9.05146H144.566V10.699H144.652C144.814 10.2712 145.103 9.88966 145.519 9.55438C145.936 9.2191 146.508 9.05146 147.236 9.05146H147.774V10.4388H146.959C146.207 10.4388 145.618 10.5833 145.19 10.8724C144.774 11.1499 144.566 11.5025 144.566 11.9303V18H143.178ZM156.333 18.2081C155.5 18.2081 154.801 18.052 154.234 17.7399C153.679 17.4161 153.199 16.9884 152.795 16.4565L153.783 15.6588C154.13 16.0981 154.517 16.4392 154.945 16.682C155.373 16.9132 155.87 17.0288 156.437 17.0288C157.026 17.0288 157.483 16.9017 157.807 16.6473C158.142 16.393 158.31 16.0346 158.31 15.5721C158.31 15.2253 158.194 14.9304 157.963 14.6877C157.743 14.4333 157.338 14.2599 156.749 14.1674L156.038 14.0633C155.621 14.0055 155.24 13.9188 154.893 13.8032C154.546 13.676 154.24 13.5142 153.974 13.3176C153.72 13.1095 153.517 12.8552 153.367 12.5546C153.228 12.254 153.159 11.8956 153.159 11.4794C153.159 11.04 153.24 10.6585 153.402 10.3348C153.564 9.99949 153.783 9.72202 154.061 9.50235C154.35 9.28268 154.691 9.12082 155.084 9.01677C155.477 8.90116 155.899 8.84335 156.35 8.84335C157.078 8.84335 157.685 8.97053 158.171 9.22488C158.668 9.47923 159.101 9.83185 159.471 10.2827L158.552 11.1152C158.356 10.8377 158.067 10.5891 157.685 10.3695C157.304 10.1382 156.824 10.0226 156.246 10.0226C155.668 10.0226 155.228 10.1498 154.928 10.4041C154.639 10.6469 154.494 10.9822 154.494 11.41C154.494 11.8493 154.639 12.1673 154.928 12.3638C155.228 12.5603 155.656 12.7049 156.211 12.7974L156.905 12.9014C157.899 13.0517 158.604 13.3407 159.021 13.7685C159.437 14.1847 159.645 14.7339 159.645 15.416C159.645 16.2831 159.35 16.9653 158.76 17.4624C158.171 17.9595 157.361 18.2081 156.333 18.2081ZM162.789 6.95306C162.488 6.95306 162.269 6.88369 162.13 6.74495C162.003 6.59465 161.939 6.40389 161.939 6.17266V5.94721C161.939 5.71598 162.003 5.531 162.13 5.39226C162.269 5.24197 162.488 5.16682 162.789 5.16682C163.09 5.16682 163.304 5.24197 163.431 5.39226C163.569 5.531 163.639 5.71598 163.639 5.94721V6.17266C163.639 6.40389 163.569 6.59465 163.431 6.74495C163.304 6.88369 163.09 6.95306 162.789 6.95306ZM162.095 9.05146H163.483V18H162.095V9.05146ZM173.975 18.9885C173.975 19.9134 173.611 20.5898 172.882 21.0175C172.165 21.4569 171.084 21.6765 169.639 21.6765C168.24 21.6765 167.234 21.4858 166.622 21.1042C166.009 20.7227 165.703 20.1793 165.703 19.4741C165.703 18.9885 165.83 18.607 166.084 18.3295C166.338 18.0636 166.685 17.867 167.125 17.7399V17.5491C166.593 17.2948 166.327 16.8785 166.327 16.3005C166.327 15.8496 166.471 15.5085 166.76 15.2773C167.049 15.0345 167.419 14.8553 167.87 14.7397V14.6703C167.338 14.416 166.922 14.0518 166.622 13.5778C166.333 13.1037 166.188 12.5546 166.188 11.9303C166.188 11.4794 166.269 11.0631 166.431 10.6816C166.593 10.3001 166.818 9.97637 167.107 9.71046C167.408 9.43298 167.76 9.2191 168.165 9.0688C168.581 8.9185 169.044 8.84335 169.553 8.84335C170.188 8.84335 170.755 8.95896 171.252 9.19019V9.03411C171.252 8.68727 171.333 8.40401 171.495 8.18435C171.657 7.95312 171.923 7.83751 172.293 7.83751H173.628V9.05146H171.928V9.62375C172.252 9.90122 172.501 10.2365 172.674 10.6296C172.859 11.0111 172.952 11.4447 172.952 11.9303C172.952 12.3811 172.871 12.7974 172.709 13.1789C172.547 13.5604 172.316 13.8899 172.015 14.1674C171.726 14.4333 171.373 14.6414 170.957 14.7917C170.541 14.942 170.079 15.0172 169.57 15.0172C169.281 15.0172 168.992 14.9882 168.703 14.9304C168.402 15.0114 168.13 15.1328 167.888 15.2946C167.645 15.4449 167.523 15.6588 167.523 15.9363C167.523 16.2022 167.651 16.3814 167.905 16.4739C168.159 16.5664 168.489 16.6126 168.894 16.6126H170.801C171.911 16.6126 172.715 16.8265 173.212 17.2543C173.72 17.6705 173.975 18.2486 173.975 18.9885ZM172.674 19.0926C172.674 18.7342 172.535 18.4451 172.258 18.2254C171.992 18.0173 171.512 17.9133 170.818 17.9133H167.836C167.281 18.1676 167.003 18.5723 167.003 19.1272C167.003 19.5203 167.148 19.8556 167.437 20.1331C167.737 20.4106 168.24 20.5493 168.946 20.5493H170.229C171.003 20.5493 171.605 20.4279 172.032 20.1851C172.46 19.9423 172.674 19.5781 172.674 19.0926ZM169.57 13.9073C170.159 13.9073 170.628 13.7685 170.975 13.491C171.321 13.202 171.495 12.7627 171.495 12.173V11.6875C171.495 11.0978 171.321 10.6643 170.975 10.3868C170.628 10.0978 170.159 9.95325 169.57 9.95325C168.98 9.95325 168.512 10.0978 168.165 10.3868C167.818 10.6643 167.645 11.0978 167.645 11.6875V12.173C167.645 12.7627 167.818 13.202 168.165 13.491C168.512 13.7685 168.98 13.9073 169.57 13.9073ZM175.593 18V9.05146H176.98V10.5082H177.05C177.27 9.99949 177.576 9.59484 177.969 9.29425C178.374 8.99365 178.911 8.84335 179.582 8.84335C180.507 8.84335 181.235 9.14395 181.767 9.74514C182.31 10.3348 182.582 11.173 182.582 12.2598V18H181.195V12.5025C181.195 10.8955 180.518 10.092 179.166 10.092C178.888 10.092 178.616 10.1267 178.351 10.196C178.096 10.2654 177.865 10.3695 177.657 10.5082C177.449 10.6469 177.281 10.8261 177.154 11.0458C177.038 11.2539 176.98 11.5025 176.98 11.7915V18H175.593ZM185.172 13.4737V11.9823H189.699V13.4737H185.172ZM197.891 16.5433H197.822C197.729 16.7514 197.614 16.9595 197.475 17.1676C197.348 17.3641 197.186 17.5433 196.989 17.7052C196.793 17.8555 196.556 17.9769 196.278 18.0694C196.001 18.1619 195.677 18.2081 195.307 18.2081C194.382 18.2081 193.648 17.9133 193.105 17.3237C192.561 16.7225 192.29 15.8785 192.29 14.7917V9.05146H193.677V14.5489C193.677 16.156 194.359 16.9595 195.723 16.9595C196.001 16.9595 196.267 16.9248 196.521 16.8554C196.787 16.7861 197.018 16.682 197.215 16.5433C197.423 16.4045 197.585 16.2311 197.7 16.023C197.828 15.8033 197.891 15.5432 197.891 15.2426V9.05146H199.279V18H197.891V16.5433ZM202.233 9.05146H203.62V10.5082H203.69C203.921 9.94169 204.256 9.52547 204.696 9.25956C205.146 8.98209 205.684 8.84335 206.308 8.84335C206.863 8.84335 207.366 8.95318 207.817 9.17285C208.268 9.39252 208.65 9.70468 208.962 10.1093C209.285 10.514 209.528 11.0053 209.69 11.5834C209.863 12.1615 209.95 12.8089 209.95 13.5257C209.95 14.2425 209.863 14.89 209.69 15.468C209.528 16.0461 209.285 16.5375 208.962 16.9421C208.65 17.3468 208.268 17.6589 207.817 17.8786C207.366 18.0983 206.863 18.2081 206.308 18.2081C205.094 18.2081 204.222 17.6532 203.69 16.5433H203.62V21.4684H202.233V9.05146ZM205.927 16.9595C206.713 16.9595 207.332 16.7167 207.782 16.2311C208.233 15.734 208.459 15.0865 208.459 14.2888V12.7627C208.459 11.9649 208.233 11.3233 207.782 10.8377C207.332 10.3406 206.713 10.092 205.927 10.092C205.615 10.092 205.314 10.1382 205.025 10.2307C204.748 10.3117 204.505 10.4273 204.297 10.5776C204.089 10.7279 203.921 10.9128 203.794 11.1325C203.678 11.3406 203.62 11.5661 203.62 11.8089V15.1385C203.62 15.4276 203.678 15.6877 203.794 15.9189C203.921 16.1386 204.089 16.3294 204.297 16.4912C204.505 16.6415 204.748 16.7571 205.025 16.8381C205.314 16.919 205.615 16.9595 205.927 16.9595ZM217.085 6.95306C216.784 6.95306 216.565 6.88369 216.426 6.74495C216.299 6.59465 216.235 6.40389 216.235 6.17266V5.94721C216.235 5.71598 216.299 5.531 216.426 5.39226C216.565 5.24197 216.784 5.16682 217.085 5.16682C217.385 5.16682 217.599 5.24197 217.727 5.39226C217.865 5.531 217.935 5.71598 217.935 5.94721V6.17266C217.935 6.40389 217.865 6.59465 217.727 6.74495C217.599 6.88369 217.385 6.95306 217.085 6.95306ZM216.391 9.05146H217.779V18H216.391V9.05146ZM220.727 18V9.05146H222.114V10.5082H222.183C222.403 9.99949 222.71 9.59484 223.103 9.29425C223.507 8.99365 224.045 8.84335 224.715 8.84335C225.64 8.84335 226.369 9.14395 226.901 9.74514C227.444 10.3348 227.716 11.173 227.716 12.2598V18H226.328V12.5025C226.328 10.8955 225.652 10.092 224.299 10.092C224.022 10.092 223.75 10.1267 223.484 10.196C223.23 10.2654 222.999 10.3695 222.79 10.5082C222.582 10.6469 222.415 10.8261 222.288 11.0458C222.172 11.2539 222.114 11.5025 222.114 11.7915V18H220.727ZM233.745 9.05146H235.098L236.052 12.9188L237.006 16.8381H237.04L238.133 12.9188L239.26 9.05146H240.491L241.653 12.9188L242.763 16.8381H242.798L243.717 12.9188L244.688 9.05146H245.989L243.613 18H241.896L240.647 13.6991L239.867 10.9764H239.832L239.069 13.6991L237.821 18H236.138L233.745 9.05146ZM248.687 6.95306C248.386 6.95306 248.167 6.88369 248.028 6.74495C247.901 6.59465 247.837 6.40389 247.837 6.17266V5.94721C247.837 5.71598 247.901 5.531 248.028 5.39226C248.167 5.24197 248.386 5.16682 248.687 5.16682C248.987 5.16682 249.201 5.24197 249.329 5.39226C249.467 5.531 249.537 5.71598 249.537 5.94721V6.17266C249.537 6.40389 249.467 6.59465 249.329 6.74495C249.201 6.88369 248.987 6.95306 248.687 6.95306ZM247.993 9.05146H249.381V18H247.993V9.05146ZM254.306 18C253.82 18 253.45 17.867 253.196 17.6011C252.953 17.3237 252.832 16.9653 252.832 16.5259V10.2654H251.358V9.05146H252.19C252.491 9.05146 252.693 8.99365 252.797 8.87803C252.913 8.75086 252.97 8.53697 252.97 8.23637V6.57153H254.219V9.05146H256.179V10.2654H254.219V16.7861H256.04V18H254.306ZM258.409 5.16682H259.796V10.5082H259.865C260.085 9.99949 260.391 9.59484 260.784 9.29425C261.189 8.99365 261.727 8.84335 262.397 8.84335C263.322 8.84335 264.051 9.14395 264.582 9.74514C265.126 10.3348 265.398 11.173 265.398 12.2598V18H264.01V12.5025C264.01 10.8955 263.334 10.092 261.981 10.092C261.704 10.092 261.432 10.1267 261.166 10.196C260.912 10.2654 260.68 10.3695 260.472 10.5082C260.264 10.6469 260.097 10.8261 259.969 11.0458C259.854 11.2539 259.796 11.5025 259.796 11.7915V18H258.409V5.16682ZM275.728 18.2081C275.115 18.2081 274.56 18.0983 274.063 17.8786C273.578 17.6589 273.156 17.3468 272.797 16.9421C272.45 16.5259 272.179 16.0346 271.982 15.468C271.797 14.89 271.705 14.2425 271.705 13.5257C271.705 12.8205 271.797 12.1788 271.982 11.6007C272.179 11.0227 272.45 10.5313 272.797 10.1267C273.156 9.71046 273.578 9.39252 274.063 9.17285C274.56 8.95318 275.115 8.84335 275.728 8.84335C276.329 8.84335 276.867 8.95318 277.341 9.17285C277.815 9.39252 278.219 9.6989 278.555 10.092C278.89 10.4735 279.144 10.9302 279.318 11.462C279.503 11.9938 279.595 12.5777 279.595 13.2136V13.8726H273.161V14.2888C273.161 14.6703 273.219 15.0287 273.335 15.364C273.462 15.6877 273.635 15.971 273.855 16.2138C274.086 16.4565 274.364 16.6473 274.687 16.7861C275.023 16.9248 275.398 16.9942 275.815 16.9942C276.381 16.9942 276.873 16.8612 277.289 16.5953C277.717 16.3294 278.046 15.9478 278.277 15.4507L279.266 16.1617C278.977 16.7745 278.526 17.2716 277.913 17.6532C277.3 18.0231 276.572 18.2081 275.728 18.2081ZM275.728 10.0053C275.346 10.0053 275 10.0746 274.687 10.2134C274.375 10.3406 274.104 10.5255 273.872 10.7683C273.653 11.0111 273.479 11.3002 273.352 11.6354C273.225 11.9592 273.161 12.3176 273.161 12.7106V12.832H278.104V12.6413C278.104 11.8435 277.884 11.2077 277.445 10.7336C277.017 10.2481 276.445 10.0053 275.728 10.0053ZM281.881 18V9.05146H283.269V10.5082H283.338C283.442 10.277 283.558 10.0631 283.685 9.86654C283.824 9.65843 283.986 9.47923 284.171 9.32893C284.367 9.17863 284.593 9.06302 284.847 8.98209C285.101 8.8896 285.402 8.84335 285.749 8.84335C286.338 8.84335 286.882 8.98787 287.379 9.2769C287.876 9.55438 288.246 10.0168 288.489 10.6643H288.524C288.685 10.1787 288.986 9.7567 289.425 9.3983C289.876 9.02833 290.483 8.84335 291.246 8.84335C292.16 8.84335 292.871 9.14395 293.379 9.74514C293.9 10.3348 294.16 11.173 294.16 12.2598V18H292.772V12.5025C292.772 11.7048 292.616 11.1036 292.304 10.699C291.992 10.2943 291.495 10.092 290.813 10.092C290.535 10.092 290.269 10.1267 290.015 10.196C289.772 10.2654 289.552 10.3695 289.356 10.5082C289.159 10.6469 289.003 10.8261 288.888 11.0458C288.772 11.2539 288.714 11.5025 288.714 11.7915V18H287.327V12.5025C287.327 11.7048 287.171 11.1036 286.859 10.699C286.547 10.2943 286.061 10.092 285.402 10.092C285.124 10.092 284.859 10.1267 284.604 10.196C284.35 10.2654 284.124 10.3695 283.928 10.5082C283.731 10.6469 283.569 10.8261 283.442 11.0458C283.327 11.2539 283.269 11.5025 283.269 11.7915V18H281.881ZM303.525 18C303.005 18 302.629 17.8613 302.398 17.5838C302.178 17.3063 302.04 16.9595 301.982 16.5433H301.895C301.699 17.0982 301.375 17.5144 300.924 17.7919C300.473 18.0694 299.935 18.2081 299.311 18.2081C298.363 18.2081 297.623 17.9653 297.091 17.4797C296.571 16.9942 296.311 16.3352 296.311 15.5027C296.311 14.6587 296.617 14.0113 297.23 13.5604C297.854 13.1095 298.82 12.8841 300.126 12.8841H301.895V11.9996C301.895 11.3637 301.722 10.8782 301.375 10.5429C301.028 10.2076 300.496 10.04 299.779 10.04C299.236 10.04 298.779 10.1614 298.409 10.4041C298.051 10.6469 297.75 10.9707 297.508 11.3753L296.675 10.5949C296.918 10.1093 297.305 9.6989 297.837 9.36361C298.369 9.01677 299.039 8.84335 299.849 8.84335C300.936 8.84335 301.78 9.10926 302.381 9.64109C302.982 10.1729 303.282 10.9128 303.282 11.8609V16.7861H304.306V18H303.525ZM299.537 17.0288C299.883 17.0288 300.201 16.9884 300.49 16.9074C300.779 16.8265 301.028 16.7109 301.236 16.5606C301.444 16.4103 301.606 16.2369 301.722 16.0403C301.837 15.8438 301.895 15.6299 301.895 15.3987V13.9246H300.057C299.259 13.9246 298.675 14.0402 298.305 14.2714C297.947 14.5027 297.768 14.8379 297.768 15.2773V15.6415C297.768 16.0808 297.924 16.4219 298.236 16.6647C298.56 16.9074 298.993 17.0288 299.537 17.0288ZM306.979 6.95306C306.679 6.95306 306.459 6.88369 306.32 6.74495C306.193 6.59465 306.13 6.40389 306.13 6.17266V5.94721C306.13 5.71598 306.193 5.531 306.32 5.39226C306.459 5.24197 306.679 5.16682 306.979 5.16682C307.28 5.16682 307.494 5.24197 307.621 5.39226C307.76 5.531 307.829 5.71598 307.829 5.94721V6.17266C307.829 6.40389 307.76 6.59465 307.621 6.74495C307.494 6.88369 307.28 6.95306 306.979 6.95306ZM306.286 9.05146H307.673V18H306.286V9.05146ZM312.095 18C311.61 18 311.24 17.867 310.986 17.6011C310.743 17.3237 310.621 16.9768 310.621 16.5606V5.16682H312.009V16.7861H313.327V18H312.095Z" fill="#716365"/>
<line x1="323" y1="11.5" x2="437.795" y2="11.5" stroke="#D0D0D0"/>
<line x1="-4.36931e-08" y1="10.4268" x2="114.795" y2="10.4268" stroke="#D0D0D0"/>
</svg>
