<svg width="478" height="482" viewBox="0 0 478 482" fill="none" xmlns="http://www.w3.org/2000/svg">
<path d="M446.347 304.817H289.668V213.391H446.347V304.817ZM290.624 303.853H445.391V214.355H290.624V303.853Z" fill="#E0E0E0"/>
<path d="M414.025 262.141H310.652V265.196H414.025V262.141Z" fill="#F0F0F0"/>
<path d="M421.147 273.535H310.652V276.87H421.147V273.535Z" fill="#F0F0F0"/>
<path d="M421.147 285.064H310.652V288.4H421.147V285.064Z" fill="#F0F0F0"/>
<path d="M346.78 245.589H310.652V253.522H346.78V245.589Z" fill="#F0F0F0"/>
<path d="M445.869 213.873H290.175V228.429H445.869V213.873Z" fill="#E0E0E0"/>
<path d="M433.89 226.251C433.69 226.058 435.697 223.619 438.364 220.804C441.032 217.989 443.374 215.859 443.565 216.042C443.756 216.225 441.758 218.674 439.091 221.498C436.424 224.323 434.082 226.444 433.89 226.251Z" fill="white"/>
<path d="M443.584 226.251C443.393 226.444 441.06 224.323 438.383 221.498C435.707 218.674 433.709 216.235 433.909 216.042C434.11 215.849 436.433 217.97 439.11 220.804C441.787 223.638 443.766 226.058 443.584 226.251Z" fill="white"/>
<path d="M253.55 32.8242H97.8562V123.296H253.55V32.8242Z" fill="#E6E6E6"/>
<path d="M221.716 81.1013H118.343V84.1572H221.716V81.1013Z" fill="#F0F0F0"/>
<path d="M228.838 92.4958H118.343V95.8313H228.838V92.4958Z" fill="#F0F0F0"/>
<path d="M228.838 104.025H118.343V107.361H228.838V104.025Z" fill="#F0F0F0"/>
<path d="M154.471 64.5494H118.343V72.4832H154.471V64.5494Z" fill="#F0F0F0"/>
<path d="M253.55 32.8242H97.8562V47.3806H253.55V32.8242Z" fill="#E0E0E0"/>
<path d="M241.046 45.1345C240.845 44.9513 242.853 42.5028 245.52 39.6879C248.187 36.873 250.53 34.7426 250.721 34.9354C250.912 35.1282 248.914 37.5671 246.247 40.382C243.579 43.1968 241.237 45.308 241.046 45.1345Z" fill="white"/>
<path d="M250.72 45.1345C250.529 45.3273 248.197 43.2065 245.52 40.382C242.843 37.5574 240.845 35.1282 241.046 34.9354C241.246 34.7426 243.569 36.8634 246.246 39.6879C248.923 42.5124 250.921 44.9513 250.72 45.1345Z" fill="white"/>
<path d="M194.584 200.888H37.9341V109.453H194.584V200.888ZM38.8901 199.924H193.628V110.417H38.8901V199.924Z" fill="#E0E0E0"/>
<path d="M162.271 158.212H58.8992V161.268H162.271V158.212Z" fill="#F0F0F0"/>
<path d="M169.394 169.606H58.8992V172.942H169.394V169.606Z" fill="#F0F0F0"/>
<path d="M169.394 181.136H58.8992V184.471H169.394V181.136Z" fill="#F0F0F0"/>
<path d="M95.0264 141.66H58.8992V149.594H95.0264V141.66Z" fill="#F0F0F0"/>
<path d="M194.106 109.935H38.4121V124.491H194.106V109.935Z" fill="#E0E0E0"/>
<path d="M375.373 221.836H191.535V387.798H375.373V221.836Z" fill="#E6E6E6"/>
<path d="M200.779 169.558H56.7673V320.434H200.779V169.558Z" fill="#F0F0F0"/>
<path d="M200.779 169.558H56.7673V185.994H200.779V169.558Z" fill="#E0E0E0"/>
<path d="M68.6598 177.607C68.6336 178.203 68.4344 178.779 68.0869 179.261C67.7394 179.744 67.259 180.114 66.7052 180.324C66.1514 180.534 65.5486 180.575 64.9717 180.443C64.3948 180.31 63.8691 180.01 63.4599 179.579C63.0507 179.148 62.776 178.606 62.6698 178.019C62.5637 177.432 62.6309 176.826 62.8629 176.278C63.095 175.729 63.4817 175.261 63.9752 174.932C64.4687 174.603 65.0472 174.427 65.6388 174.426C66.457 174.446 67.234 174.792 67.8001 175.388C68.3661 175.984 68.6752 176.782 68.6598 177.607Z" fill="white"/>
<path d="M80.9254 177.607C80.9011 178.206 80.7026 178.785 80.3547 179.271C80.0068 179.757 79.5249 180.129 78.9689 180.341C78.4129 180.552 77.8074 180.595 77.2277 180.462C76.648 180.33 76.1197 180.028 75.7086 179.596C75.2976 179.163 75.0218 178.617 74.9156 178.028C74.8095 177.438 74.8777 176.83 75.1117 176.279C75.3458 175.728 75.7353 175.258 76.2319 174.929C76.7284 174.6 77.3101 174.425 77.9045 174.426C78.7227 174.446 79.4997 174.792 80.0657 175.388C80.6318 175.984 80.9408 176.782 80.9254 177.607Z" fill="white"/>
<path d="M93.1908 177.607C93.1664 178.206 92.968 178.785 92.6201 179.271C92.2722 179.757 91.7903 180.129 91.2343 180.341C90.6783 180.552 90.0727 180.595 89.4931 180.462C88.9134 180.33 88.3851 180.028 87.974 179.596C87.5629 179.163 87.2872 178.617 87.181 178.028C87.0749 177.438 87.1431 176.83 87.3771 176.279C87.6111 175.728 88.0007 175.258 88.4972 174.929C88.9938 174.6 89.5755 174.425 90.1699 174.426C90.988 174.446 91.765 174.792 92.3311 175.388C92.8971 175.984 93.2062 176.782 93.1908 177.607Z" fill="white"/>
<path d="M425.783 65.8219H241.944V250.582H425.783V65.8219Z" fill="#F0F0F0"/>
<path d="M425.783 65.8219H241.944V87.4637H425.783V65.8219Z" fill="#E0E0E0"/>
<path d="M257.604 76.4259C257.57 77.2127 257.308 77.9722 256.85 78.61C256.392 79.2479 255.758 79.736 255.027 80.0138C254.296 80.2916 253.501 80.3469 252.739 80.1728C251.978 79.9986 251.283 79.6027 250.743 79.0342C250.203 78.4657 249.84 77.7497 249.699 76.975C249.559 76.2003 249.647 75.4011 249.953 74.6766C250.259 73.9522 250.77 73.3343 251.421 72.8998C252.073 72.4653 252.836 72.2333 253.617 72.2325C254.696 72.2578 255.722 72.7133 256.469 73.4992C257.216 74.2851 257.624 75.3374 257.604 76.4259Z" fill="white"/>
<path d="M272.584 73.5918C273.114 74.1721 273.463 74.8969 273.587 75.6758C273.712 76.4547 273.606 77.2533 273.284 77.9721C272.961 78.6909 272.436 79.2981 271.773 79.718C271.111 80.1379 270.341 80.352 269.559 80.3336C268.776 80.3152 268.017 80.0651 267.375 79.6145C266.732 79.1639 266.236 78.5327 265.947 77.7995C265.658 77.0663 265.589 76.2636 265.75 75.4914C265.91 74.7192 266.292 74.0116 266.848 73.4568C267.627 72.7092 268.669 72.3035 269.744 72.3288C270.819 72.3541 271.84 72.8083 272.584 73.5918Z" fill="white"/>
<path d="M289.898 76.4259C289.864 77.2127 289.602 77.9722 289.144 78.61C288.686 79.2479 288.052 79.736 287.321 80.0138C286.59 80.2916 285.795 80.3469 285.033 80.1728C284.272 79.9986 283.577 79.6027 283.037 79.0342C282.497 78.4657 282.134 77.7497 281.993 76.975C281.853 76.2003 281.941 75.4011 282.247 74.6766C282.553 73.9522 283.064 73.3343 283.715 72.8998C284.367 72.4653 285.13 72.2333 285.911 72.2325C286.99 72.2578 288.016 72.7133 288.763 73.4992C289.51 74.2851 289.918 75.3374 289.898 76.4259Z" fill="white"/>
<path d="M386.071 436.817C386.071 436.952 319.686 437.068 237.824 437.068C155.962 437.068 89.5486 436.952 89.5486 436.817C89.5486 436.682 155.924 436.567 237.824 436.567C319.725 436.567 386.071 436.692 386.071 436.817Z" fill="#263238"/>
<path d="M321.388 318.804C306.618 308.403 303.272 289.094 303.855 271.732C303.951 268.84 303.635 265.775 305.002 263.239C306.369 260.704 309.562 258.959 312.134 260.174C314.266 261.186 315.193 263.693 316.388 265.765C317.983 268.526 320.319 270.775 323.128 272.253C324.954 273.217 327.22 273.795 329.027 272.793C331.512 271.414 331.799 267.973 331.78 265.081C331.78 259.702 331.748 254.329 331.684 248.963C331.512 246.081 331.803 243.191 332.545 240.402C333.434 237.665 335.413 235.129 338.118 234.358C340.824 233.587 344.198 235.177 344.81 237.992C344.915 239.185 344.944 240.382 344.896 241.578C344.973 242.783 345.527 244.104 346.646 244.47C347.764 244.837 348.931 243.998 349.791 243.15C352.735 240.258 354.743 236.488 356.607 232.767C358.471 229.046 360.297 225.219 362.974 222.048C365.651 218.876 369.351 216.36 373.49 216.119C377.63 215.878 381.941 218.442 382.974 222.491C384.006 226.54 381.664 230.676 379.15 233.963C375.356 238.842 370.883 243.144 365.871 246.736C364.892 247.275 364.112 248.116 363.643 249.136C363.022 251.064 364.829 252.992 366.712 253.599C368.844 254.313 371.158 254.091 373.404 254.361C375.651 254.631 378.041 255.614 378.892 257.735C380.058 260.685 377.611 263.77 375.211 265.794C370.393 269.843 364.922 273.028 359.035 275.212C356.932 275.984 354.724 276.668 353.022 278.153C351.32 279.637 350.307 282.23 351.33 284.264C352.353 286.298 354.982 286.944 357.19 286.53C359.399 286.115 361.359 284.92 363.462 284.12C367.391 282.626 372.458 282.895 374.934 286.318C375.701 287.497 376.186 288.839 376.352 290.239C376.518 291.639 376.36 293.058 375.89 294.386C374.933 297.029 373.46 299.451 371.559 301.51C365.298 309.054 357.162 314.786 347.984 318.12C338.873 321.301 330.432 322.169 321.379 318.824" fill="#55DBE2"/>
<path d="M378.768 218.5C378.768 218.5 378.681 218.597 378.49 218.77L377.639 219.532C376.894 220.207 375.794 221.19 374.408 222.491C370.478 226.171 366.828 230.144 363.491 234.377C361.359 237.048 359.15 240.075 356.799 243.362C354.447 246.649 352.019 250.197 349.61 253.966C347.041 257.941 344.689 262.053 342.564 266.286C341.455 268.493 340.48 270.797 339.476 273.149L336.512 280.331C332.606 289.377 329.204 298.637 326.321 308.065C324 315.78 322.399 323.697 321.541 331.712C320.985 337.122 320.896 342.569 321.274 347.994C321.427 349.922 321.57 351.397 321.704 352.4C321.761 352.882 321.799 353.267 321.838 353.547V353.942C321.797 353.817 321.768 353.688 321.752 353.557C321.704 353.277 321.647 352.901 321.57 352.419C321.398 351.455 321.216 349.932 321.044 348.004C320.583 342.569 320.615 337.103 321.14 331.674C321.945 323.624 323.51 315.67 325.815 307.921C328.673 298.466 332.066 289.183 335.977 280.119L339.017 272.966C340.021 270.624 341.006 268.3 342.124 266.083C344.264 261.838 346.635 257.715 349.227 253.734C351.674 249.878 354.141 246.389 356.464 243.13C358.787 239.872 361.034 236.826 363.156 234.165C366.528 229.943 370.226 225.998 374.217 222.366C375.632 221.084 376.76 220.12 377.525 219.474L378.414 218.751C378.523 218.655 378.641 218.571 378.768 218.5Z" fill="#263238"/>
<path d="M342.248 266.064C342.113 265.667 342.02 265.257 341.971 264.84C341.818 264.04 341.646 262.912 341.445 261.446C341.034 258.554 340.613 254.592 340.164 250.206C339.715 245.82 339.208 241.848 338.788 238.985C338.568 237.559 338.376 236.411 338.243 235.611C338.138 235.202 338.084 234.781 338.08 234.358C338.245 234.744 338.363 235.149 338.434 235.563C338.644 236.354 338.883 237.491 339.151 238.927C339.696 241.819 340.231 245.753 340.68 250.148C341.13 254.544 341.512 258.4 341.808 261.398C341.952 262.748 342.076 263.895 342.172 264.811C342.246 265.224 342.272 265.645 342.248 266.064Z" fill="#263238"/>
<path d="M379.035 259.142C378.57 259.245 378.096 259.303 377.62 259.316C376.664 259.403 375.306 259.518 373.624 259.711C370.259 260.078 365.632 260.752 360.555 261.716C355.479 262.68 350.919 263.77 347.64 264.608C346.005 265.033 344.686 265.418 343.816 265.678C343.351 265.845 342.871 265.961 342.382 266.025C342.824 265.801 343.284 265.618 343.758 265.476C344.657 265.158 345.957 264.714 347.582 264.242C350.842 263.278 355.403 262.131 360.498 261.148C364.814 260.315 369.17 259.704 373.547 259.316C375.24 259.171 376.607 259.114 377.563 259.094C378.054 259.061 378.547 259.077 379.035 259.142Z" fill="#263238"/>
<path d="M326.283 307.246C326.181 307.107 326.097 306.954 326.034 306.793L325.403 305.453C324.858 304.287 324.122 302.561 323.243 300.45C321.465 296.208 319.199 290.27 316.79 283.676C314.381 277.083 312.163 271.144 310.48 266.854C309.658 264.772 308.979 263.066 308.473 261.793L307.937 260.415C307.863 260.256 307.811 260.087 307.784 259.914C307.886 260.053 307.97 260.206 308.033 260.367L308.664 261.707C309.199 262.873 309.945 264.599 310.824 266.71C312.602 270.951 314.868 276.89 317.277 283.483C319.686 290.077 321.904 296.015 323.587 300.305C324.409 302.388 325.088 304.094 325.585 305.366C325.805 305.916 325.986 306.33 326.13 306.745C326.204 306.904 326.255 307.073 326.283 307.246Z" fill="#263238"/>
<path d="M375.115 291.369C374.962 291.458 374.798 291.526 374.628 291.571L373.213 292.053L367.984 293.76C363.567 295.206 357.468 297.269 350.776 299.544C344.084 301.819 337.956 303.843 333.51 305.193C331.292 305.877 329.486 306.398 328.233 306.745L326.79 307.121C326.622 307.175 326.449 307.21 326.273 307.227C326.427 307.138 326.59 307.07 326.761 307.024L328.176 306.542L333.405 304.836C337.822 303.39 343.921 301.327 350.613 299.052C357.305 296.777 363.424 294.753 367.869 293.403C370.096 292.719 371.894 292.198 373.156 291.851L374.599 291.475C374.767 291.421 374.94 291.386 375.115 291.369Z" fill="#263238"/>
<path d="M355.192 57.5315L350.269 59.3053L348.156 52.8176C344.275 40.8543 331.904 34.5015 320.537 38.5407C309.17 42.5799 303.119 55.6999 307 67.6632L309.113 74.1509L304.17 75.9343C302.286 76.6714 300.755 78.1125 299.897 79.9581C299.039 81.8037 298.919 83.9118 299.562 85.8442L313.262 128.058C313.546 129.014 314.018 129.904 314.65 130.673C315.282 131.441 316.061 132.075 316.94 132.534C317.82 132.994 318.782 133.27 319.769 133.347C320.756 133.425 321.749 133.301 322.688 132.984L373.71 114.581C375.619 113.845 377.172 112.391 378.04 110.525C378.908 108.659 379.025 106.526 378.366 104.575L364.657 62.3612C364.365 61.4072 363.885 60.5223 363.247 59.7593C362.609 58.9963 361.825 58.3707 360.941 57.92C360.058 57.4692 359.094 57.2025 358.106 57.1358C357.118 57.069 356.127 57.2036 355.192 57.5315ZM316.302 64.2795C315.255 61.1689 315.443 57.7706 316.826 54.7965C318.209 51.8224 320.68 49.5034 323.721 48.3253C325.222 47.8073 326.812 47.5996 328.395 47.7145C329.977 47.8295 331.521 48.2647 332.933 48.9944C334.346 49.724 335.598 50.7331 336.615 51.9613C337.632 53.1896 338.394 54.6119 338.854 56.1434L340.957 62.6311L318.405 70.7672L316.302 64.2795ZM344.982 101.741L348.481 112.518C348.545 112.734 348.525 112.967 348.423 113.168C348.322 113.369 348.147 113.523 347.936 113.598L343.032 115.362C342.837 115.416 342.628 115.393 342.45 115.296C342.272 115.199 342.138 115.036 342.076 114.841L338.548 104.112C336.603 104.005 334.737 103.302 333.199 102.096C331.661 100.89 330.526 99.2388 329.944 97.364C329.113 94.8855 329.264 92.1787 330.367 89.8104C331.47 87.4421 333.439 85.596 335.862 84.6585C337.058 84.2464 338.324 84.0813 339.585 84.1732C340.845 84.265 342.075 84.6118 343.2 85.1929C344.325 85.774 345.322 86.5776 346.133 87.5556C346.943 88.5337 347.55 89.6663 347.917 90.8859C348.532 92.7903 348.583 94.8343 348.063 96.7674C347.544 98.7006 346.476 100.439 344.992 101.769L344.982 101.741Z" fill="#55DBE2"/>
<path d="M350.049 59.1896C350.049 59.3246 340.919 62.7853 329.562 66.9016C318.205 71.0179 308.941 74.3244 308.893 74.228C308.845 74.1316 318.023 70.6419 329.39 66.516C340.757 62.3901 350.001 59.0643 350.049 59.1896Z" fill="#263238"/>
<path d="M360.89 60.9633C360.932 61.047 360.967 61.1341 360.995 61.2236C361.071 61.4164 361.157 61.6671 361.272 61.9755C361.521 62.6793 361.865 63.6529 362.295 64.8675L365.966 75.6451C367.496 80.2144 369.322 85.6321 371.348 91.6475C372.304 94.6648 373.432 97.8074 374.484 101.114C375.047 102.818 375.29 104.613 375.201 106.406C375.12 107.339 374.857 108.247 374.427 109.077C373.967 109.904 373.354 110.634 372.62 111.226C371.143 112.313 369.503 113.156 367.763 113.723L362.84 115.506L353.519 118.871L337.735 124.539L327.076 128.318L324.208 129.282L323.443 129.533C323.361 129.569 323.274 129.592 323.185 129.6C323.185 129.6 323.262 129.6 323.424 129.484L324.17 129.186L327.038 128.096L337.64 124.163L353.395 118.379L362.697 114.986L367.62 113.193C369.311 112.649 370.902 111.832 372.333 110.773C373.016 110.223 373.587 109.546 374.016 108.778C374.42 108.01 374.664 107.167 374.733 106.3C374.821 104.572 374.587 102.842 374.044 101.201C373.012 97.9231 371.922 94.7515 370.937 91.7342C368.949 85.7092 367.113 80.2723 365.66 75.7029C364.207 71.1335 362.983 67.4607 362.142 64.8772C361.741 63.6143 361.435 62.6311 361.186 61.9177L360.957 61.1465C360.928 61.0881 360.905 61.0267 360.89 60.9633Z" fill="#263238"/>
<path d="M333.969 47.6698C333.969 47.6698 333.462 47.4192 332.525 47.0336C331.19 46.5161 329.778 46.2294 328.348 46.1852C326.228 46.1119 324.119 46.5136 322.172 47.3613C319.804 48.4169 317.78 50.1242 316.331 52.2874C314.872 54.4443 314.089 56.9933 314.084 59.6041C314.104 61.7439 314.426 63.87 315.04 65.9183C315.537 67.6728 316.053 69.0706 316.398 70.0442C316.601 70.5388 316.767 71.0479 316.895 71.5674C316.623 71.105 316.396 70.6176 316.216 70.1117C315.824 69.1477 315.26 67.7788 314.705 66.0147C314.025 63.9449 313.654 61.7842 313.606 59.6041C313.581 56.8947 314.382 54.2429 315.9 52.0078C317.4 49.7656 319.507 48.0055 321.971 46.9371C323.979 46.0848 326.154 45.7088 328.328 45.8382C329.789 45.9133 331.225 46.2563 332.564 46.8504C332.922 47.0169 333.267 47.2103 333.596 47.4288C333.732 47.489 333.858 47.5703 333.969 47.6698Z" fill="#263238"/>
<path d="M334.409 85.3911C334.561 85.2979 334.721 85.2173 334.887 85.1501C335.365 84.9324 335.861 84.755 336.369 84.6199C337.174 84.3801 338.005 84.2377 338.845 84.1958C339.986 84.1339 341.128 84.3078 342.2 84.7067C344.647 85.5743 346.894 88.0903 348.003 91.4547C348.535 93.2602 348.535 95.1826 348.003 96.988C347.413 98.9476 346.356 100.732 344.925 102.184L344.982 101.924C346.254 105.442 347.64 109.26 349.074 113.241L349.16 113.482L348.921 113.569L346.732 114.301L341.952 115.911L341.713 115.988L341.636 115.747C340.326 111.757 338.892 108.035 337.812 104.382L338.022 104.546C336.153 104.389 334.371 103.682 332.898 102.512C331.565 101.477 330.472 100.161 329.696 98.6558C328.995 97.3212 328.646 95.8274 328.682 94.3178C328.727 92.7748 329.109 91.2609 329.801 89.8843C330.494 88.5077 331.479 87.3025 332.688 86.3551C333.185 85.9479 333.744 85.6226 334.342 85.3911C333.802 85.7142 333.278 86.0649 332.774 86.4419C331.446 87.5744 330.429 89.0316 329.82 90.6738C329.297 91.9122 329.052 93.252 329.103 94.5971C329.155 95.9421 329.501 97.259 330.116 98.4533C330.88 99.901 331.947 101.164 333.242 102.155C334.648 103.267 336.347 103.938 338.128 104.083H338.29L338.338 104.228C339.389 107.814 340.833 111.564 342.162 115.574L341.846 115.42L346.626 113.81L348.806 113.068L348.653 113.395C347.229 109.414 345.852 105.587 344.59 102.068V101.924L344.705 101.808C346.095 100.416 347.131 98.7063 347.726 96.8242C348.233 95.0971 348.233 93.2589 347.726 91.5318C346.684 88.2928 344.533 85.8346 342.2 84.967C341.168 84.5655 340.065 84.3786 338.959 84.4175C338.133 84.4366 337.312 84.5497 336.512 84.7549C335.087 85.1116 334.418 85.4393 334.409 85.3911Z" fill="#263238"/>
<path d="M304.859 363.736L209.364 363.293C203.849 363.262 198.572 361.026 194.691 357.075C190.811 353.124 188.644 347.781 188.667 342.22L189.68 100.825C189.691 98.0697 190.241 95.3439 191.298 92.8031C192.354 90.2624 193.897 87.9565 195.838 86.0174C197.779 84.0782 200.079 82.5437 202.609 81.5017C205.138 80.4597 207.846 79.9306 210.578 79.9445L306.063 80.388C311.578 80.416 316.856 82.65 320.739 86.5994C324.621 90.5487 326.791 95.8904 326.77 101.451L325.757 342.837C325.746 345.593 325.196 348.32 324.14 350.861C323.084 353.403 321.541 355.71 319.601 357.651C317.66 359.592 315.359 361.128 312.83 362.172C310.301 363.216 307.592 363.748 304.859 363.736Z" fill="#455A64"/>
<path d="M305.92 88.688H287.412C286.808 88.6993 286.212 88.8304 285.659 89.0739C285.105 89.3175 284.604 89.6686 284.185 90.1072C283.766 90.5459 283.437 91.0635 283.216 91.6304C282.996 92.1974 282.888 92.8027 282.9 93.4116V96.7952C282.911 97.4037 282.803 98.0085 282.583 98.5749C282.362 99.1413 282.032 99.6583 281.613 100.096C281.194 100.534 280.693 100.884 280.14 101.127C279.586 101.369 278.991 101.499 278.387 101.509L242.308 101.345C241.087 101.313 239.93 100.793 239.089 99.8997C238.248 99.0068 237.793 97.814 237.824 96.5832V93.1995C237.855 91.9703 237.402 90.7789 236.563 89.8863C235.724 88.9937 234.569 88.4727 233.35 88.4374H226.84L210.636 88.3602C206.781 88.3371 203.075 89.8549 200.328 92.5813C197.581 95.3078 196.018 99.0207 195.98 102.907L195.024 338.528C195.015 340.456 195.383 342.367 196.107 344.152C196.83 345.936 197.895 347.56 199.241 348.929C200.587 350.299 202.187 351.388 203.95 352.134C205.713 352.88 207.605 353.268 209.517 353.277L304.811 353.721C306.724 353.729 308.621 353.358 310.392 352.628C312.163 351.898 313.774 350.823 315.133 349.465C316.492 348.107 317.573 346.493 318.313 344.714C319.053 342.935 319.439 341.026 319.447 339.097L320.403 103.476C320.426 99.5785 318.914 95.8315 316.198 93.0585C313.482 90.2855 309.785 88.7135 305.92 88.688Z" fill="white"/>
<path d="M293.1 322.284L222.241 321.976C221.505 321.976 220.912 321.166 220.922 320.183L220.998 301.491C220.998 300.527 221.601 299.698 222.337 299.698L293.196 300.026C293.604 300.097 293.968 300.324 294.214 300.66C294.46 300.996 294.568 301.414 294.515 301.828L294.448 320.501C294.448 321.494 293.836 322.294 293.1 322.284Z" fill="#55DBE2"/>
<path d="M245.426 308.816C245.392 308.524 245.251 308.297 245.005 308.135C244.758 307.973 244.456 307.892 244.098 307.892C243.836 307.892 243.607 307.935 243.411 308.019C243.216 308.104 243.064 308.221 242.954 308.369C242.847 308.517 242.793 308.685 242.793 308.874C242.793 309.032 242.83 309.168 242.905 309.281C242.982 309.393 243.081 309.486 243.2 309.561C243.319 309.634 243.444 309.695 243.575 309.743C243.706 309.789 243.827 309.827 243.936 309.856L244.537 310.018C244.691 310.058 244.862 310.114 245.051 310.185C245.241 310.256 245.423 310.353 245.597 310.477C245.772 310.598 245.916 310.754 246.03 310.944C246.143 311.135 246.2 311.369 246.2 311.646C246.2 311.966 246.116 312.254 245.949 312.512C245.783 312.77 245.541 312.975 245.221 313.127C244.904 313.279 244.518 313.356 244.063 313.356C243.64 313.356 243.273 313.287 242.963 313.151C242.655 313.014 242.413 312.823 242.235 312.579C242.06 312.334 241.961 312.05 241.938 311.727H242.677C242.697 311.95 242.772 312.135 242.903 312.281C243.035 312.426 243.203 312.534 243.405 312.605C243.609 312.674 243.828 312.709 244.063 312.709C244.337 312.709 244.582 312.664 244.8 312.576C245.017 312.485 245.189 312.36 245.316 312.201C245.444 312.039 245.507 311.85 245.507 311.635C245.507 311.438 245.452 311.278 245.342 311.155C245.233 311.032 245.088 310.932 244.909 310.855C244.73 310.778 244.537 310.711 244.329 310.653L243.601 310.445C243.139 310.312 242.774 310.122 242.504 309.876C242.235 309.63 242.1 309.307 242.1 308.909C242.1 308.578 242.189 308.289 242.368 308.042C242.549 307.794 242.792 307.602 243.096 307.465C243.402 307.326 243.744 307.257 244.121 307.257C244.502 307.257 244.841 307.325 245.137 307.462C245.434 307.597 245.669 307.782 245.842 308.016C246.017 308.251 246.11 308.518 246.119 308.816H245.426ZM248.094 307.338V313.252H247.377V307.338H248.094ZM254.219 307.338V313.252H253.526L250.303 308.608H250.246V313.252H249.529V307.338H250.222L253.456 311.993H253.514V307.338H254.219ZM259.694 309.186C259.631 308.992 259.547 308.817 259.443 308.663C259.341 308.507 259.219 308.375 259.076 308.265C258.936 308.155 258.776 308.071 258.597 308.014C258.418 307.956 258.222 307.927 258.008 307.927C257.658 307.927 257.339 308.017 257.052 308.198C256.765 308.379 256.537 308.646 256.368 308.998C256.198 309.351 256.114 309.783 256.114 310.295C256.114 310.807 256.199 311.239 256.371 311.591C256.542 311.944 256.774 312.21 257.067 312.391C257.359 312.572 257.688 312.663 258.054 312.663C258.393 312.663 258.691 312.59 258.949 312.446C259.209 312.3 259.411 312.094 259.556 311.828C259.702 311.56 259.775 311.246 259.775 310.884L259.995 310.93H258.216V310.295H260.468V310.93C260.468 311.417 260.364 311.841 260.156 312.201C259.95 312.561 259.665 312.84 259.302 313.038C258.94 313.234 258.524 313.332 258.054 313.332C257.531 313.332 257.07 313.209 256.674 312.963C256.279 312.716 255.971 312.366 255.75 311.912C255.53 311.457 255.421 310.918 255.421 310.295C255.421 309.827 255.483 309.406 255.608 309.033C255.735 308.658 255.914 308.338 256.145 308.074C256.376 307.811 256.65 307.608 256.966 307.468C257.281 307.327 257.629 307.257 258.008 307.257C258.32 307.257 258.61 307.304 258.88 307.399C259.151 307.491 259.393 307.623 259.605 307.794C259.818 307.964 259.996 308.167 260.139 308.403C260.281 308.638 260.38 308.899 260.433 309.186H259.694ZM246.073 317.338H246.789V321.253C246.789 321.658 246.694 322.019 246.503 322.336C246.315 322.652 246.048 322.901 245.703 323.084C245.359 323.265 244.955 323.356 244.491 323.356C244.027 323.356 243.622 323.265 243.278 323.084C242.933 322.901 242.666 322.652 242.475 322.336C242.287 322.019 242.192 321.658 242.192 321.253V317.338H242.908V321.196C242.908 321.484 242.972 321.741 243.099 321.967C243.226 322.19 243.407 322.366 243.642 322.495C243.878 322.622 244.161 322.686 244.491 322.686C244.82 322.686 245.103 322.622 245.34 322.495C245.576 322.366 245.757 322.19 245.882 321.967C246.009 321.741 246.073 321.484 246.073 321.196V317.338ZM248.219 323.252V317.338H250.217C250.681 317.338 251.061 317.422 251.355 317.589C251.651 317.755 251.871 317.979 252.013 318.262C252.156 318.545 252.227 318.861 252.227 319.209C252.227 319.557 252.156 319.874 252.013 320.159C251.873 320.444 251.655 320.671 251.361 320.84C251.066 321.008 250.689 321.092 250.229 321.092H248.797V320.456H250.206C250.523 320.456 250.778 320.402 250.971 320.292C251.163 320.182 251.303 320.034 251.39 319.847C251.478 319.659 251.523 319.446 251.523 319.209C251.523 318.972 251.478 318.761 251.39 318.574C251.303 318.387 251.163 318.241 250.968 318.135C250.774 318.027 250.516 317.973 250.194 317.973H248.935V323.252H248.219Z" fill="#E8E8E3"/>
<path d="M236.375 157.952L211.787 157.839L211.767 162.389L236.355 162.502L236.375 157.952Z" fill="#55DBE2"/>
<path opacity="0.1" d="M236.375 157.952L211.787 157.839L211.767 162.389L236.355 162.502L236.375 157.952Z" fill="black"/>
<path d="M308.453 185.888C308.647 185.868 308.836 185.823 309.018 185.753C309.282 185.649 309.512 185.471 309.681 185.241C309.85 185.011 309.952 184.737 309.974 184.452C309.974 182.919 309.974 180.683 309.974 177.81C309.974 176.373 309.974 174.764 309.974 172.99C309.974 172.556 309.974 172.103 309.974 171.65C310.036 171.21 309.941 170.763 309.706 170.387C309.574 170.207 309.403 170.06 309.206 169.958C309.008 169.856 308.79 169.802 308.568 169.799H307.077H293.263L213.303 169.5C213.098 169.497 212.896 169.543 212.713 169.635C212.53 169.728 212.371 169.863 212.251 170.03C212.02 170.407 211.932 170.856 212.003 171.293C212.003 172.257 212.003 173.221 212.003 174.185C212.003 176.113 212.003 178.041 212.003 179.969C212.003 180.933 212.003 181.897 212.003 182.861C211.963 183.31 211.963 183.762 212.003 184.211C212.053 184.403 212.146 184.582 212.275 184.732C212.405 184.882 212.567 185.001 212.748 185.078C212.937 185.154 213.138 185.19 213.341 185.184H218.207L239.44 185.3L275.385 185.522L299.62 185.715L306.207 185.792H307.918C308.31 185.792 308.501 185.792 308.501 185.792H307.918H306.207H299.62H275.385L239.44 185.676L218.207 185.589H213.341C213.073 185.6 212.806 185.554 212.557 185.454C212.305 185.346 212.082 185.181 211.903 184.972C211.724 184.763 211.594 184.516 211.525 184.249C211.469 183.996 211.45 183.737 211.467 183.478V182.765C211.467 181.801 211.467 180.837 211.467 179.873C211.467 177.945 211.467 176.017 211.467 174.089C211.467 173.125 211.467 172.161 211.467 171.197C211.449 170.94 211.449 170.682 211.467 170.426C211.503 170.142 211.612 169.873 211.783 169.645C211.948 169.412 212.166 169.223 212.419 169.094C212.672 168.964 212.952 168.899 213.236 168.902L293.196 169.346L307.01 169.442H308.501C308.764 169.442 309.023 169.507 309.256 169.629C309.489 169.752 309.689 169.929 309.84 170.146C310.109 170.565 310.218 171.069 310.146 171.563C310.146 172.016 310.146 172.469 310.146 172.903C310.146 174.658 310.146 176.267 310.146 177.723C310.146 180.615 310.079 182.832 310.06 184.375C310.036 184.671 309.929 184.955 309.751 185.192C309.574 185.43 309.332 185.611 309.056 185.715C308.875 185.828 308.666 185.888 308.453 185.888Z" fill="#E0E0E0"/>
<path d="M264.143 174.339H219.173V178.591H264.143V174.339Z" fill="#55DBE2"/>
<path opacity="0.2" d="M264.143 174.339H219.173V178.591H264.143V174.339Z" fill="white"/>
<path d="M236.207 199.46L211.619 199.348L211.599 203.898L236.187 204.01L236.207 199.46Z" fill="#55DBE2"/>
<path opacity="0.1" d="M236.207 199.46L211.619 199.348L211.599 203.898L236.187 204.01L236.207 199.46Z" fill="black"/>
<path d="M307.832 227.398C308.025 227.374 308.217 227.339 308.406 227.292C308.673 227.206 308.919 227.064 309.126 226.874C309.334 226.685 309.499 226.452 309.61 226.193C309.761 225.804 309.82 225.385 309.782 224.969C309.782 224.506 309.782 224.005 309.782 223.446C309.782 222.327 309.782 221.055 309.782 219.59V213.468C309.828 213.025 309.731 212.579 309.505 212.196C309.269 211.803 308.898 211.511 308.463 211.376C307.987 211.291 307.502 211.265 307.02 211.299H293.263L213.58 211C213.152 211.001 212.738 211.159 212.416 211.445C212.094 211.73 211.886 212.124 211.831 212.552C211.831 213.468 211.831 214.48 211.831 215.444C211.831 217.372 211.831 219.3 211.831 221.228C211.831 222.192 211.831 223.156 211.831 224.12C211.795 224.571 211.814 225.024 211.888 225.47C212.007 225.861 212.253 226.2 212.586 226.434C212.939 226.66 213.354 226.768 213.771 226.742H215.1H217.863L239.019 226.848L274.841 227.07L298.989 227.263L305.557 227.34H298.989H274.841L239 227.302L217.844 227.224H213.685C213.168 227.255 212.655 227.117 212.223 226.829C211.788 226.525 211.47 226.079 211.324 225.566C211.238 225.077 211.213 224.578 211.248 224.082C211.248 223.118 211.248 222.154 211.248 221.19C211.248 219.262 211.248 217.334 211.248 215.406C211.248 214.442 211.248 213.478 211.248 212.514C211.317 211.963 211.584 211.456 211.997 211.089C212.411 210.721 212.943 210.519 213.494 210.518L293.177 210.962L306.934 211.068C307.446 211.036 307.96 211.072 308.463 211.174C308.96 211.337 309.379 211.681 309.639 212.138C309.886 212.562 309.993 213.055 309.945 213.545C309.945 213.998 309.945 214.442 309.945 214.885C309.945 216.63 309.945 218.23 309.945 219.705C309.945 221.18 309.945 222.424 309.945 223.561C309.945 224.111 309.945 224.622 309.945 225.094C309.98 225.525 309.911 225.958 309.744 226.357C309.62 226.623 309.441 226.859 309.218 227.048C308.995 227.238 308.734 227.377 308.454 227.456C308.245 227.473 308.034 227.454 307.832 227.398Z" fill="#E0E0E0"/>
<path d="M236.022 242.771L211.434 242.659L211.414 247.209L236.002 247.322L236.022 242.771Z" fill="#55DBE2"/>
<path opacity="0.1" d="M236.022 242.771L211.434 242.659L211.414 247.209L236.002 247.322L236.022 242.771Z" fill="black"/>
<path d="M307.641 270.691C307.834 270.668 308.025 270.633 308.214 270.585C308.48 270.5 308.725 270.359 308.933 270.171C309.14 269.983 309.306 269.753 309.419 269.496C309.569 269.106 309.628 268.688 309.591 268.272C309.591 267.799 309.591 267.308 309.591 266.739C309.591 265.63 309.591 264.348 309.591 262.883V256.761C309.637 256.318 309.539 255.872 309.314 255.489C309.072 255.103 308.703 254.816 308.272 254.679C307.796 254.59 307.311 254.561 306.828 254.592H293.071L213.389 254.294C212.96 254.295 212.546 254.453 212.225 254.738C211.903 255.023 211.695 255.417 211.639 255.846C211.639 256.81 211.639 257.774 211.639 258.738C211.639 260.666 211.639 262.594 211.639 264.522C211.639 265.486 211.639 266.45 211.639 267.414C211.604 267.861 211.623 268.311 211.697 268.754C211.811 269.147 212.058 269.488 212.394 269.718C212.745 269.949 213.162 270.057 213.58 270.026H217.738L238.895 270.142L274.716 270.363L298.865 270.556L305.432 270.633H298.865H274.716L238.895 270.527L217.738 270.441H213.58C213.062 270.476 212.548 270.337 212.117 270.045C211.682 269.741 211.365 269.295 211.219 268.782C211.133 268.293 211.107 267.794 211.142 267.298C211.142 266.334 211.142 265.37 211.142 264.406C211.142 262.478 211.142 260.55 211.142 258.622C211.142 257.658 211.142 256.694 211.142 255.682C211.21 255.131 211.474 254.625 211.886 254.257C212.298 253.89 212.829 253.687 213.379 253.686L293.062 254.13L306.819 254.236C307.331 254.204 307.845 254.24 308.348 254.342C308.845 254.505 309.264 254.849 309.524 255.306C309.771 255.73 309.878 256.223 309.83 256.713C309.83 257.166 309.83 257.619 309.83 258.053C309.83 259.798 309.83 261.398 309.83 262.873C309.83 264.348 309.83 265.592 309.83 266.729C309.83 267.279 309.83 267.79 309.83 268.262C309.867 268.693 309.798 269.127 309.629 269.525C309.505 269.791 309.326 270.027 309.103 270.216C308.88 270.406 308.619 270.545 308.339 270.624C308.114 270.701 307.875 270.724 307.641 270.691Z" fill="#E0E0E0"/>
<path d="M263.183 217.051L218.213 216.845L218.194 221.097L263.164 221.302L263.183 217.051Z" fill="#55DBE2"/>
<path opacity="0.2" d="M263.183 217.051L218.213 216.845L218.194 221.097L263.164 221.302L263.183 217.051Z" fill="white"/>
<path d="M222.28 262.825C222.251 263.213 222.111 263.584 221.876 263.892C221.64 264.2 221.321 264.431 220.956 264.558C220.591 264.684 220.198 264.7 219.824 264.603C219.451 264.506 219.114 264.3 218.855 264.012C218.597 263.724 218.428 263.365 218.369 262.981C218.31 262.597 218.365 262.204 218.526 261.85C218.687 261.497 218.948 261.199 219.275 260.994C219.602 260.788 219.982 260.684 220.368 260.694C220.9 260.724 221.4 260.965 221.758 261.364C222.116 261.763 222.303 262.288 222.28 262.825Z" fill="#55DBE2"/>
<path d="M228.369 262.854C228.388 263.126 228.351 263.398 228.261 263.655C228.171 263.912 228.029 264.147 227.845 264.347C227.661 264.546 227.438 264.705 227.19 264.813C226.942 264.922 226.675 264.978 226.405 264.978C226.135 264.978 225.867 264.922 225.62 264.813C225.372 264.705 225.149 264.546 224.965 264.347C224.78 264.147 224.639 263.912 224.549 263.655C224.458 263.398 224.422 263.126 224.44 262.854C224.422 262.582 224.458 262.309 224.549 262.053C224.639 261.796 224.78 261.56 224.965 261.361C225.149 261.162 225.372 261.003 225.62 260.894C225.867 260.786 226.135 260.73 226.405 260.73C226.675 260.73 226.942 260.786 227.19 260.894C227.438 261.003 227.661 261.162 227.845 261.361C228.029 261.56 228.171 261.796 228.261 262.053C228.351 262.309 228.388 262.582 228.369 262.854Z" fill="#55DBE2"/>
<path d="M234.469 262.883C234.44 263.271 234.3 263.641 234.065 263.949C233.829 264.257 233.509 264.489 233.145 264.615C232.78 264.742 232.387 264.758 232.013 264.661C231.64 264.564 231.303 264.358 231.044 264.07C230.786 263.782 230.616 263.423 230.558 263.039C230.499 262.655 230.554 262.261 230.715 261.908C230.876 261.555 231.137 261.257 231.464 261.052C231.791 260.846 232.171 260.742 232.557 260.752C233.088 260.785 233.586 261.026 233.944 261.424C234.301 261.822 234.49 262.346 234.469 262.883Z" fill="#55DBE2"/>
<path d="M240.558 262.912C240.53 263.299 240.39 263.67 240.154 263.978C239.919 264.286 239.599 264.518 239.235 264.644C238.87 264.771 238.477 264.786 238.103 264.69C237.73 264.593 237.393 264.387 237.134 264.099C236.875 263.811 236.706 263.452 236.648 263.068C236.589 262.684 236.644 262.29 236.805 261.937C236.966 261.584 237.226 261.286 237.554 261.08C237.881 260.875 238.261 260.771 238.646 260.781C239.178 260.814 239.676 261.055 240.034 261.453C240.391 261.851 240.579 262.375 240.558 262.912Z" fill="#55DBE2"/>
<path d="M246.648 262.931C246.622 263.319 246.483 263.691 246.248 264.001C246.014 264.31 245.695 264.543 245.33 264.671C244.966 264.799 244.572 264.816 244.198 264.72C243.824 264.624 243.486 264.419 243.226 264.131C242.966 263.843 242.796 263.485 242.737 263.1C242.678 262.715 242.732 262.322 242.893 261.968C243.054 261.614 243.314 261.316 243.642 261.11C243.97 260.904 244.35 260.8 244.736 260.81C245.266 260.843 245.762 261.082 246.12 261.479C246.477 261.875 246.666 262.396 246.648 262.931Z" fill="#55DBE2"/>
<path d="M252.747 262.96C252.721 263.346 252.584 263.716 252.351 264.025C252.119 264.334 251.803 264.567 251.441 264.696C251.079 264.826 250.688 264.846 250.315 264.754C249.942 264.662 249.603 264.462 249.342 264.179C249.08 263.895 248.906 263.541 248.841 263.159C248.776 262.778 248.824 262.385 248.977 262.03C249.131 261.676 249.384 261.374 249.706 261.162C250.027 260.95 250.403 260.838 250.787 260.839C251.326 260.859 251.834 261.094 252.202 261.491C252.569 261.889 252.765 262.417 252.747 262.96Z" fill="#55DBE2"/>
<path d="M258.837 262.989C258.856 263.261 258.819 263.533 258.729 263.79C258.639 264.047 258.497 264.282 258.313 264.482C258.129 264.681 257.906 264.84 257.658 264.948C257.41 265.057 257.143 265.113 256.873 265.113C256.603 265.113 256.335 265.057 256.087 264.948C255.84 264.84 255.617 264.681 255.432 264.482C255.248 264.282 255.107 264.047 255.016 263.79C254.926 263.533 254.889 263.261 254.908 262.989C254.889 262.717 254.926 262.444 255.016 262.187C255.107 261.931 255.248 261.695 255.432 261.496C255.617 261.297 255.84 261.138 256.087 261.029C256.335 260.921 256.603 260.865 256.873 260.865C257.143 260.865 257.41 260.921 257.658 261.029C257.906 261.138 258.129 261.297 258.313 261.496C258.497 261.695 258.639 261.931 258.729 262.187C258.819 262.444 258.856 262.717 258.837 262.989Z" fill="#55DBE2"/>
<path d="M264.927 263.018C264.901 263.404 264.763 263.774 264.531 264.083C264.299 264.391 263.983 264.625 263.621 264.754C263.259 264.884 262.867 264.904 262.494 264.812C262.121 264.72 261.783 264.52 261.521 264.237C261.259 263.953 261.086 263.599 261.021 263.217C260.956 262.836 261.004 262.443 261.157 262.088C261.311 261.733 261.564 261.432 261.886 261.22C262.207 261.008 262.583 260.896 262.967 260.897C263.506 260.917 264.014 261.152 264.381 261.549C264.749 261.947 264.945 262.475 264.927 263.018Z" fill="#55DBE2"/>
<path d="M271.017 263.047C270.99 263.435 270.851 263.807 270.617 264.116C270.383 264.426 270.063 264.659 269.699 264.787C269.334 264.915 268.94 264.932 268.566 264.836C268.192 264.74 267.854 264.535 267.595 264.247C267.335 263.959 267.165 263.6 267.106 263.216C267.047 262.831 267.101 262.437 267.262 262.083C267.423 261.73 267.683 261.431 268.011 261.225C268.338 261.02 268.719 260.915 269.105 260.926C269.635 260.958 270.131 261.198 270.488 261.594C270.845 261.99 271.035 262.512 271.017 263.047Z" fill="#55DBE2"/>
<g opacity="0.2">
<path d="M222.28 262.825C222.251 263.213 222.111 263.584 221.876 263.892C221.64 264.2 221.321 264.431 220.956 264.558C220.591 264.684 220.198 264.7 219.824 264.603C219.451 264.506 219.114 264.3 218.855 264.012C218.597 263.724 218.428 263.365 218.369 262.981C218.31 262.597 218.365 262.204 218.526 261.85C218.687 261.497 218.948 261.199 219.275 260.994C219.602 260.788 219.982 260.684 220.368 260.694C220.9 260.724 221.4 260.965 221.758 261.364C222.116 261.763 222.303 262.288 222.28 262.825Z" fill="white"/>
<path d="M228.369 262.854C228.388 263.126 228.351 263.398 228.261 263.655C228.171 263.912 228.029 264.147 227.845 264.347C227.661 264.546 227.438 264.705 227.19 264.813C226.942 264.922 226.675 264.978 226.405 264.978C226.135 264.978 225.867 264.922 225.62 264.813C225.372 264.705 225.149 264.546 224.965 264.347C224.78 264.147 224.639 263.912 224.549 263.655C224.458 263.398 224.422 263.126 224.44 262.854C224.422 262.582 224.458 262.309 224.549 262.053C224.639 261.796 224.78 261.56 224.965 261.361C225.149 261.162 225.372 261.003 225.62 260.894C225.867 260.786 226.135 260.73 226.405 260.73C226.675 260.73 226.942 260.786 227.19 260.894C227.438 261.003 227.661 261.162 227.845 261.361C228.029 261.56 228.171 261.796 228.261 262.053C228.351 262.309 228.388 262.582 228.369 262.854Z" fill="white"/>
<path d="M234.469 262.883C234.44 263.271 234.3 263.641 234.065 263.949C233.829 264.257 233.509 264.489 233.145 264.615C232.78 264.742 232.387 264.758 232.013 264.661C231.64 264.564 231.303 264.358 231.044 264.07C230.786 263.782 230.616 263.423 230.558 263.039C230.499 262.655 230.554 262.261 230.715 261.908C230.876 261.555 231.137 261.257 231.464 261.052C231.791 260.846 232.171 260.742 232.557 260.752C233.088 260.785 233.586 261.026 233.944 261.424C234.301 261.822 234.49 262.346 234.469 262.883Z" fill="white"/>
<path d="M240.558 262.912C240.53 263.299 240.39 263.67 240.154 263.978C239.919 264.286 239.599 264.518 239.235 264.644C238.87 264.771 238.477 264.786 238.103 264.69C237.73 264.593 237.393 264.387 237.134 264.099C236.875 263.811 236.706 263.452 236.648 263.068C236.589 262.684 236.644 262.29 236.805 261.937C236.966 261.584 237.226 261.286 237.554 261.08C237.881 260.875 238.261 260.771 238.646 260.781C239.178 260.814 239.676 261.055 240.034 261.453C240.391 261.851 240.579 262.375 240.558 262.912Z" fill="white"/>
<path d="M246.648 262.931C246.622 263.319 246.483 263.691 246.248 264.001C246.014 264.31 245.695 264.543 245.33 264.671C244.966 264.799 244.572 264.816 244.198 264.72C243.824 264.624 243.486 264.419 243.226 264.131C242.966 263.843 242.796 263.485 242.737 263.1C242.678 262.715 242.732 262.322 242.893 261.968C243.054 261.614 243.314 261.316 243.642 261.11C243.97 260.904 244.35 260.8 244.736 260.81C245.266 260.843 245.762 261.082 246.12 261.479C246.477 261.875 246.666 262.396 246.648 262.931Z" fill="white"/>
<path d="M252.747 262.96C252.721 263.346 252.584 263.716 252.351 264.025C252.119 264.334 251.803 264.567 251.441 264.696C251.079 264.826 250.688 264.846 250.315 264.754C249.942 264.662 249.603 264.462 249.342 264.179C249.08 263.895 248.906 263.541 248.841 263.159C248.776 262.778 248.824 262.385 248.977 262.03C249.131 261.676 249.384 261.374 249.706 261.162C250.027 260.95 250.403 260.838 250.787 260.839C251.326 260.859 251.834 261.094 252.202 261.491C252.569 261.889 252.765 262.417 252.747 262.96Z" fill="white"/>
<path d="M258.837 262.989C258.856 263.261 258.819 263.533 258.729 263.79C258.639 264.047 258.497 264.282 258.313 264.482C258.129 264.681 257.906 264.84 257.658 264.948C257.41 265.057 257.143 265.113 256.873 265.113C256.603 265.113 256.335 265.057 256.087 264.948C255.84 264.84 255.617 264.681 255.432 264.482C255.248 264.282 255.107 264.047 255.016 263.79C254.926 263.533 254.889 263.261 254.908 262.989C254.889 262.717 254.926 262.444 255.016 262.187C255.107 261.931 255.248 261.695 255.432 261.496C255.617 261.297 255.84 261.138 256.087 261.029C256.335 260.921 256.603 260.865 256.873 260.865C257.143 260.865 257.41 260.921 257.658 261.029C257.906 261.138 258.129 261.297 258.313 261.496C258.497 261.695 258.639 261.931 258.729 262.187C258.819 262.444 258.856 262.717 258.837 262.989Z" fill="white"/>
<path d="M264.927 263.018C264.901 263.404 264.763 263.774 264.531 264.083C264.299 264.391 263.983 264.625 263.621 264.754C263.259 264.884 262.867 264.904 262.494 264.812C262.121 264.72 261.783 264.52 261.521 264.237C261.259 263.953 261.086 263.599 261.021 263.217C260.956 262.836 261.004 262.443 261.157 262.088C261.311 261.733 261.564 261.432 261.886 261.22C262.207 261.008 262.583 260.896 262.967 260.897C263.506 260.917 264.014 261.152 264.381 261.549C264.749 261.947 264.945 262.475 264.927 263.018Z" fill="white"/>
<path d="M271.017 263.047C270.99 263.435 270.851 263.807 270.617 264.116C270.383 264.426 270.063 264.659 269.699 264.787C269.334 264.915 268.94 264.932 268.566 264.836C268.192 264.74 267.854 264.535 267.595 264.247C267.335 263.959 267.165 263.6 267.106 263.216C267.047 262.831 267.101 262.437 267.262 262.083C267.423 261.73 267.683 261.431 268.011 261.225C268.338 261.02 268.719 260.915 269.105 260.926C269.635 260.958 270.131 261.198 270.488 261.594C270.845 261.99 271.035 262.512 271.017 263.047Z" fill="white"/>
</g>
<path d="M262.365 123.884C263.029 123.589 263.592 123.103 263.985 122.488C264.377 121.873 264.582 121.155 264.573 120.423C264.598 119.947 264.526 119.472 264.363 119.025C264.199 118.578 263.947 118.169 263.622 117.824C263.297 117.478 262.906 117.203 262.472 117.015C262.038 116.827 261.57 116.73 261.098 116.73C260.626 116.73 260.158 116.827 259.724 117.015C259.29 117.203 258.899 117.478 258.574 117.824C258.249 118.169 257.997 118.578 257.833 119.025C257.67 119.472 257.598 119.947 257.623 120.423C257.608 121.162 257.811 121.889 258.206 122.511C258.601 123.134 259.17 123.625 259.841 123.922C254.487 124.732 254.726 130.593 254.726 130.593L267.384 130.651C267.384 130.651 267.68 124.684 262.365 123.884Z" fill="#55DBE2"/>
<path opacity="0.1" d="M262.365 123.884C263.029 123.589 263.592 123.103 263.985 122.488C264.377 121.873 264.582 121.155 264.573 120.423C264.598 119.947 264.526 119.472 264.363 119.025C264.199 118.578 263.947 118.169 263.622 117.824C263.297 117.478 262.906 117.203 262.472 117.015C262.038 116.827 261.57 116.73 261.098 116.73C260.626 116.73 260.158 116.827 259.724 117.015C259.29 117.203 258.899 117.478 258.574 117.824C258.249 118.169 257.997 118.578 257.833 119.025C257.67 119.472 257.598 119.947 257.623 120.423C257.608 121.162 257.811 121.889 258.206 122.511C258.601 123.134 259.17 123.625 259.841 123.922C254.487 124.732 254.726 130.593 254.726 130.593L267.384 130.651C267.384 130.651 267.68 124.684 262.365 123.884Z" fill="black"/>
<path d="M282.932 134.431L237.819 134.225L237.795 139.662L282.908 139.868L282.932 134.431Z" fill="#55DBE2"/>
<path opacity="0.2" d="M282.932 134.431L237.819 134.225L237.795 139.662L282.908 139.868L282.932 134.431Z" fill="white"/>
<path d="M117.081 162.608H116.632L115.332 162.704C114.628 162.747 113.928 162.84 113.238 162.983C112.791 163.047 112.347 163.134 111.909 163.244L110.427 163.658C107.905 164.439 105.526 165.627 103.382 167.177C100.549 169.25 98.1836 171.905 96.4412 174.966C95.4171 176.731 94.6021 178.61 94.013 180.567C93.3939 182.693 93.0375 184.888 92.9518 187.103C92.8948 188.266 92.914 189.432 93.0092 190.592C93.0092 191.18 93.1717 191.769 93.2482 192.366C93.3125 192.969 93.4244 193.565 93.5828 194.15C94.4424 198.018 96.1867 201.63 98.6764 204.698C101.166 207.766 104.332 210.205 107.923 211.82C110.521 212.95 113.306 213.581 116.135 213.68C119.056 213.842 121.98 213.42 124.739 212.437L125.58 212.119H125.695L125.79 212.176L137.846 218.346L137.492 218.654C136.201 214.625 134.958 210.721 133.754 206.971V206.826L133.859 206.72C136.783 203.75 138.954 200.113 140.188 196.116C141.305 192.463 141.631 188.61 141.144 184.818C140.71 181.448 139.636 178.195 137.979 175.236C136.551 172.694 134.709 170.413 132.53 168.488C130.732 166.964 128.743 165.687 126.613 164.69C125.001 163.989 123.322 163.456 121.603 163.099L119.691 162.781L118.305 162.675L117.464 162.617H117.177C117.272 162.607 117.368 162.607 117.464 162.617H118.314L119.701 162.675L121.613 162.955C123.353 163.285 125.055 163.799 126.689 164.487C128.856 165.473 130.881 166.747 132.712 168.276C134.931 170.192 136.812 172.474 138.276 175.024C139.979 178.015 141.087 181.312 141.536 184.731C142.063 188.581 141.76 192.501 140.647 196.222C139.405 200.302 137.201 204.017 134.222 207.048L134.28 206.797C135.484 210.547 136.737 214.451 138.037 218.471L138.218 219.059L137.673 218.78L125.618 212.62H125.829L124.968 212.938C122.157 213.936 119.178 214.368 116.202 214.21C113.312 214.1 110.469 213.446 107.818 212.282C102.76 210.098 98.5523 206.302 95.8389 201.476C94.5903 199.247 93.6784 196.843 93.1334 194.342C92.9842 193.743 92.8724 193.134 92.7988 192.52C92.7224 191.913 92.5981 191.315 92.5694 190.718C92.3107 187.288 92.6702 183.839 93.6306 180.538C94.2343 178.555 95.0721 176.652 96.1257 174.87C97.9097 171.781 100.324 169.109 103.21 167.032C105.389 165.478 107.809 164.299 110.37 163.543L111.871 163.157C112.313 163.054 112.76 162.973 113.209 162.916C113.907 162.786 114.613 162.708 115.322 162.685L116.632 162.636C116.781 162.616 116.931 162.607 117.081 162.608Z" fill="#55DBE2"/>
<path d="M122.53 185.088H120.762L116.938 179.67V176.113C116.938 176.113 114.204 175.94 114.529 180.596C114.854 185.252 114.529 184.066 114.529 184.066C114.529 184.066 108.726 184.066 108.248 184.596C107.77 185.127 107.741 190.776 107.674 193.928C107.638 194.688 107.854 195.438 108.289 196.06C108.723 196.682 109.352 197.139 110.074 197.36C110.276 197.416 110.485 197.445 110.695 197.446C112.148 197.446 119.538 196.261 119.538 196.261H122.588L122.53 185.088Z" fill="#55DBE2"/>
<path d="M127.588 184.134L126.498 196.319H123.477V184.384L127.588 184.134Z" fill="#55DBE2"/>
<path d="M163.619 432.2V423.958L148.964 423.852L148.84 436.316L149.748 436.384C153.792 436.644 170.321 437.029 173.036 436.181C176.057 435.236 163.619 432.2 163.619 432.2Z" fill="#55DBE2"/>
<path d="M173.38 435.41C173.38 435.545 167.893 435.661 161.134 435.661C154.375 435.661 148.887 435.545 148.887 435.41C148.887 435.275 154.375 435.159 161.134 435.159C167.893 435.159 173.38 435.275 173.38 435.41Z" fill="#263238"/>
<path d="M163.877 433.887C163.753 433.819 163.877 433.385 164.174 432.923C164.47 432.46 164.872 432.267 164.967 432.364C165.063 432.46 164.862 432.826 164.575 433.222C164.289 433.617 164.002 433.954 163.877 433.887Z" fill="#263238"/>
<path d="M164.815 434.427C164.681 434.427 164.748 433.887 165.034 433.376C165.321 432.865 165.704 432.556 165.809 432.634C165.914 432.711 165.742 433.144 165.474 433.598C165.206 434.051 164.939 434.475 164.815 434.427Z" fill="#263238"/>
<path d="M153.304 435.371C153.247 435.371 153.027 435.198 152.711 434.831C152.326 434.361 151.897 433.928 151.43 433.54C150.971 433.17 150.424 432.927 149.843 432.836C149.394 432.778 149.107 432.836 149.079 432.778C149.05 432.72 149.327 432.518 149.853 432.479C150.547 432.465 151.224 432.697 151.765 433.135C152.272 433.552 152.7 434.058 153.027 434.629C153.247 435.053 153.362 435.333 153.304 435.371Z" fill="#263238"/>
<path d="M163.925 432.335C163.992 432.45 163.744 432.74 163.323 432.894C162.902 433.048 162.53 432.99 162.51 432.894C162.491 432.797 162.788 432.595 163.151 432.46C163.514 432.325 163.849 432.219 163.925 432.335Z" fill="#263238"/>
<path d="M163.696 431.535C163.696 431.679 163.314 431.795 162.816 431.805C162.319 431.814 161.927 431.699 161.937 431.564C161.946 431.429 162.338 431.303 162.816 431.294C163.294 431.284 163.677 431.4 163.696 431.535Z" fill="#263238"/>
<path d="M199.708 432.2V423.958L185.053 423.852L184.929 436.191L185.837 436.258C189.881 436.518 206.42 437.029 209.125 436.181C212.146 435.236 199.708 432.2 199.708 432.2Z" fill="#55DBE2"/>
<path d="M209.469 435.429C209.469 435.564 203.991 435.68 197.223 435.68C190.454 435.68 184.986 435.564 184.986 435.429C184.986 435.294 190.464 435.179 197.223 435.179C203.982 435.179 209.469 435.294 209.469 435.429Z" fill="#263238"/>
<path d="M199.967 433.887C199.852 433.819 199.967 433.385 200.263 432.923C200.559 432.46 200.961 432.267 201.056 432.364C201.152 432.46 200.951 432.826 200.665 433.222C200.378 433.617 200.091 433.954 199.967 433.887Z" fill="#263238"/>
<path d="M200.903 434.427C200.779 434.427 200.837 433.887 201.133 433.376C201.429 432.865 201.802 432.556 201.907 432.634C202.012 432.711 201.831 433.144 201.563 433.598C201.295 434.051 201.037 434.475 200.903 434.427Z" fill="#263238"/>
<path d="M189.393 435.371C189.336 435.371 189.125 435.198 188.8 434.831C188.415 434.361 187.986 433.928 187.519 433.54C187.06 433.17 186.513 432.927 185.932 432.836C185.493 432.778 185.196 432.836 185.168 432.778C185.139 432.72 185.416 432.518 185.942 432.479C186.636 432.465 187.313 432.697 187.854 433.135C188.364 433.549 188.792 434.056 189.116 434.629C189.336 435.053 189.45 435.333 189.393 435.371Z" fill="#263238"/>
<path d="M200.014 432.335C200.081 432.45 199.833 432.74 199.412 432.894C198.991 433.048 198.619 432.99 198.6 432.894C198.58 432.797 198.877 432.595 199.24 432.46C199.603 432.325 199.938 432.219 200.014 432.335Z" fill="#263238"/>
<path d="M199.804 431.535C199.804 431.679 199.421 431.795 198.924 431.805C198.427 431.814 198.045 431.699 198.054 431.564C198.064 431.429 198.446 431.303 198.924 431.294C199.402 431.284 199.804 431.4 199.804 431.535Z" fill="#263238"/>
<path d="M253.703 187.44C253.321 187.045 252.374 187.238 252.374 187.238C252.469 186.683 252.469 186.115 252.374 185.56C252.202 185.021 250.998 185.127 250.998 185.127C250.942 184.672 250.942 184.212 250.998 183.758C251.007 183.657 250.986 183.556 250.936 183.468C250.887 183.38 250.811 183.309 250.721 183.266C250.151 183.032 249.538 182.92 248.923 182.938C248.187 182.408 251.17 178.195 252.279 176.846C253.388 175.496 253.187 174.445 252.202 174.445C251.524 174.445 248.044 178.494 246.973 179.853C245.902 181.213 243.063 184.992 242.967 181.974C242.872 178.957 241.667 176.682 240.912 176.296C240.157 175.911 239.354 176.817 239.765 177.656C240.126 178.608 240.351 179.608 240.434 180.625C240.538 181.435 240.502 182.256 240.329 183.054C240.012 184.538 239.58 185.995 239.038 187.411H238.962C238.962 187.411 218.102 207.588 216.591 209.024C215.243 210.316 188.131 207.491 182.692 206.913C180.843 206.64 178.977 206.511 177.109 206.527C174.747 206.633 174.327 206.971 171.975 207C166.036 207.066 160.11 207.592 154.251 208.571C151.597 209.026 149.119 210.207 147.086 211.985C145.053 213.763 143.543 216.07 142.721 218.654C137.243 235.91 124.834 276.755 122.645 299.698C120.991 302.723 119.497 305.835 118.171 309.02C116.632 313.242 117.005 313.387 117.521 313.483C118.917 313.743 120.504 306.166 121.097 307.998C121.689 309.83 118.085 317.031 119.548 317.243C121.46 317.513 122.98 309.531 123.161 308.895C123.343 308.258 124.29 308.461 124.117 309.058C123.84 309.907 121.154 318.901 123.028 319.19C124.06 319.344 124.175 317.445 124.175 317.445C124.175 317.445 126.087 308.837 126.957 309.01C127.827 309.184 126.899 314.264 126.46 315.961C126.02 317.657 126.632 318.515 127.53 318.101C128.142 317.812 129.605 312.654 130.006 310.977C130.408 309.299 131.412 304.653 132.76 307.342C134.108 310.032 136.154 311.594 136.995 311.632C137.184 311.61 137.363 311.531 137.508 311.406C137.653 311.281 137.757 311.115 137.807 310.929C137.858 310.744 137.852 310.547 137.791 310.365C137.729 310.183 137.615 310.023 137.463 309.907C136.74 309.194 136.119 308.383 135.618 307.497C135.172 306.806 134.849 306.043 134.662 305.241C134.277 303.642 134.053 302.008 133.993 300.363L133.84 299.399C135.981 288.708 142.148 257.33 151.048 237.289L154.7 244.866L156.287 250.476L146.555 274.701L188.064 274.152L181.869 250.11L189.393 225.046C197.529 225.229 218.417 225.537 221.897 223.947C226.276 222.019 248.923 193.176 248.923 193.176C250.4 192.019 251.813 190.784 253.158 189.474C253.158 189.474 254.535 188.308 253.703 187.44Z" fill="#FFBE9D"/>
<path d="M144.729 256.8C145.933 252.655 152.119 232.16 152.119 232.16C152.119 232.16 155.159 248.866 154.356 250.881C153.617 252.606 152.744 254.269 151.746 255.855C144.729 266.623 145.647 272.012 145.647 272.012L188.045 270.71C188.141 264.734 184.632 250.833 183.906 248.616C183.179 246.398 185.598 239.139 185.598 239.139C185.598 239.139 190.378 234.233 190.206 231.707C190.115 229.438 189.837 227.181 189.374 224.959L215.186 225.923L214.373 208.282L177.3 204.542C176.009 208.214 164.336 206.412 164.336 206.412C151.736 206.836 150.952 209.169 145.714 213.275C140.475 217.382 131.804 252.626 131.804 252.626L144.729 256.8Z" fill="#55DBE2"/>
<path d="M169.795 252.626C169.06 252.758 168.312 252.797 167.568 252.742C166.182 252.742 164.279 252.645 162.185 252.433C160.092 252.221 158.199 251.922 156.851 251.652C156.108 251.556 155.379 251.368 154.681 251.093C155.428 251.093 156.174 251.164 156.908 251.305C158.266 251.479 160.149 251.72 162.233 251.932C164.317 252.144 166.21 252.288 167.577 252.385C168.323 252.394 169.065 252.475 169.795 252.626Z" fill="#263238"/>
<path d="M172.701 248.992C171.966 249.355 171.189 249.623 170.388 249.792C166.574 250.802 162.639 251.273 158.696 251.189C157.88 251.216 157.064 251.139 156.268 250.958C157.073 250.856 157.885 250.814 158.696 250.833C160.197 250.785 162.262 250.679 164.537 250.409C166.812 250.139 168.839 249.753 170.273 249.445C171.07 249.23 171.882 249.079 172.701 248.992Z" fill="#263238"/>
<path d="M186.965 232.777C186.946 233.512 186.846 234.243 186.669 234.956C186.42 236.296 186.038 238.127 185.55 240.132C185.062 242.138 184.594 243.988 184.173 245.242C184.004 245.959 183.754 246.654 183.428 247.314C183.481 246.582 183.616 245.857 183.829 245.155C184.193 243.651 184.604 241.916 185.063 240.017C185.521 238.118 185.961 236.382 186.324 234.879C186.454 234.155 186.669 233.449 186.965 232.777Z" fill="#263238"/>
<path d="M145.178 254.342C142.966 253.997 140.784 253.485 138.649 252.809C136.467 252.295 134.326 251.618 132.243 250.785C134.454 251.135 136.636 251.647 138.773 252.317C140.955 252.83 143.096 253.507 145.178 254.342Z" fill="#263238"/>
<path d="M189.833 224.747C189.472 224.81 189.104 224.81 188.743 224.747C187.744 224.644 186.764 224.407 185.827 224.043C184.263 223.451 182.84 222.535 181.648 221.354C180.456 220.174 179.522 218.755 178.906 217.189C178.225 215.467 177.934 213.612 178.055 211.762C178.098 210.236 178.55 208.75 179.365 207.462C179.937 206.595 180.793 205.958 181.783 205.66C182.048 205.586 182.321 205.55 182.596 205.554C182.787 205.554 182.883 205.554 182.883 205.554C182.883 205.554 182.481 205.554 181.841 205.814C180.932 206.152 180.162 206.787 179.651 207.617C178.351 209.68 177.988 213.449 179.374 216.967C180.019 218.627 181.029 220.116 182.328 221.325C183.392 222.314 184.618 223.109 185.951 223.677C187.203 224.176 188.504 224.534 189.833 224.747Z" fill="#263238"/>
<path d="M212.117 225.576C211.878 222.62 211.802 219.653 211.888 216.688C211.813 213.726 211.902 210.762 212.156 207.809C212.395 210.762 212.471 213.726 212.385 216.688C212.465 219.653 212.376 222.621 212.117 225.576Z" fill="#263238"/>
<path d="M177.051 205.621C177.156 203.471 177.376 201.042 177.376 201.042C177.376 201.042 182.653 200.454 182.969 194.959C183.284 189.465 182.969 176.788 182.969 176.788L173.409 171.852L162.797 180.268L164.432 207.742L174.164 208.369C174.908 208.389 175.63 208.112 176.171 207.597C176.712 207.082 177.029 206.371 177.051 205.621Z" fill="#FFBE9D"/>
<path d="M177.998 190.612C177.998 190.612 177.998 190.718 177.912 190.843C177.841 190.934 177.749 191.006 177.644 191.053C177.539 191.1 177.424 191.121 177.309 191.113C176.698 191.113 176.105 190.4 175.895 189.571C175.795 189.169 175.795 188.748 175.895 188.346C175.914 188.171 175.977 188.003 176.077 187.858C176.177 187.714 176.312 187.596 176.468 187.517C176.597 187.464 176.741 187.464 176.87 187.517C176.965 187.565 177.042 187.643 177.09 187.739C177.156 187.903 177.09 188.009 177.09 187.999C177.09 187.99 177.09 187.903 176.994 187.806C176.944 187.737 176.87 187.689 176.788 187.672C176.705 187.654 176.618 187.668 176.545 187.71C176.427 187.782 176.33 187.882 176.261 188.001C176.193 188.121 176.155 188.256 176.153 188.395C176.072 188.753 176.072 189.125 176.153 189.484C176.344 190.236 176.86 190.843 177.319 190.901C177.409 190.913 177.5 190.907 177.587 190.882C177.674 190.857 177.756 190.814 177.826 190.756C177.94 190.679 177.979 190.602 177.998 190.612Z" fill="#EB996E"/>
<path d="M186.248 173.819C185.512 171.293 182.844 170.04 180.416 169.346C176.717 168.285 172.72 167.823 169.107 169.163C165.493 170.503 161.153 172.855 161.153 176.875C159.021 176.701 157.797 178.581 156.956 180.914C156.418 182.335 156.096 183.83 156 185.348C155.732 190.612 154.27 197.88 150.885 201.736C148.973 203.886 146.325 205.371 145.235 208.05C144.279 210.374 144.777 213.131 143.887 215.483C143.094 217.556 141.345 219.03 140.063 220.833C138.758 222.878 137.99 225.224 137.831 227.651C137.673 230.077 138.128 232.505 139.155 234.705C140.19 236.849 141.646 238.758 143.436 240.316C145.226 241.874 147.312 243.048 149.566 243.767C154.032 245.137 158.794 245.183 163.285 243.902C166.655 243.089 169.8 241.517 172.481 239.303C175.226 237.044 177.11 233.897 177.816 230.396C178.495 226.463 177.405 222.462 176.592 218.548C174.049 206.18 174.776 205.534 177.988 194.053C178.064 193.851 178.103 193.639 178.16 193.436C178.217 193.234 178.246 193.137 178.284 192.983C178.376 192.529 178.424 192.068 178.428 191.605C177.959 191.781 177.449 191.818 176.96 191.712C176.471 191.606 176.021 191.361 175.665 191.007C175.308 190.629 175.059 190.161 174.944 189.651C174.83 189.142 174.854 188.611 175.015 188.115C175.24 187.572 175.577 187.083 176.001 186.68C176.426 186.276 176.93 185.967 177.481 185.772C178.542 185.329 179.68 185.098 180.722 184.606C182.931 183.546 184.46 181.348 185.502 179.044C186.359 177.447 186.623 175.594 186.248 173.819Z" fill="#263238"/>
<path d="M178.38 190.872C178.582 191.173 178.749 191.496 178.877 191.836C179.164 192.443 179.546 193.301 179.967 194.294L180.044 194.477H179.843L178.887 194.564C178.227 194.564 177.673 194.689 177.023 194.68C176.966 194.667 176.914 194.64 176.87 194.601C176.827 194.562 176.794 194.513 176.774 194.458C176.746 194.37 176.746 194.276 176.774 194.188C176.796 194.058 176.825 193.93 176.86 193.803L177.032 193.118C177.119 192.662 177.253 192.216 177.434 191.788C177.416 192.253 177.349 192.715 177.233 193.166L177.099 193.851C177.051 194.082 176.965 194.439 177.099 194.41C177.577 194.41 178.256 194.304 178.887 194.265L179.843 194.179L179.719 194.391C179.307 193.427 178.963 192.52 178.763 191.894C178.586 191.574 178.458 191.23 178.38 190.872Z" fill="#55DBE2"/>
<path d="M145.647 272.012L188.045 270.71L206.496 343.338L203.102 426.647H180.684L183.428 345.112L167.032 294.55L169.556 429.877L146.899 430.214L144.519 303.014C144.413 299.476 143.266 291.504 143.696 287.995L145.647 272.012Z" fill="#263238"/>
<path d="M172.673 295.582C171.979 295.626 171.282 295.584 170.598 295.456C169.317 295.302 167.568 295.032 165.646 294.647C163.724 294.261 162.004 293.818 160.761 293.461C160.097 293.314 159.454 293.08 158.849 292.767C158.849 292.622 161.965 293.374 165.789 294.155C169.613 294.936 172.692 295.437 172.673 295.582Z" fill="#455A64"/>
<path d="M202.873 422.078C202.873 422.213 197.797 422.328 191.535 422.328C185.273 422.328 180.187 422.213 180.187 422.078C180.187 421.943 185.263 421.827 191.535 421.827C197.806 421.827 202.873 421.933 202.873 422.078Z" fill="#455A64"/>
<path d="M169.355 426.358C169.355 426.503 164.422 426.609 158.342 426.609C152.262 426.609 147.339 426.503 147.339 426.358C147.339 426.213 152.272 426.107 158.342 426.107C164.413 426.107 169.355 426.223 169.355 426.358Z" fill="#455A64"/>
<path d="M166.43 426.011C166.296 426.011 165.703 396.445 165.101 359.977C164.499 323.509 164.145 293.924 164.269 293.924C164.394 293.924 165.006 323.48 165.598 359.967C166.191 396.455 166.573 426.011 166.43 426.011Z" fill="#455A64"/>
<path d="M199.861 422.078C199.851 421.946 199.851 421.814 199.861 421.683V420.526C199.861 419.485 199.938 417.99 199.995 416.091C200.129 412.235 200.32 406.634 200.559 399.771C201.075 385.966 201.802 366.937 202.595 345.931C202.595 345.729 202.595 345.536 202.595 345.363V345.43C197.576 325.186 193.035 306.812 189.737 293.519L185.913 277.796C185.473 275.955 185.139 274.518 184.9 273.516C184.785 273.043 184.709 272.677 184.642 272.397C184.604 272.272 184.582 272.143 184.575 272.012C184.624 272.133 184.663 272.259 184.689 272.388C184.766 272.658 184.861 273.024 184.995 273.487C185.253 274.451 185.626 275.916 186.104 277.748C187.06 281.469 188.408 286.829 190.091 293.432C193.418 306.716 198.007 325.042 203.092 345.314V345.382C203.092 345.555 203.092 345.758 203.092 345.951C202.242 366.956 201.467 385.976 200.903 399.78C200.607 406.654 200.358 412.216 200.186 416.091C200.091 418.019 200.014 419.485 199.966 420.526C199.966 421.017 199.909 421.403 199.899 421.683C199.901 421.815 199.888 421.948 199.861 422.078Z" fill="#455A64"/>
<path d="M192.548 343.666C190.938 344.2 189.279 344.571 187.596 344.775C185.531 345.131 183.772 345.382 182.979 345.42V345.228C183.237 345.305 183.371 345.353 183.371 345.392C183.371 345.43 183.208 345.392 182.94 345.392H182.367L182.94 345.218C183.686 344.996 185.445 344.63 187.51 344.254C189.166 343.892 190.854 343.695 192.548 343.666Z" fill="#455A64"/>
<path d="M192.156 346.433C190.665 346.502 189.171 346.434 187.692 346.23C186.198 346.199 184.711 346.035 183.246 345.739C186.234 345.493 189.241 345.727 192.156 346.433Z" fill="#455A64"/>
<path opacity="0.2" d="M145.465 273.545C145.967 274.195 146.6 274.731 147.321 275.118C148.043 275.505 148.837 275.734 149.652 275.791C151.36 275.995 153.087 275.962 154.786 275.694C165.732 274.47 177.329 273.342 188.045 270.71C174.174 271.491 159.518 271.231 145.647 272.012L145.503 273.207" fill="black"/>
<g opacity="0.2">
<path d="M159.757 293.258L167.577 323.856L167.032 294.55L159.757 293.258Z" fill="black"/>
</g>
</svg>
