<svg width="121" height="85" viewBox="0 0 121 85" fill="none" xmlns="http://www.w3.org/2000/svg">
<path d="M114.018 25.1269C106.905 17.4457 89.7955 9.71777 71.9722 24.3435C60.1801 33.9831 55.3204 46.8593 69.3159 61.9739C83.3195 76.9724 97.4714 74.1312 109.263 64.4917C127.095 49.7498 121.13 32.8081 114.018 25.1269Z" fill="#F1FAEE"/>
<path d="M80.5746 70.3831L61.9905 50.3129C61.9905 50.3129 65.5219 59.7516 57.9091 66.1547C57.9091 66.1547 51.4845 71.4661 44.724 76.2898C45.3631 77.73 45.109 77.8306 47.5099 80.5484C49.5748 82.7785 49.7141 82.5539 50.8941 83.3283C56.8598 77.5213 63.4155 72.1015 63.4155 72.1015C71.1431 65.8222 80.5746 70.3831 80.5746 70.3831Z" fill="#FED0AC"/>
<path d="M51.0334 83.1037C55.4012 78.9459 60.1295 74.9275 62.2273 73.1932L73.6916 62.9497L68.8735 57.7463L56.6062 67.1226C54.3854 68.8491 49.5424 72.7437 44.601 76.282C45.2402 77.7222 44.9861 77.8229 47.387 80.5407C49.4519 82.7707 49.5912 82.5462 50.7712 83.3205L51.0334 83.1037Z" fill="#A0153E"/>
<path d="M49.0012 82.159C49.6977 82.7862 50.0583 82.9256 50.7712 83.3205C50.9023 83.2121 50.9023 83.2121 51.0252 83.2199C55.393 79.0621 60.1213 75.0437 62.2191 73.3093L73.6834 63.0658L70.6187 64.5059L49.0012 82.159Z" fill="#A0153E"/>
<path d="M80.5746 70.3831L73.6916 62.9497L63.0222 72.4267C65.12 70.6923 71.4462 66.7746 80.5746 70.3831Z" fill="white"/>
<path d="M61.9905 50.3129L68.8735 57.7463L57.5158 66.4799C59.6218 64.6294 64.5632 59.3412 61.9905 50.3129Z" fill="white"/>
<path d="M57.8626 18.7201C63.2254 19.0581 67.8629 15.2242 68.2206 10.1568C68.5783 5.08942 64.5208 0.707496 59.1579 0.369496C53.7951 0.0314967 49.1576 3.86542 48.7999 8.93281C48.4422 14.0002 52.4997 18.3821 57.8626 18.7201Z" fill="white"/>
<path d="M7.68671 24.4617C0.255941 31.8689 -6.29232 48.6858 10.7802 64.0905C22.0365 74.2859 36.0572 77.6578 50.6791 63.0822C65.1777 48.5097 60.8649 35.4607 49.6086 25.2653C32.413 9.86363 15.1175 17.0544 7.68671 24.4617Z" fill="#2F6D70"/>
<path d="M58.4904 51.7063L39.0745 71.0607C39.0745 71.0607 48.691 66.8586 56.1476 73.4239C56.1476 73.4239 62.343 78.973 68.0558 84.8836C69.5138 84.1481 69.6435 84.3777 72.2835 81.8657C74.4409 79.7152 74.1913 79.6051 74.8972 78.4228C68.2223 73.3516 61.9004 67.6892 61.9004 67.6892C54.5637 61.0045 58.4904 51.7063 58.4904 51.7063Z" fill="#FED0AC"/>
<path d="M74.6476 78.3127C69.8594 74.5911 65.1845 70.5173 63.1615 68.7053L51.2993 58.8746L46.2656 63.8924L57.2888 74.5594C59.3151 76.4878 63.8702 80.681 68.0591 85C69.5171 84.2645 69.6468 84.4941 72.2868 81.9821C74.4442 79.8316 74.1946 79.7215 74.9005 78.5392L74.6476 78.3127Z" fill="#D6DEEA"/>
<path d="M73.8416 80.3126C74.4376 79.5989 74.5508 79.2467 74.9005 78.5392C74.7741 78.4259 74.7741 78.4259 74.7708 78.3096C69.9826 74.588 65.3077 70.5142 63.2846 68.7022L51.4225 58.8715L53.2256 61.6205L73.8416 80.3126Z" fill="#00224D"/>
<path d="M58.4904 51.7063L51.2993 58.8746L62.2797 68.0289C60.2567 66.217 55.539 60.6305 58.4904 51.7063Z" fill="white"/>
<path d="M39.0745 71.0607L46.2656 63.8924L56.5269 73.7636C54.3807 71.9548 48.3479 67.7988 39.0745 71.0607Z" fill="white"/>
<path d="M73.8814 8.94991C73.7377 3.87308 69.2656 -0.132433 63.8928 0.00335277C58.5199 0.139138 54.2808 4.3648 54.4245 9.44163C54.5682 14.5185 59.0403 18.524 64.4132 18.3882C69.786 18.2524 74.0251 14.0267 73.8814 8.94991Z" fill="#2F6D70"/>
</svg>
