<svg width="74" height="74" viewBox="0 0 74 74" fill="none" xmlns="http://www.w3.org/2000/svg">
<g clip-path="url(#clip0_2485_2359)">
<path d="M43.4356 19.4811C46.9459 31.1821 41.9144 49.6698 30.2134 53.0631C18.5124 56.5734 4.35411 43.7022 0.843795 32.0012C-2.66652 20.3002 5.17318 11.5244 16.9912 8.13108C28.6923 4.62077 39.9253 7.66304 43.4356 19.4811Z" fill="#46CCDA"/>
<path d="M16.9912 8.01442C28.6923 4.50411 40.0423 7.66339 43.4356 19.3644C46.9459 31.0655 41.9144 49.5531 30.2134 52.9464" fill="#46CCDA"/>
<path d="M39.1063 64.2966L34.1919 66.6368L28.8094 67.3389L26.1182 48.3832L28.1073 46.043L31.1496 46.9791L39.1063 64.2966Z" fill="#D89621"/>
<path d="M28.1074 46.043L31.1497 46.9791L39.1064 64.2966L34.192 66.6368" fill="#BC7A0F"/>
<path d="M13.7148 49.2023C18.8633 52.8296 24.7138 54.7018 30.2133 53.0636C35.5958 51.4255 39.5741 46.7451 41.9143 40.8945L13.7148 49.2023Z" fill="#D89621"/>
<path d="M30.2134 53.0636C35.5959 51.4255 39.5742 46.7451 41.9144 40.8945L30.2134 53.0636Z" fill="#BC7A0F"/>
<path d="M26.1178 49.3962L31.7305 47.7471L31.2687 46.1754L25.656 47.8246L26.1178 49.3962Z" fill="#8E1313"/>
<path d="M30.5646 19.4811C27.0543 31.1821 32.0857 49.6698 43.7868 53.0631C55.4878 56.5734 69.646 43.7022 73.1564 32.0012C76.6667 20.3002 68.827 11.5244 57.0089 8.13108C45.3079 4.62077 34.0749 7.66304 30.5646 19.4811Z" fill="#038491"/>
<path d="M57.0089 8.01442C45.3079 4.50411 33.9579 7.66339 30.5646 19.3644C27.0543 31.0655 32.0857 49.5531 43.7868 52.9464" fill="#0CA6BF"/>
<path d="M34.894 64.2966L39.8085 66.6368L45.191 67.3389L47.8822 48.3832L45.893 46.043L42.8507 46.9791L34.894 64.2966Z" fill="#BC7A0F"/>
<path d="M45.893 46.043L42.8507 46.9791L34.894 64.2966L39.8085 66.6368" fill="#D89621"/>
<path d="M60.285 49.2023C55.1365 52.8296 49.286 54.7018 43.7865 53.0636C38.404 51.4255 34.4257 46.7451 32.0854 40.8945L60.285 49.2023Z" fill="#BC7A0F"/>
<path d="M43.7865 53.0636C38.404 51.4255 34.4257 46.7451 32.0854 40.8945L43.7865 53.0636Z" fill="#D89621"/>
<path d="M48.3271 47.7898L42.7144 46.1406L42.2526 47.7123L47.8653 49.3614L48.3271 47.7898Z" fill="#8E1313"/>
<path d="M37.0001 37.969C41.5884 37.969 45.3079 34.2495 45.3079 29.6613C45.3079 25.073 41.5884 21.3535 37.0001 21.3535C32.4119 21.3535 28.6924 25.073 28.6924 29.6613C28.6924 34.2495 32.4119 37.969 37.0001 37.969Z" fill="#E6E8E8"/>
<path d="M42.8505 23.8105C46.1267 27.0868 46.1267 32.3523 42.8505 35.5116C39.5742 38.7879 34.4257 38.7879 31.1494 35.5116" fill="#C3C9C9"/>
</g>
<defs>
<clipPath id="clip0_2485_2359">
<rect width="74" height="74" fill="white"/>
</clipPath>
</defs>
</svg>
