<svg width="351" height="305" viewBox="0 0 351 305" fill="none" xmlns="http://www.w3.org/2000/svg">
<mask id="path-1-inside-1_2655_2408" fill="white">
<path fill-rule="evenodd" clip-rule="evenodd" d="M0 4.99999C0 2.23857 2.23858 0 5 0H346C348.761 0 351 2.23858 351 5V300C351 302.761 348.761 305 346 305H5.00001C2.23858 305 0 302.761 0 300V4.99999ZM48.5015 31.0406C48.5015 40.7301 40.66 48.5849 30.9871 48.5849C21.3141 48.5849 13.4727 40.7301 13.4727 31.0406C13.4727 21.3512 21.3141 13.4964 30.9871 13.4964C40.66 13.4964 48.5015 21.3512 48.5015 31.0406ZM30.9871 97.168C40.66 97.168 48.5015 89.3132 48.5015 79.6238C48.5015 69.9343 40.66 62.0795 30.9871 62.0795C21.3141 62.0795 13.4727 69.9343 13.4727 79.6238C13.4727 89.3132 21.3141 97.168 30.9871 97.168ZM48.5015 128.209C48.5015 137.898 40.66 145.753 30.9871 145.753C21.3141 145.753 13.4727 137.898 13.4727 128.209C13.4727 118.519 21.3141 110.665 30.9871 110.665C40.66 110.665 48.5015 118.519 48.5015 128.209ZM30.9871 194.337C40.66 194.337 48.5015 186.482 48.5015 176.793C48.5015 167.104 40.66 159.249 30.9871 159.249C21.3141 159.249 13.4727 167.104 13.4727 176.793C13.4727 186.482 21.3141 194.337 30.9871 194.337ZM48.5015 225.376C48.5015 235.065 40.66 242.92 30.9871 242.92C21.3141 242.92 13.4727 235.065 13.4727 225.376C13.4727 215.687 21.3141 207.832 30.9871 207.832C40.66 207.832 48.5015 215.687 48.5015 225.376ZM30.9871 291.504C40.66 291.504 48.5015 283.65 48.5015 273.96C48.5015 264.271 40.66 256.416 30.9871 256.416C21.3141 256.416 13.4727 264.271 13.4727 273.96C13.4727 283.65 21.3141 291.504 30.9871 291.504ZM145.505 31.0406C145.505 40.7301 137.663 48.5849 127.99 48.5849C118.317 48.5849 110.476 40.7301 110.476 31.0406C110.476 21.3512 118.317 13.4964 127.99 13.4964C137.663 13.4964 145.505 21.3512 145.505 31.0406ZM127.99 97.168C137.663 97.168 145.505 89.3132 145.505 79.6238C145.505 69.9343 137.663 62.0795 127.99 62.0795C118.317 62.0795 110.476 69.9343 110.476 79.6238C110.476 89.3132 118.317 97.168 127.99 97.168ZM145.505 128.209C145.505 137.898 137.663 145.753 127.99 145.753C118.317 145.753 110.476 137.898 110.476 128.209C110.476 118.519 118.317 110.665 127.99 110.665C137.663 110.665 145.505 118.519 145.505 128.209ZM127.99 194.337C137.663 194.337 145.505 186.482 145.505 176.793C145.505 167.104 137.663 159.249 127.99 159.249C118.317 159.249 110.476 167.104 110.476 176.793C110.476 186.482 118.317 194.337 127.99 194.337ZM145.505 225.376C145.505 235.065 137.663 242.92 127.99 242.92C118.317 242.92 110.476 235.065 110.476 225.376C110.476 215.687 118.317 207.832 127.99 207.832C137.663 207.832 145.505 215.687 145.505 225.376ZM127.99 291.504C137.663 291.504 145.505 283.65 145.505 273.96C145.505 264.271 137.663 256.416 127.99 256.416C118.317 256.416 110.476 264.271 110.476 273.96C110.476 283.65 118.317 291.504 127.99 291.504ZM242.507 31.0406C242.507 40.7301 234.666 48.5849 224.993 48.5849C215.32 48.5849 207.479 40.7301 207.479 31.0406C207.479 21.3512 215.32 13.4964 224.993 13.4964C234.666 13.4964 242.507 21.3512 242.507 31.0406ZM224.993 97.168C234.666 97.168 242.507 89.3132 242.507 79.6238C242.507 69.9343 234.666 62.0795 224.993 62.0795C215.32 62.0795 207.479 69.9343 207.479 79.6238C207.479 89.3132 215.32 97.168 224.993 97.168ZM242.507 128.209C242.507 137.898 234.666 145.753 224.993 145.753C215.32 145.753 207.479 137.898 207.479 128.209C207.479 118.519 215.32 110.665 224.993 110.665C234.666 110.665 242.507 118.519 242.507 128.209ZM224.993 194.337C234.666 194.337 242.507 186.482 242.507 176.793C242.507 167.104 234.666 159.249 224.993 159.249C215.32 159.249 207.479 167.104 207.479 176.793C207.479 186.482 215.32 194.337 224.993 194.337ZM242.507 225.376C242.507 235.065 234.666 242.92 224.993 242.92C215.32 242.92 207.479 235.065 207.479 225.376C207.479 215.687 215.32 207.832 224.993 207.832C234.666 207.832 242.507 215.687 242.507 225.376ZM224.993 291.504C234.666 291.504 242.507 283.65 242.507 273.96C242.507 264.271 234.666 256.416 224.993 256.416C215.32 256.416 207.479 264.271 207.479 273.96C207.479 283.65 215.32 291.504 224.993 291.504ZM97.0035 31.0406C97.0035 40.7301 89.162 48.5849 79.489 48.5849C69.8161 48.5849 61.9746 40.7301 61.9746 31.0406C61.9746 21.3512 69.8161 13.4964 79.489 13.4964C89.162 13.4964 97.0035 21.3512 97.0035 31.0406ZM79.489 97.168C89.162 97.168 97.0035 89.3132 97.0035 79.6238C97.0035 69.9343 89.162 62.0795 79.489 62.0795C69.8161 62.0795 61.9746 69.9343 61.9746 79.6238C61.9746 89.3132 69.8161 97.168 79.489 97.168ZM97.0035 128.209C97.0035 137.898 89.162 145.753 79.489 145.753C69.8161 145.753 61.9746 137.898 61.9746 128.209C61.9746 118.519 69.8161 110.665 79.489 110.665C89.162 110.665 97.0035 118.519 97.0035 128.209ZM79.489 194.337C89.162 194.337 97.0035 186.482 97.0035 176.793C97.0035 167.104 89.162 159.249 79.489 159.249C69.8161 159.249 61.9746 167.104 61.9746 176.793C61.9746 186.482 69.8161 194.337 79.489 194.337ZM97.0035 225.376C97.0035 235.065 89.162 242.92 79.489 242.92C69.8161 242.92 61.9746 235.065 61.9746 225.376C61.9746 215.687 69.8161 207.832 79.489 207.832C89.162 207.832 97.0035 215.687 97.0035 225.376ZM79.489 291.504C89.162 291.504 97.0035 283.65 97.0035 273.96C97.0035 264.271 89.162 256.416 79.489 256.416C69.8161 256.416 61.9746 264.271 61.9746 273.96C61.9746 283.65 69.8161 291.504 79.489 291.504ZM194.006 31.0406C194.006 40.7301 186.165 48.5849 176.492 48.5849C166.819 48.5849 158.978 40.7301 158.978 31.0406C158.978 21.3512 166.819 13.4964 176.492 13.4964C186.165 13.4964 194.006 21.3512 194.006 31.0406ZM176.492 97.168C186.165 97.168 194.006 89.3132 194.006 79.6238C194.006 69.9343 186.165 62.0795 176.492 62.0795C166.819 62.0795 158.978 69.9343 158.978 79.6238C158.978 89.3132 166.819 97.168 176.492 97.168ZM194.006 128.209C194.006 137.898 186.165 145.753 176.492 145.753C166.819 145.753 158.978 137.898 158.978 128.209C158.978 118.519 166.819 110.665 176.492 110.665C186.165 110.665 194.006 118.519 194.006 128.209ZM176.492 194.337C186.165 194.337 194.006 186.482 194.006 176.793C194.006 167.104 186.165 159.249 176.492 159.249C166.819 159.249 158.978 167.104 158.978 176.793C158.978 186.482 166.819 194.337 176.492 194.337ZM194.006 225.376C194.006 235.065 186.165 242.92 176.492 242.92C166.819 242.92 158.978 235.065 158.978 225.376C158.978 215.687 166.819 207.832 176.492 207.832C186.165 207.832 194.006 215.687 194.006 225.376ZM176.492 291.504C186.165 291.504 194.006 283.65 194.006 273.96C194.006 264.271 186.165 256.416 176.492 256.416C166.819 256.416 158.978 264.271 158.978 273.96C158.978 283.65 166.819 291.504 176.492 291.504ZM291.009 31.0406C291.009 40.7301 283.168 48.5849 273.495 48.5849C263.822 48.5849 255.98 40.7301 255.98 31.0406C255.98 21.3512 263.822 13.4964 273.495 13.4964C283.168 13.4964 291.009 21.3512 291.009 31.0406ZM273.495 97.168C283.168 97.168 291.009 89.3132 291.009 79.6238C291.009 69.9343 283.168 62.0795 273.495 62.0795C263.822 62.0795 255.98 69.9343 255.98 79.6238C255.98 89.3132 263.822 97.168 273.495 97.168ZM291.009 128.209C291.009 137.898 283.168 145.753 273.495 145.753C263.822 145.753 255.98 137.898 255.98 128.209C255.98 118.519 263.822 110.665 273.495 110.665C283.168 110.665 291.009 118.519 291.009 128.209ZM273.495 194.337C283.168 194.337 291.009 186.482 291.009 176.793C291.009 167.104 283.168 159.249 273.495 159.249C263.822 159.249 255.98 167.104 255.98 176.793C255.98 186.482 263.822 194.337 273.495 194.337ZM291.009 225.376C291.009 235.065 283.168 242.92 273.495 242.92C263.822 242.92 255.98 235.065 255.98 225.376C255.98 215.687 263.822 207.832 273.495 207.832C283.168 207.832 291.009 215.687 291.009 225.376ZM273.495 291.504C283.168 291.504 291.009 283.65 291.009 273.96C291.009 264.271 283.168 256.416 273.495 256.416C263.822 256.416 255.98 264.271 255.98 273.96C255.98 283.65 263.822 291.504 273.495 291.504ZM339.511 31.0406C339.511 40.7301 331.669 48.5849 321.996 48.5849C312.323 48.5849 304.482 40.7301 304.482 31.0406C304.482 21.3512 312.323 13.4964 321.996 13.4964C331.669 13.4964 339.511 21.3512 339.511 31.0406ZM321.996 97.168C331.669 97.168 339.511 89.3132 339.511 79.6238C339.511 69.9343 331.669 62.0795 321.996 62.0795C312.323 62.0795 304.482 69.9343 304.482 79.6238C304.482 89.3132 312.323 97.168 321.996 97.168ZM339.511 128.209C339.511 137.898 331.669 145.753 321.996 145.753C312.323 145.753 304.482 137.898 304.482 128.209C304.482 118.519 312.323 110.665 321.996 110.665C331.669 110.665 339.511 118.519 339.511 128.209ZM321.996 194.337C331.669 194.337 339.511 186.482 339.511 176.793C339.511 167.104 331.669 159.249 321.996 159.249C312.323 159.249 304.482 167.104 304.482 176.793C304.482 186.482 312.323 194.337 321.996 194.337ZM339.511 225.376C339.511 235.065 331.669 242.92 321.996 242.92C312.323 242.92 304.482 235.065 304.482 225.376C304.482 215.687 312.323 207.832 321.996 207.832C331.669 207.832 339.511 215.687 339.511 225.376ZM321.996 291.504C331.669 291.504 339.511 283.65 339.511 273.96C339.511 264.271 331.669 256.416 321.996 256.416C312.323 256.416 304.482 264.271 304.482 273.96C304.482 283.65 312.323 291.504 321.996 291.504Z"/>
</mask>
<path fill-rule="evenodd" clip-rule="evenodd" d="M0 4.99999C0 2.23857 2.23858 0 5 0H346C348.761 0 351 2.23858 351 5V300C351 302.761 348.761 305 346 305H5.00001C2.23858 305 0 302.761 0 300V4.99999ZM48.5015 31.0406C48.5015 40.7301 40.66 48.5849 30.9871 48.5849C21.3141 48.5849 13.4727 40.7301 13.4727 31.0406C13.4727 21.3512 21.3141 13.4964 30.9871 13.4964C40.66 13.4964 48.5015 21.3512 48.5015 31.0406ZM30.9871 97.168C40.66 97.168 48.5015 89.3132 48.5015 79.6238C48.5015 69.9343 40.66 62.0795 30.9871 62.0795C21.3141 62.0795 13.4727 69.9343 13.4727 79.6238C13.4727 89.3132 21.3141 97.168 30.9871 97.168ZM48.5015 128.209C48.5015 137.898 40.66 145.753 30.9871 145.753C21.3141 145.753 13.4727 137.898 13.4727 128.209C13.4727 118.519 21.3141 110.665 30.9871 110.665C40.66 110.665 48.5015 118.519 48.5015 128.209ZM30.9871 194.337C40.66 194.337 48.5015 186.482 48.5015 176.793C48.5015 167.104 40.66 159.249 30.9871 159.249C21.3141 159.249 13.4727 167.104 13.4727 176.793C13.4727 186.482 21.3141 194.337 30.9871 194.337ZM48.5015 225.376C48.5015 235.065 40.66 242.92 30.9871 242.92C21.3141 242.92 13.4727 235.065 13.4727 225.376C13.4727 215.687 21.3141 207.832 30.9871 207.832C40.66 207.832 48.5015 215.687 48.5015 225.376ZM30.9871 291.504C40.66 291.504 48.5015 283.65 48.5015 273.96C48.5015 264.271 40.66 256.416 30.9871 256.416C21.3141 256.416 13.4727 264.271 13.4727 273.96C13.4727 283.65 21.3141 291.504 30.9871 291.504ZM145.505 31.0406C145.505 40.7301 137.663 48.5849 127.99 48.5849C118.317 48.5849 110.476 40.7301 110.476 31.0406C110.476 21.3512 118.317 13.4964 127.99 13.4964C137.663 13.4964 145.505 21.3512 145.505 31.0406ZM127.99 97.168C137.663 97.168 145.505 89.3132 145.505 79.6238C145.505 69.9343 137.663 62.0795 127.99 62.0795C118.317 62.0795 110.476 69.9343 110.476 79.6238C110.476 89.3132 118.317 97.168 127.99 97.168ZM145.505 128.209C145.505 137.898 137.663 145.753 127.99 145.753C118.317 145.753 110.476 137.898 110.476 128.209C110.476 118.519 118.317 110.665 127.99 110.665C137.663 110.665 145.505 118.519 145.505 128.209ZM127.99 194.337C137.663 194.337 145.505 186.482 145.505 176.793C145.505 167.104 137.663 159.249 127.99 159.249C118.317 159.249 110.476 167.104 110.476 176.793C110.476 186.482 118.317 194.337 127.99 194.337ZM145.505 225.376C145.505 235.065 137.663 242.92 127.99 242.92C118.317 242.92 110.476 235.065 110.476 225.376C110.476 215.687 118.317 207.832 127.99 207.832C137.663 207.832 145.505 215.687 145.505 225.376ZM127.99 291.504C137.663 291.504 145.505 283.65 145.505 273.96C145.505 264.271 137.663 256.416 127.99 256.416C118.317 256.416 110.476 264.271 110.476 273.96C110.476 283.65 118.317 291.504 127.99 291.504ZM242.507 31.0406C242.507 40.7301 234.666 48.5849 224.993 48.5849C215.32 48.5849 207.479 40.7301 207.479 31.0406C207.479 21.3512 215.32 13.4964 224.993 13.4964C234.666 13.4964 242.507 21.3512 242.507 31.0406ZM224.993 97.168C234.666 97.168 242.507 89.3132 242.507 79.6238C242.507 69.9343 234.666 62.0795 224.993 62.0795C215.32 62.0795 207.479 69.9343 207.479 79.6238C207.479 89.3132 215.32 97.168 224.993 97.168ZM242.507 128.209C242.507 137.898 234.666 145.753 224.993 145.753C215.32 145.753 207.479 137.898 207.479 128.209C207.479 118.519 215.32 110.665 224.993 110.665C234.666 110.665 242.507 118.519 242.507 128.209ZM224.993 194.337C234.666 194.337 242.507 186.482 242.507 176.793C242.507 167.104 234.666 159.249 224.993 159.249C215.32 159.249 207.479 167.104 207.479 176.793C207.479 186.482 215.32 194.337 224.993 194.337ZM242.507 225.376C242.507 235.065 234.666 242.92 224.993 242.92C215.32 242.92 207.479 235.065 207.479 225.376C207.479 215.687 215.32 207.832 224.993 207.832C234.666 207.832 242.507 215.687 242.507 225.376ZM224.993 291.504C234.666 291.504 242.507 283.65 242.507 273.96C242.507 264.271 234.666 256.416 224.993 256.416C215.32 256.416 207.479 264.271 207.479 273.96C207.479 283.65 215.32 291.504 224.993 291.504ZM97.0035 31.0406C97.0035 40.7301 89.162 48.5849 79.489 48.5849C69.8161 48.5849 61.9746 40.7301 61.9746 31.0406C61.9746 21.3512 69.8161 13.4964 79.489 13.4964C89.162 13.4964 97.0035 21.3512 97.0035 31.0406ZM79.489 97.168C89.162 97.168 97.0035 89.3132 97.0035 79.6238C97.0035 69.9343 89.162 62.0795 79.489 62.0795C69.8161 62.0795 61.9746 69.9343 61.9746 79.6238C61.9746 89.3132 69.8161 97.168 79.489 97.168ZM97.0035 128.209C97.0035 137.898 89.162 145.753 79.489 145.753C69.8161 145.753 61.9746 137.898 61.9746 128.209C61.9746 118.519 69.8161 110.665 79.489 110.665C89.162 110.665 97.0035 118.519 97.0035 128.209ZM79.489 194.337C89.162 194.337 97.0035 186.482 97.0035 176.793C97.0035 167.104 89.162 159.249 79.489 159.249C69.8161 159.249 61.9746 167.104 61.9746 176.793C61.9746 186.482 69.8161 194.337 79.489 194.337ZM97.0035 225.376C97.0035 235.065 89.162 242.92 79.489 242.92C69.8161 242.92 61.9746 235.065 61.9746 225.376C61.9746 215.687 69.8161 207.832 79.489 207.832C89.162 207.832 97.0035 215.687 97.0035 225.376ZM79.489 291.504C89.162 291.504 97.0035 283.65 97.0035 273.96C97.0035 264.271 89.162 256.416 79.489 256.416C69.8161 256.416 61.9746 264.271 61.9746 273.96C61.9746 283.65 69.8161 291.504 79.489 291.504ZM194.006 31.0406C194.006 40.7301 186.165 48.5849 176.492 48.5849C166.819 48.5849 158.978 40.7301 158.978 31.0406C158.978 21.3512 166.819 13.4964 176.492 13.4964C186.165 13.4964 194.006 21.3512 194.006 31.0406ZM176.492 97.168C186.165 97.168 194.006 89.3132 194.006 79.6238C194.006 69.9343 186.165 62.0795 176.492 62.0795C166.819 62.0795 158.978 69.9343 158.978 79.6238C158.978 89.3132 166.819 97.168 176.492 97.168ZM194.006 128.209C194.006 137.898 186.165 145.753 176.492 145.753C166.819 145.753 158.978 137.898 158.978 128.209C158.978 118.519 166.819 110.665 176.492 110.665C186.165 110.665 194.006 118.519 194.006 128.209ZM176.492 194.337C186.165 194.337 194.006 186.482 194.006 176.793C194.006 167.104 186.165 159.249 176.492 159.249C166.819 159.249 158.978 167.104 158.978 176.793C158.978 186.482 166.819 194.337 176.492 194.337ZM194.006 225.376C194.006 235.065 186.165 242.92 176.492 242.92C166.819 242.92 158.978 235.065 158.978 225.376C158.978 215.687 166.819 207.832 176.492 207.832C186.165 207.832 194.006 215.687 194.006 225.376ZM176.492 291.504C186.165 291.504 194.006 283.65 194.006 273.96C194.006 264.271 186.165 256.416 176.492 256.416C166.819 256.416 158.978 264.271 158.978 273.96C158.978 283.65 166.819 291.504 176.492 291.504ZM291.009 31.0406C291.009 40.7301 283.168 48.5849 273.495 48.5849C263.822 48.5849 255.98 40.7301 255.98 31.0406C255.98 21.3512 263.822 13.4964 273.495 13.4964C283.168 13.4964 291.009 21.3512 291.009 31.0406ZM273.495 97.168C283.168 97.168 291.009 89.3132 291.009 79.6238C291.009 69.9343 283.168 62.0795 273.495 62.0795C263.822 62.0795 255.98 69.9343 255.98 79.6238C255.98 89.3132 263.822 97.168 273.495 97.168ZM291.009 128.209C291.009 137.898 283.168 145.753 273.495 145.753C263.822 145.753 255.98 137.898 255.98 128.209C255.98 118.519 263.822 110.665 273.495 110.665C283.168 110.665 291.009 118.519 291.009 128.209ZM273.495 194.337C283.168 194.337 291.009 186.482 291.009 176.793C291.009 167.104 283.168 159.249 273.495 159.249C263.822 159.249 255.98 167.104 255.98 176.793C255.98 186.482 263.822 194.337 273.495 194.337ZM291.009 225.376C291.009 235.065 283.168 242.92 273.495 242.92C263.822 242.92 255.98 235.065 255.98 225.376C255.98 215.687 263.822 207.832 273.495 207.832C283.168 207.832 291.009 215.687 291.009 225.376ZM273.495 291.504C283.168 291.504 291.009 283.65 291.009 273.96C291.009 264.271 283.168 256.416 273.495 256.416C263.822 256.416 255.98 264.271 255.98 273.96C255.98 283.65 263.822 291.504 273.495 291.504ZM339.511 31.0406C339.511 40.7301 331.669 48.5849 321.996 48.5849C312.323 48.5849 304.482 40.7301 304.482 31.0406C304.482 21.3512 312.323 13.4964 321.996 13.4964C331.669 13.4964 339.511 21.3512 339.511 31.0406ZM321.996 97.168C331.669 97.168 339.511 89.3132 339.511 79.6238C339.511 69.9343 331.669 62.0795 321.996 62.0795C312.323 62.0795 304.482 69.9343 304.482 79.6238C304.482 89.3132 312.323 97.168 321.996 97.168ZM339.511 128.209C339.511 137.898 331.669 145.753 321.996 145.753C312.323 145.753 304.482 137.898 304.482 128.209C304.482 118.519 312.323 110.665 321.996 110.665C331.669 110.665 339.511 118.519 339.511 128.209ZM321.996 194.337C331.669 194.337 339.511 186.482 339.511 176.793C339.511 167.104 331.669 159.249 321.996 159.249C312.323 159.249 304.482 167.104 304.482 176.793C304.482 186.482 312.323 194.337 321.996 194.337ZM339.511 225.376C339.511 235.065 331.669 242.92 321.996 242.92C312.323 242.92 304.482 235.065 304.482 225.376C304.482 215.687 312.323 207.832 321.996 207.832C331.669 207.832 339.511 215.687 339.511 225.376ZM321.996 291.504C331.669 291.504 339.511 283.65 339.511 273.96C339.511 264.271 331.669 256.416 321.996 256.416C312.323 256.416 304.482 264.271 304.482 273.96C304.482 283.65 312.323 291.504 321.996 291.504Z" fill="#EAE6E6"/>
<path d="M5 -1C1.68629 -1 -1 1.68628 -1 4.99999H1C1 2.79086 2.79086 1 5 1V-1ZM346 -1H5V1H346V-1ZM352 5C352 1.68629 349.314 -1 346 -1V1C348.209 1 350 2.79086 350 5H352ZM352 300V5H350V300H352ZM346 306C349.314 306 352 303.314 352 300H350C350 302.209 348.209 304 346 304V306ZM5.00001 306H346V304H5.00001V306ZM-1 300C-1 303.314 1.6863 306 5.00001 306V304C2.79087 304 1 302.209 1 300H-1ZM-1 4.99999V300H1V4.99999H-1ZM30.9871 49.5849C41.2139 49.5849 49.5015 41.2807 49.5015 31.0406H47.5015C47.5015 40.1794 40.1061 47.5849 30.9871 47.5849V49.5849ZM12.4727 31.0406C12.4727 41.2807 20.7602 49.5849 30.9871 49.5849V47.5849C21.868 47.5849 14.4727 40.1794 14.4727 31.0406H12.4727ZM30.9871 12.4964C20.7602 12.4964 12.4727 20.8005 12.4727 31.0406H14.4727C14.4727 21.9019 21.868 14.4964 30.9871 14.4964V12.4964ZM49.5015 31.0406C49.5015 20.8005 41.2139 12.4964 30.9871 12.4964V14.4964C40.1061 14.4964 47.5015 21.9019 47.5015 31.0406H49.5015ZM47.5015 79.6238C47.5015 88.7625 40.1061 96.168 30.9871 96.168V98.168C41.2139 98.168 49.5015 89.8639 49.5015 79.6238H47.5015ZM30.9871 63.0795C40.1061 63.0795 47.5015 70.485 47.5015 79.6238H49.5015C49.5015 69.3837 41.2139 61.0795 30.9871 61.0795V63.0795ZM14.4727 79.6238C14.4727 70.485 21.868 63.0795 30.9871 63.0795V61.0795C20.7602 61.0795 12.4727 69.3837 12.4727 79.6238H14.4727ZM30.9871 96.168C21.868 96.168 14.4727 88.7625 14.4727 79.6238H12.4727C12.4727 89.8639 20.7602 98.168 30.9871 98.168V96.168ZM30.9871 146.753C41.2139 146.753 49.5015 138.449 49.5015 128.209H47.5015C47.5015 137.348 40.1061 144.753 30.9871 144.753V146.753ZM12.4727 128.209C12.4727 138.449 20.7602 146.753 30.9871 146.753V144.753C21.868 144.753 14.4727 137.348 14.4727 128.209H12.4727ZM30.9871 109.665C20.7602 109.665 12.4727 117.969 12.4727 128.209H14.4727C14.4727 119.07 21.868 111.665 30.9871 111.665V109.665ZM49.5015 128.209C49.5015 117.969 41.2139 109.665 30.9871 109.665V111.665C40.1061 111.665 47.5015 119.07 47.5015 128.209H49.5015ZM47.5015 176.793C47.5015 185.932 40.1061 193.337 30.9871 193.337V195.337C41.2139 195.337 49.5015 187.033 49.5015 176.793H47.5015ZM30.9871 160.249C40.1061 160.249 47.5015 167.654 47.5015 176.793H49.5015C49.5015 166.553 41.2139 158.249 30.9871 158.249V160.249ZM14.4727 176.793C14.4727 167.654 21.868 160.249 30.9871 160.249V158.249C20.7602 158.249 12.4727 166.553 12.4727 176.793H14.4727ZM30.9871 193.337C21.868 193.337 14.4727 185.932 14.4727 176.793H12.4727C12.4727 187.033 20.7602 195.337 30.9871 195.337V193.337ZM30.9871 243.92C41.2139 243.92 49.5015 235.616 49.5015 225.376H47.5015C47.5015 234.515 40.1061 241.92 30.9871 241.92V243.92ZM12.4727 225.376C12.4727 235.616 20.7602 243.92 30.9871 243.92V241.92C21.868 241.92 14.4727 234.515 14.4727 225.376H12.4727ZM30.9871 206.832C20.7602 206.832 12.4727 215.136 12.4727 225.376H14.4727C14.4727 216.237 21.868 208.832 30.9871 208.832V206.832ZM49.5015 225.376C49.5015 215.136 41.2139 206.832 30.9871 206.832V208.832C40.1061 208.832 47.5015 216.237 47.5015 225.376H49.5015ZM47.5015 273.96C47.5015 283.099 40.1061 290.504 30.9871 290.504V292.504C41.2139 292.504 49.5015 284.2 49.5015 273.96H47.5015ZM30.9871 257.416C40.1061 257.416 47.5015 264.821 47.5015 273.96H49.5015C49.5015 263.72 41.2139 255.416 30.9871 255.416V257.416ZM14.4727 273.96C14.4727 264.821 21.868 257.416 30.9871 257.416V255.416C20.7602 255.416 12.4727 263.72 12.4727 273.96H14.4727ZM30.9871 290.504C21.868 290.504 14.4727 283.099 14.4727 273.96H12.4727C12.4727 284.2 20.7602 292.504 30.9871 292.504V290.504ZM127.99 49.5849C138.217 49.5849 146.505 41.2807 146.505 31.0406H144.505C144.505 40.1794 137.109 47.5849 127.99 47.5849V49.5849ZM109.476 31.0406C109.476 41.2807 117.763 49.5849 127.99 49.5849V47.5849C118.871 47.5849 111.476 40.1794 111.476 31.0406H109.476ZM127.99 12.4964C117.763 12.4964 109.476 20.8005 109.476 31.0406H111.476C111.476 21.9019 118.871 14.4964 127.99 14.4964V12.4964ZM146.505 31.0406C146.505 20.8005 138.217 12.4964 127.99 12.4964V14.4964C137.109 14.4964 144.505 21.9019 144.505 31.0406H146.505ZM144.505 79.6238C144.505 88.7625 137.109 96.168 127.99 96.168V98.168C138.217 98.168 146.505 89.8639 146.505 79.6238H144.505ZM127.99 63.0795C137.109 63.0795 144.505 70.485 144.505 79.6238H146.505C146.505 69.3837 138.217 61.0795 127.99 61.0795V63.0795ZM111.476 79.6238C111.476 70.485 118.871 63.0795 127.99 63.0795V61.0795C117.763 61.0795 109.476 69.3837 109.476 79.6238H111.476ZM127.99 96.168C118.871 96.168 111.476 88.7625 111.476 79.6238H109.476C109.476 89.8639 117.763 98.168 127.99 98.168V96.168ZM127.99 146.753C138.217 146.753 146.505 138.449 146.505 128.209H144.505C144.505 137.348 137.109 144.753 127.99 144.753V146.753ZM109.476 128.209C109.476 138.449 117.763 146.753 127.99 146.753V144.753C118.871 144.753 111.476 137.348 111.476 128.209H109.476ZM127.99 109.665C117.763 109.665 109.476 117.969 109.476 128.209H111.476C111.476 119.07 118.871 111.665 127.99 111.665V109.665ZM146.505 128.209C146.505 117.969 138.217 109.665 127.99 109.665V111.665C137.109 111.665 144.505 119.07 144.505 128.209H146.505ZM144.505 176.793C144.505 185.932 137.109 193.337 127.99 193.337V195.337C138.217 195.337 146.505 187.033 146.505 176.793H144.505ZM127.99 160.249C137.109 160.249 144.505 167.654 144.505 176.793H146.505C146.505 166.553 138.217 158.249 127.99 158.249V160.249ZM111.476 176.793C111.476 167.654 118.871 160.249 127.99 160.249V158.249C117.763 158.249 109.476 166.553 109.476 176.793H111.476ZM127.99 193.337C118.871 193.337 111.476 185.932 111.476 176.793H109.476C109.476 187.033 117.763 195.337 127.99 195.337V193.337ZM127.99 243.92C138.217 243.92 146.505 235.616 146.505 225.376H144.505C144.505 234.515 137.109 241.92 127.99 241.92V243.92ZM109.476 225.376C109.476 235.616 117.763 243.92 127.99 243.92V241.92C118.871 241.92 111.476 234.515 111.476 225.376H109.476ZM127.99 206.832C117.763 206.832 109.476 215.136 109.476 225.376H111.476C111.476 216.237 118.871 208.832 127.99 208.832V206.832ZM146.505 225.376C146.505 215.136 138.217 206.832 127.99 206.832V208.832C137.109 208.832 144.505 216.237 144.505 225.376H146.505ZM144.505 273.96C144.505 283.099 137.109 290.504 127.99 290.504V292.504C138.217 292.504 146.505 284.2 146.505 273.96H144.505ZM127.99 257.416C137.109 257.416 144.505 264.821 144.505 273.96H146.505C146.505 263.72 138.217 255.416 127.99 255.416V257.416ZM111.476 273.96C111.476 264.821 118.871 257.416 127.99 257.416V255.416C117.763 255.416 109.476 263.72 109.476 273.96H111.476ZM127.99 290.504C118.871 290.504 111.476 283.099 111.476 273.96H109.476C109.476 284.2 117.763 292.504 127.99 292.504V290.504ZM224.993 49.5849C235.22 49.5849 243.507 41.2807 243.507 31.0406H241.507C241.507 40.1794 234.112 47.5849 224.993 47.5849V49.5849ZM206.479 31.0406C206.479 41.2807 214.766 49.5849 224.993 49.5849V47.5849C215.874 47.5849 208.479 40.1794 208.479 31.0406H206.479ZM224.993 12.4964C214.766 12.4964 206.479 20.8005 206.479 31.0406H208.479C208.479 21.9019 215.874 14.4964 224.993 14.4964V12.4964ZM243.507 31.0406C243.507 20.8005 235.22 12.4964 224.993 12.4964V14.4964C234.112 14.4964 241.507 21.9019 241.507 31.0406H243.507ZM241.507 79.6238C241.507 88.7625 234.112 96.168 224.993 96.168V98.168C235.22 98.168 243.507 89.8639 243.507 79.6238H241.507ZM224.993 63.0795C234.112 63.0795 241.507 70.485 241.507 79.6238H243.507C243.507 69.3837 235.22 61.0795 224.993 61.0795V63.0795ZM208.479 79.6238C208.479 70.485 215.874 63.0795 224.993 63.0795V61.0795C214.766 61.0795 206.479 69.3837 206.479 79.6238H208.479ZM224.993 96.168C215.874 96.168 208.479 88.7625 208.479 79.6238H206.479C206.479 89.8639 214.766 98.168 224.993 98.168V96.168ZM224.993 146.753C235.22 146.753 243.507 138.449 243.507 128.209H241.507C241.507 137.348 234.112 144.753 224.993 144.753V146.753ZM206.479 128.209C206.479 138.449 214.766 146.753 224.993 146.753V144.753C215.874 144.753 208.479 137.348 208.479 128.209H206.479ZM224.993 109.665C214.766 109.665 206.479 117.969 206.479 128.209H208.479C208.479 119.07 215.874 111.665 224.993 111.665V109.665ZM243.507 128.209C243.507 117.969 235.22 109.665 224.993 109.665V111.665C234.112 111.665 241.507 119.07 241.507 128.209H243.507ZM241.507 176.793C241.507 185.932 234.112 193.337 224.993 193.337V195.337C235.22 195.337 243.507 187.033 243.507 176.793H241.507ZM224.993 160.249C234.112 160.249 241.507 167.654 241.507 176.793H243.507C243.507 166.553 235.22 158.249 224.993 158.249V160.249ZM208.479 176.793C208.479 167.654 215.874 160.249 224.993 160.249V158.249C214.766 158.249 206.479 166.553 206.479 176.793H208.479ZM224.993 193.337C215.874 193.337 208.479 185.932 208.479 176.793H206.479C206.479 187.033 214.766 195.337 224.993 195.337V193.337ZM224.993 243.92C235.22 243.92 243.507 235.616 243.507 225.376H241.507C241.507 234.515 234.112 241.92 224.993 241.92V243.92ZM206.479 225.376C206.479 235.616 214.766 243.92 224.993 243.92V241.92C215.874 241.92 208.479 234.515 208.479 225.376H206.479ZM224.993 206.832C214.766 206.832 206.479 215.136 206.479 225.376H208.479C208.479 216.237 215.874 208.832 224.993 208.832V206.832ZM243.507 225.376C243.507 215.136 235.22 206.832 224.993 206.832V208.832C234.112 208.832 241.507 216.237 241.507 225.376H243.507ZM241.507 273.96C241.507 283.099 234.112 290.504 224.993 290.504V292.504C235.22 292.504 243.507 284.2 243.507 273.96H241.507ZM224.993 257.416C234.112 257.416 241.507 264.821 241.507 273.96H243.507C243.507 263.72 235.22 255.416 224.993 255.416V257.416ZM208.479 273.96C208.479 264.821 215.874 257.416 224.993 257.416V255.416C214.766 255.416 206.479 263.72 206.479 273.96H208.479ZM224.993 290.504C215.874 290.504 208.479 283.099 208.479 273.96H206.479C206.479 284.2 214.766 292.504 224.993 292.504V290.504ZM79.489 49.5849C89.7159 49.5849 98.0035 41.2807 98.0035 31.0406H96.0035C96.0035 40.1794 88.6081 47.5849 79.489 47.5849V49.5849ZM60.9746 31.0406C60.9746 41.2807 69.2622 49.5849 79.489 49.5849V47.5849C70.37 47.5849 62.9746 40.1794 62.9746 31.0406H60.9746ZM79.489 12.4964C69.2622 12.4964 60.9746 20.8005 60.9746 31.0406H62.9746C62.9746 21.9019 70.37 14.4964 79.489 14.4964V12.4964ZM98.0035 31.0406C98.0035 20.8005 89.7159 12.4964 79.489 12.4964V14.4964C88.6081 14.4964 96.0035 21.9019 96.0035 31.0406H98.0035ZM96.0035 79.6238C96.0035 88.7625 88.6081 96.168 79.489 96.168V98.168C89.7159 98.168 98.0035 89.8639 98.0035 79.6238H96.0035ZM79.489 63.0795C88.6081 63.0795 96.0035 70.485 96.0035 79.6238H98.0035C98.0035 69.3837 89.7159 61.0795 79.489 61.0795V63.0795ZM62.9746 79.6238C62.9746 70.485 70.37 63.0795 79.489 63.0795V61.0795C69.2622 61.0795 60.9746 69.3837 60.9746 79.6238H62.9746ZM79.489 96.168C70.37 96.168 62.9746 88.7625 62.9746 79.6238H60.9746C60.9746 89.8639 69.2622 98.168 79.489 98.168V96.168ZM79.489 146.753C89.7159 146.753 98.0035 138.449 98.0035 128.209H96.0035C96.0035 137.348 88.6081 144.753 79.489 144.753V146.753ZM60.9746 128.209C60.9746 138.449 69.2622 146.753 79.489 146.753V144.753C70.37 144.753 62.9746 137.348 62.9746 128.209H60.9746ZM79.489 109.665C69.2622 109.665 60.9746 117.969 60.9746 128.209H62.9746C62.9746 119.07 70.37 111.665 79.489 111.665V109.665ZM98.0035 128.209C98.0035 117.969 89.7159 109.665 79.489 109.665V111.665C88.6081 111.665 96.0035 119.07 96.0035 128.209H98.0035ZM96.0035 176.793C96.0035 185.932 88.6081 193.337 79.489 193.337V195.337C89.7159 195.337 98.0035 187.033 98.0035 176.793H96.0035ZM79.489 160.249C88.6081 160.249 96.0035 167.654 96.0035 176.793H98.0035C98.0035 166.553 89.7159 158.249 79.489 158.249V160.249ZM62.9746 176.793C62.9746 167.654 70.37 160.249 79.489 160.249V158.249C69.2622 158.249 60.9746 166.553 60.9746 176.793H62.9746ZM79.489 193.337C70.37 193.337 62.9746 185.932 62.9746 176.793H60.9746C60.9746 187.033 69.2622 195.337 79.489 195.337V193.337ZM79.489 243.92C89.7159 243.92 98.0035 235.616 98.0035 225.376H96.0035C96.0035 234.515 88.6081 241.92 79.489 241.92V243.92ZM60.9746 225.376C60.9746 235.616 69.2622 243.92 79.489 243.92V241.92C70.37 241.92 62.9746 234.515 62.9746 225.376H60.9746ZM79.489 206.832C69.2622 206.832 60.9746 215.136 60.9746 225.376H62.9746C62.9746 216.237 70.37 208.832 79.489 208.832V206.832ZM98.0035 225.376C98.0035 215.136 89.7159 206.832 79.489 206.832V208.832C88.6081 208.832 96.0035 216.237 96.0035 225.376H98.0035ZM96.0035 273.96C96.0035 283.099 88.6081 290.504 79.489 290.504V292.504C89.7159 292.504 98.0035 284.2 98.0035 273.96H96.0035ZM79.489 257.416C88.6081 257.416 96.0035 264.821 96.0035 273.96H98.0035C98.0035 263.72 89.7159 255.416 79.489 255.416V257.416ZM62.9746 273.96C62.9746 264.821 70.37 257.416 79.489 257.416V255.416C69.2622 255.416 60.9746 263.72 60.9746 273.96H62.9746ZM79.489 290.504C70.37 290.504 62.9746 283.099 62.9746 273.96H60.9746C60.9746 284.2 69.2622 292.504 79.489 292.504V290.504ZM176.492 49.5849C186.719 49.5849 195.006 41.2807 195.006 31.0406H193.006C193.006 40.1794 185.611 47.5849 176.492 47.5849V49.5849ZM157.978 31.0406C157.978 41.2807 166.265 49.5849 176.492 49.5849V47.5849C167.373 47.5849 159.978 40.1794 159.978 31.0406H157.978ZM176.492 12.4964C166.265 12.4964 157.978 20.8005 157.978 31.0406H159.978C159.978 21.9019 167.373 14.4964 176.492 14.4964V12.4964ZM195.006 31.0406C195.006 20.8005 186.719 12.4964 176.492 12.4964V14.4964C185.611 14.4964 193.006 21.9019 193.006 31.0406H195.006ZM193.006 79.6238C193.006 88.7625 185.611 96.168 176.492 96.168V98.168C186.719 98.168 195.006 89.8639 195.006 79.6238H193.006ZM176.492 63.0795C185.611 63.0795 193.006 70.485 193.006 79.6238H195.006C195.006 69.3837 186.719 61.0795 176.492 61.0795V63.0795ZM159.978 79.6238C159.978 70.485 167.373 63.0795 176.492 63.0795V61.0795C166.265 61.0795 157.978 69.3837 157.978 79.6238H159.978ZM176.492 96.168C167.373 96.168 159.978 88.7625 159.978 79.6238H157.978C157.978 89.8639 166.265 98.168 176.492 98.168V96.168ZM176.492 146.753C186.719 146.753 195.006 138.449 195.006 128.209H193.006C193.006 137.348 185.611 144.753 176.492 144.753V146.753ZM157.978 128.209C157.978 138.449 166.265 146.753 176.492 146.753V144.753C167.373 144.753 159.978 137.348 159.978 128.209H157.978ZM176.492 109.665C166.265 109.665 157.978 117.969 157.978 128.209H159.978C159.978 119.07 167.373 111.665 176.492 111.665V109.665ZM195.006 128.209C195.006 117.969 186.719 109.665 176.492 109.665V111.665C185.611 111.665 193.006 119.07 193.006 128.209H195.006ZM193.006 176.793C193.006 185.932 185.611 193.337 176.492 193.337V195.337C186.719 195.337 195.006 187.033 195.006 176.793H193.006ZM176.492 160.249C185.611 160.249 193.006 167.654 193.006 176.793H195.006C195.006 166.553 186.719 158.249 176.492 158.249V160.249ZM159.978 176.793C159.978 167.654 167.373 160.249 176.492 160.249V158.249C166.265 158.249 157.978 166.553 157.978 176.793H159.978ZM176.492 193.337C167.373 193.337 159.978 185.932 159.978 176.793H157.978C157.978 187.033 166.265 195.337 176.492 195.337V193.337ZM176.492 243.92C186.719 243.92 195.006 235.616 195.006 225.376H193.006C193.006 234.515 185.611 241.92 176.492 241.92V243.92ZM157.978 225.376C157.978 235.616 166.265 243.92 176.492 243.92V241.92C167.373 241.92 159.978 234.515 159.978 225.376H157.978ZM176.492 206.832C166.265 206.832 157.978 215.136 157.978 225.376H159.978C159.978 216.237 167.373 208.832 176.492 208.832V206.832ZM195.006 225.376C195.006 215.136 186.719 206.832 176.492 206.832V208.832C185.611 208.832 193.006 216.237 193.006 225.376H195.006ZM193.006 273.96C193.006 283.099 185.611 290.504 176.492 290.504V292.504C186.719 292.504 195.006 284.2 195.006 273.96H193.006ZM176.492 257.416C185.611 257.416 193.006 264.821 193.006 273.96H195.006C195.006 263.72 186.719 255.416 176.492 255.416V257.416ZM159.978 273.96C159.978 264.821 167.373 257.416 176.492 257.416V255.416C166.265 255.416 157.978 263.72 157.978 273.96H159.978ZM176.492 290.504C167.373 290.504 159.978 283.099 159.978 273.96H157.978C157.978 284.2 166.265 292.504 176.492 292.504V290.504ZM273.495 49.5849C283.721 49.5849 292.009 41.2807 292.009 31.0406H290.009C290.009 40.1794 282.614 47.5849 273.495 47.5849V49.5849ZM254.98 31.0406C254.98 41.2807 263.268 49.5849 273.495 49.5849V47.5849C264.376 47.5849 256.98 40.1794 256.98 31.0406H254.98ZM273.495 12.4964C263.268 12.4964 254.98 20.8005 254.98 31.0406H256.98C256.98 21.9019 264.376 14.4964 273.495 14.4964V12.4964ZM292.009 31.0406C292.009 20.8005 283.721 12.4964 273.495 12.4964V14.4964C282.614 14.4964 290.009 21.9019 290.009 31.0406H292.009ZM290.009 79.6238C290.009 88.7625 282.614 96.168 273.495 96.168V98.168C283.721 98.168 292.009 89.8639 292.009 79.6238H290.009ZM273.495 63.0795C282.614 63.0795 290.009 70.485 290.009 79.6238H292.009C292.009 69.3837 283.721 61.0795 273.495 61.0795V63.0795ZM256.98 79.6238C256.98 70.485 264.376 63.0795 273.495 63.0795V61.0795C263.268 61.0795 254.98 69.3837 254.98 79.6238H256.98ZM273.495 96.168C264.376 96.168 256.98 88.7625 256.98 79.6238H254.98C254.98 89.8639 263.268 98.168 273.495 98.168V96.168ZM273.495 146.753C283.721 146.753 292.009 138.449 292.009 128.209H290.009C290.009 137.348 282.614 144.753 273.495 144.753V146.753ZM254.98 128.209C254.98 138.449 263.268 146.753 273.495 146.753V144.753C264.376 144.753 256.98 137.348 256.98 128.209H254.98ZM273.495 109.665C263.268 109.665 254.98 117.969 254.98 128.209H256.98C256.98 119.07 264.376 111.665 273.495 111.665V109.665ZM292.009 128.209C292.009 117.969 283.721 109.665 273.495 109.665V111.665C282.614 111.665 290.009 119.07 290.009 128.209H292.009ZM290.009 176.793C290.009 185.932 282.614 193.337 273.495 193.337V195.337C283.721 195.337 292.009 187.033 292.009 176.793H290.009ZM273.495 160.249C282.614 160.249 290.009 167.654 290.009 176.793H292.009C292.009 166.553 283.721 158.249 273.495 158.249V160.249ZM256.98 176.793C256.98 167.654 264.376 160.249 273.495 160.249V158.249C263.268 158.249 254.98 166.553 254.98 176.793H256.98ZM273.495 193.337C264.376 193.337 256.98 185.932 256.98 176.793H254.98C254.98 187.033 263.268 195.337 273.495 195.337V193.337ZM273.495 243.92C283.721 243.92 292.009 235.616 292.009 225.376H290.009C290.009 234.515 282.614 241.92 273.495 241.92V243.92ZM254.98 225.376C254.98 235.616 263.268 243.92 273.495 243.92V241.92C264.376 241.92 256.98 234.515 256.98 225.376H254.98ZM273.495 206.832C263.268 206.832 254.98 215.136 254.98 225.376H256.98C256.98 216.237 264.376 208.832 273.495 208.832V206.832ZM292.009 225.376C292.009 215.136 283.721 206.832 273.495 206.832V208.832C282.614 208.832 290.009 216.237 290.009 225.376H292.009ZM290.009 273.96C290.009 283.099 282.614 290.504 273.495 290.504V292.504C283.721 292.504 292.009 284.2 292.009 273.96H290.009ZM273.495 257.416C282.614 257.416 290.009 264.821 290.009 273.96H292.009C292.009 263.72 283.721 255.416 273.495 255.416V257.416ZM256.98 273.96C256.98 264.821 264.376 257.416 273.495 257.416V255.416C263.268 255.416 254.98 263.72 254.98 273.96H256.98ZM273.495 290.504C264.376 290.504 256.98 283.099 256.98 273.96H254.98C254.98 284.2 263.268 292.504 273.495 292.504V290.504ZM321.996 49.5849C332.223 49.5849 340.511 41.2807 340.511 31.0406H338.511C338.511 40.1794 331.115 47.5849 321.996 47.5849V49.5849ZM303.482 31.0406C303.482 41.2807 311.769 49.5849 321.996 49.5849V47.5849C312.877 47.5849 305.482 40.1794 305.482 31.0406H303.482ZM321.996 12.4964C311.769 12.4964 303.482 20.8005 303.482 31.0406H305.482C305.482 21.9019 312.877 14.4964 321.996 14.4964V12.4964ZM340.511 31.0406C340.511 20.8005 332.223 12.4964 321.996 12.4964V14.4964C331.115 14.4964 338.511 21.9019 338.511 31.0406H340.511ZM338.511 79.6238C338.511 88.7625 331.115 96.168 321.996 96.168V98.168C332.223 98.168 340.511 89.8639 340.511 79.6238H338.511ZM321.996 63.0795C331.115 63.0795 338.511 70.485 338.511 79.6238H340.511C340.511 69.3837 332.223 61.0795 321.996 61.0795V63.0795ZM305.482 79.6238C305.482 70.485 312.877 63.0795 321.996 63.0795V61.0795C311.769 61.0795 303.482 69.3837 303.482 79.6238H305.482ZM321.996 96.168C312.877 96.168 305.482 88.7625 305.482 79.6238H303.482C303.482 89.8639 311.769 98.168 321.996 98.168V96.168ZM321.996 146.753C332.223 146.753 340.511 138.449 340.511 128.209H338.511C338.511 137.348 331.115 144.753 321.996 144.753V146.753ZM303.482 128.209C303.482 138.449 311.769 146.753 321.996 146.753V144.753C312.877 144.753 305.482 137.348 305.482 128.209H303.482ZM321.996 109.665C311.769 109.665 303.482 117.969 303.482 128.209H305.482C305.482 119.07 312.877 111.665 321.996 111.665V109.665ZM340.511 128.209C340.511 117.969 332.223 109.665 321.996 109.665V111.665C331.115 111.665 338.511 119.07 338.511 128.209H340.511ZM338.511 176.793C338.511 185.932 331.115 193.337 321.996 193.337V195.337C332.223 195.337 340.511 187.033 340.511 176.793H338.511ZM321.996 160.249C331.115 160.249 338.511 167.654 338.511 176.793H340.511C340.511 166.553 332.223 158.249 321.996 158.249V160.249ZM305.482 176.793C305.482 167.654 312.877 160.249 321.996 160.249V158.249C311.769 158.249 303.482 166.553 303.482 176.793H305.482ZM321.996 193.337C312.877 193.337 305.482 185.932 305.482 176.793H303.482C303.482 187.033 311.769 195.337 321.996 195.337V193.337ZM321.996 243.92C332.223 243.92 340.511 235.616 340.511 225.376H338.511C338.511 234.515 331.115 241.92 321.996 241.92V243.92ZM303.482 225.376C303.482 235.616 311.769 243.92 321.996 243.92V241.92C312.877 241.92 305.482 234.515 305.482 225.376H303.482ZM321.996 206.832C311.769 206.832 303.482 215.136 303.482 225.376H305.482C305.482 216.237 312.877 208.832 321.996 208.832V206.832ZM340.511 225.376C340.511 215.136 332.223 206.832 321.996 206.832V208.832C331.115 208.832 338.511 216.237 338.511 225.376H340.511ZM338.511 273.96C338.511 283.099 331.115 290.504 321.996 290.504V292.504C332.223 292.504 340.511 284.2 340.511 273.96H338.511ZM321.996 257.416C331.115 257.416 338.511 264.821 338.511 273.96H340.511C340.511 263.72 332.223 255.416 321.996 255.416V257.416ZM305.482 273.96C305.482 264.821 312.877 257.416 321.996 257.416V255.416C311.769 255.416 303.482 263.72 303.482 273.96H305.482ZM321.996 290.504C312.877 290.504 305.482 283.099 305.482 273.96H303.482C303.482 284.2 311.769 292.504 321.996 292.504V290.504Z" fill="black" mask="url(#path-1-inside-1_2655_2408)"/>
</svg>
