<svg width="290" height="573" viewBox="0 0 290 573" fill="none" xmlns="http://www.w3.org/2000/svg">
<path d="M245.875 264.188H238.875V262.594C238.875 261.713 238.092 261 237.125 261H210.875C209.908 261 209.125 261.713 209.125 262.594V264.188H202.125C201.158 264.188 200.375 264.901 200.375 265.781V275.344C200.375 279.745 204.292 283.312 209.125 283.312H209.37C210.356 288.296 214.312 292.363 219.625 293.855L218.82 302.438H229.18L228.375 293.855C233.688 292.363 237.644 288.296 238.63 283.312H238.875C243.708 283.312 247.625 279.745 247.625 275.344V265.781C247.625 264.901 246.842 264.188 245.875 264.188ZM209.125 270.562V280.125C206.225 280.125 203.875 277.985 203.875 275.344V267.375H209.125V270.562ZM244.125 275.344C244.125 277.985 241.775 280.125 238.875 280.125V267.375H244.125V275.344Z" fill="#FCD063"/>
<path d="M212.625 308.812H235.375C235.858 308.812 236.25 309.17 236.25 309.609V311.203C236.25 311.643 235.858 312 235.375 312H212.625C212.142 312 211.75 311.643 211.75 311.203V309.609C211.75 309.17 212.142 308.812 212.625 308.812Z" fill="#82A7C4"/>
<path d="M234.5 304.031C234.5 303.151 233.717 302.438 232.75 302.438H215.25C214.283 302.438 213.5 303.151 213.5 304.031V308.812H234.5V304.031Z" fill="#C9D5E3"/>
<path d="M209.125 280.922V280.125C208.528 280.123 207.937 280.029 207.375 279.846C207.371 280.462 206.821 280.959 206.144 280.956C205.928 280.955 205.715 280.902 205.529 280.802C203.421 279.653 202.129 277.581 202.125 275.344C202.125 274.904 201.733 274.547 201.25 274.547C200.767 274.547 200.375 274.904 200.375 275.344C200.374 279.131 203.3 282.395 207.375 283.153C207.951 283.259 208.537 283.312 209.125 283.312H209.37C209.211 282.524 209.129 281.724 209.125 280.922Z" fill="#F6B545"/>
<path d="M229.25 304.031H218.75V307.219H229.25V304.031Z" fill="#E2E7F0"/>
<path d="M242.375 265.781C241.408 265.781 240.625 265.068 240.625 264.188H238.875V267.375H244.125C244.125 266.494 243.342 265.781 242.375 265.781Z" fill="#F6B545"/>
<path d="M205.625 265.781C206.592 265.781 207.375 265.068 207.375 264.188H209.125V267.375H203.875C203.875 266.494 204.658 265.781 205.625 265.781Z" fill="#F6B545"/>
<path d="M246.75 268.969C247.233 268.969 247.625 269.326 247.625 269.766V275.344H245.875V269.766C245.875 269.326 246.267 268.969 246.75 268.969Z" fill="#F6B545"/>
<path d="M210.875 261H237.125C237.125 261.881 236.342 262.594 235.375 262.594H212.625C211.658 262.594 210.875 261.881 210.875 261Z" fill="#FFE27A"/>
<path d="M213.404 275.782C212.538 276.174 211.487 275.852 211.058 275.064C210.938 274.844 210.875 274.601 210.875 274.356V265.781C210.875 264.901 210.092 264.188 209.125 264.188V280.922L238.875 267.375V264.188L213.404 275.782Z" fill="#FFE27A"/>
<path d="M210.875 287.297L238.875 274.547V268.969L209.23 282.468C209.438 284.158 209.996 285.796 210.875 287.297Z" fill="#FFE27A"/>
<path d="M228.559 282.516C228.494 282.509 228.431 282.49 228.375 282.46L224 280.284L219.625 282.46C219.468 282.553 219.265 282.553 219.109 282.46C218.956 282.351 218.881 282.172 218.916 281.998L219.747 277.392L216.247 274.132C216.098 273.997 216.05 273.794 216.125 273.615C216.179 273.449 216.331 273.325 216.519 273.296L221.375 272.626L223.562 268.435C223.64 268.278 223.811 268.175 224 268.172C224.189 268.175 224.36 268.278 224.437 268.435L226.625 272.626L231.472 273.296C231.66 273.325 231.812 273.449 231.866 273.615C231.925 273.785 231.878 273.971 231.744 274.101L228.244 277.36L229.066 281.966C229.101 282.14 229.027 282.319 228.874 282.428C228.784 282.491 228.672 282.523 228.559 282.516Z" fill="#E78825"/>
<path d="M221.392 272.626L219.887 272.834L216.545 274.356L218.846 276.491L227.167 272.706L226.607 272.626L225.417 270.315L221.716 272.005L221.392 272.626Z" fill="#F19920"/>
<path d="M218.951 281.965C218.916 282.14 218.991 282.318 219.144 282.428C219.301 282.521 219.504 282.521 219.66 282.428L224.035 280.252L225.111 280.794L228.611 279.2L228.27 277.32L231.77 274.06C231.883 273.936 231.922 273.77 231.875 273.614C231.821 273.448 231.669 273.325 231.481 273.295L229.88 273.072L219.721 277.694L218.951 281.965Z" fill="#F19920"/>
<path d="M237.125 269.766V275.344L238.875 274.547V268.969L237.125 269.766Z" fill="#FCD063"/>
<path d="M246.75 274.547C246.267 274.547 245.875 274.904 245.875 275.344C245.87 277.581 244.579 279.653 242.471 280.802C241.888 281.115 241.138 280.938 240.794 280.406C240.684 280.237 240.626 280.043 240.625 279.846C240.063 280.029 239.472 280.123 238.875 280.125V268.969C238.875 268.529 238.483 268.172 238 268.172C237.517 268.172 237.125 268.529 237.125 268.969V280.922C237.125 287.523 231.248 292.875 224 292.875C223.517 292.875 223.125 293.232 223.125 293.672C223.125 294.112 223.517 294.469 224 294.469C222.516 294.465 221.041 294.258 219.625 293.855L219.485 295.449C220.946 295.864 222.469 296.07 224 296.062H224.822C225.788 296.036 226.595 296.728 226.624 297.608C226.625 297.624 226.625 297.64 226.625 297.656V302.438H229.18L228.541 295.417L228.401 293.823C233.694 292.328 237.637 288.278 238.63 283.312H238.875C239.463 283.312 240.049 283.259 240.625 283.153C244.7 282.395 247.626 279.131 247.625 275.344C247.625 274.904 247.233 274.547 246.75 274.547Z" fill="#F6B545"/>
<circle cx="186.5" cy="542.5" r="30" fill="#00539D" fill-opacity="0.37" stroke="white"/>
<circle cx="40.5" cy="542.5" r="30" fill="#00539D" fill-opacity="0.37" stroke="white"/>
<circle cx="259.5" cy="542.5" r="30" fill="#00539D" fill-opacity="0.37" stroke="white"/>
<circle cx="113.5" cy="542.5" r="30" fill="#00539D" fill-opacity="0.37" stroke="white"/>
<circle cx="223.5" cy="422.5" r="32" fill="#00539D" fill-opacity="0.37" stroke="white"/>
<circle cx="77.5" cy="422.5" r="32" fill="#00539D" fill-opacity="0.37" stroke="white"/>
<circle cx="143.5" cy="286.5" r="40" fill="#00539D" fill-opacity="0.37" stroke="white"/>
<path d="M258.5 512V491.958H259.5V512H258.5ZM244 477.458H228.072V476.458H244V477.458ZM258.5 491.958C258.5 483.95 252.008 477.458 244 477.458V476.458C252.56 476.458 259.5 483.398 259.5 491.958H258.5Z" fill="white"/>
<path d="M228.072 477.459H199V476.459H228.072V477.459ZM184.5 491.959V512.001H183.5V491.959H184.5ZM199 477.459C190.992 477.459 184.5 483.951 184.5 491.959H183.5C183.5 483.399 190.44 476.459 199 476.459V477.459Z" fill="white"/>
<path d="M222.067 453.988L221.5 476.988L222.5 477.012L223.067 454.012L222.067 453.988Z" fill="white"/>
<path d="M222.5 390V369.958H223.5V390H222.5ZM208 355.458H162.794V354.458H208V355.458ZM222.5 369.958C222.5 361.95 216.008 355.458 208 355.458V354.458C216.56 354.458 223.5 361.398 223.5 369.958H222.5Z" fill="white"/>
<path d="M162.794 355.459H91.9999V354.459H162.794V355.459ZM77.4999 369.959V390.001H76.4999V369.959H77.4999ZM91.9999 355.459C83.9918 355.459 77.4999 361.951 77.4999 369.959H76.4999C76.4999 361.399 83.4395 354.459 91.9999 354.459V355.459Z" fill="white"/>
<path d="M145.473 326L145.473 355L146.473 355L146.473 326L145.473 326Z" fill="white"/>
<path d="M112.5 512V491.958H113.5V512H112.5ZM98 477.458H82.0721V476.458H98V477.458ZM112.5 491.958C112.5 483.95 106.008 477.458 98 477.458V476.458C106.56 476.458 113.5 483.398 113.5 491.958H112.5Z" fill="white"/>
<path d="M82.0723 477.459H53V476.459H82.0723V477.459ZM38.5 491.959V512.001H37.5V491.959H38.5ZM53 477.459C44.9919 477.459 38.5 483.951 38.5 491.959H37.5C37.5 483.399 44.4396 476.459 53 476.459V477.459Z" fill="white"/>
<path d="M76.067 453.988L75.5002 476.988L76.4998 477.012L77.0667 454.012L76.067 453.988Z" fill="white"/>
<path d="M220.587 479.071C220.492 479.148 220.492 479.237 220.54 480.071C220.575 480.572 220.617 481.014 220.635 481.046C220.689 481.136 220.88 481.123 220.952 481.027C221.035 480.924 220.934 479.212 220.838 479.083C220.755 478.974 220.719 478.974 220.587 479.071Z" fill="white"/>
<path d="M226.128 481.021C224.617 481.598 222.999 482.22 222.534 482.4L221.686 482.727L221.596 483.028C221.226 484.234 217.871 496.845 217.895 496.922C217.913 496.973 217.984 497.031 218.044 497.05C218.11 497.076 218.981 496.915 219.978 496.691C220.981 496.473 221.811 496.306 221.823 496.319C221.841 496.332 221.178 498.827 220.355 501.854C219.244 505.94 218.874 507.39 218.916 507.467C218.993 507.595 219.256 507.634 219.334 507.525C219.369 507.48 220.128 506.101 221.023 504.459C221.913 502.817 222.659 501.463 222.677 501.444C222.689 501.425 222.731 501.463 222.761 501.521C222.892 501.777 223.411 502.361 223.787 502.682C225.441 504.093 228.737 504.645 231.543 503.978C233.639 503.477 235.143 502.162 235.71 500.334C235.961 499.532 236.027 498.955 235.991 497.871C235.955 496.768 235.842 496.255 235.46 495.459C235.018 494.548 234.08 493.638 233.065 493.137C232.427 492.823 231.621 492.554 230.582 492.31C228.809 491.887 228.635 491.874 228.677 492.156C228.701 492.336 228.803 492.374 230.218 492.688C232.367 493.169 233.555 493.74 234.439 494.722C235.304 495.684 235.627 496.736 235.573 498.416C235.543 499.526 235.448 499.956 235.077 500.783C234.367 502.348 232.934 503.304 230.725 503.695C230.438 503.747 229.77 503.779 229.053 503.779C228.08 503.779 227.722 503.753 227.113 503.631C224.952 503.214 223.584 502.31 222.844 500.796C222.575 500.238 222.283 499.301 222.241 498.82C222.205 498.455 222.211 498.429 222.343 498.371C222.42 498.333 223.232 498.23 224.146 498.14C225.388 498.012 225.823 497.987 225.883 498.038C225.931 498.083 225.985 498.217 226.008 498.352C226.086 498.795 226.379 499.353 226.725 499.706C227.298 500.283 228.009 500.546 229.023 500.546C230.032 500.546 230.63 500.341 231.155 499.821C231.591 499.391 231.68 499.148 231.68 498.397C231.68 497.865 231.656 497.711 231.549 497.499C231.197 496.793 230.743 496.55 228.922 496.069C227.674 495.742 227.579 495.722 227.483 495.825C227.274 496.049 227.447 496.133 228.862 496.518C230.474 496.947 230.827 497.114 231.077 497.557C231.286 497.916 231.352 498.513 231.233 498.917C231.119 499.269 230.749 499.667 230.319 499.879C229.961 500.058 229.913 500.065 229.053 500.065C228.259 500.065 228.116 500.046 227.812 499.911C227.101 499.609 226.689 499.128 226.45 498.346C226.319 497.916 226.259 497.794 226.092 497.672C225.901 497.531 225.853 497.525 225.328 497.57C224.982 497.595 224.779 497.589 224.791 497.55C224.802 497.518 225.591 496.069 226.54 494.337C228.295 491.117 228.367 490.95 228.104 490.841C228.062 490.822 227.161 490.963 226.098 491.155C225.041 491.348 224.164 491.495 224.152 491.482C224.134 491.47 225.268 488.962 226.665 485.915C228.062 482.868 229.203 480.315 229.203 480.238C229.203 480.084 229.095 479.956 228.97 479.956C228.916 479.962 227.638 480.437 226.128 481.021Z" fill="white"/>
<path d="M215.208 482.233C215.059 482.393 215.154 482.502 215.907 483.06C216.593 483.561 216.742 483.612 216.82 483.387C216.874 483.24 216.76 483.131 216.08 482.637C215.345 482.105 215.333 482.105 215.208 482.233Z" fill="white"/>
<path d="M207.124 484.978C206.945 485.184 206.957 485.427 207.178 485.992C207.429 486.652 212.181 501.098 212.48 502.124C212.748 503.035 212.886 503.253 213.268 503.368C213.554 503.458 217.644 503.452 217.942 503.362C218.319 503.253 218.462 503.028 218.713 502.143C218.844 501.707 219.208 500.527 219.537 499.526C220.152 497.627 220.175 497.499 219.865 497.544C219.763 497.557 219.674 497.756 219.369 498.686C219.16 499.301 218.79 500.482 218.534 501.303C218.122 502.643 218.056 502.81 217.913 502.894C217.775 502.964 217.339 502.983 215.572 502.983C213.017 502.983 213.172 503.028 212.957 502.259C212.706 501.348 208.348 488.038 207.703 486.216C207.542 485.761 207.411 485.363 207.411 485.331C207.411 485.305 208.348 485.28 209.5 485.28H211.59L211.62 485.421C211.632 485.504 211.709 485.883 211.793 486.274C211.871 486.659 212.635 489.475 213.489 492.528C214.348 495.581 215.124 498.391 215.226 498.769C215.327 499.148 215.423 499.488 215.441 499.52C215.501 499.629 215.757 499.59 215.793 499.468C215.811 499.411 215.919 498.981 216.038 498.525C216.157 498.064 216.904 495.395 217.692 492.592C218.993 487.948 219.459 486.191 219.56 485.517C219.596 485.293 219.608 485.28 219.817 485.28C220.104 485.28 220.205 485.203 220.175 485.017C220.157 484.876 220.122 484.863 219.817 484.844C219.351 484.818 219.214 484.959 219.119 485.575C218.993 486.345 218.844 486.915 217.262 492.56C216.414 495.594 215.692 498.179 215.662 498.301L215.608 498.525L215.477 498.044C215.399 497.781 214.671 495.183 213.859 492.271C212.36 486.941 212.193 486.3 212.068 485.536C212.026 485.28 211.948 485.062 211.871 484.972L211.751 484.831H207.25L207.124 484.978Z" fill="white"/>
<path d="M228.767 484.876C228.743 484.895 228.725 484.985 228.725 485.062C228.725 485.248 228.785 485.26 229.621 485.305C232.092 485.434 233.931 486.543 234.833 488.455C234.988 488.788 235.322 489.885 235.286 489.93C235.263 489.949 232.152 490.321 231.656 490.366C231.459 490.379 231.447 490.366 231.292 489.956C230.91 488.949 230.265 488.506 229.053 488.442C228.379 488.404 227.961 488.474 227.471 488.718C226.928 488.987 226.462 489.552 226.582 489.789C226.677 489.969 226.785 489.917 227.155 489.526C227.579 489.064 227.889 488.936 228.665 488.891C229.31 488.853 229.835 488.962 230.259 489.225C230.564 489.417 230.725 489.654 230.934 490.206C231.203 490.924 231.065 490.899 233.352 490.629C234.433 490.501 235.382 490.373 235.454 490.341C235.704 490.238 235.746 490.014 235.627 489.494C235.477 488.872 235.209 488.185 234.934 487.724C234.606 487.178 233.913 486.415 233.424 486.069C232.385 485.325 230.719 484.831 229.256 484.831C229.012 484.831 228.785 484.85 228.767 484.876Z" fill="white"/>
<path d="M227.232 505.895C227.191 505.953 227.173 506.037 227.191 506.081C227.262 506.28 228.128 507.666 228.182 507.666C228.325 507.666 228.426 507.576 228.426 507.448C228.42 507.268 227.531 505.844 227.406 505.818C227.352 505.806 227.274 505.844 227.232 505.895Z" fill="white"/>
<path d="M222.534 506.396C222.498 506.441 222.355 506.845 222.211 507.294C222.008 507.929 221.961 508.14 222.014 508.224C222.193 508.538 222.313 508.371 222.635 507.364C222.862 506.646 222.886 506.511 222.82 506.421C222.725 506.3 222.611 506.287 222.534 506.396Z" fill="white"/>
<path d="M146.524 355.079C146.422 355.166 146.422 355.267 146.473 356.204C146.512 356.766 146.556 357.263 146.575 357.299C146.633 357.4 146.837 357.386 146.914 357.278C147.003 357.162 146.895 355.238 146.792 355.094C146.703 354.971 146.665 354.971 146.524 355.079Z" fill="white"/>
<path d="M152.447 357.271C150.832 357.919 149.103 358.618 148.605 358.82L147.699 359.188L147.603 359.527C147.207 360.882 143.621 375.052 143.646 375.139C143.665 375.196 143.742 375.261 143.806 375.283C143.876 375.312 144.808 375.132 145.873 374.879C146.946 374.634 147.833 374.447 147.846 374.461C147.865 374.476 147.156 377.279 146.276 380.682C145.088 385.273 144.693 386.902 144.737 386.988C144.82 387.133 145.101 387.176 145.184 387.053C145.222 387.003 146.033 385.453 146.99 383.608C147.941 381.763 148.739 380.242 148.758 380.22C148.771 380.199 148.816 380.242 148.848 380.307C148.988 380.595 149.543 381.251 149.945 381.611C151.713 383.197 155.236 383.817 158.236 383.067C160.476 382.505 162.084 381.028 162.69 378.973C162.958 378.072 163.029 377.424 162.99 376.206C162.952 374.966 162.831 374.389 162.422 373.495C161.95 372.472 160.948 371.448 159.863 370.886C159.18 370.533 158.319 370.23 157.208 369.956C155.313 369.481 155.128 369.466 155.172 369.783C155.198 369.985 155.306 370.028 156.819 370.382C159.116 370.922 160.386 371.564 161.331 372.666C162.256 373.748 162.601 374.93 162.544 376.818C162.512 378.065 162.41 378.548 162.014 379.478C161.254 381.237 159.723 382.311 157.361 382.75C157.055 382.808 156.34 382.844 155.574 382.844C154.534 382.844 154.151 382.815 153.5 382.678C151.19 382.21 149.728 381.193 148.937 379.492C148.65 378.865 148.337 377.813 148.292 377.272C148.254 376.861 148.26 376.833 148.401 376.768C148.484 376.724 149.352 376.609 150.328 376.508C151.656 376.364 152.122 376.335 152.185 376.393C152.236 376.443 152.294 376.595 152.319 376.746C152.402 377.243 152.715 377.871 153.085 378.267C153.698 378.916 154.457 379.211 155.542 379.211C156.621 379.211 157.259 378.981 157.821 378.397C158.287 377.914 158.382 377.64 158.382 376.797C158.382 376.198 158.357 376.025 158.242 375.787C157.865 374.995 157.38 374.721 155.434 374.18C154.1 373.813 153.998 373.791 153.896 373.906C153.672 374.158 153.857 374.252 155.37 374.685C157.093 375.168 157.47 375.355 157.738 375.852C157.961 376.256 158.031 376.926 157.904 377.38C157.782 377.777 157.387 378.224 156.927 378.462C156.544 378.663 156.493 378.671 155.574 378.671C154.725 378.671 154.572 378.649 154.247 378.498C153.487 378.159 153.047 377.618 152.792 376.739C152.651 376.256 152.587 376.119 152.409 375.982C152.205 375.823 152.153 375.816 151.592 375.867C151.222 375.896 151.005 375.888 151.017 375.845C151.03 375.809 151.873 374.18 152.887 372.234C154.764 368.616 154.84 368.428 154.56 368.306C154.515 368.284 153.551 368.443 152.415 368.659C151.285 368.875 150.347 369.041 150.335 369.027C150.315 369.012 151.528 366.194 153.021 362.77C154.515 359.346 155.734 356.478 155.734 356.391C155.734 356.218 155.619 356.074 155.485 356.074C155.427 356.081 154.062 356.615 152.447 357.271Z" fill="white"/>
<path d="M140.774 358.633C140.615 358.813 140.717 358.936 141.521 359.563C142.255 360.125 142.414 360.183 142.497 359.93C142.555 359.764 142.433 359.642 141.706 359.087C140.921 358.489 140.908 358.489 140.774 358.633Z" fill="white"/>
<path d="M132.133 361.718C131.941 361.948 131.954 362.222 132.19 362.857C132.458 363.599 137.538 379.831 137.857 380.984C138.145 382.008 138.291 382.253 138.7 382.383C139.006 382.484 143.378 382.476 143.697 382.375C144.099 382.253 144.252 382.001 144.52 381.006C144.661 380.516 145.05 379.19 145.401 378.065C146.059 375.932 146.084 375.787 145.752 375.838C145.644 375.852 145.548 376.076 145.222 377.121C144.999 377.813 144.603 379.139 144.329 380.062C143.889 381.568 143.818 381.756 143.665 381.849C143.518 381.929 143.053 381.95 141.163 381.95C138.432 381.95 138.598 382.001 138.368 381.136C138.1 380.112 133.441 365.156 132.752 363.109C132.579 362.597 132.439 362.15 132.439 362.114C132.439 362.085 133.441 362.057 134.673 362.057H136.907L136.938 362.215C136.951 362.309 137.034 362.734 137.124 363.174C137.207 363.606 138.023 366.77 138.936 370.201C139.855 373.632 140.685 376.789 140.793 377.215C140.902 377.64 141.004 378.022 141.023 378.058C141.087 378.18 141.361 378.137 141.4 378C141.419 377.935 141.534 377.452 141.661 376.941C141.789 376.422 142.587 373.423 143.429 370.273C144.82 365.055 145.318 363.08 145.427 362.323C145.465 362.071 145.478 362.057 145.701 362.057C146.007 362.057 146.116 361.97 146.084 361.761C146.065 361.602 146.027 361.588 145.701 361.566C145.203 361.538 145.057 361.696 144.954 362.388C144.82 363.253 144.661 363.895 142.97 370.237C142.063 373.647 141.291 376.551 141.259 376.688L141.202 376.941L141.061 376.4C140.978 376.105 140.2 373.185 139.332 369.913C137.73 363.923 137.551 363.203 137.417 362.345C137.372 362.057 137.289 361.811 137.207 361.711L137.079 361.552H132.267L132.133 361.718Z" fill="white"/>
<path d="M155.268 361.602C155.242 361.624 155.223 361.725 155.223 361.811C155.223 362.021 155.287 362.035 156.181 362.085C158.823 362.23 160.788 363.476 161.752 365.624C161.918 365.999 162.276 367.232 162.237 367.282C162.212 367.304 158.887 367.722 158.357 367.772C158.146 367.787 158.134 367.772 157.968 367.311C157.559 366.179 156.87 365.682 155.574 365.61C154.853 365.567 154.406 365.646 153.883 365.92C153.302 366.223 152.804 366.857 152.932 367.124C153.034 367.325 153.149 367.268 153.545 366.828C153.998 366.309 154.33 366.165 155.159 366.115C155.849 366.071 156.41 366.194 156.863 366.489C157.189 366.706 157.361 366.972 157.585 367.592C157.872 368.399 157.725 368.371 160.169 368.068C161.325 367.924 162.339 367.78 162.416 367.744C162.684 367.628 162.729 367.376 162.601 366.792C162.441 366.093 162.154 365.322 161.861 364.803C161.51 364.19 160.769 363.332 160.246 362.943C159.136 362.107 157.355 361.552 155.791 361.552C155.53 361.552 155.287 361.574 155.268 361.602Z" fill="white"/>
<path d="M153.628 385.222C153.583 385.287 153.564 385.381 153.583 385.432C153.66 385.655 154.585 387.212 154.642 387.212C154.796 387.212 154.904 387.111 154.904 386.967C154.898 386.765 153.947 385.165 153.813 385.136C153.755 385.122 153.672 385.165 153.628 385.222Z" fill="white"/>
<path d="M148.605 385.785C148.567 385.835 148.414 386.289 148.26 386.794C148.043 387.507 147.992 387.745 148.05 387.839C148.241 388.192 148.369 388.005 148.713 386.873C148.956 386.066 148.982 385.914 148.911 385.814C148.809 385.677 148.688 385.662 148.605 385.785Z" fill="white"/>
<circle cx="103.5" cy="30.5" r="30" transform="rotate(180 103.5 30.5)" fill="#00539D" fill-opacity="0.37" stroke="white"/>
<circle cx="249.5" cy="30.5" r="30" transform="rotate(180 249.5 30.5)" fill="#00539D" fill-opacity="0.37" stroke="white"/>
<circle cx="30.5" cy="30.5" r="30" transform="rotate(180 30.5 30.5)" fill="#00539D" fill-opacity="0.37" stroke="white"/>
<circle cx="176.5" cy="30.5" r="30" transform="rotate(180 176.5 30.5)" fill="#00539D" fill-opacity="0.37" stroke="white"/>
<circle cx="66.5" cy="150.5" r="32" transform="rotate(180 66.5 150.5)" fill="#00539D" fill-opacity="0.37" stroke="white"/>
<circle cx="212.5" cy="150.5" r="32" transform="rotate(180 212.5 150.5)" fill="#00539D" fill-opacity="0.37" stroke="white"/>
<path d="M31.5 60.9995V81.0412H30.5V60.9995H31.5ZM46 95.5412H61.9279V96.5412H46V95.5412ZM31.5 81.0412C31.5 89.0493 37.9919 95.5412 46 95.5412V96.5412C37.4396 96.5412 30.5 89.6016 30.5 81.0412H31.5Z" fill="white"/>
<path d="M61.9277 95.5405H91V96.5405H61.9277V95.5405ZM105.5 81.0405V60.9989H106.5V81.0405H105.5ZM91 95.5405C99.0081 95.5405 105.5 89.0487 105.5 81.0405H106.5C106.5 89.6009 99.5604 96.5405 91 96.5405V95.5405Z" fill="white"/>
<path d="M67.933 119.012L68.4998 96.0123L67.5002 95.9877L66.9333 118.988L67.933 119.012Z" fill="white"/>
<path d="M67.5 183V203.042H66.5V183H67.5ZM82 217.542H127.206V218.542H82V217.542ZM67.5 203.042C67.5 211.05 73.9919 217.542 82 217.542V218.542C73.4396 218.542 66.5 211.602 66.5 203.042H67.5Z" fill="white"/>
<path d="M127.206 217.541H198V218.541H127.206V217.541ZM212.5 203.041V182.999H213.5V203.041H212.5ZM198 217.541C206.008 217.541 212.5 211.049 212.5 203.041H213.5C213.5 211.601 206.56 218.541 198 218.541V217.541Z" fill="white"/>
<path d="M144.527 247L144.527 218L143.527 218L143.527 247L144.527 247Z" fill="white"/>
<path d="M177.5 60.9995V81.0412H176.5V60.9995H177.5ZM192 95.5412H207.928V96.5412H192V95.5412ZM177.5 81.0412C177.5 89.0493 183.992 95.5412 192 95.5412V96.5412C183.44 96.5412 176.5 89.6016 176.5 81.0412H177.5Z" fill="white"/>
<path d="M207.928 95.5405H237V96.5405H207.928V95.5405ZM251.5 81.0405V60.9989H252.5V81.0405H251.5ZM237 95.5405C245.008 95.5405 251.5 89.0487 251.5 81.0405H252.5C252.5 89.6009 245.56 96.5405 237 96.5405V95.5405Z" fill="white"/>
<path d="M213.933 119.012L214.5 96.0123L213.5 95.9877L212.933 118.988L213.933 119.012Z" fill="white"/>
<path d="M68.5874 64.0706C68.4918 64.1476 68.4918 64.2374 68.5396 65.0713C68.5754 65.5716 68.6172 66.0142 68.6351 66.0463C68.6889 66.1361 68.8799 66.1232 68.9515 66.027C69.0351 65.9244 68.9336 64.2117 68.8381 64.0835C68.7545 63.9744 68.7187 63.9744 68.5874 64.0706Z" fill="white"/>
<path d="M74.1279 66.0206C72.6174 66.5979 70.9994 67.2201 70.5337 67.3997L69.6859 67.7268L69.5963 68.0283C69.2262 69.2342 65.8708 81.8448 65.8947 81.9218C65.9126 81.9731 65.9843 82.0308 66.044 82.0501C66.1096 82.0757 66.9813 81.9153 67.9784 81.6908C68.9814 81.4728 69.8113 81.306 69.8232 81.3188C69.8411 81.3316 69.1784 83.8268 68.3545 86.8544C67.244 90.9403 66.8739 92.39 66.9157 92.467C66.9933 92.5952 67.256 92.6337 67.3336 92.5247C67.3694 92.4798 68.1276 91.1007 69.0232 89.4586C69.9128 87.8166 70.6591 86.4631 70.677 86.4439C70.6889 86.4246 70.7307 86.4631 70.7606 86.5209C70.8919 86.7774 71.4113 87.3611 71.7875 87.6819C73.4413 89.093 76.7369 89.6446 79.543 88.9775C81.6386 88.4772 83.1431 87.1623 83.7103 85.3342C83.9611 84.5324 84.0268 83.9551 83.9909 82.8711C83.9551 81.7678 83.8417 81.2547 83.4596 80.4593C83.0178 79.5485 82.0804 78.6376 81.0654 78.1373C80.4266 77.823 79.6206 77.5536 78.5818 77.3098C76.8086 76.8865 76.6354 76.8737 76.6772 77.1559C76.7011 77.3355 76.8026 77.374 78.2176 77.6883C80.3669 78.1694 81.555 78.7402 82.4386 79.7216C83.3043 80.6838 83.6267 81.7357 83.573 83.4163C83.5432 84.526 83.4476 84.9558 83.0775 85.7832C82.367 87.3483 80.9341 88.304 78.7251 88.6953C78.4385 88.7466 77.7698 88.7787 77.0534 88.7787C76.0802 88.7787 75.722 88.753 75.113 88.6312C72.9517 88.2142 71.5845 87.3098 70.8442 85.796C70.5755 85.238 70.2829 84.3015 70.2412 83.8204C70.2053 83.4548 70.2113 83.4291 70.3426 83.3714C70.4203 83.3329 71.2322 83.2303 72.1457 83.1405C73.3875 83.0122 73.8234 82.9865 73.8831 83.0379C73.9308 83.0828 73.9846 83.2175 74.0085 83.3522C74.0861 83.7948 74.3786 84.3528 74.7249 84.7056C75.2981 85.2829 76.0085 85.5459 77.0235 85.5459C78.0325 85.5459 78.6295 85.3406 79.1549 84.8211C79.5908 84.3913 79.6803 84.1475 79.6803 83.3971C79.6803 82.8647 79.6564 82.7107 79.549 82.4991C79.1967 81.7935 78.743 81.5497 76.922 81.0687C75.6742 80.7415 75.5787 80.7223 75.4831 80.8249C75.2742 81.0494 75.4473 81.1328 76.8623 81.5177C78.4743 81.9474 78.8266 82.1142 79.0773 82.5568C79.2863 82.916 79.352 83.5125 79.2325 83.9166C79.1191 84.2694 78.7489 84.6671 78.3191 84.8788C77.9609 85.0584 77.9131 85.0648 77.0534 85.0648C76.2593 85.0648 76.116 85.0456 75.8115 84.9109C75.101 84.6094 74.6891 84.1283 74.4503 83.3457C74.3189 82.916 74.2592 82.7941 74.092 82.6722C73.901 82.5311 73.8532 82.5247 73.3278 82.5696C72.9816 82.5953 72.7786 82.5889 72.7905 82.5504C72.8024 82.5183 73.5905 81.0687 74.5398 79.3368C76.2951 76.1168 76.3668 75.95 76.1041 75.841C76.0623 75.8217 75.1607 75.9628 74.098 76.1553C73.0413 76.3477 72.1636 76.4952 72.1517 76.4824C72.1338 76.4696 73.2681 73.9616 74.6652 70.9147C76.0623 67.8679 77.2026 65.315 77.2026 65.238C77.2026 65.0841 77.0951 64.9558 76.9698 64.9558C76.916 64.9622 75.6384 65.4369 74.1279 66.0206Z" fill="white"/>
<path d="M63.208 67.2329C63.0588 67.3933 63.1543 67.5023 63.9066 68.0604C64.5932 68.5607 64.7424 68.612 64.82 68.3875C64.8738 68.24 64.7603 68.1309 64.0797 67.637C63.3454 67.1046 63.3334 67.1046 63.208 67.2329Z" fill="white"/>
<path d="M55.1242 69.9782C54.945 70.1835 54.957 70.4273 55.1779 70.9917C55.4286 71.6524 60.1811 86.0975 60.4796 87.1238C60.7482 88.0346 60.8856 88.2527 61.2677 88.3682C61.5542 88.458 65.644 88.4516 65.9425 88.3618C66.3186 88.2527 66.4619 88.0282 66.7127 87.143C66.844 86.7069 67.2082 85.5266 67.5366 84.526C68.1515 82.6273 68.1754 82.4991 67.8649 82.544C67.7634 82.5568 67.6739 82.7556 67.3694 83.6857C67.1604 84.3015 66.7903 85.4817 66.5335 86.3028C66.1216 87.6434 66.0559 87.8101 65.9126 87.8935C65.7753 87.9641 65.3395 87.9833 63.5722 87.9833C61.0169 87.9833 61.1721 88.0282 60.9572 87.2585C60.7065 86.3477 56.3481 73.0379 55.7033 71.2162C55.5421 70.7608 55.4107 70.3631 55.4107 70.331C55.4107 70.3054 56.3481 70.2797 57.5004 70.2797H59.59L59.6198 70.4208C59.6318 70.5042 59.7094 70.8827 59.793 71.2739C59.8706 71.6588 60.6348 74.4747 61.4886 77.5279C62.3483 80.5812 63.1245 83.3906 63.226 83.7691C63.3275 84.1475 63.423 84.4875 63.4409 84.5196C63.5006 84.6286 63.7573 84.5901 63.7931 84.4683C63.8111 84.4105 63.9185 83.9808 64.0379 83.5254C64.1573 83.0635 64.9036 80.3951 65.6917 77.5921C66.9933 72.9481 67.459 71.1906 67.5605 70.5171C67.5963 70.2925 67.6082 70.2797 67.8172 70.2797C68.1038 70.2797 68.2053 70.2027 68.1754 70.0167C68.1575 69.8756 68.1217 69.8628 67.8172 69.8435C67.3515 69.8179 67.2142 69.959 67.1186 70.5748C66.9933 71.3445 66.844 71.9154 65.2619 77.56C64.4141 80.594 63.6916 83.179 63.6618 83.3008L63.6081 83.5254L63.4767 83.0443C63.3991 82.7813 62.6707 80.1835 61.8587 77.2714C60.3602 71.941 60.193 71.2996 60.0676 70.5363C60.0258 70.2797 59.9482 70.0616 59.8706 69.9718L59.7512 69.8307H55.2495L55.1242 69.9782Z" fill="white"/>
<path d="M76.7668 69.8756C76.7429 69.8949 76.725 69.9847 76.725 70.0616C76.725 70.2477 76.7847 70.2605 77.6205 70.3054C80.0923 70.4337 81.9312 71.5433 82.8327 73.4548C82.9879 73.7884 83.3223 74.8852 83.2864 74.9301C83.2625 74.9494 80.152 75.3214 79.6564 75.3663C79.4594 75.3791 79.4475 75.3663 79.2922 74.9558C78.9101 73.9487 78.2653 73.5061 77.0534 73.442C76.3787 73.4035 75.9608 73.4741 75.4712 73.7178C74.9279 73.9872 74.4622 74.5517 74.5816 74.789C74.6771 74.9686 74.7846 74.9173 75.1548 74.526C75.5787 74.0642 75.8891 73.9359 76.6653 73.891C77.3101 73.8525 77.8355 73.9616 78.2594 74.2245C78.5639 74.417 78.7251 74.6543 78.934 75.2059C79.2027 75.9243 79.0654 75.8987 81.352 75.6293C82.4327 75.501 83.382 75.3727 83.4536 75.3406C83.7044 75.238 83.7461 75.0135 83.6267 74.4939C83.4775 73.8718 83.2088 73.1854 82.9342 72.7236C82.6058 72.1784 81.9132 71.4151 81.4237 71.0687C80.3848 70.3246 78.7191 69.8307 77.2563 69.8307C77.0116 69.8307 76.7847 69.85 76.7668 69.8756Z" fill="white"/>
<path d="M75.2324 90.8954C75.1906 90.9532 75.1727 91.0366 75.1906 91.0815C75.2622 91.2803 76.1279 92.6658 76.1817 92.6658C76.325 92.6658 76.4265 92.576 76.4265 92.4477C76.4205 92.2681 75.5309 90.8441 75.4055 90.8185C75.3518 90.8056 75.2742 90.8441 75.2324 90.8954Z" fill="white"/>
<path d="M70.5337 91.3958C70.4979 91.4407 70.3546 91.8448 70.2113 92.2938C70.0083 92.9288 69.9605 93.1405 70.0143 93.2238C70.1934 93.5381 70.3128 93.3714 70.6352 92.3643C70.8621 91.6459 70.886 91.5112 70.8203 91.4214C70.7248 91.2995 70.6113 91.2867 70.5337 91.3958Z" fill="white"/>
<path d="M210.587 64.0706C210.492 64.1476 210.492 64.2374 210.54 65.0713C210.575 65.5716 210.617 66.0142 210.635 66.0463C210.689 66.1361 210.88 66.1232 210.952 66.027C211.035 65.9244 210.934 64.2117 210.838 64.0835C210.755 63.9744 210.719 63.9744 210.587 64.0706Z" fill="white"/>
<path d="M216.128 66.0206C214.617 66.5979 212.999 67.2201 212.534 67.3997L211.686 67.7268L211.596 68.0283C211.226 69.2342 207.871 81.8448 207.895 81.9218C207.913 81.9731 207.984 82.0308 208.044 82.0501C208.11 82.0757 208.981 81.9153 209.978 81.6908C210.981 81.4728 211.811 81.306 211.823 81.3188C211.841 81.3316 211.178 83.8268 210.355 86.8544C209.244 90.9403 208.874 92.39 208.916 92.467C208.993 92.5952 209.256 92.6337 209.334 92.5247C209.369 92.4798 210.128 91.1007 211.023 89.4586C211.913 87.8166 212.659 86.4631 212.677 86.4439C212.689 86.4246 212.731 86.4631 212.761 86.5209C212.892 86.7774 213.411 87.3611 213.787 87.6819C215.441 89.093 218.737 89.6446 221.543 88.9775C223.639 88.4772 225.143 87.1623 225.71 85.3342C225.961 84.5324 226.027 83.9551 225.991 82.8711C225.955 81.7678 225.842 81.2547 225.46 80.4593C225.018 79.5485 224.08 78.6376 223.065 78.1373C222.427 77.823 221.621 77.5536 220.582 77.3098C218.809 76.8865 218.635 76.8737 218.677 77.1559C218.701 77.3355 218.803 77.374 220.218 77.6883C222.367 78.1694 223.555 78.7402 224.439 79.7216C225.304 80.6838 225.627 81.7357 225.573 83.4163C225.543 84.526 225.448 84.9558 225.077 85.7832C224.367 87.3483 222.934 88.304 220.725 88.6953C220.438 88.7466 219.77 88.7787 219.053 88.7787C218.08 88.7787 217.722 88.753 217.113 88.6312C214.952 88.2142 213.584 87.3098 212.844 85.796C212.575 85.238 212.283 84.3015 212.241 83.8204C212.205 83.4548 212.211 83.4291 212.343 83.3714C212.42 83.3329 213.232 83.2303 214.146 83.1405C215.388 83.0122 215.823 82.9865 215.883 83.0379C215.931 83.0828 215.985 83.2175 216.008 83.3522C216.086 83.7948 216.379 84.3528 216.725 84.7056C217.298 85.2829 218.009 85.5459 219.024 85.5459C220.032 85.5459 220.63 85.3406 221.155 84.8211C221.591 84.3913 221.68 84.1475 221.68 83.3971C221.68 82.8647 221.656 82.7107 221.549 82.4991C221.197 81.7935 220.743 81.5497 218.922 81.0687C217.674 80.7415 217.579 80.7223 217.483 80.8249C217.274 81.0494 217.447 81.1328 218.862 81.5177C220.474 81.9474 220.827 82.1142 221.077 82.5568C221.286 82.916 221.352 83.5125 221.233 83.9166C221.119 84.2694 220.749 84.6671 220.319 84.8788C219.961 85.0584 219.913 85.0648 219.053 85.0648C218.259 85.0648 218.116 85.0456 217.812 84.9109C217.101 84.6094 216.689 84.1283 216.45 83.3457C216.319 82.916 216.259 82.7941 216.092 82.6722C215.901 82.5311 215.853 82.5247 215.328 82.5696C214.982 82.5953 214.779 82.5889 214.791 82.5504C214.802 82.5183 215.591 81.0687 216.54 79.3368C218.295 76.1168 218.367 75.95 218.104 75.841C218.062 75.8217 217.161 75.9628 216.098 76.1553C215.041 76.3477 214.164 76.4952 214.152 76.4824C214.134 76.4696 215.268 73.9616 216.665 70.9147C218.062 67.8679 219.203 65.315 219.203 65.238C219.203 65.0841 219.095 64.9558 218.97 64.9558C218.916 64.9622 217.638 65.4369 216.128 66.0206Z" fill="white"/>
<path d="M205.208 67.2329C205.059 67.3933 205.154 67.5023 205.907 68.0604C206.593 68.5607 206.742 68.612 206.82 68.3875C206.874 68.24 206.76 68.1309 206.08 67.637C205.345 67.1046 205.333 67.1046 205.208 67.2329Z" fill="white"/>
<path d="M197.124 69.9782C196.945 70.1835 196.957 70.4273 197.178 70.9917C197.429 71.6524 202.181 86.0975 202.48 87.1238C202.748 88.0346 202.886 88.2527 203.268 88.3682C203.554 88.458 207.644 88.4516 207.942 88.3618C208.319 88.2527 208.462 88.0282 208.713 87.143C208.844 86.7069 209.208 85.5266 209.537 84.526C210.152 82.6273 210.175 82.4991 209.865 82.544C209.763 82.5568 209.674 82.7556 209.369 83.6857C209.16 84.3015 208.79 85.4817 208.534 86.3028C208.122 87.6434 208.056 87.8101 207.913 87.8935C207.775 87.9641 207.339 87.9833 205.572 87.9833C203.017 87.9833 203.172 88.0282 202.957 87.2585C202.706 86.3477 198.348 73.0379 197.703 71.2162C197.542 70.7608 197.411 70.3631 197.411 70.331C197.411 70.3054 198.348 70.2797 199.5 70.2797H201.59L201.62 70.4208C201.632 70.5042 201.709 70.8827 201.793 71.2739C201.871 71.6588 202.635 74.4747 203.489 77.5279C204.348 80.5812 205.124 83.3906 205.226 83.7691C205.327 84.1475 205.423 84.4875 205.441 84.5196C205.501 84.6286 205.757 84.5901 205.793 84.4683C205.811 84.4105 205.919 83.9808 206.038 83.5254C206.157 83.0635 206.904 80.3951 207.692 77.5921C208.993 72.9481 209.459 71.1906 209.56 70.5171C209.596 70.2925 209.608 70.2797 209.817 70.2797C210.104 70.2797 210.205 70.2027 210.175 70.0167C210.157 69.8756 210.122 69.8628 209.817 69.8435C209.351 69.8179 209.214 69.959 209.119 70.5748C208.993 71.3445 208.844 71.9154 207.262 77.56C206.414 80.594 205.692 83.179 205.662 83.3008L205.608 83.5254L205.477 83.0443C205.399 82.7813 204.671 80.1835 203.859 77.2714C202.36 71.941 202.193 71.2996 202.068 70.5363C202.026 70.2797 201.948 70.0616 201.871 69.9718L201.751 69.8307H197.25L197.124 69.9782Z" fill="white"/>
<path d="M218.767 69.8756C218.743 69.8949 218.725 69.9847 218.725 70.0616C218.725 70.2477 218.785 70.2605 219.621 70.3054C222.092 70.4337 223.931 71.5433 224.833 73.4548C224.988 73.7884 225.322 74.8852 225.286 74.9301C225.263 74.9494 222.152 75.3214 221.656 75.3663C221.459 75.3791 221.447 75.3663 221.292 74.9558C220.91 73.9487 220.265 73.5061 219.053 73.442C218.379 73.4035 217.961 73.4741 217.471 73.7178C216.928 73.9872 216.462 74.5517 216.582 74.789C216.677 74.9686 216.785 74.9173 217.155 74.526C217.579 74.0642 217.889 73.9359 218.665 73.891C219.31 73.8525 219.835 73.9616 220.259 74.2245C220.564 74.417 220.725 74.6543 220.934 75.2059C221.203 75.9243 221.065 75.8987 223.352 75.6293C224.433 75.501 225.382 75.3727 225.454 75.3406C225.704 75.238 225.746 75.0135 225.627 74.4939C225.477 73.8718 225.209 73.1854 224.934 72.7236C224.606 72.1784 223.913 71.4151 223.424 71.0687C222.385 70.3246 220.719 69.8307 219.256 69.8307C219.012 69.8307 218.785 69.85 218.767 69.8756Z" fill="white"/>
<path d="M217.232 90.8954C217.191 90.9532 217.173 91.0366 217.191 91.0815C217.262 91.2803 218.128 92.6658 218.182 92.6658C218.325 92.6658 218.426 92.576 218.426 92.4477C218.42 92.2681 217.531 90.8441 217.406 90.8185C217.352 90.8056 217.274 90.8441 217.232 90.8954Z" fill="white"/>
<path d="M212.534 91.3958C212.498 91.4407 212.355 91.8448 212.211 92.2938C212.008 92.9288 211.961 93.1405 212.014 93.2238C212.193 93.5381 212.313 93.3714 212.635 92.3643C212.862 91.6459 212.886 91.5112 212.82 91.4214C212.725 91.2995 212.611 91.2867 212.534 91.3958Z" fill="white"/>
<path d="M143.524 185.079C143.422 185.166 143.422 185.267 143.473 186.204C143.512 186.766 143.556 187.263 143.575 187.299C143.633 187.4 143.837 187.386 143.914 187.278C144.003 187.162 143.895 185.238 143.792 185.094C143.703 184.971 143.665 184.971 143.524 185.079Z" fill="white"/>
<path d="M149.447 187.271C147.832 187.919 146.103 188.618 145.605 188.82L144.699 189.188L144.603 189.527C144.207 190.882 140.621 205.052 140.646 205.139C140.665 205.196 140.742 205.261 140.806 205.283C140.876 205.312 141.808 205.132 142.873 204.879C143.946 204.634 144.833 204.447 144.846 204.461C144.865 204.476 144.156 207.279 143.276 210.682C142.088 215.273 141.693 216.902 141.737 216.988C141.82 217.133 142.101 217.176 142.184 217.053C142.222 217.003 143.033 215.453 143.99 213.608C144.941 211.763 145.739 210.242 145.758 210.22C145.771 210.199 145.816 210.242 145.848 210.307C145.988 210.595 146.543 211.251 146.945 211.611C148.713 213.197 152.236 213.817 155.236 213.067C157.476 212.505 159.084 211.028 159.69 208.973C159.958 208.072 160.029 207.424 159.99 206.206C159.952 204.966 159.831 204.389 159.422 203.495C158.95 202.472 157.948 201.448 156.863 200.886C156.18 200.533 155.319 200.23 154.208 199.956C152.313 199.481 152.128 199.466 152.172 199.783C152.198 199.985 152.306 200.028 153.819 200.382C156.116 200.922 157.386 201.564 158.331 202.666C159.256 203.748 159.601 204.93 159.544 206.818C159.512 208.065 159.41 208.548 159.014 209.478C158.254 211.237 156.723 212.311 154.361 212.75C154.055 212.808 153.34 212.844 152.574 212.844C151.534 212.844 151.151 212.815 150.5 212.678C148.19 212.21 146.728 211.193 145.937 209.492C145.65 208.865 145.337 207.813 145.292 207.272C145.254 206.861 145.26 206.833 145.401 206.768C145.484 206.724 146.352 206.609 147.328 206.508C148.656 206.364 149.122 206.335 149.185 206.393C149.236 206.443 149.294 206.595 149.319 206.746C149.402 207.243 149.715 207.871 150.085 208.267C150.698 208.916 151.457 209.211 152.542 209.211C153.621 209.211 154.259 208.981 154.821 208.397C155.287 207.914 155.382 207.64 155.382 206.797C155.382 206.198 155.357 206.025 155.242 205.787C154.865 204.995 154.38 204.721 152.434 204.18C151.1 203.813 150.998 203.791 150.896 203.906C150.672 204.158 150.857 204.252 152.37 204.685C154.093 205.168 154.47 205.355 154.738 205.852C154.961 206.256 155.031 206.926 154.904 207.38C154.782 207.777 154.387 208.224 153.927 208.462C153.544 208.663 153.493 208.671 152.574 208.671C151.725 208.671 151.572 208.649 151.247 208.498C150.487 208.159 150.047 207.618 149.792 206.739C149.651 206.256 149.587 206.119 149.409 205.982C149.205 205.823 149.153 205.816 148.592 205.867C148.222 205.896 148.005 205.888 148.017 205.845C148.03 205.809 148.873 204.18 149.887 202.234C151.764 198.616 151.84 198.428 151.56 198.306C151.515 198.284 150.551 198.443 149.415 198.659C148.285 198.875 147.347 199.041 147.335 199.027C147.315 199.012 148.528 196.194 150.021 192.77C151.515 189.346 152.734 186.478 152.734 186.391C152.734 186.218 152.619 186.074 152.485 186.074C152.427 186.081 151.062 186.615 149.447 187.271Z" fill="white"/>
<path d="M137.774 188.633C137.615 188.813 137.717 188.936 138.521 189.563C139.255 190.125 139.414 190.183 139.497 189.93C139.555 189.764 139.433 189.642 138.706 189.087C137.921 188.489 137.908 188.489 137.774 188.633Z" fill="white"/>
<path d="M129.133 191.718C128.941 191.948 128.954 192.222 129.19 192.857C129.458 193.599 134.538 209.831 134.857 210.984C135.145 212.008 135.291 212.253 135.7 212.383C136.006 212.484 140.378 212.476 140.697 212.375C141.099 212.253 141.252 212.001 141.52 211.006C141.661 210.516 142.05 209.19 142.401 208.065C143.059 205.932 143.084 205.787 142.752 205.838C142.644 205.852 142.548 206.076 142.222 207.121C141.999 207.813 141.603 209.139 141.329 210.062C140.889 211.568 140.818 211.756 140.665 211.849C140.518 211.929 140.053 211.95 138.163 211.95C135.432 211.95 135.598 212.001 135.368 211.136C135.1 210.112 130.441 195.156 129.752 193.109C129.579 192.597 129.439 192.15 129.439 192.114C129.439 192.085 130.441 192.057 131.673 192.057H133.907L133.938 192.215C133.951 192.309 134.034 192.734 134.124 193.174C134.207 193.606 135.023 196.77 135.936 200.201C136.855 203.632 137.685 206.789 137.793 207.215C137.902 207.64 138.004 208.022 138.023 208.058C138.087 208.18 138.361 208.137 138.4 208C138.419 207.935 138.534 207.452 138.661 206.941C138.789 206.422 139.587 203.423 140.429 200.273C141.82 195.055 142.318 193.08 142.427 192.323C142.465 192.071 142.478 192.057 142.701 192.057C143.007 192.057 143.116 191.97 143.084 191.761C143.065 191.602 143.027 191.588 142.701 191.566C142.203 191.538 142.057 191.696 141.954 192.388C141.82 193.253 141.661 193.895 139.97 200.237C139.063 203.647 138.291 206.551 138.259 206.688L138.202 206.941L138.061 206.4C137.978 206.105 137.2 203.185 136.332 199.913C134.73 193.923 134.551 193.203 134.417 192.345C134.372 192.057 134.289 191.811 134.207 191.711L134.079 191.552H129.267L129.133 191.718Z" fill="white"/>
<path d="M152.268 191.602C152.242 191.624 152.223 191.725 152.223 191.811C152.223 192.021 152.287 192.035 153.181 192.085C155.823 192.23 157.788 193.476 158.752 195.624C158.918 195.999 159.276 197.232 159.237 197.282C159.212 197.304 155.887 197.722 155.357 197.772C155.146 197.787 155.134 197.772 154.968 197.311C154.559 196.179 153.87 195.682 152.574 195.61C151.853 195.567 151.406 195.646 150.883 195.92C150.302 196.223 149.804 196.857 149.932 197.124C150.034 197.325 150.149 197.268 150.545 196.828C150.998 196.309 151.33 196.165 152.159 196.115C152.849 196.071 153.41 196.194 153.863 196.489C154.189 196.706 154.361 196.972 154.585 197.592C154.872 198.399 154.725 198.371 157.169 198.068C158.325 197.924 159.339 197.78 159.416 197.744C159.684 197.628 159.729 197.376 159.601 196.792C159.441 196.093 159.154 195.322 158.861 194.803C158.51 194.19 157.769 193.332 157.246 192.943C156.136 192.107 154.355 191.552 152.791 191.552C152.53 191.552 152.287 191.574 152.268 191.602Z" fill="white"/>
<path d="M150.628 215.222C150.583 215.287 150.564 215.381 150.583 215.432C150.66 215.655 151.585 217.212 151.642 217.212C151.796 217.212 151.904 217.111 151.904 216.967C151.898 216.765 150.947 215.165 150.813 215.136C150.755 215.122 150.672 215.165 150.628 215.222Z" fill="white"/>
<path d="M145.605 215.785C145.567 215.835 145.414 216.289 145.26 216.794C145.043 217.507 144.992 217.745 145.05 217.839C145.241 218.192 145.369 218.005 145.713 216.873C145.956 216.066 145.982 215.914 145.911 215.814C145.809 215.677 145.688 215.662 145.605 215.785Z" fill="white"/>
<path d="M75.5874 479.071C75.4918 479.148 75.4918 479.237 75.5396 480.071C75.5754 480.572 75.6172 481.014 75.6351 481.046C75.6889 481.136 75.8799 481.123 75.9515 481.027C76.0351 480.924 75.9336 479.212 75.8381 479.083C75.7545 478.974 75.7187 478.974 75.5874 479.071Z" fill="white"/>
<path d="M81.1279 481.021C79.6174 481.598 77.9994 482.22 77.5337 482.4L76.6859 482.727L76.5963 483.028C76.2262 484.234 72.8708 496.845 72.8947 496.922C72.9126 496.973 72.9843 497.031 73.044 497.05C73.1096 497.076 73.9813 496.915 74.9784 496.691C75.9814 496.473 76.8113 496.306 76.8232 496.319C76.8411 496.332 76.1784 498.827 75.3545 501.854C74.244 505.94 73.8739 507.39 73.9156 507.467C73.9933 507.595 74.256 507.634 74.3336 507.525C74.3694 507.48 75.1276 506.101 76.0232 504.459C76.9128 502.817 77.6591 501.463 77.677 501.444C77.6889 501.425 77.7307 501.463 77.7606 501.521C77.8919 501.777 78.4113 502.361 78.7875 502.682C80.4413 504.093 83.7369 504.645 86.543 503.978C88.6386 503.477 90.1431 502.162 90.7103 500.334C90.9611 499.532 91.0268 498.955 90.9909 497.871C90.9551 496.768 90.8417 496.255 90.4596 495.459C90.0178 494.548 89.0804 493.638 88.0654 493.137C87.4266 492.823 86.6206 492.554 85.5818 492.31C83.8086 491.887 83.6354 491.874 83.6772 492.156C83.7011 492.336 83.8026 492.374 85.2176 492.688C87.3669 493.169 88.555 493.74 89.4386 494.722C90.3043 495.684 90.6267 496.736 90.573 498.416C90.5432 499.526 90.4476 499.956 90.0775 500.783C89.367 502.348 87.9341 503.304 85.7251 503.695C85.4385 503.747 84.7698 503.779 84.0534 503.779C83.0802 503.779 82.722 503.753 82.113 503.631C79.9517 503.214 78.5845 502.31 77.8442 500.796C77.5755 500.238 77.2829 499.301 77.2412 498.82C77.2053 498.455 77.2113 498.429 77.3426 498.371C77.4203 498.333 78.2322 498.23 79.1457 498.14C80.3875 498.012 80.8234 497.987 80.8831 498.038C80.9308 498.083 80.9846 498.217 81.0085 498.352C81.0861 498.795 81.3786 499.353 81.7249 499.706C82.2981 500.283 83.0085 500.546 84.0235 500.546C85.0325 500.546 85.6295 500.341 86.1549 499.821C86.5908 499.391 86.6803 499.148 86.6803 498.397C86.6803 497.865 86.6564 497.711 86.549 497.499C86.1967 496.793 85.743 496.55 83.922 496.069C82.6742 495.742 82.5787 495.722 82.4831 495.825C82.2742 496.049 82.4473 496.133 83.8623 496.518C85.4743 496.947 85.8266 497.114 86.0773 497.557C86.2863 497.916 86.3519 498.513 86.2325 498.917C86.1191 499.269 85.7489 499.667 85.3191 499.879C84.9608 500.058 84.9131 500.065 84.0534 500.065C83.2593 500.065 83.116 500.046 82.8115 499.911C82.101 499.609 81.6891 499.128 81.4503 498.346C81.3189 497.916 81.2592 497.794 81.092 497.672C80.901 497.531 80.8532 497.525 80.3278 497.57C79.9816 497.595 79.7786 497.589 79.7905 497.55C79.8024 497.518 80.5905 496.069 81.5398 494.337C83.2951 491.117 83.3668 490.95 83.1041 490.841C83.0623 490.822 82.1607 490.963 81.098 491.155C80.0413 491.348 79.1636 491.495 79.1517 491.482C79.1338 491.47 80.2681 488.962 81.6652 485.915C83.0623 482.868 84.2026 480.315 84.2026 480.238C84.2026 480.084 84.0951 479.956 83.9698 479.956C83.916 479.962 82.6384 480.437 81.1279 481.021Z" fill="white"/>
<path d="M70.208 482.233C70.0588 482.393 70.1543 482.502 70.9066 483.06C71.5932 483.561 71.7424 483.612 71.82 483.387C71.8738 483.24 71.7603 483.131 71.0797 482.637C70.3454 482.105 70.3334 482.105 70.208 482.233Z" fill="white"/>
<path d="M62.1242 484.978C61.945 485.184 61.957 485.427 62.1779 485.992C62.4286 486.652 67.1811 501.098 67.4796 502.124C67.7482 503.035 67.8856 503.253 68.2677 503.368C68.5542 503.458 72.644 503.452 72.9425 503.362C73.3186 503.253 73.4619 503.028 73.7127 502.143C73.844 501.707 74.2082 500.527 74.5366 499.526C75.1515 497.627 75.1754 497.499 74.8649 497.544C74.7634 497.557 74.6739 497.756 74.3694 498.686C74.1604 499.301 73.7903 500.482 73.5335 501.303C73.1216 502.643 73.0559 502.81 72.9126 502.894C72.7753 502.964 72.3395 502.983 70.5722 502.983C68.0169 502.983 68.1721 503.028 67.9572 502.259C67.7065 501.348 63.3481 488.038 62.7033 486.216C62.5421 485.761 62.4107 485.363 62.4107 485.331C62.4107 485.305 63.3481 485.28 64.5004 485.28H66.59L66.6198 485.421C66.6318 485.504 66.7094 485.883 66.793 486.274C66.8706 486.659 67.6348 489.475 68.4886 492.528C69.3483 495.581 70.1245 498.391 70.226 498.769C70.3275 499.148 70.423 499.488 70.4409 499.52C70.5006 499.629 70.7573 499.59 70.7931 499.468C70.8111 499.411 70.9185 498.981 71.0379 498.525C71.1573 498.064 71.9036 495.395 72.6917 492.592C73.9933 487.948 74.459 486.191 74.5604 485.517C74.5963 485.293 74.6082 485.28 74.8172 485.28C75.1038 485.28 75.2052 485.203 75.1754 485.017C75.1575 484.876 75.1217 484.863 74.8172 484.844C74.3515 484.818 74.2142 484.959 74.1186 485.575C73.9933 486.345 73.844 486.915 72.2619 492.56C71.4141 495.594 70.6916 498.179 70.6618 498.301L70.6081 498.525L70.4767 498.044C70.3991 497.781 69.6707 495.183 68.8587 492.271C67.3602 486.941 67.193 486.3 67.0676 485.536C67.0258 485.28 66.9482 485.062 66.8706 484.972L66.7512 484.831H62.2495L62.1242 484.978Z" fill="white"/>
<path d="M83.7668 484.876C83.7429 484.895 83.725 484.985 83.725 485.062C83.725 485.248 83.7847 485.26 84.6205 485.305C87.0923 485.434 88.9311 486.543 89.8327 488.455C89.9879 488.788 90.3222 489.885 90.2864 489.93C90.2625 489.949 87.152 490.321 86.6564 490.366C86.4594 490.379 86.4475 490.366 86.2922 489.956C85.9101 488.949 85.2653 488.506 84.0534 488.442C83.3787 488.404 82.9608 488.474 82.4712 488.718C81.9279 488.987 81.4622 489.552 81.5816 489.789C81.6771 489.969 81.7846 489.917 82.1548 489.526C82.5787 489.064 82.8891 488.936 83.6653 488.891C84.3101 488.853 84.8355 488.962 85.2594 489.225C85.5639 489.417 85.7251 489.654 85.934 490.206C86.2027 490.924 86.0654 490.899 88.352 490.629C89.4327 490.501 90.382 490.373 90.4536 490.341C90.7044 490.238 90.7461 490.014 90.6267 489.494C90.4775 488.872 90.2088 488.185 89.9342 487.724C89.6058 487.178 88.9132 486.415 88.4237 486.069C87.3848 485.325 85.7191 484.831 84.2563 484.831C84.0116 484.831 83.7847 484.85 83.7668 484.876Z" fill="white"/>
<path d="M82.2324 505.895C82.1906 505.953 82.1727 506.037 82.1906 506.081C82.2622 506.28 83.1279 507.666 83.1817 507.666C83.325 507.666 83.4265 507.576 83.4265 507.448C83.4205 507.268 82.5309 505.844 82.4055 505.818C82.3518 505.806 82.2742 505.844 82.2324 505.895Z" fill="white"/>
<path d="M77.5337 506.396C77.4979 506.441 77.3546 506.845 77.2113 507.294C77.0083 507.929 76.9605 508.14 77.0143 508.224C77.1934 508.538 77.3128 508.371 77.6352 507.364C77.8621 506.646 77.886 506.511 77.8203 506.421C77.7247 506.3 77.6113 506.287 77.5337 506.396Z" fill="white"/>
</svg>
