<svg width="264" height="233" viewBox="0 0 264 233" fill="none" xmlns="http://www.w3.org/2000/svg">
<mask id="path-1-inside-1_2654_2565" fill="white">
<path fill-rule="evenodd" clip-rule="evenodd" d="M0 7.00001C0 3.13401 3.13401 0 7 0H257C260.866 0 264 3.13401 264 7V226C264 229.866 260.866 233 257 233H6.99999C3.134 233 0 229.866 0 226V7.00001ZM34.6296 20.8066C34.6296 27.9863 28.8093 33.8066 21.6296 33.8066C14.4499 33.8066 8.62964 27.9863 8.62964 20.8066C8.62964 13.6269 14.4499 7.80664 21.6296 7.80664C28.8093 7.80664 34.6296 13.6269 34.6296 20.8066ZM23 147C30.1797 147 36 141.18 36 134C36 126.82 30.1797 121 23 121C15.8203 121 10 126.82 10 134C10 141.18 15.8203 147 23 147ZM35 58C35 65.1797 29.1797 71 22 71C14.8203 71 9 65.1797 9 58C9 50.8203 14.8203 45 22 45C29.1797 45 35 50.8203 35 58ZM23.3704 184.193C30.5501 184.193 36.3704 178.373 36.3704 171.193C36.3704 164.014 30.5501 158.193 23.3704 158.193C16.1907 158.193 10.3704 164.014 10.3704 171.193C10.3704 178.373 16.1907 184.193 23.3704 184.193ZM36 96C36 103.18 30.1797 109 23 109C15.8203 109 10 103.18 10 96C10 88.8203 15.8203 83 23 83C30.1797 83 36 88.8203 36 96ZM24.3704 222.193C31.5501 222.193 37.3704 216.373 37.3704 209.193C37.3704 202.014 31.5501 196.193 24.3704 196.193C17.1907 196.193 11.3704 202.014 11.3704 209.193C11.3704 216.373 17.1907 222.193 24.3704 222.193ZM107 21C107 28.1797 101.18 34 94 34C86.8203 34 81 28.1797 81 21C81 13.8203 86.8203 8 94 8C101.18 8 107 13.8203 107 21ZM95.3704 147.193C102.55 147.193 108.37 141.373 108.37 134.193C108.37 127.014 102.55 121.193 95.3704 121.193C88.1907 121.193 82.3704 127.014 82.3704 134.193C82.3704 141.373 88.1907 147.193 95.3704 147.193ZM107.37 58.1934C107.37 65.3731 101.55 71.1934 94.3704 71.1934C87.1907 71.1934 81.3704 65.3731 81.3704 58.1934C81.3704 51.0137 87.1907 45.1934 94.3704 45.1934C101.55 45.1934 107.37 51.0137 107.37 58.1934ZM95.7407 184.387C102.92 184.387 108.741 178.566 108.741 171.387C108.741 164.207 102.92 158.387 95.7407 158.387C88.561 158.387 82.7407 164.207 82.7407 171.387C82.7407 178.566 88.561 184.387 95.7407 184.387ZM108.37 96.1934C108.37 103.373 102.55 109.193 95.3704 109.193C88.1907 109.193 82.3704 103.373 82.3704 96.1934C82.3704 89.0137 88.1907 83.1934 95.3704 83.1934C102.55 83.1934 108.37 89.0137 108.37 96.1934ZM96.7407 222.387C103.92 222.387 109.741 216.566 109.741 209.387C109.741 202.207 103.92 196.387 96.7407 196.387C89.561 196.387 83.7407 202.207 83.7407 209.387C83.7407 216.566 89.561 222.387 96.7407 222.387ZM180 21C180 28.1797 174.18 34 167 34C159.82 34 154 28.1797 154 21C154 13.8203 159.82 8 167 8C174.18 8 180 13.8203 180 21ZM168.37 147.193C175.55 147.193 181.37 141.373 181.37 134.193C181.37 127.014 175.55 121.193 168.37 121.193C161.191 121.193 155.37 127.014 155.37 134.193C155.37 141.373 161.191 147.193 168.37 147.193ZM180.37 58.1934C180.37 65.3731 174.55 71.1934 167.37 71.1934C160.191 71.1934 154.37 65.3731 154.37 58.1934C154.37 51.0137 160.191 45.1934 167.37 45.1934C174.55 45.1934 180.37 51.0137 180.37 58.1934ZM168.741 184.387C175.92 184.387 181.741 178.566 181.741 171.387C181.741 164.207 175.92 158.387 168.741 158.387C161.561 158.387 155.741 164.207 155.741 171.387C155.741 178.566 161.561 184.387 168.741 184.387ZM181.37 96.1934C181.37 103.373 175.55 109.193 168.37 109.193C161.191 109.193 155.37 103.373 155.37 96.1934C155.37 89.0137 161.191 83.1934 168.37 83.1934C175.55 83.1934 181.37 89.0137 181.37 96.1934ZM169.741 222.387C176.92 222.387 182.741 216.566 182.741 209.387C182.741 202.207 176.92 196.387 169.741 196.387C162.561 196.387 156.741 202.207 156.741 209.387C156.741 216.566 162.561 222.387 169.741 222.387ZM71 21C71 28.1797 65.1797 34 58 34C50.8203 34 45 28.1797 45 21C45 13.8203 50.8203 8 58 8C65.1797 8 71 13.8203 71 21ZM59.3704 147.193C66.5501 147.193 72.3704 141.373 72.3704 134.193C72.3704 127.014 66.5501 121.193 59.3704 121.193C52.1907 121.193 46.3704 127.014 46.3704 134.193C46.3704 141.373 52.1907 147.193 59.3704 147.193ZM71.3704 58.1934C71.3704 65.3731 65.5501 71.1934 58.3704 71.1934C51.1907 71.1934 45.3704 65.3731 45.3704 58.1934C45.3704 51.0137 51.1907 45.1934 58.3704 45.1934C65.5501 45.1934 71.3704 51.0137 71.3704 58.1934ZM59.7407 184.387C66.9204 184.387 72.7407 178.566 72.7407 171.387C72.7407 164.207 66.9204 158.387 59.7407 158.387C52.561 158.387 46.7407 164.207 46.7407 171.387C46.7407 178.566 52.561 184.387 59.7407 184.387ZM72.3704 96.1934C72.3704 103.373 66.5501 109.193 59.3704 109.193C52.1907 109.193 46.3704 103.373 46.3704 96.1934C46.3704 89.0137 52.1907 83.1934 59.3704 83.1934C66.5501 83.1934 72.3704 89.0137 72.3704 96.1934ZM60.7407 222.387C67.9204 222.387 73.7407 216.566 73.7407 209.387C73.7407 202.207 67.9204 196.387 60.7407 196.387C53.561 196.387 47.7407 202.207 47.7407 209.387C47.7407 216.566 53.561 222.387 60.7407 222.387ZM143.37 21.1934C143.37 28.3731 137.55 34.1934 130.37 34.1934C123.191 34.1934 117.37 28.3731 117.37 21.1934C117.37 14.0137 123.191 8.19336 130.37 8.19336C137.55 8.19336 143.37 14.0137 143.37 21.1934ZM131.741 147.387C138.92 147.387 144.741 141.566 144.741 134.387C144.741 127.207 138.92 121.387 131.741 121.387C124.561 121.387 118.741 127.207 118.741 134.387C118.741 141.566 124.561 147.387 131.741 147.387ZM143.741 58.3867C143.741 65.5664 137.92 71.3867 130.741 71.3867C123.561 71.3867 117.741 65.5664 117.741 58.3867C117.741 51.207 123.561 45.3867 130.741 45.3867C137.92 45.3867 143.741 51.207 143.741 58.3867ZM132.111 184.58C139.291 184.58 145.111 178.76 145.111 171.58C145.111 164.4 139.291 158.58 132.111 158.58C124.931 158.58 119.111 164.4 119.111 171.58C119.111 178.76 124.931 184.58 132.111 184.58ZM144.741 96.3867C144.741 103.566 138.92 109.387 131.741 109.387C124.561 109.387 118.741 103.566 118.741 96.3867C118.741 89.207 124.561 83.3867 131.741 83.3867C138.92 83.3867 144.741 89.207 144.741 96.3867ZM133.111 222.58C140.291 222.58 146.111 216.76 146.111 209.58C146.111 202.4 140.291 196.58 133.111 196.58C125.931 196.58 120.111 202.4 120.111 209.58C120.111 216.76 125.931 222.58 133.111 222.58ZM216.37 21.1934C216.37 28.3731 210.55 34.1934 203.37 34.1934C196.191 34.1934 190.37 28.3731 190.37 21.1934C190.37 14.0137 196.191 8.19336 203.37 8.19336C210.55 8.19336 216.37 14.0137 216.37 21.1934ZM204.741 147.387C211.92 147.387 217.741 141.566 217.741 134.387C217.741 127.207 211.92 121.387 204.741 121.387C197.561 121.387 191.741 127.207 191.741 134.387C191.741 141.566 197.561 147.387 204.741 147.387ZM216.741 58.3867C216.741 65.5664 210.92 71.3867 203.741 71.3867C196.561 71.3867 190.741 65.5664 190.741 58.3867C190.741 51.207 196.561 45.3867 203.741 45.3867C210.92 45.3867 216.741 51.207 216.741 58.3867ZM205.111 184.58C212.291 184.58 218.111 178.76 218.111 171.58C218.111 164.4 212.291 158.58 205.111 158.58C197.931 158.58 192.111 164.4 192.111 171.58C192.111 178.76 197.931 184.58 205.111 184.58ZM217.741 96.3867C217.741 103.566 211.92 109.387 204.741 109.387C197.561 109.387 191.741 103.566 191.741 96.3867C191.741 89.207 197.561 83.3867 204.741 83.3867C211.92 83.3867 217.741 89.207 217.741 96.3867ZM206.111 222.58C213.291 222.58 219.111 216.76 219.111 209.58C219.111 202.4 213.291 196.58 206.111 196.58C198.931 196.58 193.111 202.4 193.111 209.58C193.111 216.76 198.931 222.58 206.111 222.58ZM252 22C252 29.1797 246.18 35 239 35C231.82 35 226 29.1797 226 22C226 14.8203 231.82 9 239 9C246.18 9 252 14.8203 252 22ZM240.37 148.193C247.55 148.193 253.37 142.373 253.37 135.193C253.37 128.014 247.55 122.193 240.37 122.193C233.191 122.193 227.37 128.014 227.37 135.193C227.37 142.373 233.191 148.193 240.37 148.193ZM252.37 59.1934C252.37 66.3731 246.55 72.1934 239.37 72.1934C232.191 72.1934 226.37 66.3731 226.37 59.1934C226.37 52.0137 232.191 46.1934 239.37 46.1934C246.55 46.1934 252.37 52.0137 252.37 59.1934ZM240.741 185.387C247.92 185.387 253.741 179.566 253.741 172.387C253.741 165.207 247.92 159.387 240.741 159.387C233.561 159.387 227.741 165.207 227.741 172.387C227.741 179.566 233.561 185.387 240.741 185.387ZM253.37 97.1934C253.37 104.373 247.55 110.193 240.37 110.193C233.191 110.193 227.37 104.373 227.37 97.1934C227.37 90.0137 233.191 84.1934 240.37 84.1934C247.55 84.1934 253.37 90.0137 253.37 97.1934ZM241.741 223.387C248.92 223.387 254.741 217.566 254.741 210.387C254.741 203.207 248.92 197.387 241.741 197.387C234.561 197.387 228.741 203.207 228.741 210.387C228.741 217.566 234.561 223.387 241.741 223.387Z"/>
</mask>
<path fill-rule="evenodd" clip-rule="evenodd" d="M0 7.00001C0 3.13401 3.13401 0 7 0H257C260.866 0 264 3.13401 264 7V226C264 229.866 260.866 233 257 233H6.99999C3.134 233 0 229.866 0 226V7.00001ZM34.6296 20.8066C34.6296 27.9863 28.8093 33.8066 21.6296 33.8066C14.4499 33.8066 8.62964 27.9863 8.62964 20.8066C8.62964 13.6269 14.4499 7.80664 21.6296 7.80664C28.8093 7.80664 34.6296 13.6269 34.6296 20.8066ZM23 147C30.1797 147 36 141.18 36 134C36 126.82 30.1797 121 23 121C15.8203 121 10 126.82 10 134C10 141.18 15.8203 147 23 147ZM35 58C35 65.1797 29.1797 71 22 71C14.8203 71 9 65.1797 9 58C9 50.8203 14.8203 45 22 45C29.1797 45 35 50.8203 35 58ZM23.3704 184.193C30.5501 184.193 36.3704 178.373 36.3704 171.193C36.3704 164.014 30.5501 158.193 23.3704 158.193C16.1907 158.193 10.3704 164.014 10.3704 171.193C10.3704 178.373 16.1907 184.193 23.3704 184.193ZM36 96C36 103.18 30.1797 109 23 109C15.8203 109 10 103.18 10 96C10 88.8203 15.8203 83 23 83C30.1797 83 36 88.8203 36 96ZM24.3704 222.193C31.5501 222.193 37.3704 216.373 37.3704 209.193C37.3704 202.014 31.5501 196.193 24.3704 196.193C17.1907 196.193 11.3704 202.014 11.3704 209.193C11.3704 216.373 17.1907 222.193 24.3704 222.193ZM107 21C107 28.1797 101.18 34 94 34C86.8203 34 81 28.1797 81 21C81 13.8203 86.8203 8 94 8C101.18 8 107 13.8203 107 21ZM95.3704 147.193C102.55 147.193 108.37 141.373 108.37 134.193C108.37 127.014 102.55 121.193 95.3704 121.193C88.1907 121.193 82.3704 127.014 82.3704 134.193C82.3704 141.373 88.1907 147.193 95.3704 147.193ZM107.37 58.1934C107.37 65.3731 101.55 71.1934 94.3704 71.1934C87.1907 71.1934 81.3704 65.3731 81.3704 58.1934C81.3704 51.0137 87.1907 45.1934 94.3704 45.1934C101.55 45.1934 107.37 51.0137 107.37 58.1934ZM95.7407 184.387C102.92 184.387 108.741 178.566 108.741 171.387C108.741 164.207 102.92 158.387 95.7407 158.387C88.561 158.387 82.7407 164.207 82.7407 171.387C82.7407 178.566 88.561 184.387 95.7407 184.387ZM108.37 96.1934C108.37 103.373 102.55 109.193 95.3704 109.193C88.1907 109.193 82.3704 103.373 82.3704 96.1934C82.3704 89.0137 88.1907 83.1934 95.3704 83.1934C102.55 83.1934 108.37 89.0137 108.37 96.1934ZM96.7407 222.387C103.92 222.387 109.741 216.566 109.741 209.387C109.741 202.207 103.92 196.387 96.7407 196.387C89.561 196.387 83.7407 202.207 83.7407 209.387C83.7407 216.566 89.561 222.387 96.7407 222.387ZM180 21C180 28.1797 174.18 34 167 34C159.82 34 154 28.1797 154 21C154 13.8203 159.82 8 167 8C174.18 8 180 13.8203 180 21ZM168.37 147.193C175.55 147.193 181.37 141.373 181.37 134.193C181.37 127.014 175.55 121.193 168.37 121.193C161.191 121.193 155.37 127.014 155.37 134.193C155.37 141.373 161.191 147.193 168.37 147.193ZM180.37 58.1934C180.37 65.3731 174.55 71.1934 167.37 71.1934C160.191 71.1934 154.37 65.3731 154.37 58.1934C154.37 51.0137 160.191 45.1934 167.37 45.1934C174.55 45.1934 180.37 51.0137 180.37 58.1934ZM168.741 184.387C175.92 184.387 181.741 178.566 181.741 171.387C181.741 164.207 175.92 158.387 168.741 158.387C161.561 158.387 155.741 164.207 155.741 171.387C155.741 178.566 161.561 184.387 168.741 184.387ZM181.37 96.1934C181.37 103.373 175.55 109.193 168.37 109.193C161.191 109.193 155.37 103.373 155.37 96.1934C155.37 89.0137 161.191 83.1934 168.37 83.1934C175.55 83.1934 181.37 89.0137 181.37 96.1934ZM169.741 222.387C176.92 222.387 182.741 216.566 182.741 209.387C182.741 202.207 176.92 196.387 169.741 196.387C162.561 196.387 156.741 202.207 156.741 209.387C156.741 216.566 162.561 222.387 169.741 222.387ZM71 21C71 28.1797 65.1797 34 58 34C50.8203 34 45 28.1797 45 21C45 13.8203 50.8203 8 58 8C65.1797 8 71 13.8203 71 21ZM59.3704 147.193C66.5501 147.193 72.3704 141.373 72.3704 134.193C72.3704 127.014 66.5501 121.193 59.3704 121.193C52.1907 121.193 46.3704 127.014 46.3704 134.193C46.3704 141.373 52.1907 147.193 59.3704 147.193ZM71.3704 58.1934C71.3704 65.3731 65.5501 71.1934 58.3704 71.1934C51.1907 71.1934 45.3704 65.3731 45.3704 58.1934C45.3704 51.0137 51.1907 45.1934 58.3704 45.1934C65.5501 45.1934 71.3704 51.0137 71.3704 58.1934ZM59.7407 184.387C66.9204 184.387 72.7407 178.566 72.7407 171.387C72.7407 164.207 66.9204 158.387 59.7407 158.387C52.561 158.387 46.7407 164.207 46.7407 171.387C46.7407 178.566 52.561 184.387 59.7407 184.387ZM72.3704 96.1934C72.3704 103.373 66.5501 109.193 59.3704 109.193C52.1907 109.193 46.3704 103.373 46.3704 96.1934C46.3704 89.0137 52.1907 83.1934 59.3704 83.1934C66.5501 83.1934 72.3704 89.0137 72.3704 96.1934ZM60.7407 222.387C67.9204 222.387 73.7407 216.566 73.7407 209.387C73.7407 202.207 67.9204 196.387 60.7407 196.387C53.561 196.387 47.7407 202.207 47.7407 209.387C47.7407 216.566 53.561 222.387 60.7407 222.387ZM143.37 21.1934C143.37 28.3731 137.55 34.1934 130.37 34.1934C123.191 34.1934 117.37 28.3731 117.37 21.1934C117.37 14.0137 123.191 8.19336 130.37 8.19336C137.55 8.19336 143.37 14.0137 143.37 21.1934ZM131.741 147.387C138.92 147.387 144.741 141.566 144.741 134.387C144.741 127.207 138.92 121.387 131.741 121.387C124.561 121.387 118.741 127.207 118.741 134.387C118.741 141.566 124.561 147.387 131.741 147.387ZM143.741 58.3867C143.741 65.5664 137.92 71.3867 130.741 71.3867C123.561 71.3867 117.741 65.5664 117.741 58.3867C117.741 51.207 123.561 45.3867 130.741 45.3867C137.92 45.3867 143.741 51.207 143.741 58.3867ZM132.111 184.58C139.291 184.58 145.111 178.76 145.111 171.58C145.111 164.4 139.291 158.58 132.111 158.58C124.931 158.58 119.111 164.4 119.111 171.58C119.111 178.76 124.931 184.58 132.111 184.58ZM144.741 96.3867C144.741 103.566 138.92 109.387 131.741 109.387C124.561 109.387 118.741 103.566 118.741 96.3867C118.741 89.207 124.561 83.3867 131.741 83.3867C138.92 83.3867 144.741 89.207 144.741 96.3867ZM133.111 222.58C140.291 222.58 146.111 216.76 146.111 209.58C146.111 202.4 140.291 196.58 133.111 196.58C125.931 196.58 120.111 202.4 120.111 209.58C120.111 216.76 125.931 222.58 133.111 222.58ZM216.37 21.1934C216.37 28.3731 210.55 34.1934 203.37 34.1934C196.191 34.1934 190.37 28.3731 190.37 21.1934C190.37 14.0137 196.191 8.19336 203.37 8.19336C210.55 8.19336 216.37 14.0137 216.37 21.1934ZM204.741 147.387C211.92 147.387 217.741 141.566 217.741 134.387C217.741 127.207 211.92 121.387 204.741 121.387C197.561 121.387 191.741 127.207 191.741 134.387C191.741 141.566 197.561 147.387 204.741 147.387ZM216.741 58.3867C216.741 65.5664 210.92 71.3867 203.741 71.3867C196.561 71.3867 190.741 65.5664 190.741 58.3867C190.741 51.207 196.561 45.3867 203.741 45.3867C210.92 45.3867 216.741 51.207 216.741 58.3867ZM205.111 184.58C212.291 184.58 218.111 178.76 218.111 171.58C218.111 164.4 212.291 158.58 205.111 158.58C197.931 158.58 192.111 164.4 192.111 171.58C192.111 178.76 197.931 184.58 205.111 184.58ZM217.741 96.3867C217.741 103.566 211.92 109.387 204.741 109.387C197.561 109.387 191.741 103.566 191.741 96.3867C191.741 89.207 197.561 83.3867 204.741 83.3867C211.92 83.3867 217.741 89.207 217.741 96.3867ZM206.111 222.58C213.291 222.58 219.111 216.76 219.111 209.58C219.111 202.4 213.291 196.58 206.111 196.58C198.931 196.58 193.111 202.4 193.111 209.58C193.111 216.76 198.931 222.58 206.111 222.58ZM252 22C252 29.1797 246.18 35 239 35C231.82 35 226 29.1797 226 22C226 14.8203 231.82 9 239 9C246.18 9 252 14.8203 252 22ZM240.37 148.193C247.55 148.193 253.37 142.373 253.37 135.193C253.37 128.014 247.55 122.193 240.37 122.193C233.191 122.193 227.37 128.014 227.37 135.193C227.37 142.373 233.191 148.193 240.37 148.193ZM252.37 59.1934C252.37 66.3731 246.55 72.1934 239.37 72.1934C232.191 72.1934 226.37 66.3731 226.37 59.1934C226.37 52.0137 232.191 46.1934 239.37 46.1934C246.55 46.1934 252.37 52.0137 252.37 59.1934ZM240.741 185.387C247.92 185.387 253.741 179.566 253.741 172.387C253.741 165.207 247.92 159.387 240.741 159.387C233.561 159.387 227.741 165.207 227.741 172.387C227.741 179.566 233.561 185.387 240.741 185.387ZM253.37 97.1934C253.37 104.373 247.55 110.193 240.37 110.193C233.191 110.193 227.37 104.373 227.37 97.1934C227.37 90.0137 233.191 84.1934 240.37 84.1934C247.55 84.1934 253.37 90.0137 253.37 97.1934ZM241.741 223.387C248.92 223.387 254.741 217.566 254.741 210.387C254.741 203.207 248.92 197.387 241.741 197.387C234.561 197.387 228.741 203.207 228.741 210.387C228.741 217.566 234.561 223.387 241.741 223.387Z" fill="#EAE6E6"/>
<path d="M7 -1C2.58172 -1 -1 2.58173 -1 7.00001H1C1 3.6863 3.68629 1 7 1V-1ZM257 -1H7V1H257V-1ZM265 7C265 2.58172 261.418 -1 257 -1V1C260.314 1 263 3.68629 263 7H265ZM265 226V7H263V226H265ZM257 234C261.418 234 265 230.418 265 226H263C263 229.314 260.314 232 257 232V234ZM6.99999 234H257V232H6.99999V234ZM-1 226C-1 230.418 2.58171 234 6.99999 234V232C3.68629 232 1 229.314 1 226H-1ZM-1 7.00001V226H1V7.00001H-1ZM21.6296 34.8066C29.3616 34.8066 35.6296 28.5386 35.6296 20.8066H33.6296C33.6296 27.4341 28.2571 32.8066 21.6296 32.8066V34.8066ZM7.62964 20.8066C7.62964 28.5386 13.8977 34.8066 21.6296 34.8066V32.8066C15.0022 32.8066 9.62964 27.4341 9.62964 20.8066H7.62964ZM21.6296 6.80664C13.8977 6.80664 7.62964 13.0747 7.62964 20.8066H9.62964C9.62964 14.1792 15.0022 8.80664 21.6296 8.80664V6.80664ZM35.6296 20.8066C35.6296 13.0747 29.3616 6.80664 21.6296 6.80664V8.80664C28.2571 8.80664 33.6296 14.1792 33.6296 20.8066H35.6296ZM35 134C35 140.627 29.6274 146 23 146V148C30.732 148 37 141.732 37 134H35ZM23 122C29.6274 122 35 127.373 35 134H37C37 126.268 30.732 120 23 120V122ZM11 134C11 127.373 16.3726 122 23 122V120C15.268 120 9 126.268 9 134H11ZM23 146C16.3726 146 11 140.627 11 134H9C9 141.732 15.268 148 23 148V146ZM22 72C29.732 72 36 65.732 36 58H34C34 64.6274 28.6274 70 22 70V72ZM8 58C8 65.732 14.268 72 22 72V70C15.3726 70 10 64.6274 10 58H8ZM22 44C14.268 44 8 50.268 8 58H10C10 51.3726 15.3726 46 22 46V44ZM36 58C36 50.268 29.732 44 22 44V46C28.6274 46 34 51.3726 34 58H36ZM35.3704 171.193C35.3704 177.821 29.9978 183.193 23.3704 183.193V185.193C31.1023 185.193 37.3704 178.925 37.3704 171.193H35.3704ZM23.3704 159.193C29.9978 159.193 35.3704 164.566 35.3704 171.193H37.3704C37.3704 163.461 31.1023 157.193 23.3704 157.193V159.193ZM11.3704 171.193C11.3704 164.566 16.7429 159.193 23.3704 159.193V157.193C15.6384 157.193 9.37036 163.461 9.37036 171.193H11.3704ZM23.3704 183.193C16.7429 183.193 11.3704 177.821 11.3704 171.193H9.37036C9.37036 178.925 15.6384 185.193 23.3704 185.193V183.193ZM23 110C30.732 110 37 103.732 37 96H35C35 102.627 29.6274 108 23 108V110ZM9 96C9 103.732 15.268 110 23 110V108C16.3726 108 11 102.627 11 96H9ZM23 82C15.268 82 9 88.268 9 96H11C11 89.3726 16.3726 84 23 84V82ZM37 96C37 88.268 30.732 82 23 82V84C29.6274 84 35 89.3726 35 96H37ZM36.3704 209.193C36.3704 215.821 30.9978 221.193 24.3704 221.193V223.193C32.1023 223.193 38.3704 216.925 38.3704 209.193H36.3704ZM24.3704 197.193C30.9978 197.193 36.3704 202.566 36.3704 209.193H38.3704C38.3704 201.461 32.1023 195.193 24.3704 195.193V197.193ZM12.3704 209.193C12.3704 202.566 17.7429 197.193 24.3704 197.193V195.193C16.6384 195.193 10.3704 201.461 10.3704 209.193H12.3704ZM24.3704 221.193C17.7429 221.193 12.3704 215.821 12.3704 209.193H10.3704C10.3704 216.925 16.6384 223.193 24.3704 223.193V221.193ZM94 35C101.732 35 108 28.732 108 21H106C106 27.6274 100.627 33 94 33V35ZM80 21C80 28.732 86.268 35 94 35V33C87.3726 33 82 27.6274 82 21H80ZM94 7C86.268 7 80 13.268 80 21H82C82 14.3726 87.3726 9 94 9V7ZM108 21C108 13.268 101.732 7 94 7V9C100.627 9 106 14.3726 106 21H108ZM107.37 134.193C107.37 140.821 101.998 146.193 95.3704 146.193V148.193C103.102 148.193 109.37 141.925 109.37 134.193H107.37ZM95.3704 122.193C101.998 122.193 107.37 127.566 107.37 134.193H109.37C109.37 126.461 103.102 120.193 95.3704 120.193V122.193ZM83.3704 134.193C83.3704 127.566 88.7429 122.193 95.3704 122.193V120.193C87.6384 120.193 81.3704 126.461 81.3704 134.193H83.3704ZM95.3704 146.193C88.7429 146.193 83.3704 140.821 83.3704 134.193H81.3704C81.3704 141.925 87.6384 148.193 95.3704 148.193V146.193ZM94.3704 72.1934C102.102 72.1934 108.37 65.9253 108.37 58.1934H106.37C106.37 64.8208 100.998 70.1934 94.3704 70.1934V72.1934ZM80.3704 58.1934C80.3704 65.9253 86.6384 72.1934 94.3704 72.1934V70.1934C87.7429 70.1934 82.3704 64.8208 82.3704 58.1934H80.3704ZM94.3704 44.1934C86.6384 44.1934 80.3704 50.4614 80.3704 58.1934H82.3704C82.3704 51.5659 87.7429 46.1934 94.3704 46.1934V44.1934ZM108.37 58.1934C108.37 50.4614 102.102 44.1934 94.3704 44.1934V46.1934C100.998 46.1934 106.37 51.5659 106.37 58.1934H108.37ZM107.741 171.387C107.741 178.014 102.368 183.387 95.7407 183.387V185.387C103.473 185.387 109.741 179.119 109.741 171.387H107.741ZM95.7407 159.387C102.368 159.387 107.741 164.759 107.741 171.387H109.741C109.741 163.655 103.473 157.387 95.7407 157.387V159.387ZM83.7407 171.387C83.7407 164.759 89.1133 159.387 95.7407 159.387V157.387C88.0087 157.387 81.7407 163.655 81.7407 171.387H83.7407ZM95.7407 183.387C89.1133 183.387 83.7407 178.014 83.7407 171.387H81.7407C81.7407 179.119 88.0087 185.387 95.7407 185.387V183.387ZM95.3704 110.193C103.102 110.193 109.37 103.925 109.37 96.1934H107.37C107.37 102.821 101.998 108.193 95.3704 108.193V110.193ZM81.3704 96.1934C81.3704 103.925 87.6384 110.193 95.3704 110.193V108.193C88.7429 108.193 83.3704 102.821 83.3704 96.1934H81.3704ZM95.3704 82.1934C87.6384 82.1934 81.3704 88.4614 81.3704 96.1934H83.3704C83.3704 89.5659 88.7429 84.1934 95.3704 84.1934V82.1934ZM109.37 96.1934C109.37 88.4614 103.102 82.1934 95.3704 82.1934V84.1934C101.998 84.1934 107.37 89.5659 107.37 96.1934H109.37ZM108.741 209.387C108.741 216.014 103.368 221.387 96.7407 221.387V223.387C104.473 223.387 110.741 217.119 110.741 209.387H108.741ZM96.7407 197.387C103.368 197.387 108.741 202.759 108.741 209.387H110.741C110.741 201.655 104.473 195.387 96.7407 195.387V197.387ZM84.7407 209.387C84.7407 202.759 90.1133 197.387 96.7407 197.387V195.387C89.0087 195.387 82.7407 201.655 82.7407 209.387H84.7407ZM96.7407 221.387C90.1133 221.387 84.7407 216.014 84.7407 209.387H82.7407C82.7407 217.119 89.0087 223.387 96.7407 223.387V221.387ZM167 35C174.732 35 181 28.732 181 21H179C179 27.6274 173.627 33 167 33V35ZM153 21C153 28.732 159.268 35 167 35V33C160.373 33 155 27.6274 155 21H153ZM167 7C159.268 7 153 13.268 153 21H155C155 14.3726 160.373 9 167 9V7ZM181 21C181 13.268 174.732 7 167 7V9C173.627 9 179 14.3726 179 21H181ZM180.37 134.193C180.37 140.821 174.998 146.193 168.37 146.193V148.193C176.102 148.193 182.37 141.925 182.37 134.193H180.37ZM168.37 122.193C174.998 122.193 180.37 127.566 180.37 134.193H182.37C182.37 126.461 176.102 120.193 168.37 120.193V122.193ZM156.37 134.193C156.37 127.566 161.743 122.193 168.37 122.193V120.193C160.638 120.193 154.37 126.461 154.37 134.193H156.37ZM168.37 146.193C161.743 146.193 156.37 140.821 156.37 134.193H154.37C154.37 141.925 160.638 148.193 168.37 148.193V146.193ZM167.37 72.1934C175.102 72.1934 181.37 65.9253 181.37 58.1934H179.37C179.37 64.8208 173.998 70.1934 167.37 70.1934V72.1934ZM153.37 58.1934C153.37 65.9253 159.638 72.1934 167.37 72.1934V70.1934C160.743 70.1934 155.37 64.8208 155.37 58.1934H153.37ZM167.37 44.1934C159.638 44.1934 153.37 50.4614 153.37 58.1934H155.37C155.37 51.5659 160.743 46.1934 167.37 46.1934V44.1934ZM181.37 58.1934C181.37 50.4614 175.102 44.1934 167.37 44.1934V46.1934C173.998 46.1934 179.37 51.5659 179.37 58.1934H181.37ZM180.741 171.387C180.741 178.014 175.368 183.387 168.741 183.387V185.387C176.473 185.387 182.741 179.119 182.741 171.387H180.741ZM168.741 159.387C175.368 159.387 180.741 164.759 180.741 171.387H182.741C182.741 163.655 176.473 157.387 168.741 157.387V159.387ZM156.741 171.387C156.741 164.759 162.113 159.387 168.741 159.387V157.387C161.009 157.387 154.741 163.655 154.741 171.387H156.741ZM168.741 183.387C162.113 183.387 156.741 178.014 156.741 171.387H154.741C154.741 179.119 161.009 185.387 168.741 185.387V183.387ZM168.37 110.193C176.102 110.193 182.37 103.925 182.37 96.1934H180.37C180.37 102.821 174.998 108.193 168.37 108.193V110.193ZM154.37 96.1934C154.37 103.925 160.638 110.193 168.37 110.193V108.193C161.743 108.193 156.37 102.821 156.37 96.1934H154.37ZM168.37 82.1934C160.638 82.1934 154.37 88.4614 154.37 96.1934H156.37C156.37 89.5659 161.743 84.1934 168.37 84.1934V82.1934ZM182.37 96.1934C182.37 88.4614 176.102 82.1934 168.37 82.1934V84.1934C174.998 84.1934 180.37 89.5659 180.37 96.1934H182.37ZM181.741 209.387C181.741 216.014 176.368 221.387 169.741 221.387V223.387C177.473 223.387 183.741 217.119 183.741 209.387H181.741ZM169.741 197.387C176.368 197.387 181.741 202.759 181.741 209.387H183.741C183.741 201.655 177.473 195.387 169.741 195.387V197.387ZM157.741 209.387C157.741 202.759 163.113 197.387 169.741 197.387V195.387C162.009 195.387 155.741 201.655 155.741 209.387H157.741ZM169.741 221.387C163.113 221.387 157.741 216.014 157.741 209.387H155.741C155.741 217.119 162.009 223.387 169.741 223.387V221.387ZM58 35C65.732 35 72 28.732 72 21H70C70 27.6274 64.6274 33 58 33V35ZM44 21C44 28.732 50.268 35 58 35V33C51.3726 33 46 27.6274 46 21H44ZM58 7C50.268 7 44 13.268 44 21H46C46 14.3726 51.3726 9 58 9V7ZM72 21C72 13.268 65.732 7 58 7V9C64.6274 9 70 14.3726 70 21H72ZM71.3704 134.193C71.3704 140.821 65.9978 146.193 59.3704 146.193V148.193C67.1023 148.193 73.3704 141.925 73.3704 134.193H71.3704ZM59.3704 122.193C65.9978 122.193 71.3704 127.566 71.3704 134.193H73.3704C73.3704 126.461 67.1023 120.193 59.3704 120.193V122.193ZM47.3704 134.193C47.3704 127.566 52.7429 122.193 59.3704 122.193V120.193C51.6384 120.193 45.3704 126.461 45.3704 134.193H47.3704ZM59.3704 146.193C52.7429 146.193 47.3704 140.821 47.3704 134.193H45.3704C45.3704 141.925 51.6384 148.193 59.3704 148.193V146.193ZM58.3704 72.1934C66.1023 72.1934 72.3704 65.9253 72.3704 58.1934H70.3704C70.3704 64.8208 64.9978 70.1934 58.3704 70.1934V72.1934ZM44.3704 58.1934C44.3704 65.9253 50.6384 72.1934 58.3704 72.1934V70.1934C51.7429 70.1934 46.3704 64.8208 46.3704 58.1934H44.3704ZM58.3704 44.1934C50.6384 44.1934 44.3704 50.4614 44.3704 58.1934H46.3704C46.3704 51.5659 51.7429 46.1934 58.3704 46.1934V44.1934ZM72.3704 58.1934C72.3704 50.4614 66.1023 44.1934 58.3704 44.1934V46.1934C64.9978 46.1934 70.3704 51.5659 70.3704 58.1934H72.3704ZM71.7407 171.387C71.7407 178.014 66.3681 183.387 59.7407 183.387V185.387C67.4727 185.387 73.7407 179.119 73.7407 171.387H71.7407ZM59.7407 159.387C66.3681 159.387 71.7407 164.759 71.7407 171.387H73.7407C73.7407 163.655 67.4727 157.387 59.7407 157.387V159.387ZM47.7407 171.387C47.7407 164.759 53.1133 159.387 59.7407 159.387V157.387C52.0087 157.387 45.7407 163.655 45.7407 171.387H47.7407ZM59.7407 183.387C53.1133 183.387 47.7407 178.014 47.7407 171.387H45.7407C45.7407 179.119 52.0087 185.387 59.7407 185.387V183.387ZM59.3704 110.193C67.1023 110.193 73.3704 103.925 73.3704 96.1934H71.3704C71.3704 102.821 65.9978 108.193 59.3704 108.193V110.193ZM45.3704 96.1934C45.3704 103.925 51.6384 110.193 59.3704 110.193V108.193C52.7429 108.193 47.3704 102.821 47.3704 96.1934H45.3704ZM59.3704 82.1934C51.6384 82.1934 45.3704 88.4614 45.3704 96.1934H47.3704C47.3704 89.5659 52.7429 84.1934 59.3704 84.1934V82.1934ZM73.3704 96.1934C73.3704 88.4614 67.1023 82.1934 59.3704 82.1934V84.1934C65.9978 84.1934 71.3704 89.5659 71.3704 96.1934H73.3704ZM72.7407 209.387C72.7407 216.014 67.3681 221.387 60.7407 221.387V223.387C68.4727 223.387 74.7407 217.119 74.7407 209.387H72.7407ZM60.7407 197.387C67.3681 197.387 72.7407 202.759 72.7407 209.387H74.7407C74.7407 201.655 68.4727 195.387 60.7407 195.387V197.387ZM48.7407 209.387C48.7407 202.759 54.1133 197.387 60.7407 197.387V195.387C53.0087 195.387 46.7407 201.655 46.7407 209.387H48.7407ZM60.7407 221.387C54.1133 221.387 48.7407 216.014 48.7407 209.387H46.7407C46.7407 217.119 53.0087 223.387 60.7407 223.387V221.387ZM130.37 35.1934C138.102 35.1934 144.37 28.9253 144.37 21.1934H142.37C142.37 27.8208 136.998 33.1934 130.37 33.1934V35.1934ZM116.37 21.1934C116.37 28.9253 122.638 35.1934 130.37 35.1934V33.1934C123.743 33.1934 118.37 27.8208 118.37 21.1934H116.37ZM130.37 7.19336C122.638 7.19336 116.37 13.4614 116.37 21.1934H118.37C118.37 14.5659 123.743 9.19336 130.37 9.19336V7.19336ZM144.37 21.1934C144.37 13.4614 138.102 7.19336 130.37 7.19336V9.19336C136.998 9.19336 142.37 14.5659 142.37 21.1934H144.37ZM143.741 134.387C143.741 141.014 138.368 146.387 131.741 146.387V148.387C139.473 148.387 145.741 142.119 145.741 134.387H143.741ZM131.741 122.387C138.368 122.387 143.741 127.759 143.741 134.387H145.741C145.741 126.655 139.473 120.387 131.741 120.387V122.387ZM119.741 134.387C119.741 127.759 125.113 122.387 131.741 122.387V120.387C124.009 120.387 117.741 126.655 117.741 134.387H119.741ZM131.741 146.387C125.113 146.387 119.741 141.014 119.741 134.387H117.741C117.741 142.119 124.009 148.387 131.741 148.387V146.387ZM130.741 72.3867C138.473 72.3867 144.741 66.1187 144.741 58.3867H142.741C142.741 65.0141 137.368 70.3867 130.741 70.3867V72.3867ZM116.741 58.3867C116.741 66.1187 123.009 72.3867 130.741 72.3867V70.3867C124.113 70.3867 118.741 65.0141 118.741 58.3867H116.741ZM130.741 44.3867C123.009 44.3867 116.741 50.6547 116.741 58.3867H118.741C118.741 51.7593 124.113 46.3867 130.741 46.3867V44.3867ZM144.741 58.3867C144.741 50.6547 138.473 44.3867 130.741 44.3867V46.3867C137.368 46.3867 142.741 51.7593 142.741 58.3867H144.741ZM144.111 171.58C144.111 178.207 138.739 183.58 132.111 183.58V185.58C139.843 185.58 146.111 179.312 146.111 171.58H144.111ZM132.111 159.58C138.739 159.58 144.111 164.953 144.111 171.58H146.111C146.111 163.848 139.843 157.58 132.111 157.58V159.58ZM120.111 171.58C120.111 164.953 125.484 159.58 132.111 159.58V157.58C124.379 157.58 118.111 163.848 118.111 171.58H120.111ZM132.111 183.58C125.484 183.58 120.111 178.207 120.111 171.58H118.111C118.111 179.312 124.379 185.58 132.111 185.58V183.58ZM131.741 110.387C139.473 110.387 145.741 104.119 145.741 96.3867H143.741C143.741 103.014 138.368 108.387 131.741 108.387V110.387ZM117.741 96.3867C117.741 104.119 124.009 110.387 131.741 110.387V108.387C125.113 108.387 119.741 103.014 119.741 96.3867H117.741ZM131.741 82.3867C124.009 82.3867 117.741 88.6547 117.741 96.3867H119.741C119.741 89.7593 125.113 84.3867 131.741 84.3867V82.3867ZM145.741 96.3867C145.741 88.6547 139.473 82.3867 131.741 82.3867V84.3867C138.368 84.3867 143.741 89.7593 143.741 96.3867H145.741ZM145.111 209.58C145.111 216.207 139.739 221.58 133.111 221.58V223.58C140.843 223.58 147.111 217.312 147.111 209.58H145.111ZM133.111 197.58C139.739 197.58 145.111 202.953 145.111 209.58H147.111C147.111 201.848 140.843 195.58 133.111 195.58V197.58ZM121.111 209.58C121.111 202.953 126.484 197.58 133.111 197.58V195.58C125.379 195.58 119.111 201.848 119.111 209.58H121.111ZM133.111 221.58C126.484 221.58 121.111 216.207 121.111 209.58H119.111C119.111 217.312 125.379 223.58 133.111 223.58V221.58ZM203.37 35.1934C211.102 35.1934 217.37 28.9253 217.37 21.1934H215.37C215.37 27.8208 209.998 33.1934 203.37 33.1934V35.1934ZM189.37 21.1934C189.37 28.9253 195.638 35.1934 203.37 35.1934V33.1934C196.743 33.1934 191.37 27.8208 191.37 21.1934H189.37ZM203.37 7.19336C195.638 7.19336 189.37 13.4614 189.37 21.1934H191.37C191.37 14.5659 196.743 9.19336 203.37 9.19336V7.19336ZM217.37 21.1934C217.37 13.4614 211.102 7.19336 203.37 7.19336V9.19336C209.998 9.19336 215.37 14.5659 215.37 21.1934H217.37ZM216.741 134.387C216.741 141.014 211.368 146.387 204.741 146.387V148.387C212.473 148.387 218.741 142.119 218.741 134.387H216.741ZM204.741 122.387C211.368 122.387 216.741 127.759 216.741 134.387H218.741C218.741 126.655 212.473 120.387 204.741 120.387V122.387ZM192.741 134.387C192.741 127.759 198.113 122.387 204.741 122.387V120.387C197.009 120.387 190.741 126.655 190.741 134.387H192.741ZM204.741 146.387C198.113 146.387 192.741 141.014 192.741 134.387H190.741C190.741 142.119 197.009 148.387 204.741 148.387V146.387ZM203.741 72.3867C211.473 72.3867 217.741 66.1187 217.741 58.3867H215.741C215.741 65.0141 210.368 70.3867 203.741 70.3867V72.3867ZM189.741 58.3867C189.741 66.1187 196.009 72.3867 203.741 72.3867V70.3867C197.113 70.3867 191.741 65.0141 191.741 58.3867H189.741ZM203.741 44.3867C196.009 44.3867 189.741 50.6547 189.741 58.3867H191.741C191.741 51.7593 197.113 46.3867 203.741 46.3867V44.3867ZM217.741 58.3867C217.741 50.6547 211.473 44.3867 203.741 44.3867V46.3867C210.368 46.3867 215.741 51.7593 215.741 58.3867H217.741ZM217.111 171.58C217.111 178.207 211.739 183.58 205.111 183.58V185.58C212.843 185.58 219.111 179.312 219.111 171.58H217.111ZM205.111 159.58C211.739 159.58 217.111 164.953 217.111 171.58H219.111C219.111 163.848 212.843 157.58 205.111 157.58V159.58ZM193.111 171.58C193.111 164.953 198.484 159.58 205.111 159.58V157.58C197.379 157.58 191.111 163.848 191.111 171.58H193.111ZM205.111 183.58C198.484 183.58 193.111 178.207 193.111 171.58H191.111C191.111 179.312 197.379 185.58 205.111 185.58V183.58ZM204.741 110.387C212.473 110.387 218.741 104.119 218.741 96.3867H216.741C216.741 103.014 211.368 108.387 204.741 108.387V110.387ZM190.741 96.3867C190.741 104.119 197.009 110.387 204.741 110.387V108.387C198.113 108.387 192.741 103.014 192.741 96.3867H190.741ZM204.741 82.3867C197.009 82.3867 190.741 88.6547 190.741 96.3867H192.741C192.741 89.7593 198.113 84.3867 204.741 84.3867V82.3867ZM218.741 96.3867C218.741 88.6547 212.473 82.3867 204.741 82.3867V84.3867C211.368 84.3867 216.741 89.7593 216.741 96.3867H218.741ZM218.111 209.58C218.111 216.207 212.739 221.58 206.111 221.58V223.58C213.843 223.58 220.111 217.312 220.111 209.58H218.111ZM206.111 197.58C212.739 197.58 218.111 202.953 218.111 209.58H220.111C220.111 201.848 213.843 195.58 206.111 195.58V197.58ZM194.111 209.58C194.111 202.953 199.484 197.58 206.111 197.58V195.58C198.379 195.58 192.111 201.848 192.111 209.58H194.111ZM206.111 221.58C199.484 221.58 194.111 216.207 194.111 209.58H192.111C192.111 217.312 198.379 223.58 206.111 223.58V221.58ZM239 36C246.732 36 253 29.732 253 22H251C251 28.6274 245.627 34 239 34V36ZM225 22C225 29.732 231.268 36 239 36V34C232.373 34 227 28.6274 227 22H225ZM239 8C231.268 8 225 14.268 225 22H227C227 15.3726 232.373 10 239 10V8ZM253 22C253 14.268 246.732 8 239 8V10C245.627 10 251 15.3726 251 22H253ZM252.37 135.193C252.37 141.821 246.998 147.193 240.37 147.193V149.193C248.102 149.193 254.37 142.925 254.37 135.193H252.37ZM240.37 123.193C246.998 123.193 252.37 128.566 252.37 135.193H254.37C254.37 127.461 248.102 121.193 240.37 121.193V123.193ZM228.37 135.193C228.37 128.566 233.743 123.193 240.37 123.193V121.193C232.638 121.193 226.37 127.461 226.37 135.193H228.37ZM240.37 147.193C233.743 147.193 228.37 141.821 228.37 135.193H226.37C226.37 142.925 232.638 149.193 240.37 149.193V147.193ZM239.37 73.1934C247.102 73.1934 253.37 66.9253 253.37 59.1934H251.37C251.37 65.8208 245.998 71.1934 239.37 71.1934V73.1934ZM225.37 59.1934C225.37 66.9253 231.638 73.1934 239.37 73.1934V71.1934C232.743 71.1934 227.37 65.8208 227.37 59.1934H225.37ZM239.37 45.1934C231.638 45.1934 225.37 51.4614 225.37 59.1934H227.37C227.37 52.5659 232.743 47.1934 239.37 47.1934V45.1934ZM253.37 59.1934C253.37 51.4614 247.102 45.1934 239.37 45.1934V47.1934C245.998 47.1934 251.37 52.5659 251.37 59.1934H253.37ZM252.741 172.387C252.741 179.014 247.368 184.387 240.741 184.387V186.387C248.473 186.387 254.741 180.119 254.741 172.387H252.741ZM240.741 160.387C247.368 160.387 252.741 165.759 252.741 172.387H254.741C254.741 164.655 248.473 158.387 240.741 158.387V160.387ZM228.741 172.387C228.741 165.759 234.113 160.387 240.741 160.387V158.387C233.009 158.387 226.741 164.655 226.741 172.387H228.741ZM240.741 184.387C234.113 184.387 228.741 179.014 228.741 172.387H226.741C226.741 180.119 233.009 186.387 240.741 186.387V184.387ZM240.37 111.193C248.102 111.193 254.37 104.925 254.37 97.1934H252.37C252.37 103.821 246.998 109.193 240.37 109.193V111.193ZM226.37 97.1934C226.37 104.925 232.638 111.193 240.37 111.193V109.193C233.743 109.193 228.37 103.821 228.37 97.1934H226.37ZM240.37 83.1934C232.638 83.1934 226.37 89.4614 226.37 97.1934H228.37C228.37 90.5659 233.743 85.1934 240.37 85.1934V83.1934ZM254.37 97.1934C254.37 89.4614 248.102 83.1934 240.37 83.1934V85.1934C246.998 85.1934 252.37 90.5659 252.37 97.1934H254.37ZM253.741 210.387C253.741 217.014 248.368 222.387 241.741 222.387V224.387C249.473 224.387 255.741 218.119 255.741 210.387H253.741ZM241.741 198.387C248.368 198.387 253.741 203.759 253.741 210.387H255.741C255.741 202.655 249.473 196.387 241.741 196.387V198.387ZM229.741 210.387C229.741 203.759 235.113 198.387 241.741 198.387V196.387C234.009 196.387 227.741 202.655 227.741 210.387H229.741ZM241.741 222.387C235.113 222.387 229.741 217.014 229.741 210.387H227.741C227.741 218.119 234.009 224.387 241.741 224.387V222.387Z" fill="black" mask="url(#path-1-inside-1_2654_2565)"/>
</svg>
