<svg width="106" height="70" viewBox="0 0 106 70" fill="none" xmlns="http://www.w3.org/2000/svg">
<g style="mix-blend-mode:lighten">
<path d="M100.007 20.6928C93.903 14.3671 79.2185 8.00287 63.9215 20.0476C53.8008 27.986 49.6299 38.5901 61.6416 51.0374C73.6604 63.389 85.8064 61.0492 95.927 53.1108C111.231 40.9704 106.112 27.0184 100.007 20.6928Z" fill="#F1FAEE"/>
<path d="M71.3046 57.9625L55.3546 41.4341C55.3546 41.4341 58.3855 49.2072 51.8517 54.4804C51.8517 54.4804 46.3378 58.8545 40.5355 62.8269C41.084 64.0129 40.866 64.0958 42.9265 66.334C44.6988 68.1705 44.8183 67.9856 45.831 68.6233C50.9512 63.8411 56.5776 59.3777 56.5776 59.3777C63.2099 54.2065 71.3046 57.9625 71.3046 57.9625Z" fill="#FED0AC"/>
<path d="M45.9506 68.4384C49.6993 65.0143 53.7574 61.705 55.5579 60.2767L65.3972 51.8409L61.262 47.5558L50.7335 55.2774C48.8275 56.6993 44.6709 59.9066 40.43 62.8205C40.9785 64.0065 40.7605 64.0894 42.821 66.3276C44.5933 68.1641 44.7128 67.9792 45.7255 68.6169L45.9506 68.4384Z" fill="#46CCDA"/>
<path d="M44.2065 67.6604C44.8043 68.1769 45.1137 68.2917 45.7255 68.6169C45.8381 68.5276 45.8381 68.5276 45.9436 68.534C49.6922 65.1099 53.7503 61.8007 55.5508 60.3724L65.3902 51.9366L62.7598 53.1225L44.2065 67.6604Z" fill="#D6DEEA"/>
<path d="M71.3046 57.9625L65.3972 51.8409L56.2401 59.6455C58.0405 58.2172 63.4701 54.9908 71.3046 57.9625Z" fill="white"/>
<path d="M55.3546 41.4341L61.262 47.5558L51.5142 54.7482C53.3217 53.2242 57.5627 48.8692 55.3546 41.4341Z" fill="white"/>
<path d="M51.8118 15.4166C56.4145 15.6949 60.3946 12.5376 60.7016 8.36443C61.0086 4.19129 57.5263 0.582644 52.9236 0.304291C48.3208 0.0259384 44.3407 3.18329 44.0337 7.35643C43.7267 11.5296 47.2091 15.1382 51.8118 15.4166Z" fill="white"/>
<path d="M6.59714 18.1108C0.219618 24.2109 -5.40048 38.06 9.25212 50.7463C18.9129 59.1425 28.831 59.2941 43.4214 50.2353C53.7205 36.6471 52.2378 27.1688 42.577 18.7726C27.8187 6.08887 12.9747 12.0107 6.59714 18.1108Z" fill="#46CCDA"/>
<path d="M52.3507 42.5816L35.6868 58.5206C35.6868 58.5206 43.9402 55.06 50.3399 60.4667C50.3399 60.4667 55.6572 65.0366 60.5602 69.9042C61.8115 69.2985 61.9229 69.4876 64.1887 67.4188C66.0402 65.6478 65.826 65.5571 66.4319 64.5835C60.7031 60.4072 55.2773 55.7441 55.2773 55.7441C48.9805 50.239 52.3507 42.5816 52.3507 42.5816Z" fill="#FED0AC"/>
<path d="M66.2177 64.4928C62.1082 61.4279 58.0959 58.0731 56.3596 56.5809L46.1789 48.4849L41.8586 52.6173L51.3193 61.4019C53.0584 62.9899 56.9678 66.4432 60.563 70C61.8144 69.3943 61.9257 69.5834 64.1915 67.5147C66.0431 65.7437 65.8288 65.653 66.4347 64.6793L66.2177 64.4928Z" fill="#D6DEEA"/>
<path d="M65.5259 66.1398C66.0374 65.552 66.1346 65.262 66.4347 64.6793C66.3262 64.5861 66.3262 64.5861 66.3234 64.4902C62.2139 61.4254 58.2016 58.0705 56.4653 56.5783L46.2845 48.4824L47.832 50.7463L65.5259 66.1398Z" fill="#63768D"/>
<path d="M52.3507 42.5816L46.1789 48.4849L55.6028 56.0238C53.8666 54.5316 49.8175 49.931 52.3507 42.5816Z" fill="white"/>
<path d="M35.6868 58.5206L41.8586 52.6173L50.6654 60.7465C48.8235 59.2569 43.6457 55.8343 35.6868 58.5206Z" fill="white"/>
<path d="M65.5601 7.37051C65.4367 3.18959 61.5985 -0.109062 56.9872 0.0027611C52.3759 0.114584 48.7377 3.59454 48.8611 7.77546C48.9844 11.9564 52.8226 15.255 57.4339 15.1432C62.0452 15.0314 65.6834 11.5514 65.5601 7.37051Z" fill="#46CCDA"/>
</g>
</svg>
