<svg width="38" height="38" viewBox="0 0 34 33" fill="none" xmlns="http://www.w3.org/2000/svg">
<path d="M17.8678 0C19.1904 0 20.3878 0.69321 21.049 1.71652C21.3707 2.21167 21.5852 2.82235 21.5316 3.46605C21.4958 3.9612 21.6567 4.45635 21.9426 4.91849C22.8541 6.32141 24.8736 6.84957 26.4464 6.05733C28.2157 5.10004 30.4497 5.67772 31.4684 7.31171L32.6658 9.2593C33.7024 10.8933 33.1305 12.9894 31.3433 13.9302C29.8242 14.772 29.288 16.637 30.1995 18.0565C30.4854 18.5021 30.8071 18.8817 31.3075 19.1128C31.9331 19.4264 32.4156 19.9215 32.7552 20.4167C33.4164 21.44 33.3628 22.6944 32.7194 23.8002L31.4684 25.7808C30.8071 26.8371 29.574 27.4973 28.3051 27.4973C27.6795 27.4973 26.9825 27.3323 26.4106 27.0022C25.946 26.7216 25.4098 26.6226 24.8379 26.6226C23.0686 26.6226 21.5852 27.9925 21.5316 29.6265C21.5316 31.5246 19.8874 33.01 17.8321 33.01H15.4015C13.3284 33.01 11.6841 31.5246 11.6841 29.6265C11.6484 27.9925 10.165 26.6226 8.39571 26.6226C7.80593 26.6226 7.26978 26.7216 6.82298 27.0022C6.25107 27.3323 5.5362 27.4973 4.92855 27.4973C3.64177 27.4973 2.40861 26.8371 1.74734 25.7808L0.514181 23.8002C-0.147081 22.7274 -0.182825 21.44 0.478437 20.4167C0.764388 19.9215 1.30055 19.4264 1.90819 19.1128C2.40861 18.8817 2.7303 18.5021 3.03412 18.0565C3.92772 16.637 3.39156 14.772 1.87245 13.9302C0.103126 12.9894 -0.468776 10.8933 0.549924 9.2593L1.74734 7.31171C2.78392 5.67772 5.00004 5.10004 6.78723 6.05733C8.34209 6.84957 10.3616 6.32141 11.2731 4.91849C11.559 4.45635 11.7199 3.9612 11.6841 3.46605C11.6484 2.82235 11.845 2.21167 12.1846 1.71652C12.8458 0.69321 14.0432 0.03301 15.3479 0H17.8678ZM16.6347 11.8506C13.8288 11.8506 11.559 13.9302 11.559 16.5215C11.559 19.1128 13.8288 21.1759 16.6347 21.1759C19.4406 21.1759 21.6567 19.1128 21.6567 16.5215C21.6567 13.9302 19.4406 11.8506 16.6347 11.8506Z" fill="white"/>
</svg>
