<svg width="312" height="295" viewBox="0 0 312 295" fill="none" xmlns="http://www.w3.org/2000/svg">
<g filter="url(#filter0_dd_2548_2511)">
<mask id="path-1-inside-1_2548_2511" fill="white">
<path fill-rule="evenodd" clip-rule="evenodd" d="M18 24C18 16.268 24.268 10 32 10H280C287.732 10 294 16.268 294 24V255C294 262.732 287.732 269 280 269H32C24.268 269 18 262.732 18 255V24ZM60.9261 36.8804C60.9261 45.9083 54.1696 53.2268 45.835 53.2268C37.5004 53.2268 30.7438 45.9083 30.7438 36.8804C30.7438 27.8525 37.5004 20.534 45.835 20.534C54.1696 20.534 60.9261 27.8525 60.9261 36.8804ZM47.1763 94.6382C55.5109 94.6382 62.2675 87.3196 62.2675 78.2917C62.2675 69.2639 55.5109 61.9453 47.1763 61.9453C38.8417 61.9453 32.0852 69.2639 32.0852 78.2917C32.0852 87.3196 38.8417 94.6382 47.1763 94.6382ZM62.2675 119.702C62.2675 128.73 55.5109 136.048 47.1763 136.048C38.8417 136.048 32.0852 128.73 32.0852 119.702C32.0852 110.674 38.8417 103.355 47.1763 103.355C55.5109 103.355 62.2675 110.674 62.2675 119.702ZM47.1763 177.459C55.5109 177.459 62.2675 170.141 62.2675 161.113C62.2675 152.085 55.5109 144.767 47.1763 144.767C38.8417 144.767 32.0852 152.085 32.0852 161.113C32.0852 170.141 38.8417 177.459 47.1763 177.459ZM64.2799 202.524C64.2799 211.552 57.5234 218.871 49.1888 218.871C40.8542 218.871 34.0977 211.552 34.0977 202.524C34.0977 193.496 40.8542 186.178 49.1888 186.178C57.5234 186.178 64.2799 193.496 64.2799 202.524ZM50.1951 260.281C58.5297 260.281 65.2862 252.962 65.2862 243.934C65.2862 234.906 58.5297 227.588 50.1951 227.588C41.8605 227.588 35.1039 234.906 35.1039 243.934C35.1039 252.962 41.8605 260.281 50.1951 260.281ZM134.704 36.154C134.704 45.1819 127.948 52.5005 119.613 52.5005C111.279 52.5005 104.522 45.1819 104.522 36.154C104.522 27.1262 111.279 19.8076 119.613 19.8076C127.948 19.8076 134.704 27.1262 134.704 36.154ZM120.956 93.9106C129.29 93.9106 136.047 86.5921 136.047 77.5642C136.047 68.5363 129.29 61.2178 120.956 61.2178C112.621 61.2178 105.864 68.5363 105.864 77.5642C105.864 86.5921 112.621 93.9106 120.956 93.9106ZM136.047 118.975C136.047 128.003 129.29 135.322 120.956 135.322C112.621 135.322 105.864 128.003 105.864 118.975C105.864 109.947 112.621 102.629 120.956 102.629C129.29 102.629 136.047 109.947 136.047 118.975ZM120.956 176.732C129.29 176.732 136.047 169.413 136.047 160.385C136.047 151.358 129.29 144.039 120.956 144.039C112.621 144.039 105.864 151.358 105.864 160.385C105.864 169.413 112.621 176.732 120.956 176.732ZM138.059 201.798C138.059 210.825 131.302 218.144 122.968 218.144C114.633 218.144 107.876 210.825 107.876 201.798C107.876 192.77 114.633 185.451 122.968 185.451C131.302 185.451 138.059 192.77 138.059 201.798ZM123.973 259.555C132.308 259.555 139.064 252.237 139.064 243.209C139.064 234.181 132.308 226.862 123.973 226.862C115.639 226.862 108.882 234.181 108.882 243.209C108.882 252.237 115.639 259.555 123.973 259.555ZM208.484 36.154C208.484 45.1819 201.728 52.5005 193.393 52.5005C185.058 52.5005 178.302 45.1819 178.302 36.154C178.302 27.1262 185.058 19.8076 193.393 19.8076C201.728 19.8076 208.484 27.1262 208.484 36.154ZM194.734 93.9106C203.069 93.9106 209.825 86.5921 209.825 77.5642C209.825 68.5363 203.069 61.2178 194.734 61.2178C186.4 61.2178 179.643 68.5363 179.643 77.5642C179.643 86.5921 186.4 93.9106 194.734 93.9106ZM209.825 118.975C209.825 128.003 203.069 135.322 194.734 135.322C186.4 135.322 179.643 128.003 179.643 118.975C179.643 109.947 186.4 102.629 194.734 102.629C203.069 102.629 209.825 109.947 209.825 118.975ZM194.734 176.732C203.069 176.732 209.825 169.413 209.825 160.385C209.825 151.358 203.069 144.039 194.734 144.039C186.4 144.039 179.643 151.358 179.643 160.385C179.643 169.413 186.4 176.732 194.734 176.732ZM211.837 201.798C211.837 210.825 205.081 218.144 196.746 218.144C188.412 218.144 181.655 210.825 181.655 201.798C181.655 192.77 188.412 185.451 196.746 185.451C205.081 185.451 211.837 192.77 211.837 201.798ZM197.752 259.555C206.087 259.555 212.844 252.237 212.844 243.209C212.844 234.181 206.087 226.862 197.752 226.862C189.418 226.862 182.661 234.181 182.661 243.209C182.661 252.237 189.418 259.555 197.752 259.555ZM97.8151 36.8806C97.8151 45.9085 91.0586 53.227 82.724 53.227C74.3894 53.227 67.6329 45.9085 67.6329 36.8806C67.6329 27.8527 74.3894 20.5342 82.724 20.5342C91.0586 20.5342 97.8151 27.8527 97.8151 36.8806ZM84.0662 94.6382C92.4008 94.6382 99.1573 87.3196 99.1573 78.2917C99.1573 69.2639 92.4008 61.9453 84.0662 61.9453C75.7316 61.9453 68.975 69.2639 68.975 78.2917C68.975 87.3196 75.7316 94.6382 84.0662 94.6382ZM99.1573 119.702C99.1573 128.73 92.4008 136.048 84.0662 136.048C75.7316 136.048 68.975 128.73 68.975 119.702C68.975 110.674 75.7316 103.355 84.0662 103.355C92.4008 103.355 99.1573 110.674 99.1573 119.702ZM84.0662 177.459C92.4008 177.459 99.1573 170.141 99.1573 161.113C99.1573 152.085 92.4008 144.767 84.0662 144.767C75.7316 144.767 68.975 152.085 68.975 161.113C68.975 170.141 75.7316 177.459 84.0662 177.459ZM101.169 202.524C101.169 211.552 94.4128 218.871 86.0782 218.871C77.7436 218.871 70.987 211.552 70.987 202.524C70.987 193.496 77.7436 186.178 86.0782 186.178C94.4128 186.178 101.169 193.496 101.169 202.524ZM87.0844 260.281C95.419 260.281 102.176 252.962 102.176 243.934C102.176 234.906 95.419 227.588 87.0844 227.588C78.7498 227.588 71.9933 234.906 71.9933 243.934C71.9933 252.962 78.7498 260.281 87.0844 260.281ZM171.594 36.154C171.594 45.1819 164.838 52.5005 156.503 52.5005C148.169 52.5005 141.412 45.1819 141.412 36.154C141.412 27.1262 148.169 19.8076 156.503 19.8076C164.838 19.8076 171.594 27.1262 171.594 36.154ZM157.844 93.9106C166.179 93.9106 172.935 86.5921 172.935 77.5642C172.935 68.5363 166.179 61.2178 157.844 61.2178C149.51 61.2178 142.753 68.5363 142.753 77.5642C142.753 86.5921 149.51 93.9106 157.844 93.9106ZM172.935 118.975C172.935 128.003 166.179 135.322 157.844 135.322C149.51 135.322 142.753 128.003 142.753 118.975C142.753 109.947 149.51 102.629 157.844 102.629C166.179 102.629 172.935 109.947 172.935 118.975ZM157.844 176.732C166.179 176.732 172.935 169.413 172.935 160.385C172.935 151.358 166.179 144.039 157.844 144.039C149.51 144.039 142.753 151.358 142.753 160.385C142.753 169.413 149.51 176.732 157.844 176.732ZM174.948 201.798C174.948 210.825 168.191 218.144 159.857 218.144C151.522 218.144 144.766 210.825 144.766 201.798C144.766 192.77 151.522 185.451 159.857 185.451C168.191 185.451 174.948 192.77 174.948 201.798ZM160.863 259.555C169.197 259.555 175.954 252.237 175.954 243.209C175.954 234.181 169.197 226.862 160.863 226.862C152.528 226.862 145.771 234.181 145.771 243.209C145.771 252.237 152.528 259.555 160.863 259.555ZM245.374 36.154C245.374 45.1819 238.617 52.5005 230.282 52.5005C221.948 52.5005 215.191 45.1819 215.191 36.154C215.191 27.1262 221.948 19.8076 230.282 19.8076C238.617 19.8076 245.374 27.1262 245.374 36.154ZM231.624 93.9106C239.958 93.9106 246.715 86.5921 246.715 77.5642C246.715 68.5363 239.958 61.2178 231.624 61.2178C223.289 61.2178 216.532 68.5363 216.532 77.5642C216.532 86.5921 223.289 93.9106 231.624 93.9106ZM246.715 118.975C246.715 128.003 239.958 135.322 231.624 135.322C223.289 135.322 216.532 128.003 216.532 118.975C216.532 109.947 223.289 102.629 231.624 102.629C239.958 102.629 246.715 109.947 246.715 118.975ZM231.624 176.732C239.958 176.732 246.715 169.413 246.715 160.385C246.715 151.358 239.958 144.039 231.624 144.039C223.289 144.039 216.532 151.358 216.532 160.385C216.532 169.413 223.289 176.732 231.624 176.732ZM248.727 201.798C248.727 210.825 241.971 218.144 233.636 218.144C225.301 218.144 218.545 210.825 218.545 201.798C218.545 192.77 225.301 185.451 233.636 185.451C241.971 185.451 248.727 192.77 248.727 201.798ZM234.642 259.555C242.976 259.555 249.733 252.237 249.733 243.209C249.733 234.181 242.976 226.862 234.642 226.862C226.307 226.862 219.551 234.181 219.551 243.209C219.551 252.237 226.307 259.555 234.642 259.555ZM282.263 35.4275C282.263 44.4554 275.506 51.7739 267.172 51.7739C258.837 51.7739 252.081 44.4554 252.081 35.4275C252.081 26.3996 258.837 19.0811 267.172 19.0811C275.506 19.0811 282.263 26.3996 282.263 35.4275ZM268.513 93.185C276.848 93.185 283.605 85.8665 283.605 76.8386C283.605 67.8107 276.848 60.4922 268.513 60.4922C260.179 60.4922 253.422 67.8107 253.422 76.8386C253.422 85.8665 260.179 93.185 268.513 93.185ZM283.605 118.248C283.605 127.276 276.848 134.594 268.513 134.594C260.179 134.594 253.422 127.276 253.422 118.248C253.422 109.22 260.179 101.901 268.513 101.901C276.848 101.901 283.605 109.22 283.605 118.248ZM268.513 176.006C276.848 176.006 283.605 168.688 283.605 159.66C283.605 150.632 276.848 143.313 268.513 143.313C260.179 143.313 253.422 150.632 253.422 159.66C253.422 168.688 260.179 176.006 268.513 176.006ZM285.617 201.072C285.617 210.1 278.86 217.418 270.525 217.418C262.191 217.418 255.434 210.1 255.434 201.072C255.434 192.044 262.191 184.726 270.525 184.726C278.86 184.726 285.617 192.044 285.617 201.072ZM271.532 258.829C279.866 258.829 286.623 251.51 286.623 242.482C286.623 233.454 279.866 226.136 271.532 226.136C263.197 226.136 256.441 233.454 256.441 242.482C256.441 251.51 263.197 258.829 271.532 258.829Z"/>
</mask>
<path fill-rule="evenodd" clip-rule="evenodd" d="M18 24C18 16.268 24.268 10 32 10H280C287.732 10 294 16.268 294 24V255C294 262.732 287.732 269 280 269H32C24.268 269 18 262.732 18 255V24ZM60.9261 36.8804C60.9261 45.9083 54.1696 53.2268 45.835 53.2268C37.5004 53.2268 30.7438 45.9083 30.7438 36.8804C30.7438 27.8525 37.5004 20.534 45.835 20.534C54.1696 20.534 60.9261 27.8525 60.9261 36.8804ZM47.1763 94.6382C55.5109 94.6382 62.2675 87.3196 62.2675 78.2917C62.2675 69.2639 55.5109 61.9453 47.1763 61.9453C38.8417 61.9453 32.0852 69.2639 32.0852 78.2917C32.0852 87.3196 38.8417 94.6382 47.1763 94.6382ZM62.2675 119.702C62.2675 128.73 55.5109 136.048 47.1763 136.048C38.8417 136.048 32.0852 128.73 32.0852 119.702C32.0852 110.674 38.8417 103.355 47.1763 103.355C55.5109 103.355 62.2675 110.674 62.2675 119.702ZM47.1763 177.459C55.5109 177.459 62.2675 170.141 62.2675 161.113C62.2675 152.085 55.5109 144.767 47.1763 144.767C38.8417 144.767 32.0852 152.085 32.0852 161.113C32.0852 170.141 38.8417 177.459 47.1763 177.459ZM64.2799 202.524C64.2799 211.552 57.5234 218.871 49.1888 218.871C40.8542 218.871 34.0977 211.552 34.0977 202.524C34.0977 193.496 40.8542 186.178 49.1888 186.178C57.5234 186.178 64.2799 193.496 64.2799 202.524ZM50.1951 260.281C58.5297 260.281 65.2862 252.962 65.2862 243.934C65.2862 234.906 58.5297 227.588 50.1951 227.588C41.8605 227.588 35.1039 234.906 35.1039 243.934C35.1039 252.962 41.8605 260.281 50.1951 260.281ZM134.704 36.154C134.704 45.1819 127.948 52.5005 119.613 52.5005C111.279 52.5005 104.522 45.1819 104.522 36.154C104.522 27.1262 111.279 19.8076 119.613 19.8076C127.948 19.8076 134.704 27.1262 134.704 36.154ZM120.956 93.9106C129.29 93.9106 136.047 86.5921 136.047 77.5642C136.047 68.5363 129.29 61.2178 120.956 61.2178C112.621 61.2178 105.864 68.5363 105.864 77.5642C105.864 86.5921 112.621 93.9106 120.956 93.9106ZM136.047 118.975C136.047 128.003 129.29 135.322 120.956 135.322C112.621 135.322 105.864 128.003 105.864 118.975C105.864 109.947 112.621 102.629 120.956 102.629C129.29 102.629 136.047 109.947 136.047 118.975ZM120.956 176.732C129.29 176.732 136.047 169.413 136.047 160.385C136.047 151.358 129.29 144.039 120.956 144.039C112.621 144.039 105.864 151.358 105.864 160.385C105.864 169.413 112.621 176.732 120.956 176.732ZM138.059 201.798C138.059 210.825 131.302 218.144 122.968 218.144C114.633 218.144 107.876 210.825 107.876 201.798C107.876 192.77 114.633 185.451 122.968 185.451C131.302 185.451 138.059 192.77 138.059 201.798ZM123.973 259.555C132.308 259.555 139.064 252.237 139.064 243.209C139.064 234.181 132.308 226.862 123.973 226.862C115.639 226.862 108.882 234.181 108.882 243.209C108.882 252.237 115.639 259.555 123.973 259.555ZM208.484 36.154C208.484 45.1819 201.728 52.5005 193.393 52.5005C185.058 52.5005 178.302 45.1819 178.302 36.154C178.302 27.1262 185.058 19.8076 193.393 19.8076C201.728 19.8076 208.484 27.1262 208.484 36.154ZM194.734 93.9106C203.069 93.9106 209.825 86.5921 209.825 77.5642C209.825 68.5363 203.069 61.2178 194.734 61.2178C186.4 61.2178 179.643 68.5363 179.643 77.5642C179.643 86.5921 186.4 93.9106 194.734 93.9106ZM209.825 118.975C209.825 128.003 203.069 135.322 194.734 135.322C186.4 135.322 179.643 128.003 179.643 118.975C179.643 109.947 186.4 102.629 194.734 102.629C203.069 102.629 209.825 109.947 209.825 118.975ZM194.734 176.732C203.069 176.732 209.825 169.413 209.825 160.385C209.825 151.358 203.069 144.039 194.734 144.039C186.4 144.039 179.643 151.358 179.643 160.385C179.643 169.413 186.4 176.732 194.734 176.732ZM211.837 201.798C211.837 210.825 205.081 218.144 196.746 218.144C188.412 218.144 181.655 210.825 181.655 201.798C181.655 192.77 188.412 185.451 196.746 185.451C205.081 185.451 211.837 192.77 211.837 201.798ZM197.752 259.555C206.087 259.555 212.844 252.237 212.844 243.209C212.844 234.181 206.087 226.862 197.752 226.862C189.418 226.862 182.661 234.181 182.661 243.209C182.661 252.237 189.418 259.555 197.752 259.555ZM97.8151 36.8806C97.8151 45.9085 91.0586 53.227 82.724 53.227C74.3894 53.227 67.6329 45.9085 67.6329 36.8806C67.6329 27.8527 74.3894 20.5342 82.724 20.5342C91.0586 20.5342 97.8151 27.8527 97.8151 36.8806ZM84.0662 94.6382C92.4008 94.6382 99.1573 87.3196 99.1573 78.2917C99.1573 69.2639 92.4008 61.9453 84.0662 61.9453C75.7316 61.9453 68.975 69.2639 68.975 78.2917C68.975 87.3196 75.7316 94.6382 84.0662 94.6382ZM99.1573 119.702C99.1573 128.73 92.4008 136.048 84.0662 136.048C75.7316 136.048 68.975 128.73 68.975 119.702C68.975 110.674 75.7316 103.355 84.0662 103.355C92.4008 103.355 99.1573 110.674 99.1573 119.702ZM84.0662 177.459C92.4008 177.459 99.1573 170.141 99.1573 161.113C99.1573 152.085 92.4008 144.767 84.0662 144.767C75.7316 144.767 68.975 152.085 68.975 161.113C68.975 170.141 75.7316 177.459 84.0662 177.459ZM101.169 202.524C101.169 211.552 94.4128 218.871 86.0782 218.871C77.7436 218.871 70.987 211.552 70.987 202.524C70.987 193.496 77.7436 186.178 86.0782 186.178C94.4128 186.178 101.169 193.496 101.169 202.524ZM87.0844 260.281C95.419 260.281 102.176 252.962 102.176 243.934C102.176 234.906 95.419 227.588 87.0844 227.588C78.7498 227.588 71.9933 234.906 71.9933 243.934C71.9933 252.962 78.7498 260.281 87.0844 260.281ZM171.594 36.154C171.594 45.1819 164.838 52.5005 156.503 52.5005C148.169 52.5005 141.412 45.1819 141.412 36.154C141.412 27.1262 148.169 19.8076 156.503 19.8076C164.838 19.8076 171.594 27.1262 171.594 36.154ZM157.844 93.9106C166.179 93.9106 172.935 86.5921 172.935 77.5642C172.935 68.5363 166.179 61.2178 157.844 61.2178C149.51 61.2178 142.753 68.5363 142.753 77.5642C142.753 86.5921 149.51 93.9106 157.844 93.9106ZM172.935 118.975C172.935 128.003 166.179 135.322 157.844 135.322C149.51 135.322 142.753 128.003 142.753 118.975C142.753 109.947 149.51 102.629 157.844 102.629C166.179 102.629 172.935 109.947 172.935 118.975ZM157.844 176.732C166.179 176.732 172.935 169.413 172.935 160.385C172.935 151.358 166.179 144.039 157.844 144.039C149.51 144.039 142.753 151.358 142.753 160.385C142.753 169.413 149.51 176.732 157.844 176.732ZM174.948 201.798C174.948 210.825 168.191 218.144 159.857 218.144C151.522 218.144 144.766 210.825 144.766 201.798C144.766 192.77 151.522 185.451 159.857 185.451C168.191 185.451 174.948 192.77 174.948 201.798ZM160.863 259.555C169.197 259.555 175.954 252.237 175.954 243.209C175.954 234.181 169.197 226.862 160.863 226.862C152.528 226.862 145.771 234.181 145.771 243.209C145.771 252.237 152.528 259.555 160.863 259.555ZM245.374 36.154C245.374 45.1819 238.617 52.5005 230.282 52.5005C221.948 52.5005 215.191 45.1819 215.191 36.154C215.191 27.1262 221.948 19.8076 230.282 19.8076C238.617 19.8076 245.374 27.1262 245.374 36.154ZM231.624 93.9106C239.958 93.9106 246.715 86.5921 246.715 77.5642C246.715 68.5363 239.958 61.2178 231.624 61.2178C223.289 61.2178 216.532 68.5363 216.532 77.5642C216.532 86.5921 223.289 93.9106 231.624 93.9106ZM246.715 118.975C246.715 128.003 239.958 135.322 231.624 135.322C223.289 135.322 216.532 128.003 216.532 118.975C216.532 109.947 223.289 102.629 231.624 102.629C239.958 102.629 246.715 109.947 246.715 118.975ZM231.624 176.732C239.958 176.732 246.715 169.413 246.715 160.385C246.715 151.358 239.958 144.039 231.624 144.039C223.289 144.039 216.532 151.358 216.532 160.385C216.532 169.413 223.289 176.732 231.624 176.732ZM248.727 201.798C248.727 210.825 241.971 218.144 233.636 218.144C225.301 218.144 218.545 210.825 218.545 201.798C218.545 192.77 225.301 185.451 233.636 185.451C241.971 185.451 248.727 192.77 248.727 201.798ZM234.642 259.555C242.976 259.555 249.733 252.237 249.733 243.209C249.733 234.181 242.976 226.862 234.642 226.862C226.307 226.862 219.551 234.181 219.551 243.209C219.551 252.237 226.307 259.555 234.642 259.555ZM282.263 35.4275C282.263 44.4554 275.506 51.7739 267.172 51.7739C258.837 51.7739 252.081 44.4554 252.081 35.4275C252.081 26.3996 258.837 19.0811 267.172 19.0811C275.506 19.0811 282.263 26.3996 282.263 35.4275ZM268.513 93.185C276.848 93.185 283.605 85.8665 283.605 76.8386C283.605 67.8107 276.848 60.4922 268.513 60.4922C260.179 60.4922 253.422 67.8107 253.422 76.8386C253.422 85.8665 260.179 93.185 268.513 93.185ZM283.605 118.248C283.605 127.276 276.848 134.594 268.513 134.594C260.179 134.594 253.422 127.276 253.422 118.248C253.422 109.22 260.179 101.901 268.513 101.901C276.848 101.901 283.605 109.22 283.605 118.248ZM268.513 176.006C276.848 176.006 283.605 168.688 283.605 159.66C283.605 150.632 276.848 143.313 268.513 143.313C260.179 143.313 253.422 150.632 253.422 159.66C253.422 168.688 260.179 176.006 268.513 176.006ZM285.617 201.072C285.617 210.1 278.86 217.418 270.525 217.418C262.191 217.418 255.434 210.1 255.434 201.072C255.434 192.044 262.191 184.726 270.525 184.726C278.86 184.726 285.617 192.044 285.617 201.072ZM271.532 258.829C279.866 258.829 286.623 251.51 286.623 242.482C286.623 233.454 279.866 226.136 271.532 226.136C263.197 226.136 256.441 233.454 256.441 242.482C256.441 251.51 263.197 258.829 271.532 258.829Z" fill="#EAE6E6"/>
<path d="M32 9C23.7157 9 17 15.7157 17 24H19C19 16.8203 24.8203 11 32 11V9ZM280 9H32V11H280V9ZM295 24C295 15.7157 288.284 9 280 9V11C287.18 11 293 16.8203 293 24H295ZM295 255V24H293V255H295ZM280 270C288.284 270 295 263.284 295 255H293C293 262.18 287.18 268 280 268V270ZM32 270H280V268H32V270ZM17 255C17 263.284 23.7157 270 32 270V268C24.8203 268 19 262.18 19 255H17ZM17 24V255H19V24H17ZM45.835 54.2268C54.7956 54.2268 61.9261 46.3839 61.9261 36.8804H59.9261C59.9261 45.4328 53.5436 52.2268 45.835 52.2268V54.2268ZM29.7438 36.8804C29.7438 46.3839 36.8744 54.2268 45.835 54.2268V52.2268C38.1264 52.2268 31.7438 45.4328 31.7438 36.8804H29.7438ZM45.835 19.534C36.8744 19.534 29.7438 27.377 29.7438 36.8804H31.7438C31.7438 28.3281 38.1264 21.534 45.835 21.534V19.534ZM61.9261 36.8804C61.9261 27.377 54.7956 19.534 45.835 19.534V21.534C53.5436 21.534 59.9261 28.3281 59.9261 36.8804H61.9261ZM61.2675 78.2917C61.2675 86.8441 54.8849 93.6382 47.1763 93.6382V95.6382C56.1369 95.6382 63.2675 87.7952 63.2675 78.2917H61.2675ZM47.1763 62.9453C54.8849 62.9453 61.2675 69.7394 61.2675 78.2917H63.2675C63.2675 68.7883 56.1369 60.9453 47.1763 60.9453V62.9453ZM33.0852 78.2917C33.0852 69.7394 39.4677 62.9453 47.1763 62.9453V60.9453C38.2157 60.9453 31.0852 68.7883 31.0852 78.2917H33.0852ZM47.1763 93.6382C39.4677 93.6382 33.0852 86.8441 33.0852 78.2917H31.0852C31.0852 87.7952 38.2157 95.6382 47.1763 95.6382V93.6382ZM47.1763 137.048C56.1369 137.048 63.2675 129.205 63.2675 119.702H61.2675C61.2675 128.254 54.8849 135.048 47.1763 135.048V137.048ZM31.0852 119.702C31.0852 129.205 38.2157 137.048 47.1763 137.048V135.048C39.4677 135.048 33.0852 128.254 33.0852 119.702H31.0852ZM47.1763 102.355C38.2157 102.355 31.0852 110.198 31.0852 119.702H33.0852C33.0852 111.15 39.4677 104.355 47.1763 104.355V102.355ZM63.2675 119.702C63.2675 110.198 56.1369 102.355 47.1763 102.355V104.355C54.8849 104.355 61.2675 111.15 61.2675 119.702H63.2675ZM61.2675 161.113C61.2675 169.665 54.8849 176.459 47.1763 176.459V178.459C56.1369 178.459 63.2675 170.616 63.2675 161.113H61.2675ZM47.1763 145.767C54.8849 145.767 61.2675 152.561 61.2675 161.113H63.2675C63.2675 151.61 56.1369 143.767 47.1763 143.767V145.767ZM33.0852 161.113C33.0852 152.561 39.4677 145.767 47.1763 145.767V143.767C38.2157 143.767 31.0852 151.61 31.0852 161.113H33.0852ZM47.1763 176.459C39.4677 176.459 33.0852 169.665 33.0852 161.113H31.0852C31.0852 170.616 38.2157 178.459 47.1763 178.459V176.459ZM49.1888 219.871C58.1494 219.871 65.2799 212.028 65.2799 202.524H63.2799C63.2799 211.076 56.8974 217.871 49.1888 217.871V219.871ZM33.0977 202.524C33.0977 212.028 40.2282 219.871 49.1888 219.871V217.871C41.4802 217.871 35.0977 211.076 35.0977 202.524H33.0977ZM49.1888 185.178C40.2282 185.178 33.0977 193.021 33.0977 202.524H35.0977C35.0977 193.972 41.4802 187.178 49.1888 187.178V185.178ZM65.2799 202.524C65.2799 193.021 58.1494 185.178 49.1888 185.178V187.178C56.8974 187.178 63.2799 193.972 63.2799 202.524H65.2799ZM64.2862 243.934C64.2862 252.487 57.9037 259.281 50.1951 259.281V261.281C59.1557 261.281 66.2862 253.438 66.2862 243.934H64.2862ZM50.1951 228.588C57.9037 228.588 64.2862 235.382 64.2862 243.934H66.2862C66.2862 234.431 59.1557 226.588 50.1951 226.588V228.588ZM36.1039 243.934C36.1039 235.382 42.4865 228.588 50.1951 228.588V226.588C41.2345 226.588 34.1039 234.431 34.1039 243.934H36.1039ZM50.1951 259.281C42.4865 259.281 36.1039 252.487 36.1039 243.934H34.1039C34.1039 253.438 41.2345 261.281 50.1951 261.281V259.281ZM119.613 53.5005C128.574 53.5005 135.704 45.6575 135.704 36.154H133.704C133.704 44.7064 127.322 51.5005 119.613 51.5005V53.5005ZM103.522 36.154C103.522 45.6575 110.653 53.5005 119.613 53.5005V51.5005C111.905 51.5005 105.522 44.7064 105.522 36.154H103.522ZM119.613 18.8076C110.653 18.8076 103.522 26.6506 103.522 36.154H105.522C105.522 27.6017 111.905 20.8076 119.613 20.8076V18.8076ZM135.704 36.154C135.704 26.6506 128.574 18.8076 119.613 18.8076V20.8076C127.322 20.8076 133.704 27.6017 133.704 36.154H135.704ZM135.047 77.5642C135.047 86.1165 128.664 92.9106 120.956 92.9106V94.9106C129.916 94.9106 137.047 87.0676 137.047 77.5642H135.047ZM120.956 62.2178C128.664 62.2178 135.047 69.0119 135.047 77.5642H137.047C137.047 68.0608 129.916 60.2178 120.956 60.2178V62.2178ZM106.864 77.5642C106.864 69.0119 113.247 62.2178 120.956 62.2178V60.2178C111.995 60.2178 104.864 68.0608 104.864 77.5642H106.864ZM120.956 92.9106C113.247 92.9106 106.864 86.1165 106.864 77.5642H104.864C104.864 87.0676 111.995 94.9106 120.956 94.9106V92.9106ZM120.956 136.322C129.916 136.322 137.047 128.479 137.047 118.975H135.047C135.047 127.528 128.664 134.322 120.956 134.322V136.322ZM104.864 118.975C104.864 128.479 111.995 136.322 120.956 136.322V134.322C113.247 134.322 106.864 127.528 106.864 118.975H104.864ZM120.956 101.629C111.995 101.629 104.864 109.472 104.864 118.975H106.864C106.864 110.423 113.247 103.629 120.956 103.629V101.629ZM137.047 118.975C137.047 109.472 129.916 101.629 120.956 101.629V103.629C128.664 103.629 135.047 110.423 135.047 118.975H137.047ZM135.047 160.385C135.047 168.938 128.664 175.732 120.956 175.732V177.732C129.916 177.732 137.047 169.889 137.047 160.385H135.047ZM120.956 145.039C128.664 145.039 135.047 151.833 135.047 160.385H137.047C137.047 150.882 129.916 143.039 120.956 143.039V145.039ZM106.864 160.385C106.864 151.833 113.247 145.039 120.956 145.039V143.039C111.995 143.039 104.864 150.882 104.864 160.385H106.864ZM120.956 175.732C113.247 175.732 106.864 168.938 106.864 160.385H104.864C104.864 169.889 111.995 177.732 120.956 177.732V175.732ZM122.968 219.144C131.928 219.144 139.059 211.301 139.059 201.798H137.059C137.059 210.35 130.676 217.144 122.968 217.144V219.144ZM106.876 201.798C106.876 211.301 114.007 219.144 122.968 219.144V217.144C115.259 217.144 108.876 210.35 108.876 201.798H106.876ZM122.968 184.451C114.007 184.451 106.876 192.294 106.876 201.798H108.876C108.876 193.245 115.259 186.451 122.968 186.451V184.451ZM139.059 201.798C139.059 192.294 131.928 184.451 122.968 184.451V186.451C130.676 186.451 137.059 193.245 137.059 201.798H139.059ZM138.064 243.209C138.064 251.761 131.682 258.555 123.973 258.555V260.555C132.934 260.555 140.064 252.712 140.064 243.209H138.064ZM123.973 227.862C131.682 227.862 138.064 234.656 138.064 243.209H140.064C140.064 233.705 132.934 225.862 123.973 225.862V227.862ZM109.882 243.209C109.882 234.656 116.265 227.862 123.973 227.862V225.862C115.013 225.862 107.882 233.705 107.882 243.209H109.882ZM123.973 258.555C116.265 258.555 109.882 251.761 109.882 243.209H107.882C107.882 252.712 115.013 260.555 123.973 260.555V258.555ZM193.393 53.5005C202.354 53.5005 209.484 45.6575 209.484 36.154H207.484C207.484 44.7064 201.102 51.5005 193.393 51.5005V53.5005ZM177.302 36.154C177.302 45.6575 184.432 53.5005 193.393 53.5005V51.5005C185.684 51.5005 179.302 44.7064 179.302 36.154H177.302ZM193.393 18.8076C184.432 18.8076 177.302 26.6506 177.302 36.154H179.302C179.302 27.6017 185.684 20.8076 193.393 20.8076V18.8076ZM209.484 36.154C209.484 26.6506 202.354 18.8076 193.393 18.8076V20.8076C201.102 20.8076 207.484 27.6017 207.484 36.154H209.484ZM208.825 77.5642C208.825 86.1165 202.443 92.9106 194.734 92.9106V94.9106C203.695 94.9106 210.825 87.0676 210.825 77.5642H208.825ZM194.734 62.2178C202.443 62.2178 208.825 69.0119 208.825 77.5642H210.825C210.825 68.0608 203.695 60.2178 194.734 60.2178V62.2178ZM180.643 77.5642C180.643 69.0119 187.026 62.2178 194.734 62.2178V60.2178C185.774 60.2178 178.643 68.0608 178.643 77.5642H180.643ZM194.734 92.9106C187.026 92.9106 180.643 86.1165 180.643 77.5642H178.643C178.643 87.0676 185.774 94.9106 194.734 94.9106V92.9106ZM194.734 136.322C203.695 136.322 210.825 128.479 210.825 118.975H208.825C208.825 127.528 202.443 134.322 194.734 134.322V136.322ZM178.643 118.975C178.643 128.479 185.774 136.322 194.734 136.322V134.322C187.026 134.322 180.643 127.528 180.643 118.975H178.643ZM194.734 101.629C185.774 101.629 178.643 109.472 178.643 118.975H180.643C180.643 110.423 187.026 103.629 194.734 103.629V101.629ZM210.825 118.975C210.825 109.472 203.695 101.629 194.734 101.629V103.629C202.443 103.629 208.825 110.423 208.825 118.975H210.825ZM208.825 160.385C208.825 168.938 202.443 175.732 194.734 175.732V177.732C203.695 177.732 210.825 169.889 210.825 160.385H208.825ZM194.734 145.039C202.443 145.039 208.825 151.833 208.825 160.385H210.825C210.825 150.882 203.695 143.039 194.734 143.039V145.039ZM180.643 160.385C180.643 151.833 187.026 145.039 194.734 145.039V143.039C185.774 143.039 178.643 150.882 178.643 160.385H180.643ZM194.734 175.732C187.026 175.732 180.643 168.938 180.643 160.385H178.643C178.643 169.889 185.774 177.732 194.734 177.732V175.732ZM196.746 219.144C205.707 219.144 212.837 211.301 212.837 201.798H210.837C210.837 210.35 204.455 217.144 196.746 217.144V219.144ZM180.655 201.798C180.655 211.301 187.786 219.144 196.746 219.144V217.144C189.038 217.144 182.655 210.35 182.655 201.798H180.655ZM196.746 184.451C187.786 184.451 180.655 192.294 180.655 201.798H182.655C182.655 193.245 189.038 186.451 196.746 186.451V184.451ZM212.837 201.798C212.837 192.294 205.707 184.451 196.746 184.451V186.451C204.455 186.451 210.837 193.245 210.837 201.798H212.837ZM211.844 243.209C211.844 251.761 205.461 258.555 197.752 258.555V260.555C206.713 260.555 213.844 252.712 213.844 243.209H211.844ZM197.752 227.862C205.461 227.862 211.844 234.656 211.844 243.209H213.844C213.844 233.705 206.713 225.862 197.752 225.862V227.862ZM183.661 243.209C183.661 234.656 190.044 227.862 197.752 227.862V225.862C188.792 225.862 181.661 233.705 181.661 243.209H183.661ZM197.752 258.555C190.044 258.555 183.661 251.761 183.661 243.209H181.661C181.661 252.712 188.792 260.555 197.752 260.555V258.555ZM82.724 54.227C91.6846 54.227 98.8151 46.384 98.8151 36.8806H96.8151C96.8151 45.4329 90.4326 52.227 82.724 52.227V54.227ZM66.6329 36.8806C66.6329 46.384 73.7634 54.227 82.724 54.227V52.227C75.0154 52.227 68.6329 45.4329 68.6329 36.8806H66.6329ZM82.724 19.5342C73.7634 19.5342 66.6329 27.3772 66.6329 36.8806H68.6329C68.6329 28.3283 75.0154 21.5342 82.724 21.5342V19.5342ZM98.8151 36.8806C98.8151 27.3772 91.6846 19.5342 82.724 19.5342V21.5342C90.4326 21.5342 96.8151 28.3283 96.8151 36.8806H98.8151ZM98.1573 78.2917C98.1573 86.8441 91.7747 93.6382 84.0662 93.6382V95.6382C93.0268 95.6382 100.157 87.7952 100.157 78.2917H98.1573ZM84.0662 62.9453C91.7747 62.9453 98.1573 69.7394 98.1573 78.2917H100.157C100.157 68.7883 93.0268 60.9453 84.0662 60.9453V62.9453ZM69.975 78.2917C69.975 69.7394 76.3576 62.9453 84.0662 62.9453V60.9453C75.1055 60.9453 67.975 68.7883 67.975 78.2917H69.975ZM84.0662 93.6382C76.3576 93.6382 69.975 86.8441 69.975 78.2917H67.975C67.975 87.7952 75.1055 95.6382 84.0662 95.6382V93.6382ZM84.0662 137.048C93.0268 137.048 100.157 129.205 100.157 119.702H98.1573C98.1573 128.254 91.7747 135.048 84.0662 135.048V137.048ZM67.975 119.702C67.975 129.205 75.1055 137.048 84.0662 137.048V135.048C76.3576 135.048 69.975 128.254 69.975 119.702H67.975ZM84.0662 102.355C75.1055 102.355 67.975 110.198 67.975 119.702H69.975C69.975 111.15 76.3576 104.355 84.0662 104.355V102.355ZM100.157 119.702C100.157 110.198 93.0268 102.355 84.0662 102.355V104.355C91.7747 104.355 98.1573 111.15 98.1573 119.702H100.157ZM98.1573 161.113C98.1573 169.665 91.7747 176.459 84.0662 176.459V178.459C93.0268 178.459 100.157 170.616 100.157 161.113H98.1573ZM84.0662 145.767C91.7747 145.767 98.1573 152.561 98.1573 161.113H100.157C100.157 151.61 93.0268 143.767 84.0662 143.767V145.767ZM69.975 161.113C69.975 152.561 76.3576 145.767 84.0662 145.767V143.767C75.1055 143.767 67.975 151.61 67.975 161.113H69.975ZM84.0662 176.459C76.3576 176.459 69.975 169.665 69.975 161.113H67.975C67.975 170.616 75.1055 178.459 84.0662 178.459V176.459ZM86.0782 219.871C95.0388 219.871 102.169 212.028 102.169 202.524H100.169C100.169 211.076 93.7868 217.871 86.0782 217.871V219.871ZM69.987 202.524C69.987 212.028 77.1175 219.871 86.0782 219.871V217.871C78.3696 217.871 71.987 211.076 71.987 202.524H69.987ZM86.0782 185.178C77.1175 185.178 69.987 193.021 69.987 202.524H71.987C71.987 193.972 78.3696 187.178 86.0782 187.178V185.178ZM102.169 202.524C102.169 193.021 95.0388 185.178 86.0782 185.178V187.178C93.7868 187.178 100.169 193.972 100.169 202.524H102.169ZM101.176 243.934C101.176 252.487 94.793 259.281 87.0844 259.281V261.281C96.045 261.281 103.176 253.438 103.176 243.934H101.176ZM87.0844 228.588C94.793 228.588 101.176 235.382 101.176 243.934H103.176C103.176 234.431 96.045 226.588 87.0844 226.588V228.588ZM72.9933 243.934C72.9933 235.382 79.3758 228.588 87.0844 228.588V226.588C78.1238 226.588 70.9933 234.431 70.9933 243.934H72.9933ZM87.0844 259.281C79.3758 259.281 72.9933 252.487 72.9933 243.934H70.9933C70.9933 253.438 78.1238 261.281 87.0844 261.281V259.281ZM156.503 53.5005C165.464 53.5005 172.594 45.6575 172.594 36.154H170.594C170.594 44.7064 164.212 51.5005 156.503 51.5005V53.5005ZM140.412 36.154C140.412 45.6575 147.543 53.5005 156.503 53.5005V51.5005C148.795 51.5005 142.412 44.7064 142.412 36.154H140.412ZM156.503 18.8076C147.543 18.8076 140.412 26.6506 140.412 36.154H142.412C142.412 27.6017 148.795 20.8076 156.503 20.8076V18.8076ZM172.594 36.154C172.594 26.6506 165.464 18.8076 156.503 18.8076V20.8076C164.212 20.8076 170.594 27.6017 170.594 36.154H172.594ZM171.935 77.5642C171.935 86.1165 165.553 92.9106 157.844 92.9106V94.9106C166.805 94.9106 173.935 87.0676 173.935 77.5642H171.935ZM157.844 62.2178C165.553 62.2178 171.935 69.0119 171.935 77.5642H173.935C173.935 68.0608 166.805 60.2178 157.844 60.2178V62.2178ZM143.753 77.5642C143.753 69.0119 150.136 62.2178 157.844 62.2178V60.2178C148.884 60.2178 141.753 68.0608 141.753 77.5642H143.753ZM157.844 92.9106C150.136 92.9106 143.753 86.1165 143.753 77.5642H141.753C141.753 87.0676 148.884 94.9106 157.844 94.9106V92.9106ZM157.844 136.322C166.805 136.322 173.935 128.479 173.935 118.975H171.935C171.935 127.528 165.553 134.322 157.844 134.322V136.322ZM141.753 118.975C141.753 128.479 148.884 136.322 157.844 136.322V134.322C150.136 134.322 143.753 127.528 143.753 118.975H141.753ZM157.844 101.629C148.884 101.629 141.753 109.472 141.753 118.975H143.753C143.753 110.423 150.136 103.629 157.844 103.629V101.629ZM173.935 118.975C173.935 109.472 166.805 101.629 157.844 101.629V103.629C165.553 103.629 171.935 110.423 171.935 118.975H173.935ZM171.935 160.385C171.935 168.938 165.553 175.732 157.844 175.732V177.732C166.805 177.732 173.935 169.889 173.935 160.385H171.935ZM157.844 145.039C165.553 145.039 171.935 151.833 171.935 160.385H173.935C173.935 150.882 166.805 143.039 157.844 143.039V145.039ZM143.753 160.385C143.753 151.833 150.136 145.039 157.844 145.039V143.039C148.884 143.039 141.753 150.882 141.753 160.385H143.753ZM157.844 175.732C150.136 175.732 143.753 168.938 143.753 160.385H141.753C141.753 169.889 148.884 177.732 157.844 177.732V175.732ZM159.857 219.144C168.817 219.144 175.948 211.301 175.948 201.798H173.948C173.948 210.35 167.565 217.144 159.857 217.144V219.144ZM143.766 201.798C143.766 211.301 150.896 219.144 159.857 219.144V217.144C152.148 217.144 145.766 210.35 145.766 201.798H143.766ZM159.857 184.451C150.896 184.451 143.766 192.294 143.766 201.798H145.766C145.766 193.245 152.148 186.451 159.857 186.451V184.451ZM175.948 201.798C175.948 192.294 168.817 184.451 159.857 184.451V186.451C167.565 186.451 173.948 193.245 173.948 201.798H175.948ZM174.954 243.209C174.954 251.761 168.571 258.555 160.863 258.555V260.555C169.823 260.555 176.954 252.712 176.954 243.209H174.954ZM160.863 227.862C168.571 227.862 174.954 234.656 174.954 243.209H176.954C176.954 233.705 169.823 225.862 160.863 225.862V227.862ZM146.771 243.209C146.771 234.656 153.154 227.862 160.863 227.862V225.862C151.902 225.862 144.771 233.705 144.771 243.209H146.771ZM160.863 258.555C153.154 258.555 146.771 251.761 146.771 243.209H144.771C144.771 252.712 151.902 260.555 160.863 260.555V258.555ZM230.282 53.5005C239.243 53.5005 246.374 45.6575 246.374 36.154H244.374C244.374 44.7064 237.991 51.5005 230.282 51.5005V53.5005ZM214.191 36.154C214.191 45.6575 221.322 53.5005 230.282 53.5005V51.5005C222.574 51.5005 216.191 44.7064 216.191 36.154H214.191ZM230.282 18.8076C221.322 18.8076 214.191 26.6506 214.191 36.154H216.191C216.191 27.6017 222.574 20.8076 230.282 20.8076V18.8076ZM246.374 36.154C246.374 26.6506 239.243 18.8076 230.282 18.8076V20.8076C237.991 20.8076 244.374 27.6017 244.374 36.154H246.374ZM245.715 77.5642C245.715 86.1165 239.332 92.9106 231.624 92.9106V94.9106C240.584 94.9106 247.715 87.0676 247.715 77.5642H245.715ZM231.624 62.2178C239.332 62.2178 245.715 69.0119 245.715 77.5642H247.715C247.715 68.0608 240.584 60.2178 231.624 60.2178V62.2178ZM217.532 77.5642C217.532 69.0119 223.915 62.2178 231.624 62.2178V60.2178C222.663 60.2178 215.532 68.0608 215.532 77.5642H217.532ZM231.624 92.9106C223.915 92.9106 217.532 86.1165 217.532 77.5642H215.532C215.532 87.0676 222.663 94.9106 231.624 94.9106V92.9106ZM231.624 136.322C240.584 136.322 247.715 128.479 247.715 118.975H245.715C245.715 127.528 239.332 134.322 231.624 134.322V136.322ZM215.532 118.975C215.532 128.479 222.663 136.322 231.624 136.322V134.322C223.915 134.322 217.532 127.528 217.532 118.975H215.532ZM231.624 101.629C222.663 101.629 215.532 109.472 215.532 118.975H217.532C217.532 110.423 223.915 103.629 231.624 103.629V101.629ZM247.715 118.975C247.715 109.472 240.584 101.629 231.624 101.629V103.629C239.332 103.629 245.715 110.423 245.715 118.975H247.715ZM245.715 160.385C245.715 168.938 239.332 175.732 231.624 175.732V177.732C240.584 177.732 247.715 169.889 247.715 160.385H245.715ZM231.624 145.039C239.332 145.039 245.715 151.833 245.715 160.385H247.715C247.715 150.882 240.584 143.039 231.624 143.039V145.039ZM217.532 160.385C217.532 151.833 223.915 145.039 231.624 145.039V143.039C222.663 143.039 215.532 150.882 215.532 160.385H217.532ZM231.624 175.732C223.915 175.732 217.532 168.938 217.532 160.385H215.532C215.532 169.889 222.663 177.732 231.624 177.732V175.732ZM233.636 219.144C242.597 219.144 249.727 211.301 249.727 201.798H247.727C247.727 210.35 241.345 217.144 233.636 217.144V219.144ZM217.545 201.798C217.545 211.301 224.675 219.144 233.636 219.144V217.144C225.927 217.144 219.545 210.35 219.545 201.798H217.545ZM233.636 184.451C224.675 184.451 217.545 192.294 217.545 201.798H219.545C219.545 193.245 225.927 186.451 233.636 186.451V184.451ZM249.727 201.798C249.727 192.294 242.597 184.451 233.636 184.451V186.451C241.345 186.451 247.727 193.245 247.727 201.798H249.727ZM248.733 243.209C248.733 251.761 242.35 258.555 234.642 258.555V260.555C243.602 260.555 250.733 252.712 250.733 243.209H248.733ZM234.642 227.862C242.35 227.862 248.733 234.656 248.733 243.209H250.733C250.733 233.705 243.602 225.862 234.642 225.862V227.862ZM220.551 243.209C220.551 234.656 226.933 227.862 234.642 227.862V225.862C225.681 225.862 218.551 233.705 218.551 243.209H220.551ZM234.642 258.555C226.933 258.555 220.551 251.761 220.551 243.209H218.551C218.551 252.712 225.681 260.555 234.642 260.555V258.555ZM267.172 52.7739C276.132 52.7739 283.263 44.9309 283.263 35.4275H281.263C281.263 43.9798 274.88 50.7739 267.172 50.7739V52.7739ZM251.081 35.4275C251.081 44.9309 258.211 52.7739 267.172 52.7739V50.7739C259.463 50.7739 253.081 43.9798 253.081 35.4275H251.081ZM267.172 18.0811C258.211 18.0811 251.081 25.924 251.081 35.4275H253.081C253.081 26.8751 259.463 20.0811 267.172 20.0811V18.0811ZM283.263 35.4275C283.263 25.924 276.132 18.0811 267.172 18.0811V20.0811C274.88 20.0811 281.263 26.8751 281.263 35.4275H283.263ZM282.605 76.8386C282.605 85.3909 276.222 92.185 268.513 92.185V94.185C277.474 94.185 284.605 86.342 284.605 76.8386H282.605ZM268.513 61.4922C276.222 61.4922 282.605 68.2863 282.605 76.8386H284.605C284.605 67.3352 277.474 59.4922 268.513 59.4922V61.4922ZM254.422 76.8386C254.422 68.2863 260.805 61.4922 268.513 61.4922V59.4922C259.553 59.4922 252.422 67.3352 252.422 76.8386H254.422ZM268.513 92.185C260.805 92.185 254.422 85.3909 254.422 76.8386H252.422C252.422 86.342 259.553 94.185 268.513 94.185V92.185ZM268.513 135.594C277.474 135.594 284.605 127.751 284.605 118.248H282.605C282.605 126.8 276.222 133.594 268.513 133.594V135.594ZM252.422 118.248C252.422 127.751 259.553 135.594 268.513 135.594V133.594C260.805 133.594 254.422 126.8 254.422 118.248H252.422ZM268.513 100.901C259.553 100.901 252.422 108.744 252.422 118.248H254.422C254.422 109.695 260.805 102.901 268.513 102.901V100.901ZM284.605 118.248C284.605 108.744 277.474 100.901 268.513 100.901V102.901C276.222 102.901 282.605 109.695 282.605 118.248H284.605ZM282.605 159.66C282.605 168.212 276.222 175.006 268.513 175.006V177.006C277.474 177.006 284.605 169.163 284.605 159.66H282.605ZM268.513 144.313C276.222 144.313 282.605 151.108 282.605 159.66H284.605C284.605 150.156 277.474 142.313 268.513 142.313V144.313ZM254.422 159.66C254.422 151.108 260.805 144.313 268.513 144.313V142.313C259.553 142.313 252.422 150.156 252.422 159.66H254.422ZM268.513 175.006C260.805 175.006 254.422 168.212 254.422 159.66H252.422C252.422 169.163 259.553 177.006 268.513 177.006V175.006ZM270.525 218.418C279.486 218.418 286.617 210.575 286.617 201.072H284.617C284.617 209.624 278.234 216.418 270.525 216.418V218.418ZM254.434 201.072C254.434 210.575 261.565 218.418 270.525 218.418V216.418C262.817 216.418 256.434 209.624 256.434 201.072H254.434ZM270.525 183.726C261.565 183.726 254.434 191.569 254.434 201.072H256.434C256.434 192.52 262.817 185.726 270.525 185.726V183.726ZM286.617 201.072C286.617 191.569 279.486 183.726 270.525 183.726V185.726C278.234 185.726 284.617 192.52 284.617 201.072H286.617ZM285.623 242.482C285.623 251.034 279.24 257.829 271.532 257.829V259.829C280.492 259.829 287.623 251.986 287.623 242.482H285.623ZM271.532 227.136C279.24 227.136 285.623 233.93 285.623 242.482H287.623C287.623 232.979 280.492 225.136 271.532 225.136V227.136ZM257.441 242.482C257.441 233.93 263.823 227.136 271.532 227.136V225.136C262.571 225.136 255.441 232.979 255.441 242.482H257.441ZM271.532 257.829C263.823 257.829 257.441 251.034 257.441 242.482H255.441C255.441 251.986 262.571 259.829 271.532 259.829V257.829Z" fill="black" mask="url(#path-1-inside-1_2548_2511)"/>
</g>
<defs>
<filter id="filter0_dd_2548_2511" x="0" y="0" width="312" height="295" filterUnits="userSpaceOnUse" color-interpolation-filters="sRGB">
<feFlood flood-opacity="0" result="BackgroundImageFix"/>
<feColorMatrix in="SourceAlpha" type="matrix" values="0 0 0 0 0 0 0 0 0 0 0 0 0 0 0 0 0 0 127 0" result="hardAlpha"/>
<feOffset dy="4"/>
<feGaussianBlur stdDeviation="2"/>
<feColorMatrix type="matrix" values="0 0 0 0 0 0 0 0 0 0 0 0 0 0 0 0 0 0 0.3 0"/>
<feBlend mode="normal" in2="BackgroundImageFix" result="effect1_dropShadow_2548_2511"/>
<feColorMatrix in="SourceAlpha" type="matrix" values="0 0 0 0 0 0 0 0 0 0 0 0 0 0 0 0 0 0 127 0" result="hardAlpha"/>
<feMorphology radius="6" operator="dilate" in="SourceAlpha" result="effect2_dropShadow_2548_2511"/>
<feOffset dy="8"/>
<feGaussianBlur stdDeviation="6"/>
<feColorMatrix type="matrix" values="0 0 0 0 0 0 0 0 0 0 0 0 0 0 0 0 0 0 0.15 0"/>
<feBlend mode="normal" in2="effect1_dropShadow_2548_2511" result="effect2_dropShadow_2548_2511"/>
<feBlend mode="normal" in="SourceGraphic" in2="effect2_dropShadow_2548_2511" result="shape"/>
</filter>
</defs>
</svg>
