<svg width="40" height="40" viewBox="0 0 40 40" fill="none" xmlns="http://www.w3.org/2000/svg">
<path fill-rule="evenodd" clip-rule="evenodd" d="M20 36C16.2141 36 12.7353 34.6851 9.99536 32.487C9.99691 32.4883 9.99845 32.4895 10 32.4907V31.125C10 27.5351 12.9848 24.625 16.6667 24.625H23.3333C27.0152 24.625 30 27.5351 30 31.125V32.4907C27.2608 34.6866 23.7838 36 20 36ZM0 20C0 8.95431 8.95431 0 20 0C31.0457 0 40 8.95431 40 20C40 31.0007 31.1185 39.927 20.1349 39.9996C20.09 39.9999 20.045 40 20 40C19.9527 40 19.9054 39.9998 19.8582 39.9995C8.87778 39.9233 0 30.9984 0 20ZM20 10C16.3181 10 13.3333 12.9101 13.3333 16.5C13.3333 20.0899 16.3181 23 20 23C23.6819 23 26.6667 20.0899 26.6667 16.5C26.6667 12.9101 23.6819 10 20 10Z" fill="white"/>
</svg>
