<svg width="38" height="38" viewBox="0 0 35 40" fill="none" xmlns="http://www.w3.org/2000/svg">
<path d="M11.9078 37.2399V31.1925C11.9078 29.6488 13.0518 28.3973 14.4629 28.3973H19.6213C20.299 28.3973 20.9489 28.6918 21.4281 29.216C21.9073 29.7402 22.1764 30.4512 22.1764 31.1925V37.2399C22.1722 37.8817 22.4022 38.4988 22.8156 38.9543C23.2289 39.4098 23.7913 39.666 24.378 39.666H27.8973C29.541 39.6706 31.1188 38.9596 32.2825 37.6898C33.4463 36.42 34.1003 34.6958 34.1003 32.8977V15.6696C34.1003 14.2171 33.5118 12.8394 32.4933 11.9075L20.5213 1.44754C18.4387 -0.386444 15.4548 -0.327229 13.4344 1.58818L1.73555 11.9075C0.668977 12.8119 0.031502 14.1937 0 15.6696V32.8801C0 36.6278 2.77717 39.666 6.20298 39.666H9.64193C10.8605 39.666 11.8507 38.5905 11.8596 37.2575L11.9078 37.2399Z" fill="white"/>
</svg>
